<svg xmlns="http://www.w3.org/2000/svg" viewBox="0 0 366.04 366.04"><defs><style>.cls-1{fill:#ffed00;}</style></defs><title>audiovisuales</title><g id="Capa_2" data-name="Capa 2"><g id="Capa_1-2" data-name="Capa 1"><rect class="cls-1" width="366.04" height="366.04" rx="61.96" ry="61.96"/><path d="M75.16,179.09c-6.19,0-11.89-.09-17.59.1-.88,0-2,1.17-2.53,2.07-2.86,4.86-10.44,7.71-15.34,4.9a8.73,8.73,0,0,1-3.79-6.31c-.29-19.44-.16-38.89-.19-58.33,0-3,1.47-4.4,4.3-4.57,6.5-.41,12.82-.59,15.37,7.44.25.81,2.48,1.39,3.8,1.4,15.25.12,30.5.09,45.75.12,16.16,0,24.81,6.66,29.18,22.11a4.11,4.11,0,0,0,3,2.41c7.54.21,15.1.14,22.66.06a4.42,4.42,0,0,0,2.56-1c5.44-4.38,6.22-10.22,4.79-17.19H158.7a58.47,58.47,0,0,1-3.93-6.2c-.56-1.21-1.11-3.49-.54-4,2.12-1.83,3.64-4.3,7.39-4.24,18.18.31,36.37.11,54.55.2,2.42,0,3.73-.39,4.38-3.11,1.11-4.65,4.73-7,9.29-7.1,12.17-.2,24.35-.39,36.5,0,9.48.34,16.44,9,16.23,19-.19,9.2-7.77,17.41-16.93,17.65-11.46.3-22.94.19-34.41,0-5.31-.07-9.5-3.79-10.76-9.5-.54-2.42-1.52-3.16-3.92-3.08-5.29.16-10.59,0-16.54,0,0,4-.15,7.71.07,11.4.1,1.83,7.11,7,9,7,12.85-.12,11.56-.24,11.58,11.63,0,1.09.14,2.18.21,3.21,8.48,2.12,15.26.83,17.72-7.45h21.8l.74,7.75h5.33c.12-2.29.24-4.49.38-7.06h23.27c.12,2.43.25,4.87.38,7.26,4.46,1.15,7.18-1.26,8.31-7.34l5.61-.54V144.11h14.25c1.36-5.24,4.6-7.17,9.27-5.27,1.2.49,2.25,3,2.26,4.55.16,21.13.12,42.25.12,63.38,0,14.41,0,28.82,0,43.23,0,5.6-2.5,7.9-7.31,7.05-.54-.1-1.32-.14-1.56-.49-3.79-5.68-9.62-3.28-14.71-3.81-.54-.06-1.07-.18-2.17-.36V238.21l-5.44-.4c-1.54-2.69-3.05-5.31-4.85-8.44-3.09-.88-3.09-.88-4.33,8.27H266.85c-.11-2.31-.21-4.5-.33-7h-5.47c-.14,2.3-.27,4.49-.44,7.29-6.26,0-12.5.06-18.74-.08-.71,0-1.6-.93-2.06-1.66-3.19-5-7.42-7.38-13.87-5.33-.07,3.72-.18,7.77-4.88,9.69-.67.27-.38,3.13-.38,4.79,0,13.17,0,13.06-12.93,13q-59.59-.07-119.19,0c-2,0-3.92,0-5.88-.05-5.7-.12-7.5-1.91-7.51-7.58q0-26.44,0-52.88Zm89.77,18.11h0c0-10.76,0-21.53,0-32.29,0-2.77-.63-4.57-3.91-4.57q-31.23.1-62.46.06c-3,0-4.27,1.36-4.21,4.36.11,5.31,0,10.62,0,15.93,0,15.79,0,31.58,0,47.37,0,6.23,1.91,8,8,8q26.84,0,53.66,0c7.74,0,8.78-1.08,8.8-9.06C165,217,164.93,207.12,164.93,197.2Zm13.68-12.86c0,11.91-.16,23.47.1,35,.08,3.28,2.42,5.08,6,5,9.91-.09,19.83-.05,29.75-.06,5.16,0,6.33-1.15,6.37-6.42,0-6.29,0-12.57,0-18.86V184.34Zm-2.91-51.9c-1.65,6.72-.76,12.44,4.09,17.23,1.58,1.56,6.7,1,8.12-.61,4.34-4.92,3.63-10.59,3-16.62Zm77.49,49h0c0-3.78.23-7.58-.13-11.32-.12-1.24-1.73-2.34-2.66-3.51-1,1.16-2.71,2.29-2.75,3.49q-.41,11.52-.05,23.07c0,1.19,1.78,2.34,2.73,3.51.94-1.16,2.58-2.26,2.69-3.5C253.42,189.31,253.19,185.37,253.19,181.46Zm15.08,45.24h21.3V222c-6.06,0-11.88.17-17.69-.06C268.39,221.77,267.29,223.05,268.27,226.7Zm.27-53.62c6.17,0,12.42.09,18.65-.11.91,0,1.77-1.46,2.64-2.24-.91-.73-1.8-2-2.74-2.07-5.29-.21-10.59,0-15.88-.15C267.93,168.45,267.41,170,268.54,173.08Zm-.38,21.76c6.6,0,13,.08,19.37-.09a2.17,2.17,0,0,0,0-4.34c-6.38-.17-12.77-.1-19.38-.1ZM268,184h21.52c.76-2.91,0-4.16-2.92-4.09-5.69.14-11.39.08-17.09.13a5.22,5.22,0,0,0-1.34.42C268.14,181.5,268.09,182.57,268,184Zm.39,32.37c6.46,0,12.72.08,19-.09.82,0,1.6-1.29,2.4-2-.91-.75-1.79-2.1-2.73-2.13-5.43-.2-10.87,0-16.31-.11C267.77,212,267.57,213.53,268.41,216.35Zm10.33-15.57c-2.8,0-5.6-.16-8.37.1-.83.08-1.56,1.32-2.33,2,.76.59,1.5,1.68,2.28,1.7,5.72.15,11.44.16,17.16,0,.79,0,1.55-1.34,2.32-2.06-.76-.58-1.48-1.62-2.28-1.67C284.61,200.66,281.67,200.78,278.74,200.78Zm-92.87-21.63v0c.69,0,1.39,0,2.08,0,2.23.14,4-.55,4-3.05s-1.65-3.26-3.91-3.17c-1.81.07-3.75-.37-5.37.17a5,5,0,0,0-2.87,3.14c-.15.75,1.6,2.18,2.77,2.79C183.46,179.51,184.76,179.15,185.87,179.15Zm14.25,0c.69,0,1.39,0,2.08,0,2.23.14,3.93-.52,4-3.05s-1.62-3.23-3.87-3.17c-1.8.06-3.73-.41-5.35.13a4.91,4.91,0,0,0-2.87,3.17c-.15.77,1.59,2.2,2.75,2.82C197.71,179.54,199,179.17,200.12,179.17Zm14.42,0v0c.83,0,1.86.31,2.46-.07a30.24,30.24,0,0,0,3.58-3c-1.19-1-2.25-2.59-3.61-3a13.77,13.77,0,0,0-6.19,0c-1,.22-2.44,1.86-2.35,2.72a4.9,4.9,0,0,0,2.42,3.17C211.81,179.56,213.29,179.14,214.54,179.14Z"/><path d="M216.47,219.23h-32.4V202.8h32.4Z"/><path d="M188,199.25c-1.65-2.55-3.48-4.15-3.27-5.4s2.35-2.42,3.65-3.6c1.17,1.29,3.18,2.52,3.28,3.88S189.8,196.85,188,199.25Z"/><path d="M205.4,194c-2.51,1.7-4.05,3.55-5.28,3.36-1.4-.21-2.51-2.25-3.75-3.49,1.27-1.22,2.44-3.25,3.84-3.42C201.44,190.33,202.93,192.25,205.4,194Z"/><path d="M212.07,199.36c-1.76-2.65-3.62-4.21-3.43-5.47s2.21-3.12,3.65-3.36c.92-.15,3.12,2.09,3.17,3.33S213.81,196.71,212.07,199.36Z"/></g></g></svg>