<?xml version="1.0" encoding="utf-8"?>
<!-- Generator: Adobe Illustrator 22.1.0, SVG Export Plug-In . SVG Version: 6.00 Build 0)  -->
<svg version="1.1" id="Capa_1" xmlns="http://www.w3.org/2000/svg" xmlns:xlink="http://www.w3.org/1999/xlink" x="0px" y="0px"
	 viewBox="0 0 21.9 21.9" style="enable-background:new 0 0 21.9 21.9;" xml:space="preserve">
<style type="text/css">
	.st0{fill:#8FC40C;}
</style>
<title>btn_yout</title>
<g id="Capa_2_1_">
	<g id="Capa_1-2">
		<path class="st0" d="M9.1,8.5l4.9,2.4l-4.9,2.4V8.5z M21.9,4.6v12.8c0,2.5-2,4.6-4.6,4.6H4.6c-2.5,0-4.6-2-4.6-4.6V4.6
			C0,2,2,0,4.6,0h12.8C19.8,0,21.9,2,21.9,4.6z M18.2,10.9c0-3.8-0.3-5.2-2.7-5.4c-2.2-0.2-7.1-0.2-9.3,0c-2.4,0.2-2.6,1.6-2.7,5.4
			s0.3,5.2,2.7,5.4c2.2,0.1,7.1,0.1,9.3,0C17.9,16.1,18.2,14.7,18.2,10.9z"/>
	</g>
</g>
</svg>
