<?xml version="1.0" encoding="utf-8"?>
<!-- Generator: Adobe Illustrator 22.1.0, SVG Export Plug-In . SVG Version: 6.00 Build 0)  -->
<svg version="1.1" id="Capa_1" xmlns="http://www.w3.org/2000/svg" xmlns:xlink="http://www.w3.org/1999/xlink" x="0px" y="0px"
	 viewBox="0 0 21.9 21.9" style="enable-background:new 0 0 21.9 21.9;" xml:space="preserve">
<style type="text/css">
	.st0{fill:#8FC40C;}
</style>
<title>btn_face</title>
<g id="Capa_2_1_">
	<g id="Capa_1-2">
		<path class="st0" d="M20.7,0H1.2C0.5,0,0,0.5,0,1.2v19.5c0,0.7,0.5,1.2,1.2,1.2h10.5v-8.5H8.8v-3.3h2.9V7.7
			c-0.2-2.2,1.4-4.1,3.6-4.4c0.2,0,0.4,0,0.6,0c0.9,0,1.7,0,2.5,0.1v2.9h-1.8c-1.4,0-1.6,0.6-1.6,1.6v2.1h3.3l-0.4,3.3h-2.8v8.5h5.6
			c0.7,0,1.2-0.5,1.2-1.2V1.2C21.9,0.5,21.3,0,20.7,0C20.7,0,20.7,0,20.7,0z"/>
	</g>
</g>
</svg>
