<?xml version="1.0" encoding="utf-8"?>
<!-- Generator: Adobe Illustrator 22.1.0, SVG Export Plug-In . SVG Version: 6.00 Build 0)  -->
<svg version="1.1" id="Capa_1" xmlns="http://www.w3.org/2000/svg" xmlns:xlink="http://www.w3.org/1999/xlink" x="0px" y="0px"
	 viewBox="0 0 21.9 21.9" style="enable-background:new 0 0 21.9 21.9;" xml:space="preserve">
<style type="text/css">
	.st0{fill:#8FC40C;}
</style>
<title>btn_insta</title>
<g id="Capa_2_1_">
	<g id="Capa_1-2">
		<path class="st0" d="M13.9,5c-0.8,0-1,0-3,0S8.8,5,8,5C6.5,4.8,5.2,5.9,5,7.5C5,7.6,5,7.8,5,8C5,8.8,5,9,5,11s0,2.2,0,3
			c-0.2,1.5,0.9,2.8,2.5,3c0.2,0,0.4,0,0.5,0c0.8,0,1,0,2.9,0s2.2,0,3,0c1.5,0.2,2.8-0.9,3-2.5c0-0.2,0-0.4,0-0.5c0-0.8,0-1,0-3
			s0-2.2,0-2.9C16.8,6,15.9,5.1,13.9,5z M10.9,14.7c-2.1,0-3.8-1.7-3.8-3.8s1.7-3.8,3.8-3.8s3.8,1.7,3.8,3.8
			C14.6,13,13,14.7,10.9,14.7L10.9,14.7z M14.8,7.9c-0.5,0-0.9-0.4-0.9-0.9s0.4-0.9,0.9-0.9c0.5,0,0.9,0.4,0.9,0.9c0,0,0,0,0,0
			C15.7,7.5,15.3,7.9,14.8,7.9L14.8,7.9z M13.3,10.9c0,1.3-1.1,2.4-2.4,2.4c-1.3,0-2.4-1.1-2.4-2.4c0-1.3,1.1-2.4,2.4-2.4
			C12.2,8.5,13.3,9.5,13.3,10.9C13.4,10.9,13.4,10.9,13.3,10.9L13.3,10.9z M17.3,0H4.6C2,0,0,2,0,4.6v12.8c0,2.5,2,4.6,4.6,4.6h12.8
			c2.5,0,4.6-2,4.6-4.6V4.6C21.9,2,19.8,0,17.3,0z M18.2,14c0.1,2.2-1.6,4.1-3.8,4.2c-0.1,0-0.3,0-0.4,0c-0.8,0-1,0-3,0s-2.2,0-3,0
			c-2.2,0.2-4.1-1.5-4.3-3.7c0-0.2,0-0.3,0-0.5c0-0.8,0-1,0-3s0-2.2,0-3C3.5,5.8,5.2,3.9,7.4,3.7c0.2,0,0.4,0,0.6,0c0.8,0,1,0,3,0
			s2.2,0,3,0c2.2-0.1,4.1,1.5,4.2,3.7c0,0.2,0,0.3,0,0.5c0,0.8,0,1,0,3S18.2,13.2,18.2,14z"/>
	</g>
</g>
</svg>
