<svg xmlns="http://www.w3.org/2000/svg" xmlns:xlink="http://www.w3.org/1999/xlink" viewBox="0 0 108.97 96.21"><defs><style>.cls-1{fill:#6b6b6b;}.cls-2{clip-path:url(#clip-path);}.cls-3{clip-path:url(#clip-path-2);}</style><clipPath id="clip-path"><path class="cls-1" d="M46.55,21.25A54,54,0,0,0,40.6,22a27.16,27.16,0,0,0-5.06,1.41,14,14,0,0,0-3.92,2.2,9.59,9.59,0,0,0-2.54,3.18A9.48,9.48,0,0,0,28.19,33a7.07,7.07,0,0,0,.4,2.4,5.91,5.91,0,0,0,1.19,2,5.47,5.47,0,0,0,1.9,1.31,6.32,6.32,0,0,0,2.49.48A5.77,5.77,0,0,0,36,38.89a4.57,4.57,0,0,0,1.61-.83,4.29,4.29,0,0,0,1.16-1.4,4.16,4.16,0,0,0,.45-2A3.3,3.3,0,0,0,39,33.29a3.12,3.12,0,0,0-.55-.92,2.07,2.07,0,0,0-.73-.5,1.83,1.83,0,0,0-.73-.15,1.25,1.25,0,0,0-.78.24l-.7.52a8.38,8.38,0,0,1-.83.52,2.54,2.54,0,0,1-1.2.24,1.74,1.74,0,0,1-.47-.07,1.38,1.38,0,0,1-.66-.35,2.07,2.07,0,0,1-.55-.82,3.57,3.57,0,0,1-.26-1.48,4.18,4.18,0,0,1,.84-2.47,7.89,7.89,0,0,1,2.16-2,12,12,0,0,1,3-1.3,11.81,11.81,0,0,1,3.23-.48c1.46,0,2.19.54,2.19,1.6V60.5A4.14,4.14,0,0,0,44,63.75a5.39,5.39,0,0,0,3.58,1,5.44,5.44,0,0,0,3.59-1,4.14,4.14,0,0,0,1.16-3.25v-17a2.58,2.58,0,0,1,2.16,1c.47.8.79,1.37,1.1,1.93V41.74H54.54a2.18,2.18,0,0,1-2.18-2.18v-.15l.43-12.11h0a3.93,3.93,0,0,1,7.85,0l.43,12.11v.15a2.18,2.18,0,0,1-2.17,2.18H57.81v7.62a1.09,1.09,0,0,1-.27.72l-.12.12-.09.06a.27.27,0,0,1-.1.06l0,0,0,0-.06,0-.08,0h-.35l-.19.33a1.62,1.62,0,0,0,.82.22,1.49,1.49,0,0,0,.36,0h.09a.43.43,0,0,1,.38.22c.67,1.32,1.35,2.65,2,4l2.12,4.26c.29.54.57,1,.8,1.44a12.53,12.53,0,0,0,3.84,4.3,8.54,8.54,0,0,0,5,1.54,18.17,18.17,0,0,0,3.08-.24,20.5,20.5,0,0,0,2.5-.59,13.7,13.7,0,0,0,1.94-.73c.55-.26,1-.49,1.4-.69l-.59-1.13a3.56,3.56,0,0,1-.88.46,2.66,2.66,0,0,1-1.13.23,4.07,4.07,0,0,1-2.65-1.11,15.6,15.6,0,0,1-2.63-3,47.32,47.32,0,0,1-2.47-4.22c-.14-.27-5.74-12.52-9.07-13a18,18,0,0,0,3.18-1.4,9,9,0,0,0,2.52-2.08,8.67,8.67,0,0,0,1.64-3.07,13.67,13.67,0,0,0,.6-4.36,9.08,9.08,0,0,0-4.15-8C62.38,22,58.38,21,53.13,21c-2.28,0-4.48.07-6.58.21"/></clipPath><clipPath id="clip-path-2"><polygon class="cls-1" points="47.26 7.88 46.26 15.54 40.15 10.84 39.39 11.6 45.26 19.25 50.36 19.25 56.24 11.6 55.48 10.84 49.34 15.55 48.34 7.88 47.26 7.88"/></clipPath></defs><title>clt_reypaletas</title><g id="Capa_2" data-name="Capa 2"><g id="Capa_1-2" data-name="Capa 1"><path class="cls-1" d="M46.55,21.25A54,54,0,0,0,40.6,22a27.16,27.16,0,0,0-5.06,1.41,14,14,0,0,0-3.92,2.2,9.59,9.59,0,0,0-2.54,3.18A9.48,9.48,0,0,0,28.19,33a7.07,7.07,0,0,0,.4,2.4,5.91,5.91,0,0,0,1.19,2,5.47,5.47,0,0,0,1.9,1.31,6.32,6.32,0,0,0,2.49.48A5.77,5.77,0,0,0,36,38.89a4.57,4.57,0,0,0,1.61-.83,4.29,4.29,0,0,0,1.16-1.4,4.16,4.16,0,0,0,.45-2A3.3,3.3,0,0,0,39,33.29a3.12,3.12,0,0,0-.55-.92,2.07,2.07,0,0,0-.73-.5,1.83,1.83,0,0,0-.73-.15,1.25,1.25,0,0,0-.78.24l-.7.52a8.38,8.38,0,0,1-.83.52,2.54,2.54,0,0,1-1.2.24,1.74,1.74,0,0,1-.47-.07,1.38,1.38,0,0,1-.66-.35,2.07,2.07,0,0,1-.55-.82,3.57,3.57,0,0,1-.26-1.48,4.18,4.18,0,0,1,.84-2.47,7.89,7.89,0,0,1,2.16-2,12,12,0,0,1,3-1.3,11.81,11.81,0,0,1,3.23-.48c1.46,0,2.19.54,2.19,1.6V60.5A4.14,4.14,0,0,0,44,63.75a5.39,5.39,0,0,0,3.58,1,5.44,5.44,0,0,0,3.59-1,4.14,4.14,0,0,0,1.16-3.25v-17a2.58,2.58,0,0,1,2.16,1c.47.8.79,1.37,1.1,1.93V41.74H54.54a2.18,2.18,0,0,1-2.18-2.18v-.15l.43-12.11h0a3.93,3.93,0,0,1,7.85,0l.43,12.11v.15a2.18,2.18,0,0,1-2.17,2.18H57.81v7.62a1.09,1.09,0,0,1-.27.72l-.12.12-.09.06a.27.27,0,0,1-.1.06l0,0,0,0-.06,0-.08,0h-.35l-.19.33a1.62,1.62,0,0,0,.82.22,1.49,1.49,0,0,0,.36,0h.09a.43.43,0,0,1,.38.22c.67,1.32,1.35,2.65,2,4l2.12,4.26c.29.54.57,1,.8,1.44a12.53,12.53,0,0,0,3.84,4.3,8.54,8.54,0,0,0,5,1.54,18.17,18.17,0,0,0,3.08-.24,20.5,20.5,0,0,0,2.5-.59,13.7,13.7,0,0,0,1.94-.73c.55-.26,1-.49,1.4-.69l-.59-1.13a3.56,3.56,0,0,1-.88.46,2.66,2.66,0,0,1-1.13.23,4.07,4.07,0,0,1-2.65-1.11,15.6,15.6,0,0,1-2.63-3,47.32,47.32,0,0,1-2.47-4.22c-.14-.27-5.74-12.52-9.07-13a18,18,0,0,0,3.18-1.4,9,9,0,0,0,2.52-2.08,8.67,8.67,0,0,0,1.64-3.07,13.67,13.67,0,0,0,.6-4.36,9.08,9.08,0,0,0-4.15-8C62.38,22,58.38,21,53.13,21c-2.28,0-4.48.07-6.58.21"/><g class="cls-2"><rect class="cls-1" x="22.3" y="10.14" width="64.37" height="67.47" transform="translate(-9.12 72.98) rotate(-63.43)"/></g><polygon class="cls-1" points="47.26 7.88 46.26 15.54 40.15 10.84 39.39 11.6 45.26 19.25 50.36 19.25 56.24 11.6 55.48 10.84 49.34 15.55 48.34 7.88 47.26 7.88"/><g class="cls-3"><rect class="cls-1" x="38.96" y="3.49" width="17.7" height="20.15" transform="translate(14.3 50.27) rotate(-63.43)"/></g><path class="cls-1" d="M21.28,86.54a3.11,3.11,0,0,0,.11.77,4.7,4.7,0,0,0,.3.84,4.92,4.92,0,0,0,.5.81,3.92,3.92,0,0,0,.67.68,3.39,3.39,0,0,0,.85.48,2.89,2.89,0,0,0,1,.17,2.74,2.74,0,0,0,.72-.08,2.6,2.6,0,0,0,.62-.25,3.79,3.79,0,0,0,.56-.36c.17-.14.35-.28.53-.44l.28.27a6.81,6.81,0,0,1-.66.75,5.17,5.17,0,0,1-1,.78,5.37,5.37,0,0,1-1.32.6,6,6,0,0,1-1.72.23,5.09,5.09,0,0,1-1.88-.35,4.66,4.66,0,0,1-1.63-1,5.16,5.16,0,0,1-1.14-1.74,7.19,7.19,0,0,1-.17-4.3,5.72,5.72,0,0,1,.7-1.52,5.58,5.58,0,0,1,1-1.19,6.53,6.53,0,0,1,1.22-.85,6.66,6.66,0,0,1,1.32-.51,5.45,5.45,0,0,1,1.29-.17,5.15,5.15,0,0,1,1.44.18,3.27,3.27,0,0,1,1,.48,2,2,0,0,1,.61.69,1.85,1.85,0,0,1,.2.83,1.57,1.57,0,0,1-.3.94,2.8,2.8,0,0,1-.8.72Zm2.23-2.25a1.25,1.25,0,0,0,.24-.18.43.43,0,0,0,.15-.2.92.92,0,0,0,.09-.28c0-.12,0-.26,0-.43a3.59,3.59,0,0,0-.06-.62,2.8,2.8,0,0,0-.2-.64,1.71,1.71,0,0,0-.37-.5.78.78,0,0,0-.53-.2,1,1,0,0,0-.69.24,2,2,0,0,0-.46.62,3.94,3.94,0,0,0-.29.86c-.07.32-.12.65-.16,1s-.06.64-.07.94,0,.55,0,.76Z"/><path class="cls-1" d="M37.8,81.28a19.54,19.54,0,0,1-1.49,7.48,16.21,16.21,0,0,1-1.64,3,12.6,12.6,0,0,1-2.08,2.35,9.25,9.25,0,0,1-2.37,1.52,6.21,6.21,0,0,1-2.53.55,2.89,2.89,0,0,1-1.51-.33,1,1,0,0,1-.53-.88,1.4,1.4,0,0,1,.06-.41,1.51,1.51,0,0,1,.18-.36.92.92,0,0,1,.27-.25.63.63,0,0,1,.33-.09.41.41,0,0,1,.35.21l.3.46a2,2,0,0,0,.37.46.85.85,0,0,0,.61.21,3.65,3.65,0,0,0,1.05-.17,5.29,5.29,0,0,0,1.09-.5,7.44,7.44,0,0,0,1.1-.78,11.53,11.53,0,0,0,1.08-1c-.2-.74-.44-1.56-.71-2.44s-.56-1.78-.86-2.68S30.26,85.87,30,85s-.62-1.57-.92-2.21a9.1,9.1,0,0,0-.87-1.55c-.28-.39-.52-.59-.74-.59a.56.56,0,0,0-.32.07,2.33,2.33,0,0,0-.28.19l-.22-.28.47-.39a2.88,2.88,0,0,1,.58-.36,3.16,3.16,0,0,1,.77-.28,4.75,4.75,0,0,1,1.07-.1,2.72,2.72,0,0,1,1.26.3A2.85,2.85,0,0,1,31.81,81q.35.61.72,1.47c.25.57.5,1.2.75,1.91s.5,1.46.76,2.28.51,1.67.77,2.57a16.85,16.85,0,0,0,1.11-3.06,13.21,13.21,0,0,0,.42-3.33,5.3,5.3,0,0,0-.08-1,6.91,6.91,0,0,0-.17-.74l-.18-.52a1.23,1.23,0,0,1-.08-.38.41.41,0,0,1,.13-.29,1,1,0,0,1,.33-.18,1.62,1.62,0,0,1,.38-.09l.33,0a.76.76,0,0,1,.46.12.69.69,0,0,1,.24.35,2,2,0,0,1,.09.55c0,.21,0,.46,0,.72"/><path class="cls-1" d="M54.25,76.33a8,8,0,0,0-4.81-1.21c-.87,0-1.71,0-2.53.08a19.69,19.69,0,0,0-2.28.29,11.39,11.39,0,0,0-1.94.53,5.17,5.17,0,0,0-1.5.86,3.56,3.56,0,0,0-1,1.21,3.65,3.65,0,0,0-.34,1.63,2.58,2.58,0,0,0,.16.92,2.16,2.16,0,0,0,.45.76,2.11,2.11,0,0,0,.73.5,2.42,2.42,0,0,0,1,.18,2.35,2.35,0,0,0,.69-.1,1.68,1.68,0,0,0,.62-.33,1.79,1.79,0,0,0,.45-.53,1.56,1.56,0,0,0,.17-.77,1.44,1.44,0,0,0-.09-.53,1.1,1.1,0,0,0-.22-.35.7.7,0,0,0-.27-.19.79.79,0,0,0-.29-.06.5.5,0,0,0-.29.09l-.27.2-.32.2a.9.9,0,0,1-.46.1l-.18,0a.55.55,0,0,1-.25-.13.9.9,0,0,1-.22-.32,1.48,1.48,0,0,1-.09-.57,1.55,1.55,0,0,1,.32-1,2.87,2.87,0,0,1,.83-.75,4.31,4.31,0,0,1,1.13-.5,4.5,4.5,0,0,1,1.24-.19c.56,0,.84.21.84.61V90.27A1.58,1.58,0,0,0,46,91.51a2.64,2.64,0,0,0,2.76,0,1.58,1.58,0,0,0,.44-1.24V77.09a1.47,1.47,0,0,1,.07-.34,1,1,0,0,1,.17-.35,1.3,1.3,0,0,1,.36-.27,1.37,1.37,0,0,1,.58-.1,1.53,1.53,0,0,1,.86.27,2.48,2.48,0,0,1,.71.76,4.06,4.06,0,0,1,.49,1.19,6.57,6.57,0,0,1,.17,1.53,18.44,18.44,0,0,1-.11,2.06A4.89,4.89,0,0,1,52,83.38a1.75,1.75,0,0,1-.85.85,1.9,1.9,0,0,1-1.37,0l-.16.48A4.23,4.23,0,0,0,51,85a4.63,4.63,0,0,0,1.38-.14,4.9,4.9,0,0,0,1.33-.54,4.32,4.32,0,0,0,1.14-1,5.16,5.16,0,0,0,.79-1.47,6,6,0,0,0,.29-2,4.11,4.11,0,0,0-1.63-3.5"/><path class="cls-1" d="M66,90.06a3,3,0,0,1-.31.3.55.55,0,0,1-.37.15.42.42,0,0,1-.25-.06.46.46,0,0,1-.14-.17.54.54,0,0,1,0-.22,1.77,1.77,0,0,1,0-.22V83.56A3,3,0,0,0,64.52,82a3.11,3.11,0,0,0-1-1,4.33,4.33,0,0,0-1.4-.6,7.32,7.32,0,0,0-1.65-.18,7.81,7.81,0,0,0-1.44.14,5,5,0,0,0-1.3.47,2.76,2.76,0,0,0-.93.79,1.94,1.94,0,0,0-.35,1.16,1.62,1.62,0,0,0,.38,1.12,1.31,1.31,0,0,0,1,.42,1.19,1.19,0,0,0,.45-.08,1.14,1.14,0,0,0,.38-.23,1.24,1.24,0,0,0,.25-.35,1,1,0,0,0,.1-.43.68.68,0,0,0-.18-.52,1.46,1.46,0,0,0-.38-.27l-.39-.17a.24.24,0,0,1-.17-.24.51.51,0,0,1,.14-.3,1.34,1.34,0,0,1,.36-.29A2,2,0,0,1,59,81.2a2.58,2.58,0,0,1,.7-.09A1.77,1.77,0,0,1,61,81.6a1.82,1.82,0,0,1,.48,1.32,2,2,0,0,1-.3,1,1.88,1.88,0,0,1-.93.76l-1.7.65a7.23,7.23,0,0,0-1.47.75A3.52,3.52,0,0,0,56,87.2a3.19,3.19,0,0,0-.39,1.66,3.72,3.72,0,0,0,.23,1.41,2.57,2.57,0,0,0,.64.94,2.43,2.43,0,0,0,.89.52,3,3,0,0,0,1,.17,3.6,3.6,0,0,0,1.63-.38,3.92,3.92,0,0,0,.78-.52,4.83,4.83,0,0,0,.74-.8,1.9,1.9,0,0,0,1.95,1.7,2.64,2.64,0,0,0,1-.17,2.88,2.88,0,0,0,.78-.41,3.18,3.18,0,0,0,.57-.52c.15-.18.29-.35.4-.51Zm-4.56-1.38a1.53,1.53,0,0,1-.11.58,2,2,0,0,1-.29.52,1.82,1.82,0,0,1-.45.38,1,1,0,0,1-.54.15,1,1,0,0,1-.45-.1.87.87,0,0,1-.37-.35,2.23,2.23,0,0,1-.26-.67,5.23,5.23,0,0,1-.09-1.06A3.83,3.83,0,0,1,59.06,87a2.6,2.6,0,0,1,.42-.85,1.86,1.86,0,0,1,.61-.52,1.62,1.62,0,0,1,.74-.18.69.69,0,0,1,.46.15.54.54,0,0,1,.17.42Z"/><path class="cls-1" d="M70.62,75.71a1.43,1.43,0,0,0-.23-.59,1.37,1.37,0,0,0-.59-.48,2.61,2.61,0,0,0-1.12-.2,4.26,4.26,0,0,0-.89.1,5,5,0,0,0-.8.26,4,4,0,0,0-.68.36c-.21.14-.39.27-.57.41l.23.27a1.35,1.35,0,0,1,.29-.18.88.88,0,0,1,.33-.06.56.56,0,0,1,.51.24,1.08,1.08,0,0,1,.14.56V90.72a2.86,2.86,0,0,0,0,.33.91.91,0,0,0,.2.39,1.31,1.31,0,0,0,.5.32,2.5,2.5,0,0,0,.92.14,2.69,2.69,0,0,0,.94-.13,1.54,1.54,0,0,0,.53-.3.84.84,0,0,0,.24-.38,1.64,1.64,0,0,0,0-.34V76.28c0-.17,0-.36,0-.57"/><path class="cls-1" d="M81.46,89.25l-.53.44a5.35,5.35,0,0,1-.56.36,3.07,3.07,0,0,1-.62.24,2.73,2.73,0,0,1-.72.09,2.8,2.8,0,0,1-1-.18,3.22,3.22,0,0,1-.85-.48,4,4,0,0,1-.68-.68,3.91,3.91,0,0,1-.49-.8,4.3,4.3,0,0,1-.31-.84,3.21,3.21,0,0,1-.1-.78L80,84a2.7,2.7,0,0,0,.8-.73,1.57,1.57,0,0,0,.3-.94,1.88,1.88,0,0,0-.2-.83,2,2,0,0,0-.6-.69,3.22,3.22,0,0,0-1-.48,5.1,5.1,0,0,0-1.43-.17,5,5,0,0,0-1.3.17,5.73,5.73,0,0,0-1.31.51,6.6,6.6,0,0,0-1.23.85,5.75,5.75,0,0,0-1.71,2.71A6,6,0,0,0,72,86.29a6.46,6.46,0,0,0,.42,2.44,5.31,5.31,0,0,0,1.14,1.75,4.8,4.8,0,0,0,1.63,1,5.31,5.31,0,0,0,1.88.35A5.62,5.62,0,0,0,80.12,91a5.13,5.13,0,0,0,1-.77,7.87,7.87,0,0,0,.66-.76Zm-6-4.29c0-.31,0-.62.07-.95s.09-.64.16-1a3.94,3.94,0,0,1,.29-.86,1.72,1.72,0,0,1,.47-.61,1,1,0,0,1,.68-.24.78.78,0,0,1,.53.2A1.59,1.59,0,0,1,78,82a2.29,2.29,0,0,1,.21.64,4.82,4.82,0,0,1,.06.61,2.63,2.63,0,0,1,0,.43,1,1,0,0,1-.09.29.56.56,0,0,1-.14.2l-.24.17-2.35,1.35c0-.21,0-.47,0-.76"/><path class="cls-1" d="M88,81.15a1.78,1.78,0,0,0,1.34-.43,1.56,1.56,0,0,0,.42-1.15,1.48,1.48,0,0,0,0-.35,1.05,1.05,0,0,0-.15-.32.75.75,0,0,0-.25-.22A.67.67,0,0,0,89,78.6a.72.72,0,0,0-.51.17.64.64,0,0,0-.19.49.54.54,0,0,0,.11.37.85.85,0,0,0,.25.17l.25.1a.16.16,0,0,1,.11.15c0,.2-.3.3-.89.3H86.32V77.08h-.89a3.8,3.8,0,0,1-.71,1.56,4.44,4.44,0,0,1-1.08,1,4.51,4.51,0,0,1-1.14.54,3.23,3.23,0,0,1-.87.16v.8h1.25v8.23a2.7,2.7,0,0,0,.21,1.12,2.36,2.36,0,0,0,.56.78,2,2,0,0,0,.8.45,2.94,2.94,0,0,0,.94.15,3.77,3.77,0,0,0,1.44-.24,3.45,3.45,0,0,0,1-.61,3.13,3.13,0,0,0,.6-.78c.15-.28.29-.54.4-.78l-.35-.16a2.32,2.32,0,0,1-.34.55,2.42,2.42,0,0,1-.4.38.93.93,0,0,1-.54.16.78.78,0,0,1-.61-.23,1.19,1.19,0,0,1-.22-.81V81.15Z"/><path class="cls-1" d="M107.49,87.2A5.87,5.87,0,0,0,106.7,86a10,10,0,0,0-1-1q-.56-.49-1-1a7.67,7.67,0,0,1-.79-.89,1.44,1.44,0,0,1-.32-.86,1.3,1.3,0,0,1,.11-.54.91.91,0,0,1,.27-.37,1.25,1.25,0,0,1,.41-.22,1.85,1.85,0,0,1,.48-.07,1.69,1.69,0,0,1,.86.19.54.54,0,0,1,.33.49.18.18,0,0,1-.12.16l-.26.15a1,1,0,0,0-.26.21.53.53,0,0,0-.11.37.7.7,0,0,0,.24.56,1.11,1.11,0,0,0,.73.2,1,1,0,0,0,.78-.31,1.07,1.07,0,0,0,.28-.73,1.84,1.84,0,0,0-.24-1,2,2,0,0,0-.68-.69,3.33,3.33,0,0,0-1.05-.4A6.25,6.25,0,0,0,104,80.2a4.34,4.34,0,0,0-1.25.17,3.26,3.26,0,0,0-1.08.51,2.42,2.42,0,0,0-.75.87A2.5,2.5,0,0,0,100.6,83a2.64,2.64,0,0,0,.28,1.2,6.32,6.32,0,0,0,.7,1.12,11.33,11.33,0,0,0,.91,1.06l.91,1a7.29,7.29,0,0,1,.7.93,1.74,1.74,0,0,1,.28.87,1.3,1.3,0,0,1-.52,1.14,2.08,2.08,0,0,1-1.31.39,2,2,0,0,1-.63-.11,3.06,3.06,0,0,1-.58-.27,3.1,3.1,0,0,1-.49-.36c-.13-.11-.27-.21-.36-.3-.11.11-.3.33-.75.74a.53.53,0,0,1-.36.15.45.45,0,0,1-.26-.06.58.58,0,0,1-.14-.17,1.42,1.42,0,0,1,0-.22,1.77,1.77,0,0,1,0-.22V83.56A3,3,0,0,0,98.56,82a3.14,3.14,0,0,0-1-1,4.37,4.37,0,0,0-1.39-.6,7.47,7.47,0,0,0-1.66-.18,7.81,7.81,0,0,0-1.44.14,4.92,4.92,0,0,0-1.29.47,2.76,2.76,0,0,0-.93.79,1.88,1.88,0,0,0-.36,1.16,1.62,1.62,0,0,0,.38,1.12,1.32,1.32,0,0,0,1,.42,1.16,1.16,0,0,0,.45-.08,1.14,1.14,0,0,0,.38-.23,1.24,1.24,0,0,0,.25-.35.88.88,0,0,0,.1-.43.72.72,0,0,0-.17-.52,1.7,1.7,0,0,0-.39-.27l-.38-.17A.23.23,0,0,1,92,82a.48.48,0,0,1,.13-.3,1.26,1.26,0,0,1,.37-.29A2,2,0,0,1,93,81.2a2.63,2.63,0,0,1,.7-.09,1.75,1.75,0,0,1,1.32.49,1.82,1.82,0,0,1,.48,1.32,2.13,2.13,0,0,1-.29,1,1.91,1.91,0,0,1-.94.76l-1.69.65a7.07,7.07,0,0,0-1.48.75,3.49,3.49,0,0,0-1,1.08,3.09,3.09,0,0,0-.4,1.66,3.71,3.71,0,0,0,.24,1.41,2.68,2.68,0,0,0,.63.94,2.39,2.39,0,0,0,.9.52,3,3,0,0,0,1,.17,3.6,3.6,0,0,0,1.62-.38,3.65,3.65,0,0,0,.78-.52,4.1,4.1,0,0,0,.74-.8,1.9,1.9,0,0,0,2,1.7,2.62,2.62,0,0,0,1-.17,3.24,3.24,0,0,0,1.35-.93,6.82,6.82,0,0,0,.46-.58l.23.26a4.76,4.76,0,0,0,.83.67,5.36,5.36,0,0,0,1.1.54,4.36,4.36,0,0,0,1.39.21,5.33,5.33,0,0,0,1.6-.23,3.41,3.41,0,0,0,1.22-.66,3.13,3.13,0,0,0,.78-1.05,3.58,3.58,0,0,0,.27-1.43,2.93,2.93,0,0,0-.32-1.33m-12,1.48a1.75,1.75,0,0,1-.11.58,2.43,2.43,0,0,1-.3.52,1.82,1.82,0,0,1-.45.38,1,1,0,0,1-.54.15.92.92,0,0,1-.44-.1.84.84,0,0,1-.38-.35,2,2,0,0,1-.25-.67,4.54,4.54,0,0,1-.1-1.06A4.16,4.16,0,0,1,93.09,87a2.6,2.6,0,0,1,.42-.85,1.8,1.8,0,0,1,.62-.52,1.55,1.55,0,0,1,.73-.18.69.69,0,0,1,.46.15.52.52,0,0,1,.18.42Z"/><path class="cls-1" d="M108.64,80a1.11,1.11,0,0,1-1.56,0,1.1,1.1,0,0,1-.32-.78,1.09,1.09,0,0,1,1.1-1.1,1.11,1.11,0,0,1,1.11,1.1,1.07,1.07,0,0,1-.33.78m-1.45-1.45a.93.93,0,0,0-.28.67,1,1,0,1,0,.28-.67m.65.06a.92.92,0,0,1,.33,0,.3.3,0,0,1,.19.31.26.26,0,0,1-.12.24l-.18.06a.27.27,0,0,1,.21.11.32.32,0,0,1,.07.19v.18a.35.35,0,0,0,0,.06v0h-.2v-.15a.3.3,0,0,0-.12-.28.55.55,0,0,0-.23,0h-.17v.48h-.21V78.57Zm.23.19a.54.54,0,0,0-.26-.05h-.18v.44h.19l.21,0a.22.22,0,0,0,0-.37"/><path class="cls-1" d="M20,91.63l-.53.26a5.7,5.7,0,0,1-.75.28,5.55,5.55,0,0,1-.95.22,6,6,0,0,1-1.17.1,3.29,3.29,0,0,1-1.9-.59,4.79,4.79,0,0,1-1.46-1.64c-.09-.15-.19-.34-.3-.55l-.81-1.62c-.25-.51-.51-1-.76-1.52a.18.18,0,0,0-.15-.08h-.17a.62.62,0,0,1-.31-.08l.07-.12h.22l0,0,0,0,0,0a.41.41,0,0,0,.11-.28V83h.41a.83.83,0,0,0,.83-.83v-.06l-.16-4.6a1.5,1.5,0,1,0-3,0h0L9.2,82.1v.05A.83.83,0,0,0,10,83h.42v1.79L10,84a1,1,0,0,0-.83-.4v6.48a1.55,1.55,0,0,1-.44,1.24,2.08,2.08,0,0,1-1.36.38A2.06,2.06,0,0,1,6,91.36a1.55,1.55,0,0,1-.45-1.24V77c0-.4-.28-.6-.83-.6a4.47,4.47,0,0,0-1.23.18A4.37,4.37,0,0,0,2.41,77a3,3,0,0,0-.83.75,1.58,1.58,0,0,0-.31.94,1.51,1.51,0,0,0,.09.57.93.93,0,0,0,.21.31.67.67,0,0,0,.25.13l.18,0a1,1,0,0,0,.46-.09l.32-.2.26-.2a.51.51,0,0,1,.3-.09.76.76,0,0,1,.28,0,.86.86,0,0,1,.28.2,1.53,1.53,0,0,1,.21.34,1.4,1.4,0,0,1,.09.53,1.64,1.64,0,0,1-.17.76A1.81,1.81,0,0,1,3,81.9a2.37,2.37,0,0,1-.69.11,2.55,2.55,0,0,1-.95-.18,2.07,2.07,0,0,1-.72-.5,2.41,2.41,0,0,1-.46-.75A2.77,2.77,0,0,1,0,79.66a3.6,3.6,0,0,1,.34-1.61,3.54,3.54,0,0,1,1-1.21A5.08,5.08,0,0,1,2.8,76a10.32,10.32,0,0,1,1.92-.53A21.26,21.26,0,0,1,7,75.18c.8-.05,1.64-.08,2.5-.08a8.21,8.21,0,0,1,4.58,1.06,3.47,3.47,0,0,1,1.58,3,5.12,5.12,0,0,1-.23,1.66,3.21,3.21,0,0,1-1.58,1.95,6.64,6.64,0,0,1-1.21.54c1.26.17,3.39,4.83,3.45,4.93A16.39,16.39,0,0,0,17,89.9,5.5,5.5,0,0,0,18,91a1.53,1.53,0,0,0,1,.42,1,1,0,0,0,.43-.09,1.26,1.26,0,0,0,.33-.17Z"/><polygon class="cls-1" points="10.68 71.51 8.44 74.42 6.5 74.42 4.27 71.51 4.55 71.22 6.88 73.01 7.26 70.09 7.67 70.09 8.05 73.01 10.39 71.22 10.68 71.51"/></g></g></svg>