<svg xmlns="http://www.w3.org/2000/svg" viewBox="0 0 218.7 32.04"><defs><style>.cls-1{fill:#6b6b6b;}</style></defs><title>clt_metaluxor</title><g id="Capa_2" data-name="Capa 2"><g id="Capa_1-2" data-name="Capa 1"><g id="_Grupo_" data-name="&lt;Grupo&gt;"><g id="_Grupo_2" data-name="&lt;Grupo&gt;"><g id="_Grupo_3" data-name="&lt;Grupo&gt;"><path id="_Trazado_" data-name="&lt;Trazado&gt;" class="cls-1" d="M22.58.29a1.85,1.85,0,0,0-1.25.48h0l-.06,0,0,0L12.32,9.25,3.24.89A1.87,1.87,0,0,0,0,2.16V18a1.87,1.87,0,0,0,3.74,0V6.63l7,7.33a1.85,1.85,0,0,0,3.18,0h0l6.8-7.34V18a1.87,1.87,0,0,0,3.74,0V2.16A1.87,1.87,0,0,0,22.58.29Z"/><g id="_Grupo_4" data-name="&lt;Grupo&gt;"><path id="_Trazado_2" data-name="&lt;Trazado&gt;" class="cls-1" d="M46.86,16.11H31.25V11.36H45a1.87,1.87,0,0,0,0-3.74H29a1.87,1.87,0,0,0-1.87,1.87V18A1.87,1.87,0,0,0,29,19.85H46.86a1.87,1.87,0,0,0,0-3.74Z"/><path id="_Trazado_3" data-name="&lt;Trazado&gt;" class="cls-1" d="M29,4H46.86a1.87,1.87,0,0,0,0-3.74H29A1.87,1.87,0,0,0,29,4Z"/></g><path id="_Trazado_4" data-name="&lt;Trazado&gt;" class="cls-1" d="M71.45,0H52.54a1.87,1.87,0,1,0,0,3.74H60V18a1.87,1.87,0,1,0,3.74,0V3.74h7.7a1.87,1.87,0,0,0,0-3.74Z"/><path id="_Trazado_5" data-name="&lt;Trazado&gt;" class="cls-1" d="M94.09,17.24h0v0a1.77,1.77,0,0,0-.19-.33L84.6.87h0a1.87,1.87,0,0,0-3.45,1,1.78,1.78,0,0,0,.18.77h0v0A2.54,2.54,0,0,0,81.5,3l4.38,7.55H75.47L72,17.11a1.82,1.82,0,0,0-.23.87,1.87,1.87,0,0,0,3.55.81h0l2.32-4.55,0,0,0,0H88l2.72,4.68h0A1.86,1.86,0,0,0,94.24,18,1.78,1.78,0,0,0,94.09,17.24Z"/><path id="_Trazado_6" data-name="&lt;Trazado&gt;" class="cls-1" d="M113.22,16.11H100.71V1.87a1.87,1.87,0,1,0-3.74,0V18a1.87,1.87,0,0,0,1.87,1.87h14.38a1.87,1.87,0,1,0,0-3.74Z"/></g><g id="_Grupo_5" data-name="&lt;Grupo&gt;"><path id="_Trazado_7" data-name="&lt;Trazado&gt;" class="cls-1" d="M166.41,16.39h0l-8-6.81,6.7-5.91h0a1.88,1.88,0,0,0,.61-1.11A1.87,1.87,0,0,0,164.12.42a1.84,1.84,0,0,0-1.43.39h0l-7.17,6.32L148.29,1h0a1.85,1.85,0,0,0-1.19-.44,1.87,1.87,0,0,0-1.28,3.23h0l6.86,5.83-7.89,7h0a1.83,1.83,0,0,0-.63,1.13,1.86,1.86,0,0,0,3.09,1.66h0l8.3-7.32L164,19.23h0a1.92,1.92,0,0,0,1.21.45,1.86,1.86,0,0,0,1.2-3.29Z"/><path id="_Trazado_compuesto_" data-name="&lt;Trazado compuesto&gt;" class="cls-1" d="M189,.14H173.2A3.9,3.9,0,0,0,169.31,4V16a3.9,3.9,0,0,0,3.89,3.9H189a3.9,3.9,0,0,0,3.89-3.9V4A3.9,3.9,0,0,0,189,.14Zm-.23,13.53a1.87,1.87,0,0,1-1.87,1.87H175.38a1.87,1.87,0,0,1-1.87-1.87V5.75a1.87,1.87,0,0,1,1.87-1.87h11.54a1.87,1.87,0,0,1,1.87,1.87Z"/><path id="_Trazado_8" data-name="&lt;Trazado&gt;" class="cls-1" d="M216.77,9.26a1.88,1.88,0,0,0,1-1.66v-3A3.89,3.89,0,0,0,213.9.73H198.79a1.87,1.87,0,0,0,0,3.74h13.39a1.87,1.87,0,0,1,1.87,1.87v.5a1.87,1.87,0,0,1-1.83,1.87H198.79a1.87,1.87,0,0,0-1.87,1.87V18a1.87,1.87,0,0,0,3.74,0V12.45H213.1A1.87,1.87,0,0,1,215,14.32V18a1.87,1.87,0,1,0,3.73,0V12.61A3.87,3.87,0,0,0,216.77,9.26Z"/><path id="_Trazado_9" data-name="&lt;Trazado&gt;" class="cls-1" d="M139.47.52a1.87,1.87,0,0,0-1.87,1.87V13.67a1.87,1.87,0,0,1-1.87,1.87h-12.3a1.87,1.87,0,0,1-1.87-1.87V2.39a1.87,1.87,0,0,0-3.74,0V16a3.91,3.91,0,0,0,3.9,3.9h15.72a3.91,3.91,0,0,0,3.9-3.9V2.39A1.87,1.87,0,0,0,139.47.52Z"/></g></g><g id="_Grupo_6" data-name="&lt;Grupo&gt;"><path id="_Trazado_compuesto_2" data-name="&lt;Trazado compuesto&gt;" class="cls-1" d="M0,31.92V24.19H2.52a4.21,4.21,0,0,1,1.31.15,1.71,1.71,0,0,1,.92.74,2.44,2.44,0,0,1,.35,1.33,2.57,2.57,0,0,1-.56,1.71,2.44,2.44,0,0,1-1.94.66H.88v3.14Zm.88-4.06H2.61a1.69,1.69,0,0,0,1.2-.35,1.36,1.36,0,0,0,.38-1.05A1.62,1.62,0,0,0,4,25.67a1,1,0,0,0-.45-.45,2.58,2.58,0,0,0-.95-.12H.88Z"/><path id="_Trazado_compuesto_3" data-name="&lt;Trazado compuesto&gt;" class="cls-1" d="M16.77,31.92V31.1a2.19,2.19,0,0,1-.67.71,1.62,1.62,0,0,1-.87.23,1.6,1.6,0,0,1-1-.29,1.37,1.37,0,0,1-.54-.74,4.39,4.39,0,0,1-.14-1.22V26.32h.82v3.1a4.73,4.73,0,0,0,.09,1.16.9.9,0,0,0,.34.47,1,1,0,0,0,.57.18,1.2,1.2,0,0,0,1-.46,2.34,2.34,0,0,0,.33-1.45v-3h.82v5.6Z"/><path id="_Trazado_compuesto_4" data-name="&lt;Trazado compuesto&gt;" class="cls-1" d="M29.58,30.12l.84.12a2.42,2.42,0,0,1-.76,1.35,2.11,2.11,0,0,1-1.37.45,2.08,2.08,0,0,1-1.67-.74A3.19,3.19,0,0,1,26,29.17,3.36,3.36,0,0,1,26.63,27a2.06,2.06,0,0,1,1.63-.76,2,2,0,0,1,1.56.75,3.28,3.28,0,0,1,.63,2.17v.25H26.83a2.39,2.39,0,0,0,.46,1.42,1.28,1.28,0,0,0,1,.48Q29.22,31.26,29.58,30.12Zm-2.7-1.54h2.7a2,2,0,0,0-.32-1.09,1.24,1.24,0,0,0-1-.52,1.22,1.22,0,0,0-.94.44A1.86,1.86,0,0,0,26.88,28.58Z"/><path id="_Trazado_compuesto_5" data-name="&lt;Trazado compuesto&gt;" class="cls-1" d="M38.94,31.92v-5.6h.74v.85a2.33,2.33,0,0,1,.52-.78.83.83,0,0,1,.53-.2,1.39,1.39,0,0,1,.84.31l-.27.88a1.09,1.09,0,0,0-.6-.21.76.76,0,0,0-.48.18.94.94,0,0,0-.3.48A4,4,0,0,0,39.76,29v2.93Z"/><path id="_Trazado_compuesto_6" data-name="&lt;Trazado compuesto&gt;" class="cls-1" d="M51.36,31.07l.11.84a2.92,2.92,0,0,1-.61.08,1.26,1.26,0,0,1-.69-.16.78.78,0,0,1-.36-.44,3.85,3.85,0,0,1-.1-1.11V27.06h-.6v-.74h.6V24.93l.82-.57v2h.83v.74h-.83v3.27a1.49,1.49,0,0,0,.07.59.42.42,0,0,0,.4.19A3.25,3.25,0,0,0,51.36,31.07Z"/><path id="_Trazado_compuesto_7" data-name="&lt;Trazado compuesto&gt;" class="cls-1" d="M62.76,31.23a3.13,3.13,0,0,1-.85.61A2.16,2.16,0,0,1,61,32a1.65,1.65,0,0,1-1.2-.43,1.53,1.53,0,0,1-.45-1.16,1.71,1.71,0,0,1,.21-.86,1.5,1.5,0,0,1,.58-.59,3.18,3.18,0,0,1,1.11-.31,6.38,6.38,0,0,0,1.47-.33v-.24a1.14,1.14,0,0,0-.22-.81,1.2,1.2,0,0,0-.93-.34,1.36,1.36,0,0,0-.86.23,1.44,1.44,0,0,0-.42.84l-.8-.12a2.1,2.1,0,0,1,.69-1.32,2.44,2.44,0,0,1,1.51-.41,2.23,2.23,0,0,1,1.19.27,1.2,1.2,0,0,1,.55.68,4.33,4.33,0,0,1,.11,1.17v1.26a13.56,13.56,0,0,0,.06,1.68,2.09,2.09,0,0,0,.21.67h-.86A2.33,2.33,0,0,1,62.76,31.23Zm-.06-2.12a5.54,5.54,0,0,1-1.34.36,2.54,2.54,0,0,0-.73.19.84.84,0,0,0-.32.3,1,1,0,0,0-.11.46.84.84,0,0,0,.26.64,1,1,0,0,0,.72.24,1.54,1.54,0,0,0,.8-.21,1.43,1.43,0,0,0,.54-.58,2.42,2.42,0,0,0,.18-1.05Z"/><path id="_Trazado_compuesto_8" data-name="&lt;Trazado compuesto&gt;" class="cls-1" d="M72,30.24l.81-.15a1.37,1.37,0,0,0,.4.89,1.46,1.46,0,0,0,1.68,0,.79.79,0,0,0,.29-.63.63.63,0,0,0-.25-.52,3.41,3.41,0,0,0-.84-.31,6.76,6.76,0,0,1-1.28-.48,1.39,1.39,0,0,1-.5-.52,1.64,1.64,0,0,1-.17-.74,1.53,1.53,0,0,1,.48-1.17,1.89,1.89,0,0,1,1.34-.45,2.18,2.18,0,0,1,.95.19,1.48,1.48,0,0,1,.62.49,2,2,0,0,1,.3.89l-.8.13A.94.94,0,0,0,74,27a1.31,1.31,0,0,0-.79.2.62.62,0,0,0-.26.52.56.56,0,0,0,.25.49,4.64,4.64,0,0,0,.89.34,6.12,6.12,0,0,1,1.32.49,1.28,1.28,0,0,1,.46.49,1.6,1.6,0,0,1,.17.75,1.69,1.69,0,0,1-.54,1.3A2.08,2.08,0,0,1,74,32,1.87,1.87,0,0,1,72,30.24Z"/><path id="_Trazado_compuesto_9" data-name="&lt;Trazado compuesto&gt;" class="cls-1" d="M97.67,31.23a3.17,3.17,0,0,1-.86.61,2.15,2.15,0,0,1-.92.2,1.66,1.66,0,0,1-1.21-.43,1.53,1.53,0,0,1-.45-1.16,1.71,1.71,0,0,1,.21-.86A1.5,1.5,0,0,1,95,29a3.18,3.18,0,0,1,1.11-.31,6.26,6.26,0,0,0,1.47-.33v-.24a1.19,1.19,0,0,0-.21-.81,1.24,1.24,0,0,0-.94-.34,1.38,1.38,0,0,0-.86.23,1.44,1.44,0,0,0-.42.84l-.8-.12a2.11,2.11,0,0,1,.7-1.32,2.41,2.41,0,0,1,1.5-.41,2.27,2.27,0,0,1,1.2.27,1.18,1.18,0,0,1,.54.68,4.26,4.26,0,0,1,.12,1.17v1.26a14.44,14.44,0,0,0,0,1.68,2.37,2.37,0,0,0,.21.67h-.86A2.33,2.33,0,0,1,97.67,31.23Zm-.07-2.12a5.54,5.54,0,0,1-1.34.36,2.36,2.36,0,0,0-.72.19.72.72,0,0,0-.32.3.9.9,0,0,0-.12.46.84.84,0,0,0,.26.64,1.05,1.05,0,0,0,.73.24,1.53,1.53,0,0,0,.79-.21,1.43,1.43,0,0,0,.54-.58,2.42,2.42,0,0,0,.18-1.05Z"/><path id="_Trazado_compuesto_10" data-name="&lt;Trazado compuesto&gt;" class="cls-1" d="M110.36,31.92V31.1a2.19,2.19,0,0,1-.67.71,1.62,1.62,0,0,1-.87.23,1.6,1.6,0,0,1-1-.29,1.37,1.37,0,0,1-.54-.74,4.39,4.39,0,0,1-.14-1.22V26.32H108v3.1a4.73,4.73,0,0,0,.09,1.16.9.9,0,0,0,.34.47,1,1,0,0,0,.57.18,1.2,1.2,0,0,0,1-.46,2.34,2.34,0,0,0,.33-1.45v-3h.82v5.6Z"/><path id="_Trazado_compuesto_11" data-name="&lt;Trazado compuesto&gt;" class="cls-1" d="M121.68,31.07l.11.84a2.84,2.84,0,0,1-.61.08,1.31,1.31,0,0,1-.69-.16.8.8,0,0,1-.35-.44,3.85,3.85,0,0,1-.1-1.11V27.06h-.6v-.74h.6V24.93l.82-.57v2h.82v.74h-.82v3.27a1.49,1.49,0,0,0,.07.59.42.42,0,0,0,.39.19Z"/><path id="_Trazado_compuesto_12" data-name="&lt;Trazado compuesto&gt;" class="cls-1" d="M129.63,29.12a3.24,3.24,0,0,1,.64-2.19,2.14,2.14,0,0,1,3.24,0,3.09,3.09,0,0,1,.65,2.13,3.36,3.36,0,0,1-.64,2.25,2.16,2.16,0,0,1-3.25,0A3.22,3.22,0,0,1,129.63,29.12Zm.83,0a2.56,2.56,0,0,0,.42,1.61,1.25,1.25,0,0,0,1,.53,1.22,1.22,0,0,0,1-.53,2.6,2.6,0,0,0,.41-1.61,2.66,2.66,0,0,0-.41-1.62,1.29,1.29,0,0,0-1-.53,1.2,1.2,0,0,0-1,.54A2.56,2.56,0,0,0,130.46,29.12Z"/><path id="_Trazado_compuesto_13" data-name="&lt;Trazado compuesto&gt;" class="cls-1" d="M142.62,31.92v-5.6h.73v.78a1.77,1.77,0,0,1,.63-.67,1.53,1.53,0,0,1,.84-.24,1.5,1.5,0,0,1,.86.25,1.39,1.39,0,0,1,.5.73,2.08,2.08,0,0,1,.67-.73,1.45,1.45,0,0,1,.83-.25,1.4,1.4,0,0,1,1.1.45,2.11,2.11,0,0,1,.4,1.43v3.85h-.82V28.39a2.89,2.89,0,0,0-.09-.86.76.76,0,0,0-.3-.38.81.81,0,0,0-.46-.14,1.09,1.09,0,0,0-.87.4,1.93,1.93,0,0,0-.33,1.25v3.26h-.82V28.28a1.59,1.59,0,0,0-.22-1,.73.73,0,0,0-.62-.29,1,1,0,0,0-.89.43,2.71,2.71,0,0,0-.33,1.57v2.91Z"/><path id="_Trazado_compuesto_14" data-name="&lt;Trazado compuesto&gt;" class="cls-1" d="M161,31.23a3.13,3.13,0,0,1-.85.61,2.16,2.16,0,0,1-.93.2,1.65,1.65,0,0,1-1.2-.43,1.53,1.53,0,0,1-.45-1.16,1.71,1.71,0,0,1,.21-.86,1.5,1.5,0,0,1,.58-.59,3.18,3.18,0,0,1,1.11-.31,6.52,6.52,0,0,0,1.47-.33v-.24a1.14,1.14,0,0,0-.22-.81,1.21,1.21,0,0,0-.94-.34,1.35,1.35,0,0,0-.85.23,1.44,1.44,0,0,0-.42.84l-.8-.12a2.1,2.1,0,0,1,.69-1.32,2.42,2.42,0,0,1,1.51-.41,2.23,2.23,0,0,1,1.19.27,1.2,1.2,0,0,1,.55.68,4.33,4.33,0,0,1,.11,1.17v1.26a13.56,13.56,0,0,0,.06,1.68,2.09,2.09,0,0,0,.21.67h-.86A2.33,2.33,0,0,1,161,31.23ZM161,29.11a5.54,5.54,0,0,1-1.34.36,2.54,2.54,0,0,0-.73.19.84.84,0,0,0-.32.3,1,1,0,0,0-.11.46.84.84,0,0,0,.26.64,1,1,0,0,0,.72.24,1.54,1.54,0,0,0,.8-.21,1.43,1.43,0,0,0,.54-.58,2.42,2.42,0,0,0,.18-1.05Zm-1.74-3.49.61-1.47h1.07l-1,1.47Z"/><path id="_Trazado_compuesto_15" data-name="&lt;Trazado compuesto&gt;" class="cls-1" d="M172.37,31.07l.11.84a2.92,2.92,0,0,1-.61.08,1.26,1.26,0,0,1-.69-.16.78.78,0,0,1-.36-.44,3.85,3.85,0,0,1-.1-1.11V27.06h-.6v-.74h.6V24.93l.82-.57v2h.83v.74h-.83v3.27a1.49,1.49,0,0,0,.07.59.42.42,0,0,0,.4.19Z"/><path id="_Trazado_compuesto_16" data-name="&lt;Trazado compuesto&gt;" class="cls-1" d="M180.62,25.28V24.19h.82v1.09Zm0,6.64v-5.6h.82v5.6Z"/><path id="_Trazado_compuesto_17" data-name="&lt;Trazado compuesto&gt;" class="cls-1" d="M193.35,29.87l.8.12a2.44,2.44,0,0,1-.7,1.53,1.88,1.88,0,0,1-1.34.52,1.92,1.92,0,0,1-1.56-.74,3.34,3.34,0,0,1-.62-2.19,3.34,3.34,0,0,1,.62-2.19,2,2,0,0,1,1.59-.73,1.86,1.86,0,0,1,1.27.45,2.13,2.13,0,0,1,.66,1.32l-.8.14a1.65,1.65,0,0,0-.4-.85,1,1,0,0,0-.7-.28,1.21,1.21,0,0,0-1,.51,2.61,2.61,0,0,0-.4,1.62,2.83,2.83,0,0,0,.38,1.65,1.18,1.18,0,0,0,1,.51,1.08,1.08,0,0,0,.8-.34A1.76,1.76,0,0,0,193.35,29.87Z"/><path id="_Trazado_compuesto_18" data-name="&lt;Trazado compuesto&gt;" class="cls-1" d="M205.48,31.23a3.17,3.17,0,0,1-.86.61,2.09,2.09,0,0,1-.92.2,1.68,1.68,0,0,1-1.21-.43,1.53,1.53,0,0,1-.45-1.16,1.71,1.71,0,0,1,.21-.86,1.56,1.56,0,0,1,.58-.59,3.32,3.32,0,0,1,1.11-.31,6.26,6.26,0,0,0,1.47-.33v-.24a1.19,1.19,0,0,0-.22-.81,1.22,1.22,0,0,0-.94-.34,1.33,1.33,0,0,0-.85.23A1.44,1.44,0,0,0,203,28l-.81-.12a2.16,2.16,0,0,1,.7-1.32,2.41,2.41,0,0,1,1.5-.41,2.27,2.27,0,0,1,1.2.27,1.2,1.2,0,0,1,.55.68,4.79,4.79,0,0,1,.11,1.17v1.26c0,.89,0,1.45,0,1.68a2.74,2.74,0,0,0,.21.67h-.85A2.06,2.06,0,0,1,205.48,31.23Zm-.07-2.12a5.54,5.54,0,0,1-1.34.36,2.55,2.55,0,0,0-.72.19.77.77,0,0,0-.32.3.9.9,0,0,0-.11.46.8.8,0,0,0,.26.64,1,1,0,0,0,.72.24,1.57,1.57,0,0,0,.8-.21,1.34,1.34,0,0,0,.53-.58,2.42,2.42,0,0,0,.18-1.05Z"/><path id="_Trazado_compuesto_19" data-name="&lt;Trazado compuesto&gt;" class="cls-1" d="M214.68,30.24l.82-.15a1.37,1.37,0,0,0,.4.89,1.45,1.45,0,0,0,1.67,0,.76.76,0,0,0,.29-.63.6.6,0,0,0-.25-.52,3.12,3.12,0,0,0-.83-.31,6.49,6.49,0,0,1-1.28-.48,1.39,1.39,0,0,1-.5-.52,1.53,1.53,0,0,1-.18-.74,1.5,1.5,0,0,1,.49-1.17,1.89,1.89,0,0,1,1.34-.45,2.21,2.21,0,0,1,.95.19,1.48,1.48,0,0,1,.62.49,2.11,2.11,0,0,1,.3.89l-.8.13a.94.94,0,0,0-1.05-.92,1.35,1.35,0,0,0-.8.2.65.65,0,0,0-.26.52.58.58,0,0,0,.25.49,5,5,0,0,0,.89.34,6.12,6.12,0,0,1,1.32.49,1.23,1.23,0,0,1,.47.49,1.6,1.6,0,0,1,.16.75,1.72,1.72,0,0,1-.53,1.3,2.09,2.09,0,0,1-1.47.49A1.87,1.87,0,0,1,214.68,30.24Z"/></g></g></g></g></svg>