<svg xmlns="http://www.w3.org/2000/svg" viewBox="0 0 84.65 83.37"><defs><style>.cls-1{fill:#6b6b6b;}</style></defs><title>clt_chulla</title><g id="Capa_2" data-name="Capa 2"><g id="Capa_1-2" data-name="Capa 1"><path class="cls-1" d="M44.49,67.91a.48.48,0,0,0-.44.07,1.08,1.08,0,0,0-.43.53c-.11.26-.25.56-.43.89a7.64,7.64,0,0,1-.62.94,4.87,4.87,0,0,1-.74.76,1.49,1.49,0,0,1-.82.34c-.18,0-.28,0-.28-.17a1.19,1.19,0,0,1,.15-.55c.12-.23.26-.49.45-.79l.55-.89c.19-.3.36-.6.52-.89a3.56,3.56,0,0,0,.33-.76.88.88,0,0,0-.15-.81,1.56,1.56,0,0,0-.7-.5A1.75,1.75,0,0,0,41,66a.71.71,0,0,0-.58.39,6,6,0,0,0-.32.75c-.12.32-.23.67-.34,1s-.34.77-.54,1.18a7.49,7.49,0,0,1-.66,1.09,3.52,3.52,0,0,1-.72.76.9.9,0,0,1-.75.21.5.5,0,0,1-.42-.4,1.8,1.8,0,0,1,0-.84A4.63,4.63,0,0,1,37,69a7.38,7.38,0,0,1,.69-1.2,8.57,8.57,0,0,1,1-1.15,6,6,0,0,1,1.21-.92,5,5,0,0,1,1.42-.51,4,4,0,0,1,1.6.06,1.15,1.15,0,0,0,.73,0,.47.47,0,0,0,.27-.34.61.61,0,0,0-.15-.45.92.92,0,0,0-.51-.35,7.43,7.43,0,0,0-2.75-.36,6.77,6.77,0,0,0-2.31.58,6.19,6.19,0,0,0-1.81,1.24,7.56,7.56,0,0,0-1.27,1.66,7,7,0,0,0-.49,1.09l0,.09a9.78,9.78,0,0,1-.46.92,8.32,8.32,0,0,1-.63,1,3.42,3.42,0,0,1-.76.76,1,1,0,0,1-.81.22c-.25-.06-.35-.26-.29-.6a5.36,5.36,0,0,1,.46-1.35,18.72,18.72,0,0,1,1-1.87c.41-.69.85-1.41,1.32-2.15s.94-1.47,1.42-2.19.91-1.39,1.3-2,.72-1.13,1-1.57a4.34,4.34,0,0,0,.47-.9,1.21,1.21,0,0,0,0-.68,2.36,2.36,0,0,0-.33-.7,3.86,3.86,0,0,0-.54-.6,2.26,2.26,0,0,0-.62-.39.94.94,0,0,0-.58-.08.61.61,0,0,0-.43.35c-.09.14-.25.46-.5,1l-.89,1.79c-.35.7-.72,1.46-1.12,2.29s-.81,1.67-1.2,2.49-.76,1.6-1.1,2.34-.62,1.37-.83,1.88a7.5,7.5,0,0,1-.44.94,7.18,7.18,0,0,1-.64,1,3.61,3.61,0,0,1-.78.74,1,1,0,0,1-.82.21c-.25,0-.35-.26-.3-.62a5.51,5.51,0,0,1,.46-1.38c.25-.57.58-1.2,1-1.91s.84-1.43,1.31-2.19.93-1.5,1.41-2.23.91-1.42,1.3-2,.71-1.15,1-1.59a4.6,4.6,0,0,0,.47-.91,1.42,1.42,0,0,0-.14-1,3.09,3.09,0,0,0-.72-.94,1.9,1.9,0,0,0-.91-.49.6.6,0,0,0-.71.36l-.58,1c-.3.53-.66,1.18-1.07,1.95s-.85,1.63-1.32,2.58-.9,1.89-1.31,2.84-.77,1.89-1.07,2.8c-.1.31-.19.61-.27.89s-.26.49-.43.78a6,6,0,0,1-.64.92,4.36,4.36,0,0,1-.75.74,1.55,1.55,0,0,1-.83.31c-.18,0-.25-.1-.2-.31a3.29,3.29,0,0,1,.37-.85c.19-.35.44-.75.72-1.19l.85-1.3c.27-.43.52-.83.74-1.2a4.69,4.69,0,0,0,.44-.87,1.06,1.06,0,0,0-.16-.92,2.1,2.1,0,0,0-.76-.69,2,2,0,0,0-.95-.25A.77.77,0,0,0,24,64q-.15.3-.45,1c-.21.46-.42,1-.63,1.57-.11.23-.24.51-.41.84a11.54,11.54,0,0,1-.55,1q-.32.54-.66,1a7.07,7.07,0,0,1-.71.9,3.07,3.07,0,0,1-.72.56.8.8,0,0,1-.67.06.34.34,0,0,1-.2-.39,2.41,2.41,0,0,1,.24-.76c.14-.29.33-.63.56-1l.73-1.17.79-1.22L22,65.27a.79.79,0,0,0,.08-.55,1.45,1.45,0,0,0-.24-.61,2.33,2.33,0,0,0-.47-.53,1.83,1.83,0,0,0-.59-.35,1.11,1.11,0,0,0-.57,0,.71.71,0,0,0-.46.38c-.35.6-.69,1.22-1,1.84A19.49,19.49,0,0,0,18,67.26c-.12.3-.22.6-.32.89a5.06,5.06,0,0,1-.46.67,8,8,0,0,1-.85.9,5.65,5.65,0,0,1-1,.71,2,2,0,0,1-.92.3c-.18,0-.25-.1-.19-.32a3.69,3.69,0,0,1,.39-.84c.21-.35.45-.74.75-1.17l.86-1.3c.29-.42.54-.82.77-1.18a4.25,4.25,0,0,0,.45-.86,1,1,0,0,0-.08-.79,2.09,2.09,0,0,0-.58-.68,1.91,1.91,0,0,0-.8-.38,1,1,0,0,0-.75.06,4.58,4.58,0,0,0-1,.74c-.4.36-.83.79-1.29,1.28s-.93,1-1.42,1.56l-1.34,1.53c.41-.63.88-1.3,1.4-2s1.06-1.46,1.6-2.19L14.83,62l1.38-1.89c.4-.56.74-1,1-1.44a4.12,4.12,0,0,0,.46-.78,1,1,0,0,0,0-.69,2.69,2.69,0,0,0-.38-.73,3.7,3.7,0,0,0-.61-.64,3.22,3.22,0,0,0-.7-.44,1.22,1.22,0,0,0-.63-.12.53.53,0,0,0-.44.33c-.08.16-.29.54-.65,1.15S13.47,58.13,13,59s-1.05,1.86-1.63,2.92-1.15,2.13-1.68,3.18q-.57,1.16-1.05,2.22l-.06.12a9,9,0,0,1-.59.88,4.54,4.54,0,0,1-1,.94A5.42,5.42,0,0,1,5.43,70a6.1,6.1,0,0,1-2.16.18,1.21,1.21,0,0,1-1.06-.61A2.61,2.61,0,0,1,2,68.15a7.55,7.55,0,0,1,.43-1.93,15.87,15.87,0,0,1,1-2.19,19.49,19.49,0,0,1,1.34-2.17A13.89,13.89,0,0,1,6.24,60a7.51,7.51,0,0,1,1.65-1.28A2.94,2.94,0,0,1,9.5,58.3c.34,0,.56.1.65.24a.49.49,0,0,1,0,.51,2,2,0,0,1-.5.62,4.77,4.77,0,0,1-.83.6,5.15,5.15,0,0,1-1,.44,3,3,0,0,1-1,.14.46.46,0,0,0-.51.28,1,1,0,0,0,0,.71,1.71,1.71,0,0,0,.54.75A1.8,1.8,0,0,0,7.88,63a3.16,3.16,0,0,0,1.53-.28,4.78,4.78,0,0,0,1.34-.9,4.26,4.26,0,0,0,.91-1.26,2.53,2.53,0,0,0,.25-1.37A2,2,0,0,0,11.26,58a3.57,3.57,0,0,0-1.76-.83,6.93,6.93,0,0,0-3.26,0,7,7,0,0,0-2.59,1.26A8.18,8.18,0,0,0,1.72,60.5,12,12,0,0,0,.5,63.18,11.43,11.43,0,0,0,0,66a7.93,7.93,0,0,0,.27,2.55,4.39,4.39,0,0,0,1.07,1.89,2.91,2.91,0,0,0,1.9.84A6.87,6.87,0,0,0,5.71,71a7.2,7.2,0,0,0,1.83-.84c0,.16-.08.31-.11.45a.79.79,0,0,0,.06.65.77.77,0,0,0,.39.35.66.66,0,0,0,.48,0,.55.55,0,0,0,.33-.4l.49-.56c.23-.27.51-.59.84-1l1.1-1.2c.39-.44.8-.87,1.21-1.29s.82-.84,1.22-1.23a14.55,14.55,0,0,1,1.08-1c-.15.39-.33.84-.54,1.33s-.41,1-.6,1.49-.35,1-.48,1.47a4.53,4.53,0,0,0-.18,1.29,1.52,1.52,0,0,0,.3.93,1.27,1.27,0,0,0,1,.4,3.09,3.09,0,0,0,1.52-.34,7,7,0,0,0,1.4-.94l.23-.21a2.13,2.13,0,0,0,.33,1.1,1.49,1.49,0,0,0,1,.6,1.75,1.75,0,0,0,1,0,3.39,3.39,0,0,0,.93-.47,4.71,4.71,0,0,0,.83-.79,8.81,8.81,0,0,0,.73-1,6.48,6.48,0,0,0,0,1,2.38,2.38,0,0,0,.16.77,1.11,1.11,0,0,0,.41.52,1.28,1.28,0,0,0,.72.22A2.66,2.66,0,0,0,24.69,72a5.55,5.55,0,0,0,1.19-1l.08-.1a2.61,2.61,0,0,0,.21.79,1.41,1.41,0,0,0,1.27.78,2.45,2.45,0,0,0,1.5-.38A5.68,5.68,0,0,0,30.17,71a2.09,2.09,0,0,0,.4,1.09,1.37,1.37,0,0,0,1.05.46A2.28,2.28,0,0,0,33,72.26a5.26,5.26,0,0,0,1.17-1l.27-.33a2.38,2.38,0,0,0,.63,1,2.34,2.34,0,0,0,1.46.58,2.08,2.08,0,0,0,1.55-.45,5.2,5.2,0,0,0,1.21-1.3,2.74,2.74,0,0,0,.3,1.34,1.13,1.13,0,0,0,1.08.55,2.6,2.6,0,0,0,1.43-.42,5.48,5.48,0,0,0,1.15-1A7.78,7.78,0,0,0,44.15,70,8.92,8.92,0,0,0,44.66,69a1.15,1.15,0,0,0,.11-.71A.42.42,0,0,0,44.49,67.91Z"/><path class="cls-1" d="M61.54,62a3.3,3.3,0,0,0,.2-1.4,2.81,2.81,0,0,0-.32-1.06,2.69,2.69,0,0,0-1.33-1.15,1.4,1.4,0,0,0-.59-.11c-.17,0-.26.08-.28.19a7.75,7.75,0,0,1-.18.76c-.1.41-.24.93-.42,1.55s-.39,1.32-.63,2.08-.5,1.54-.78,2.32-.56,1.53-.86,2.28-.61,1.4-.91,2a7.81,7.81,0,0,1-.89,1.39,1.23,1.23,0,0,1-.8.54c-.17,0-.28-.14-.34-.43a5.75,5.75,0,0,1,0-1.17,15.15,15.15,0,0,1,.18-1.68c.11-.63.23-1.3.37-2s.3-1.39.48-2.1.36-1.38.55-2,.37-1.18.56-1.67A5.7,5.7,0,0,1,56,59.21a.69.69,0,0,0,.1-.6.5.5,0,0,0-.36-.32.88.88,0,0,0-.59.1,1.58,1.58,0,0,0-.61.66,8.74,8.74,0,0,0-.5,1.14c-.2.52-.4,1.12-.61,1.8s-.41,1.43-.61,2.23-.37,1.59-.51,2.38-.23,1.55-.28,2.28a8.76,8.76,0,0,0,0,1.94,3,3,0,0,0,.49,1.34,1.21,1.21,0,0,0,1.05.48,3.55,3.55,0,0,0,2-.67,8.32,8.32,0,0,0,1.78-1.65,15.82,15.82,0,0,0,1.51-2.23,25.59,25.59,0,0,0,1.21-2.39c.35-.79.64-1.5.88-2.16S61.42,62.39,61.54,62Z"/><path class="cls-1" d="M65.2,62.41a1.61,1.61,0,0,0,.61-.15,1.55,1.55,0,0,0,.48-.36,1.52,1.52,0,0,0,.32-.51,1.43,1.43,0,0,0,.1-.61,1.48,1.48,0,0,0-.52-1.09,1.52,1.52,0,0,0-1.13-.4,1.55,1.55,0,0,0-1.51,1.62,1.57,1.57,0,0,0,1.65,1.5Z"/><path class="cls-1" d="M84.61,66.59a.44.44,0,0,0-.3-.32.52.52,0,0,0-.44.11,1.12,1.12,0,0,0-.38.56,8.41,8.41,0,0,1-.37.92,7.23,7.23,0,0,1-.55,1,4.28,4.28,0,0,1-.68.81,1.55,1.55,0,0,1-.79.41c-.18,0-.28,0-.29-.16a1.2,1.2,0,0,1,.11-.55,8,8,0,0,1,.38-.82c.16-.31.33-.62.49-.94s.32-.62.45-.92a3.94,3.94,0,0,0,.28-.78.87.87,0,0,0-.21-.8,1.67,1.67,0,0,0-.73-.45,1.76,1.76,0,0,0-.85,0,.68.68,0,0,0-.55.43,4.41,4.41,0,0,0-.27.77c-.09.32-.18.68-.26,1.06s-.28.8-.46,1.22a7,7,0,0,1-.57,1.13A3.5,3.5,0,0,1,78,70a.87.87,0,0,1-.73.26.5.5,0,0,1-.46-.36,2,2,0,0,1-.07-.84A4.48,4.48,0,0,1,77,68a6.7,6.7,0,0,1,.59-1.25,9.08,9.08,0,0,1,.88-1.21,5.74,5.74,0,0,1,1.14-1A4.67,4.67,0,0,1,81,63.87a4,4,0,0,1,1.59-.07,1.09,1.09,0,0,0,.73-.07.42.42,0,0,0,.24-.36.62.62,0,0,0-.18-.44.9.9,0,0,0-.54-.3A7.18,7.18,0,0,0,80,62.47a6.77,6.77,0,0,0-2.26.75,6.18,6.18,0,0,0-1.71,1.37,7.45,7.45,0,0,0-1.15,1.75,6.34,6.34,0,0,0-.43,1.22,9.63,9.63,0,0,1-.39.94,7.39,7.39,0,0,1-.56,1,3.27,3.27,0,0,1-.69.81,1,1,0,0,1-.79.28c-.26,0-.38-.23-.35-.59a5.79,5.79,0,0,1,.37-1.39q.33-.86.87-2c.36-.73.75-1.49,1.16-2.26s.83-1.55,1.25-2.31.81-1.47,1.16-2.12.64-1.19.87-1.65a4.4,4.4,0,0,0,.4-.93,1.12,1.12,0,0,0-.08-.69,2.83,2.83,0,0,0-.42-.7,3.2,3.2,0,0,0-.62-.6,2.46,2.46,0,0,0-.68-.38,1.06,1.06,0,0,0-.62-.06.61.61,0,0,0-.43.37l-.45,1c-.24.5-.51,1.12-.82,1.85s-.66,1.54-1,2.42-.72,1.8-1,2.73a4.21,4.21,0,0,0-2-.2,4.77,4.77,0,0,0-1.79.69,6,6,0,0,0-1.47,1.34,8,8,0,0,0-1.05,1.71,7.56,7.56,0,0,0-.42,1.27c-.1.24-.22.5-.36.8a7.64,7.64,0,0,1-.58,1,4.57,4.57,0,0,1-.71.79,1.57,1.57,0,0,1-.81.37c-.18,0-.25-.08-.22-.3a3.71,3.71,0,0,1,.31-.87c.17-.36.38-.77.64-1.24l.74-1.36c.25-.45.47-.86.66-1.24a4,4,0,0,0,.37-.9,1,1,0,0,0-.22-.9,2,2,0,0,0-.81-.65,1.92,1.92,0,0,0-1-.17.73.73,0,0,0-.66.49c-.09.22-.22.58-.4,1.09s-.36,1.07-.53,1.69a19.8,19.8,0,0,0-.45,2,7.56,7.56,0,0,0-.16,1.83A2.62,2.62,0,0,0,61,71.83a1.1,1.1,0,0,0,1.07.5,2.61,2.61,0,0,0,1.4-.47,5.33,5.33,0,0,0,1.12-1l.21-.29a2.32,2.32,0,0,0,.69,1A2.38,2.38,0,0,0,67,72a2.11,2.11,0,0,0,1-.19,3,3,0,0,0,.83-.54,5.14,5.14,0,0,0,.72-.81,9.11,9.11,0,0,0,.59-1,3.23,3.23,0,0,0,.36,1.72,1.42,1.42,0,0,0,1.32.65,2.28,2.28,0,0,0,1.39-.44,5.06,5.06,0,0,0,1.1-1.07l.23-.34a2.45,2.45,0,0,0,.7,1,2.36,2.36,0,0,0,1.5.48,2.19,2.19,0,0,0,1.52-.56,5.66,5.66,0,0,0,1.11-1.39,2.57,2.57,0,0,0,.39,1.31,1.13,1.13,0,0,0,1.13.47,2.57,2.57,0,0,0,1.38-.52,4.86,4.86,0,0,0,1.08-1.09,6.51,6.51,0,0,0,.76-1.29,7.46,7.46,0,0,0,.44-1.12A1.13,1.13,0,0,0,84.61,66.59ZM70.93,65.42q-.17.52-.3,1l-.33.86c-.12.32-.27.65-.42,1s-.33.65-.51,1a5.47,5.47,0,0,1-.57.83,2.85,2.85,0,0,1-.59.57.83.83,0,0,1-.62.14c-.24,0-.4-.22-.45-.55a3,3,0,0,1,.07-1.2,9,9,0,0,1,.52-1.54,7.25,7.25,0,0,1,.9-1.52,5.71,5.71,0,0,1,1.2-1.16,2.55,2.55,0,0,1,1.43-.48C71.15,64.72,71,65.07,70.93,65.42Z"/><path class="cls-1" d="M22,82.7c0-1.12.05-2.24.08-3.36h.19c0,1.05-.05,2.11-.07,3.17l1.3,0v.19Z"/><path class="cls-1" d="M25.35,79.41l-.06,3.36H25.1l.06-3.36Z"/><path class="cls-1" d="M28.69,82.87a1.72,1.72,0,0,1-1.15-3A1.7,1.7,0,0,1,30,80a1.6,1.6,0,0,1,.49,1.22,1.63,1.63,0,0,1-.52,1.21,1.74,1.74,0,0,1-.85.46h0a2,2,0,0,1,.41.21,1,1,0,0,0,.24.12l.09,0a.42.42,0,0,0,.15,0,.34.34,0,0,0,.15-.18s0,0,0-.07h.19a.5.5,0,0,1,0,.12.46.46,0,0,1-.24.29.53.53,0,0,1-.24.06.36.36,0,0,1-.14,0,1.12,1.12,0,0,1-.35-.19L29.06,83l-.12,0a.46.46,0,0,0-.2,0,.41.41,0,0,0-.21.26s0,0,0,0h-.19a.43.43,0,0,1,0-.11.6.6,0,0,1,.3-.36Zm.07-3.25a1.44,1.44,0,0,0-1.09.43,1.49,1.49,0,0,0-.47,1.07,1.52,1.52,0,0,0,.43,1.09,1.55,1.55,0,0,0,2.18,0,1.52,1.52,0,0,0,.46-1.08,1.52,1.52,0,0,0-1.51-1.55Z"/><path class="cls-1" d="M34.13,79.54h.2l0,2.41a1,1,0,0,1-.33.65,1,1,0,0,1-.78.32,1.11,1.11,0,0,1-.77-.33,1.06,1.06,0,0,1-.32-.78l0-2.29h.19c0,.76,0,1.53,0,2.29a.85.85,0,0,0,.25.64.92.92,0,0,0,.65.28.9.9,0,0,0,.64-.26.87.87,0,0,0,.27-.64C34.12,81.07,34.13,80.3,34.13,79.54Z"/><path class="cls-1" d="M38.91,80a1.67,1.67,0,0,1,.5,1.23,1.63,1.63,0,0,1-.51,1.21,1.66,1.66,0,0,1-1.22.5A1.73,1.73,0,0,1,36.47,80a1.73,1.73,0,0,1,2.44,0Zm-1.22-.31a1.46,1.46,0,0,0-1.08.44,1.48,1.48,0,0,0-.46,1.08,1.54,1.54,0,0,0,.44,1.09,1.48,1.48,0,0,0,1.09.45,1.54,1.54,0,0,0,1.09-.44,1.53,1.53,0,0,0,0-2.17A1.44,1.44,0,0,0,37.69,79.71Z"/><path class="cls-1" d="M41.88,81.77h-.63v1.16h-.19V79.57h.88a1.16,1.16,0,0,1,.66.33,1.06,1.06,0,0,1,.32.77,1.1,1.1,0,0,1-.83,1.07c.26.4.51.8.77,1.19h-.23Zm-.63-2v1.81h.57a.87.87,0,0,0,.64-.27.85.85,0,0,0,.27-.64.87.87,0,0,0-.27-.64.86.86,0,0,0-.64-.26Z"/><path class="cls-1" d="M47.82,81.06a1.3,1.3,0,0,1-.57-.33.72.72,0,0,1-.22-.5.69.69,0,0,1,.21-.5.67.67,0,0,1,.5-.21.73.73,0,0,1,.51.2.63.63,0,0,1,.16.25l-.17.07a.59.59,0,0,0-.13-.19.5.5,0,0,0-.37-.15.54.54,0,0,0-.37.16.5.5,0,0,0-.15.37.52.52,0,0,0,.16.37,1.25,1.25,0,0,0,.4.25,1.78,1.78,0,0,1,.68.4,1,1,0,0,1,.3.7,1,1,0,0,1-.29.71,1,1,0,0,1-1.7-.53l.18-.07a.79.79,0,0,0,.24.48.81.81,0,0,0,.57.23.78.78,0,0,0,.58-.24.82.82,0,0,0,.23-.58.74.74,0,0,0-.24-.56A1.5,1.5,0,0,0,47.82,81.06Z"/><path class="cls-1" d="M51.06,79.72l0,3.17H50.9l0-3.17H50v-.19l1.89,0v.19Z"/><path class="cls-1" d="M56.14,79.92a1.68,1.68,0,0,1,.52,1.21A1.72,1.72,0,0,1,55,82.88a1.71,1.71,0,0,1-1.75-1.7,1.72,1.72,0,0,1,1.7-1.74A1.68,1.68,0,0,1,56.14,79.92Zm-1.23-.29a1.48,1.48,0,0,0-1.07.46,1.45,1.45,0,0,0-.44,1.09,1.52,1.52,0,0,0,.46,1.08,1.5,1.5,0,0,0,1.1.43A1.48,1.48,0,0,0,56,82.23a1.53,1.53,0,0,0,.43-1.09,1.54,1.54,0,0,0-1.56-1.51Z"/><path class="cls-1" d="M59.14,81.61h-.63l0,1.16h-.19l-.06-3.36.88,0a1.13,1.13,0,0,1,.66.31,1.1,1.1,0,0,1-.48,1.85l.81,1.18h-.24Zm-.67-2,0,1.81h.58a.91.91,0,1,0,0-1.81Z"/><path class="cls-1" d="M63.31,79.32v.19l-1.5,0,0,1.39,1.49,0v.19l-1.49,0,0,1.4,1.5,0v.19l-1.68,0c0-1.12-.05-2.24-.08-3.36Z"/><path class="cls-1" d="M83.77,80.54q-8.16.39-16.32.62V81q8.16-.23,16.32-.62Z"/><path class="cls-1" d="M17.14,81.16Q9,80.92.83,80.54v-.13Q9,80.8,17.15,81Z"/><path class="cls-1" d="M68.21,81.75l-1.49,0c0-.49,0-1,0-1.48l1.49,0Z"/><path class="cls-1" d="M17.87,81.79l-1.49,0c0-.49,0-1,0-1.48l1.49,0C17.9,80.8,17.88,81.3,17.87,81.79Z"/><path class="cls-1" d="M53.46,23.73A1.31,1.31,0,0,1,54,21.45a2.55,2.55,0,0,1,3.42,2,3.82,3.82,0,0,1-2.16,4c-.43.22-.9.36-1.46.58-.06,2.13.25,4.14,2.15,5.48.74.52.58,1,.3,1.62a10.48,10.48,0,0,1-6.07,5.5c-5.15,2-11.36.9-14.8-2.79a28.33,28.33,0,0,1-2.5-3.72,5.62,5.62,0,0,0,3.09-4.84c.11-.82,0-1.36-.93-1.64a3.66,3.66,0,0,1-2.67-3.05,2.65,2.65,0,0,1,2.45-3.32,2.74,2.74,0,0,1,1.77,1c.25.31,0,1.05-.08,1.5-.62-.53-1-1-1.48-1.19-.21-.07-1,.7-.93.79.3.59.69,1.41,1.2,1.53a4,4,0,0,0,2.38-.34,17.23,17.23,0,0,0,2.15-1.53c.7-.43,1.55-1.15,2.19-1a19,19,0,0,0,5.88.05c.77-.09,1.68.86,2.51,1.35A20.18,20.18,0,0,0,53,25a2.45,2.45,0,0,0,1.84-.14,2.32,2.32,0,0,0,.76-1.53c0-.2-.77-.78-1-.7C54.16,22.74,53.87,23.29,53.46,23.73Zm-2.77,4.59c-1.78-.87-3.55-1.76-5.34-2.59a1.37,1.37,0,0,0-1.05,0c-1.79.83-3.56,1.71-5.33,2.57a2.8,2.8,0,0,0,4.3,1,2.26,2.26,0,0,1,3.15,0A2.78,2.78,0,0,0,50.69,28.32Z"/><path class="cls-1" d="M53.4,2.12,52.73,0A4.86,4.86,0,0,1,57,3.68a6,6,0,0,1-2.53,6.81C52.83,7.15,50,7.73,47.1,8.26c-2.12.39-4.22.92-6.36,1.24A9.47,9.47,0,0,1,33.8,8.23a3.58,3.58,0,0,1-.55-5.78c1.51,2.22,3.1,2.84,5.92,2.06C41,4,42.79,3.26,44.59,2.62,47.35,1.64,50.13.88,53.4,2.12Z"/><path class="cls-1" d="M39.28,12.71a15.92,15.92,0,0,0,3,.74,15.1,15.1,0,0,0,5.16-.11,15.12,15.12,0,0,1,7.82.17c.21.05.39,1,.28,1.49-.16.68-.67,1.27-.89,1.95-.89,2.7-2.62,3.94-5.13,3.61-2.17-.28-3.64-2.11-3.59-4.82,0-1-.23-1.34-1.17-1.34s-1.07.43-1.08,1.3c0,3.27-1.82,5.07-4.72,4.89a4.21,4.21,0,0,1-3.67-2.77c-.47-1-.95-2-1.37-3.05-.27-.67-.23-1.27.69-1.41Z"/><path class="cls-1" d="M17.55,17.32a1.65,1.65,0,0,1,2,.64,2,2,0,0,0-2.47-1.57C16.38,16.72,16.65,17.58,17.55,17.32Z"/><path class="cls-1" d="M18.15,14.84a3.42,3.42,0,0,1,1.94,2.59c0-1.93-.71-3.31-1.57-3.71C17.82,13.39,17.08,14.33,18.15,14.84Z"/><path class="cls-1" d="M21.38,18a1.64,1.64,0,0,1,2-.64c.9.26,1.17-.6.5-.93A2,2,0,0,0,21.38,18Z"/><path class="cls-1" d="M22.74,14.84c1.07-.51.33-1.45-.37-1.12-.85.4-1.55,1.78-1.57,3.71A3.42,3.42,0,0,1,22.74,14.84Z"/><path class="cls-1" d="M18.35,23.53,18.29,30a.36.36,0,0,1-.36.36.37.37,0,0,1-.36-.37l.06-6.44a.36.36,0,0,1,.36-.36A.37.37,0,0,1,18.35,23.53Z"/><path class="cls-1" d="M19.88,23.54,19.82,30a.36.36,0,0,1-.72,0l.06-6.44a.36.36,0,0,1,.72,0Z"/><path class="cls-1" d="M21.41,23.56,21.35,30a.37.37,0,0,1-.37.36.36.36,0,0,1-.35-.37l0-5.21V23.55a.36.36,0,0,1,.52-.32A.37.37,0,0,1,21.41,23.56Z"/><path class="cls-1" d="M22.93,23.57,22.87,30a.36.36,0,1,1-.72,0l0-2V26.7l0-3.14a.37.37,0,0,1,.37-.36.43.43,0,0,1,.16.05A.35.35,0,0,1,22.93,23.57Z"/><path class="cls-1" d="M24.17,21.8A1.13,1.13,0,0,0,23.11,21h0a1.27,1.27,0,0,0,0-.2A1.76,1.76,0,0,0,21.37,19a1.74,1.74,0,0,0-1.51.82,1.51,1.51,0,0,0-.91-.33A1.46,1.46,0,0,0,17.49,21a1.12,1.12,0,0,0-1.13,1.11,1.22,1.22,0,0,0,.08.43h0v.78H15.07a1.63,1.63,0,0,0-1.64,1.61l0,1.89a3,3,0,0,0,3,3.16v1.42a1,1,0,0,0,.95,1l5.76,0a1,1,0,0,0,1-.95l.08-8.85a1,1,0,0,0,.09-.43,1,1,0,0,0,0-.34h0Zm-9.87,5,0-1.89a.73.73,0,0,1,.74-.72h1.37l0,4.86A2.17,2.17,0,0,1,14.3,26.78Zm9.26,3.34a.92.92,0,0,1-.91.9L17.78,31a.89.89,0,0,1-.89-.91L17,22.51l2.55,0h.41l1.53,0h2.18Z"/><path class="cls-1" d="M66.11,17.32a1.65,1.65,0,0,1,2,.64,2,2,0,0,0-2.47-1.57C64.94,16.72,65.21,17.58,66.11,17.32Z"/><path class="cls-1" d="M66.71,14.84a3.39,3.39,0,0,1,1.94,2.59c0-1.93-.71-3.31-1.56-3.71S65.64,14.33,66.71,14.84Z"/><path class="cls-1" d="M69.94,18a1.64,1.64,0,0,1,2-.64c.9.26,1.17-.6.5-.93A2,2,0,0,0,69.94,18Z"/><path class="cls-1" d="M71.31,14.84c1.06-.51.32-1.45-.38-1.12-.85.4-1.55,1.78-1.56,3.71A3.39,3.39,0,0,1,71.31,14.84Z"/><path class="cls-1" d="M71.11,23.53l0,6.44a.37.37,0,0,0,.37.36.37.37,0,0,0,.36-.37l-.06-6.44a.37.37,0,0,0-.37-.36A.36.36,0,0,0,71.11,23.53Z"/><path class="cls-1" d="M69.58,23.54,69.64,30a.36.36,0,0,0,.72,0l-.06-6.44a.36.36,0,0,0-.36-.36A.36.36,0,0,0,69.58,23.54Z"/><path class="cls-1" d="M68.05,23.56,68.11,30a.36.36,0,0,0,.36.36.37.37,0,0,0,.36-.37l0-5.21V23.55a.36.36,0,0,0-.36-.36.42.42,0,0,0-.16,0A.36.36,0,0,0,68.05,23.56Z"/><path class="cls-1" d="M66.52,23.57,66.58,30a.37.37,0,0,0,.37.36A.34.34,0,0,0,67.3,30V26.7l0-3.14a.37.37,0,0,0-.37-.36.43.43,0,0,0-.16.05A.36.36,0,0,0,66.52,23.57Z"/><path class="cls-1" d="M65.29,21.8h0a1,1,0,0,0,0,.34,1.18,1.18,0,0,0,.08.43l.09,8.85a1,1,0,0,0,1,.95l5.77,0a1,1,0,0,0,1-1V29.93a3,3,0,0,0,3-3.16l0-1.89a1.63,1.63,0,0,0-1.64-1.61H73V22.5h0a1.22,1.22,0,0,0,.08-.43A1.12,1.12,0,0,0,72,21a1.47,1.47,0,0,0-1.47-1.44,1.5,1.5,0,0,0-.9.33,1.77,1.77,0,0,0-3.26,1,1.23,1.23,0,0,0,0,.2h0a1.12,1.12,0,0,0-1.06.79ZM73.07,29l0-4.86H74.4a.73.73,0,0,1,.74.72v1.89A2.16,2.16,0,0,1,73.07,29Zm-7.24-6.47H68l1.54,0h.4l2.56,0,.07,7.55a.9.9,0,0,1-.89.91L66.81,31a.9.9,0,0,1-.91-.9Z"/><path class="cls-1" d="M36.23,49.63a.92.92,0,0,1-.3.07c-.17,0-.34-.08-.35-.26,0-.57,0-1.14,0-1.7a.37.37,0,0,1,.58-.24.19.19,0,0,0,.08,0c.54,0,1.08,0,1.61-.07,1.06-.09,2.11-.24,3.17-.3a5.88,5.88,0,0,0,2.4-.65,3.42,3.42,0,0,1,1.72-.38h7.56a1.77,1.77,0,0,1,.33,0c.66.13.86.34.87,1,0,1,0,1.9,0,2.85a1.54,1.54,0,0,1,0,.3.62.62,0,0,1-.53.54,6.47,6.47,0,0,1-.87.11c-1.28,0-2.56,0-3.85,0-1.07,0-2.15,0-3.23,0A4.24,4.24,0,0,1,43,50.4a4.18,4.18,0,0,0-1.87-.47c-1-.06-2-.16-3-.25l-1.28-.11a1.67,1.67,0,0,0-.31,0Zm17.43-.75h0l-.06.22a5.61,5.61,0,0,1-.23.8.63.63,0,0,1-.3.32,2.09,2.09,0,0,1-.7.11c-1,0-2.09,0-3.14,0-1.4,0-2.8-.05-4.21-.05a3.63,3.63,0,0,1-1.55-.36,8.9,8.9,0,0,0-1.4-.48,5,5,0,0,0-1-.09c-1.39-.12-2.77-.25-4.16-.35a8.42,8.42,0,0,0-1,.05l-.08-.2h-.05l.07.56a.91.91,0,0,1,.32-.14,3.75,3.75,0,0,1,.67,0c1.3.11,2.6.25,3.9.32a6.54,6.54,0,0,1,3,.81,2.17,2.17,0,0,0,1.1.24l3.45,0c1.4,0,2.8,0,4.2,0a3.37,3.37,0,0,0,.71-.09c.31-.06.4-.16.42-.47S53.64,49.3,53.66,48.88Z"/><rect class="cls-1" x="63.15" y="40.99" width="1.73" height="1.73" transform="translate(48.35 -33.01) rotate(45)"/><rect class="cls-1" x="24.58" y="40.61" width="1.73" height="1.73" transform="translate(36.78 -5.84) rotate(45)"/></g></g></svg>