<svg xmlns="http://www.w3.org/2000/svg" viewBox="0 0 129.67 54.26"><defs><style>.cls-1{fill:#6b6b6b;}</style></defs><title>clt_sanjuan</title><g id="Capa_2" data-name="Capa 2"><g id="Capa_1-2" data-name="Capa 1"><g id="_Grupo_" data-name="&lt;Grupo&gt;"><polygon id="_Trazado_" data-name="&lt;Trazado&gt;" class="cls-1" points="98.58 6.12 98.47 6.12 98.47 6.25 74.51 35.87 0 35.87 0 43.7 77.73 43.7 92.02 26.03 100.24 26.03 86.27 43.7 92.49 43.7 114.59 15.77 108.37 15.77 104.11 21.15 95.97 21.15 103.41 11.97 122.21 11.97 126.67 6.12 98.58 6.12"/><polygon id="_Trazado_2" data-name="&lt;Trazado&gt;" class="cls-1" points="64.04 48.31 60.65 52.65 86.61 52.65 90.01 48.31 64.04 48.31"/><polygon id="_Trazado_3" data-name="&lt;Trazado&gt;" class="cls-1" points="123.45 0 120.06 4.34 126.27 4.34 129.67 0 123.45 0"/></g><g id="_Grupo_2" data-name="&lt;Grupo&gt;"><path id="_Trazado_compuesto_" data-name="&lt;Trazado compuesto&gt;" class="cls-1" d="M6.33,13.94V4.5H8.4V8.12h3.82V4.5H14.3v9.44H12.22V9.87H8.4v4.07Z"/><path id="_Trazado_compuesto_2" data-name="&lt;Trazado compuesto&gt;" class="cls-1" d="M15.71,9.26a5.09,5.09,0,0,1,1.23-3.54,4.31,4.31,0,0,1,3.41-1.45,4.33,4.33,0,0,1,3.41,1.45A5.09,5.09,0,0,1,25,9.26a5,5,0,0,1-1.23,3.47,4.34,4.34,0,0,1-3.41,1.43,4.33,4.33,0,0,1-3.41-1.43A5,5,0,0,1,15.71,9.26Zm2.07,0a3.7,3.7,0,0,0,.59,2.16,2.23,2.23,0,0,0,2,1,2.25,2.25,0,0,0,2-1,3.7,3.7,0,0,0,.58-2.16A3.92,3.92,0,0,0,22.33,7a2.23,2.23,0,0,0-2-1,2.22,2.22,0,0,0-2,1A3.92,3.92,0,0,0,17.78,9.26Z"/><path id="_Trazado_compuesto_3" data-name="&lt;Trazado compuesto&gt;" class="cls-1" d="M25.81,10.8h2a1.57,1.57,0,0,0,.63,1.35,2.37,2.37,0,0,0,1.45.4,2.74,2.74,0,0,0,1.19-.23,1,1,0,0,0,.65-1c0-.54-.48-.94-1.45-1.21-1.68-.48-2.58-.75-2.71-.82a2.33,2.33,0,0,1-1.46-2.21A2.48,2.48,0,0,1,27.25,5a4.08,4.08,0,0,1,2.4-.71A4.47,4.47,0,0,1,32.28,5a2.65,2.65,0,0,1,1.15,2.33h-2c-.05-.95-.67-1.42-1.86-1.42a1.89,1.89,0,0,0-1,.23,1,1,0,0,0-.47.84.78.78,0,0,0,.52.75,20.25,20.25,0,0,0,2.3.68A5.36,5.36,0,0,1,32.6,9a2.36,2.36,0,0,1,1.15,2.11,2.65,2.65,0,0,1-1,2.17,4.55,4.55,0,0,1-2.93.86,4.6,4.6,0,0,1-2.8-.81A2.93,2.93,0,0,1,25.81,10.8Z"/><path id="_Trazado_compuesto_4" data-name="&lt;Trazado compuesto&gt;" class="cls-1" d="M35,13.94V4.5h4.25a3.24,3.24,0,0,1,2.52.94,2.94,2.94,0,0,1,.75,2.09,2.92,2.92,0,0,1-.75,2.08,3.24,3.24,0,0,1-2.52.94H37.05v3.39Zm2.07-7.83V8.94h1.62a2.55,2.55,0,0,0,1.27-.25,1.28,1.28,0,0,0,.55-1.16,1.29,1.29,0,0,0-.55-1.17,2.66,2.66,0,0,0-1.27-.25Z"/><path id="_Trazado_compuesto_5" data-name="&lt;Trazado compuesto&gt;" class="cls-1" d="M43.79,13.94V4.5h2.08v9.44Z"/><path id="_Trazado_compuesto_6" data-name="&lt;Trazado compuesto&gt;" class="cls-1" d="M49.78,13.94V6.24H47V4.5h7.73V6.24H51.86v7.7Z"/><path id="_Trazado_compuesto_7" data-name="&lt;Trazado compuesto&gt;" class="cls-1" d="M54.76,13.94,58.35,4.5h2.12L64,13.94H61.85l-.72-2.11H57.61l-.74,2.11Zm4.62-7.11-1.23,3.46h2.44L59.4,6.83Z"/><path id="_Trazado_compuesto_8" data-name="&lt;Trazado compuesto&gt;" class="cls-1" d="M64.82,13.94V4.5H66.9v7.69h4.6v1.75Z"/><path id="_Trazado_compuesto_9" data-name="&lt;Trazado compuesto&gt;" class="cls-1" d="M5.35,26.66h2A1.56,1.56,0,0,0,8,28a2.35,2.35,0,0,0,1.45.4,2.77,2.77,0,0,0,1.19-.23,1,1,0,0,0,.65-.95c0-.54-.49-.94-1.46-1.21-1.67-.48-2.57-.75-2.7-.82A2.33,2.33,0,0,1,5.67,23a2.5,2.5,0,0,1,1.12-2.15,4.11,4.11,0,0,1,2.41-.71,4.49,4.49,0,0,1,2.63.71A2.65,2.65,0,0,1,13,23.17H11c-.05-1-.67-1.42-1.86-1.42a2,2,0,0,0-1,.23.94.94,0,0,0-.46.84.78.78,0,0,0,.52.75,20.25,20.25,0,0,0,2.3.68,5.36,5.36,0,0,1,1.65.63A2.38,2.38,0,0,1,13.3,27a2.66,2.66,0,0,1-1,2.17A4.52,4.52,0,0,1,9.37,30a4.6,4.6,0,0,1-2.8-.81A3,3,0,0,1,5.35,26.66Z"/><path id="_Trazado_compuesto_10" data-name="&lt;Trazado compuesto&gt;" class="cls-1" d="M13.52,29.8l3.58-9.44h2.13l3.53,9.44H20.61l-.72-2.11H16.36l-.74,2.11Zm4.61-7.11-1.22,3.46h2.44l-1.19-3.46Z"/><path id="_Trazado_compuesto_11" data-name="&lt;Trazado compuesto&gt;" class="cls-1" d="M23.58,29.8V20.36h2.07l4,6.33V20.36h1.94V29.8H29.47l-3.95-6.32V29.8Z"/><path id="_Trazado_compuesto_12" data-name="&lt;Trazado compuesto&gt;" class="cls-1" d="M42.57,20.36v6.46q0,3.2-3.14,3.2a3.25,3.25,0,0,1-2.14-.69,2.68,2.68,0,0,1-1-2.23v-.82H38.2v.42c0,1.05.4,1.58,1.2,1.58a.94.94,0,0,0,1-.53,2.74,2.74,0,0,0,.14-1V20.36Z"/><path id="_Trazado_compuesto_13" data-name="&lt;Trazado compuesto&gt;" class="cls-1" d="M52.41,20.36v5.87a3.64,3.64,0,0,1-1.06,2.83,4.25,4.25,0,0,1-3,1q-4,0-4-3.79V20.36h2.07v5.87a2.48,2.48,0,0,0,.34,1.41,1.87,1.87,0,0,0,1.6.64,2,2,0,0,0,1.54-.51,2.25,2.25,0,0,0,.42-1.54V20.36Z"/><path id="_Trazado_compuesto_14" data-name="&lt;Trazado compuesto&gt;" class="cls-1" d="M53.18,29.8l3.59-9.44h2.12l3.53,9.44H60.27l-.71-2.11H56l-.74,2.11Zm4.62-7.11-1.23,3.46H59l-1.19-3.46Z"/><path id="_Trazado_compuesto_15" data-name="&lt;Trazado compuesto&gt;" class="cls-1" d="M63.24,29.8V20.36h2.07l4,6.33V20.36h1.94V29.8H69.13l-3.94-6.32V29.8Z"/></g><g id="_Grupo_3" data-name="&lt;Grupo&gt;"><path id="_Trazado_compuesto_16" data-name="&lt;Trazado compuesto&gt;" class="cls-1" d="M3.12,54.14V49H4.25v2H6.33V49H7.45v5.14H6.33V51.92H4.25v2.22Z"/><path id="_Trazado_compuesto_17" data-name="&lt;Trazado compuesto&gt;" class="cls-1" d="M8.22,51.59a2.81,2.81,0,0,1,.67-1.93,2.36,2.36,0,0,1,1.86-.78,2.34,2.34,0,0,1,1.85.78,2.77,2.77,0,0,1,.67,1.93,2.68,2.68,0,0,1-.67,1.89,2.35,2.35,0,0,1-1.85.78,2.39,2.39,0,0,1-1.86-.78A2.73,2.73,0,0,1,8.22,51.59Zm1.13,0a2.05,2.05,0,0,0,.32,1.18,1.23,1.23,0,0,0,1.08.54,1.23,1.23,0,0,0,1.08-.54,2.05,2.05,0,0,0,.31-1.18,2.17,2.17,0,0,0-.31-1.22,1.23,1.23,0,0,0-1.08-.54,1.21,1.21,0,0,0-1.08.54A2.17,2.17,0,0,0,9.35,51.59Z"/><path id="_Trazado_compuesto_18" data-name="&lt;Trazado compuesto&gt;" class="cls-1" d="M13.72,52.43h1.09a.84.84,0,0,0,.35.73,1.26,1.26,0,0,0,.79.22,1.57,1.57,0,0,0,.65-.12.55.55,0,0,0,.35-.52c0-.29-.27-.51-.79-.66-.91-.26-1.41-.41-1.48-.45a1.26,1.26,0,0,1-.79-1.2,1.38,1.38,0,0,1,.61-1.17,2.27,2.27,0,0,1,1.31-.38,2.47,2.47,0,0,1,1.43.38,1.45,1.45,0,0,1,.63,1.27H16.78c0-.52-.37-.77-1-.77a1,1,0,0,0-.52.13.49.49,0,0,0-.26.45.43.43,0,0,0,.29.41,9,9,0,0,0,1.25.36,3.36,3.36,0,0,1,.9.35A1.3,1.3,0,0,1,18,52.61a1.44,1.44,0,0,1-.55,1.18,2.44,2.44,0,0,1-1.58.47,2.54,2.54,0,0,1-1.53-.44A1.58,1.58,0,0,1,13.72,52.43Z"/><path id="_Trazado_compuesto_19" data-name="&lt;Trazado compuesto&gt;" class="cls-1" d="M18.71,54.14V49H21a1.74,1.74,0,0,1,1.36.51,1.78,1.78,0,0,1,0,2.27,1.74,1.74,0,0,1-1.36.51H19.84v1.85Zm1.13-4.26v1.54h.88a1.42,1.42,0,0,0,.69-.14.68.68,0,0,0,.3-.63.7.7,0,0,0-.3-.64,1.44,1.44,0,0,0-.69-.13Z"/><path id="_Trazado_compuesto_20" data-name="&lt;Trazado compuesto&gt;" class="cls-1" d="M23.51,54.14V49h1.13v5.14Z"/><path id="_Trazado_compuesto_21" data-name="&lt;Trazado compuesto&gt;" class="cls-1" d="M25.63,54.14V49h3.84v1H26.76v1.1h2.49v.88H26.76v1.26h2.77v1Z"/><path id="_Trazado_compuesto_22" data-name="&lt;Trazado compuesto&gt;" class="cls-1" d="M30,52.43h1.09a.83.83,0,0,0,.34.73,1.28,1.28,0,0,0,.79.22,1.54,1.54,0,0,0,.65-.12.53.53,0,0,0,.35-.52c0-.29-.26-.51-.79-.66q-1.37-.39-1.47-.45a1.25,1.25,0,0,1-.79-1.2,1.36,1.36,0,0,1,.61-1.17,2.25,2.25,0,0,1,1.31-.38,2.49,2.49,0,0,1,1.43.38,1.45,1.45,0,0,1,.62,1.27H33c0-.52-.36-.77-1-.77a1,1,0,0,0-.53.13.48.48,0,0,0-.25.45.42.42,0,0,0,.28.41,9.53,9.53,0,0,0,1.25.36,3.1,3.1,0,0,1,.9.35,1.29,1.29,0,0,1,.63,1.15,1.44,1.44,0,0,1-.55,1.18,2.45,2.45,0,0,1-1.59.47,2.49,2.49,0,0,1-1.52-.44A1.58,1.58,0,0,1,30,52.43Z"/><path id="_Trazado_compuesto_23" data-name="&lt;Trazado compuesto&gt;" class="cls-1" d="M34.41,54.14l2-5.14h1.16l1.92,5.14H38.26L37.88,53H36l-.41,1.15Zm2.51-3.87-.67,1.88h1.33l-.65-1.88Z"/><path id="_Trazado_compuesto_24" data-name="&lt;Trazado compuesto&gt;" class="cls-1" d="M42.89,49v3.52a1.52,1.52,0,0,1-1.71,1.74A1.81,1.81,0,0,1,40,53.88a1.45,1.45,0,0,1-.52-1.21v-.45h1v.23c0,.57.22.86.65.86a.53.53,0,0,0,.53-.29,1.45,1.45,0,0,0,.07-.55V49Z"/><path id="_Trazado_compuesto_25" data-name="&lt;Trazado compuesto&gt;" class="cls-1" d="M45.56,52.43h1.09a.83.83,0,0,0,.34.73,1.31,1.31,0,0,0,.8.22,1.49,1.49,0,0,0,.64-.12.54.54,0,0,0,.36-.52c0-.29-.27-.51-.8-.66q-1.37-.39-1.47-.45a1.25,1.25,0,0,1-.79-1.2,1.36,1.36,0,0,1,.61-1.17,2.25,2.25,0,0,1,1.31-.38,2.47,2.47,0,0,1,1.43.38,1.45,1.45,0,0,1,.63,1.27h-1.1c0-.52-.36-.77-1-.77a1,1,0,0,0-.53.13.5.5,0,0,0-.25.45.44.44,0,0,0,.28.41,9.53,9.53,0,0,0,1.25.36,3.1,3.1,0,0,1,.9.35,1.29,1.29,0,0,1,.63,1.15,1.44,1.44,0,0,1-.55,1.18,2.45,2.45,0,0,1-1.59.47,2.51,2.51,0,0,1-1.52-.44A1.58,1.58,0,0,1,45.56,52.43Z"/><path id="_Trazado_compuesto_26" data-name="&lt;Trazado compuesto&gt;" class="cls-1" d="M50.48,54.14V53h1.13v1.11Z"/><path id="_Trazado_compuesto_27" data-name="&lt;Trazado compuesto&gt;" class="cls-1" d="M52,54.14,54,49h1.16L57,54.14H55.86L55.47,53H53.55l-.41,1.15Zm2.51-3.87-.67,1.88h1.33l-.65-1.88Z"/></g></g></g></svg>