<svg xmlns="http://www.w3.org/2000/svg" viewBox="0 0 162.48 53.29"><defs><style>.cls-1{fill:#6b6b6b;}</style></defs><title>clt_autolavado</title><g id="Capa_2" data-name="Capa 2"><g id="Capa_1-2" data-name="Capa 1"><path class="cls-1" d="M2.33,41.53l8.28-15h5l2.51,15.05H13.22l-.2-2H8.11l-.95,2ZM12.21,31l-2.56,5.4h3.11Z"/><path class="cls-1" d="M22.72,26.48h4.94l-1.73,9c-.29,1.48-.24,2.76,1.79,2.76,1.78,0,2.52-1.13,2.83-2.76l1.73-9h4.94L35.58,35C34.65,39.82,32,41.93,27,41.93c-4.66,0-6.91-1.78-5.92-7Z"/><polygon class="cls-1" points="39.33 26.48 53.13 26.48 52.37 30.43 47.94 30.43 45.81 41.53 40.87 41.53 43 30.43 38.57 30.43 39.33 26.48"/><path class="cls-1" d="M69,33.92a9.44,9.44,0,0,1-9.44,8c-4.72,0-7.32-2.93-6.34-8a9.34,9.34,0,0,1,9.38-7.8c5.38,0,7.17,3.87,6.4,7.84m-10.85,0c-.37,1.92-.25,4.33,2.12,4.33,2.13,0,3.32-1.84,3.8-4.33.39-2.05,0-4.22-2.21-4.16S58.46,32,58.1,33.92"/><polygon class="cls-1" points="69.9 41.53 72.79 26.48 77.72 26.48 75.51 38.02 82.28 38.02 81.61 41.53 69.9 41.53"/><path class="cls-1" d="M82.49,41.53l8.28-15h5L98.3,41.53H93.38l-.2-2H88.26l-.94,2ZM92.37,31l-2.56,5.4h3.11Z"/><polygon class="cls-1" points="100.33 26.48 105.31 26.48 106.02 36.49 110.68 26.48 115.66 26.48 107.54 41.53 102.58 41.53 100.33 26.48"/><path class="cls-1" d="M111.93,41.53l8.29-15h5l2.5,15.05h-4.91l-.21-2h-4.91l-.95,2ZM121.81,31l-2.56,5.4h3.12Z"/><path class="cls-1" d="M129.33,41.53l2.89-15h6.61c4.85,0,7.43,2.25,6.48,7.21-1.09,5.67-4.66,7.84-9.5,7.84ZM134.94,38H136c2.3,0,3.79-1.21,4.33-4.06.6-3.13-.26-4-2.9-4h-.94Z"/><path class="cls-1" d="M162.31,33.92a9.46,9.46,0,0,1-9.44,8c-4.73,0-7.33-2.93-6.34-8a9.32,9.32,0,0,1,9.38-7.8c5.37,0,7.16,3.87,6.4,7.84m-10.86,0c-.36,1.92-.24,4.33,2.12,4.33,2.13,0,3.32-1.84,3.8-4.33.4-2.05,0-4.22-2.21-4.16s-3.34,2.26-3.71,4.16"/><polygon class="cls-1" points="4.07 43.61 2.45 51.33 7.02 51.33 6.65 53.07 0 53.07 1.97 43.61 4.07 43.61"/><path class="cls-1" d="M17.66,43.61l1.58,9.46H17.17l-.3-2.1H13.33l-1.19,2.1H10l5.58-9.46Zm-1,5.81-.46-3.77h0l-2,3.77Z"/><polygon class="cls-1" points="24.78 53.07 23.69 43.61 25.77 43.61 26.4 50.72 26.42 50.72 30.02 43.61 32.17 43.61 27.13 53.07 24.78 53.07"/><path class="cls-1" d="M40.5,43.61l1.57,9.46H40L39.7,51H36.16L35,53.07H32.78l5.58-9.46Zm-1,5.81-.47-3.77h0L37,49.42Z"/><path class="cls-1" d="M51.55,43.61a4.22,4.22,0,0,1,3,1,3.59,3.59,0,0,1,1,2.73,7.37,7.37,0,0,1-.34,2.29,5,5,0,0,1-1,1.83,4.56,4.56,0,0,1-1.71,1.22,6.07,6.07,0,0,1-2.39.43h-4l2-9.46Zm-1.37,7.72a3.18,3.18,0,0,0,1.41-.3,3,3,0,0,0,1-.79,3.48,3.48,0,0,0,.63-1.17,4.36,4.36,0,0,0,.22-1.42,3.39,3.39,0,0,0-.11-.93A1.88,1.88,0,0,0,53,46a1.73,1.73,0,0,0-.65-.47,2.39,2.39,0,0,0-.94-.17H49.85l-1.27,6Z"/><path class="cls-1" d="M60.16,46.93a5.67,5.67,0,0,1,1-1.83,5,5,0,0,1,1.63-1.25A4.88,4.88,0,0,1,65,43.39a5.3,5.3,0,0,1,1.74.26,3.36,3.36,0,0,1,2.16,2,4.75,4.75,0,0,1,.3,1.75,7.17,7.17,0,0,1-.34,2.23,5.89,5.89,0,0,1-1,1.87,4.85,4.85,0,0,1-1.62,1.28,5,5,0,0,1-2.2.47,4.23,4.23,0,0,1-3.11-1.08,4.14,4.14,0,0,1-1.1-3.1,6.52,6.52,0,0,1,.36-2.18M62,50a2.22,2.22,0,0,0,.38.77,1.86,1.86,0,0,0,.67.54,2.21,2.21,0,0,0,1,.2,2.46,2.46,0,0,0,1.34-.36,3.19,3.19,0,0,0,.95-.95A4.32,4.32,0,0,0,66.9,49a5.15,5.15,0,0,0,.19-1.38,4.12,4.12,0,0,0-.11-1,2.09,2.09,0,0,0-.37-.78,1.86,1.86,0,0,0-.64-.53,2.26,2.26,0,0,0-1-.19,2.59,2.59,0,0,0-1.39.36,3.22,3.22,0,0,0-1,.94,4.28,4.28,0,0,0-.56,1.29,5.57,5.57,0,0,0-.18,1.38A3.48,3.48,0,0,0,62,50"/><polygon class="cls-1" points="89.09 43.61 88.73 45.36 83.59 45.36 83.17 47.39 87.92 47.39 87.58 49.01 82.82 49.01 82.33 51.33 87.55 51.33 87.18 53.07 79.89 53.07 81.87 43.61 89.09 43.61"/><polygon class="cls-1" points="93.25 43.61 95.52 43.61 96.86 46.74 99.28 43.61 101.75 43.61 97.81 48.18 100.16 53.07 97.86 53.07 96.38 49.7 93.67 53.07 91.17 53.07 95.46 48.09 93.25 43.61"/><path class="cls-1" d="M110,43.61a6.14,6.14,0,0,1,1.32.14,2.82,2.82,0,0,1,1,.46,2.06,2.06,0,0,1,.68.85,3.21,3.21,0,0,1-.86,3.75,3.65,3.65,0,0,1-1.18.65,4.32,4.32,0,0,1-1.4.22H107l-.72,3.39H104.2l2-9.46Zm-.51,4.45a1.85,1.85,0,0,0,1.26-.4,1.6,1.6,0,0,0,.45-1.25,1.26,1.26,0,0,0-.12-.59,1,1,0,0,0-.34-.36,1.76,1.76,0,0,0-.47-.18,3.1,3.1,0,0,0-.54-.05h-1.77l-.59,2.83Z"/><path class="cls-1" d="M122.84,43.61a4.22,4.22,0,0,1,1.16.12,2.2,2.2,0,0,1,.9.42,2.12,2.12,0,0,1,.57.77,3.12,3.12,0,0,1,.19,1.17,2.76,2.76,0,0,1-.15.91,2.61,2.61,0,0,1-.45.78,2.65,2.65,0,0,1-.69.56,2.62,2.62,0,0,1-.88.3v0a1.2,1.2,0,0,1,.78.64,2.46,2.46,0,0,1,.2,1c0,.21,0,.47,0,.76s0,.59,0,.88a5.92,5.92,0,0,0,0,.61,1.69,1.69,0,0,0,.11.49h-2c0-.11-.05-.22-.07-.32s0-.21,0-.31c0-.32,0-.64,0-1a7.92,7.92,0,0,0,0-1,1.35,1.35,0,0,0-.1-.57.94.94,0,0,0-.27-.35,1,1,0,0,0-.44-.18,3.09,3.09,0,0,0-.55,0h-2l-.78,3.69h-2.07l2-9.46Zm-1.4,4.28a4.28,4.28,0,0,0,.81-.08,2.42,2.42,0,0,0,.68-.27,1.3,1.3,0,0,0,.47-.46,1.25,1.25,0,0,0,.18-.68,1.34,1.34,0,0,0-.12-.62.88.88,0,0,0-.34-.35,1.41,1.41,0,0,0-.49-.16,3.69,3.69,0,0,0-.58,0h-2l-.55,2.66Z"/><polygon class="cls-1" points="138.43 43.61 138.07 45.36 132.93 45.36 132.5 47.39 137.26 47.39 136.91 49.01 132.16 49.01 131.67 51.33 136.89 51.33 136.52 53.07 129.23 53.07 131.2 43.61 138.43 43.61"/><path class="cls-1" d="M143.58,50.77a1.27,1.27,0,0,0,.42.54,1.94,1.94,0,0,0,.67.29,4.25,4.25,0,0,0,.83.08,2.39,2.39,0,0,0,.64-.08,1.81,1.81,0,0,0,.57-.24,1.21,1.21,0,0,0,.43-.41,1.07,1.07,0,0,0,.16-.61.78.78,0,0,0-.21-.56,2,2,0,0,0-.55-.38,4.31,4.31,0,0,0-.77-.27l-.87-.26a6.94,6.94,0,0,1-.87-.31,3.27,3.27,0,0,1-.76-.48,2,2,0,0,1-.54-.72,2.28,2.28,0,0,1-.21-1,2.6,2.6,0,0,1,.33-1.35,2.78,2.78,0,0,1,.86-.91,4,4,0,0,1,1.2-.52,5.68,5.68,0,0,1,1.36-.16,5.48,5.48,0,0,1,1.37.16,3,3,0,0,1,1.13.54,2.67,2.67,0,0,1,.77.95,3.12,3.12,0,0,1,.28,1.4h-2a1.5,1.5,0,0,0-.11-.67,1.24,1.24,0,0,0-.36-.45,1.61,1.61,0,0,0-.55-.24,2.93,2.93,0,0,0-1.27,0,1.83,1.83,0,0,0-.54.2,1.22,1.22,0,0,0-.38.37,1,1,0,0,0-.15.55.77.77,0,0,0,.26.58,2.3,2.3,0,0,0,.63.38,3.36,3.36,0,0,0,.74.24l.63.14a8.12,8.12,0,0,1,1,.34,2.71,2.71,0,0,1,.8.5,2.07,2.07,0,0,1,.52.74,2.63,2.63,0,0,1,.19,1.07,2.86,2.86,0,0,1-.35,1.45,3.07,3.07,0,0,1-.9,1,3.74,3.74,0,0,1-1.24.54,5.91,5.91,0,0,1-1.37.17,4.57,4.57,0,0,1-3-.81,3.13,3.13,0,0,1-1-2.55h2a1.78,1.78,0,0,0,.12.84"/><path class="cls-1" d="M155.48,50.77a1.27,1.27,0,0,0,.42.54,1.94,1.94,0,0,0,.67.29,4.25,4.25,0,0,0,.83.08,2.39,2.39,0,0,0,.64-.08,1.81,1.81,0,0,0,.57-.24A1.21,1.21,0,0,0,159,51a1.07,1.07,0,0,0,.16-.61.78.78,0,0,0-.21-.56,2,2,0,0,0-.55-.38,4.31,4.31,0,0,0-.77-.27l-.86-.26a6.09,6.09,0,0,1-.88-.31,3.27,3.27,0,0,1-.76-.48,2.19,2.19,0,0,1-.55-.72,2.42,2.42,0,0,1-.2-1,2.6,2.6,0,0,1,.33-1.35,2.78,2.78,0,0,1,.86-.91,4,4,0,0,1,1.2-.52,5.68,5.68,0,0,1,1.36-.16,5.48,5.48,0,0,1,1.37.16,3,3,0,0,1,1.13.54,2.67,2.67,0,0,1,.77.95,3.12,3.12,0,0,1,.28,1.4h-2a1.36,1.36,0,0,0-.12-.67,1.12,1.12,0,0,0-.35-.45,1.61,1.61,0,0,0-.55-.24,2.93,2.93,0,0,0-1.27,0,1.83,1.83,0,0,0-.54.2,1.22,1.22,0,0,0-.38.37,1,1,0,0,0-.15.55.77.77,0,0,0,.26.58,2.16,2.16,0,0,0,.63.38,3.36,3.36,0,0,0,.74.24l.63.14a8.12,8.12,0,0,1,1,.34,2.71,2.71,0,0,1,.8.5,2.07,2.07,0,0,1,.52.74,2.63,2.63,0,0,1,.19,1.07,2.86,2.86,0,0,1-.35,1.45,3.07,3.07,0,0,1-.9,1,3.74,3.74,0,0,1-1.24.54,5.91,5.91,0,0,1-1.37.17,4.57,4.57,0,0,1-3-.81,3.13,3.13,0,0,1-1-2.55h2a1.78,1.78,0,0,0,.12.84"/><path class="cls-1" d="M102.87,4.45l-1,1.13S95.3,6.55,93,7.49H73.85S82.21,3.1,87.74,2.81a58.46,58.46,0,0,1,15.13,1.64"/><path class="cls-1" d="M116.53,7.69l-4,1.48a2.58,2.58,0,0,0,.68.87,9.94,9.94,0,0,0,.9.71s3-.06,3.35-.14l-.32-.76-1.87-.08-.63-.55s1.76-.6,1.79-1Z"/><path class="cls-1" d="M46.62,11.94l1.09.11.79,4.63s.18.63-.21.85a3.61,3.61,0,0,1-1.28.2s1-.23,1.09-.5-.66-4.8-.66-4.8Z"/><polygon class="cls-1" points="47.97 14.65 46.72 14.91 48.04 15.18 47.97 14.65"/><path class="cls-1" d="M47.58,11.42a14.1,14.1,0,0,1,5.94-2.61s-.29,2.2-5.94,2.61"/><path class="cls-1" d="M57,10.86a5.44,5.44,0,1,0,5.44,5.43A5.43,5.43,0,0,0,57,10.86M60.4,19a4.08,4.08,0,1,0-6.85,0,4.36,4.36,0,1,1,6.85,0"/><path class="cls-1" d="M104.79,10.86a5.44,5.44,0,1,0,5.43,5.43,5.43,5.43,0,0,0-5.43-5.43M108.21,19a4.08,4.08,0,1,0-6.85,0,4.36,4.36,0,1,1,6.85,0"/><path class="cls-1" d="M119.49,5.34l-4-.42S101.77,0,91.32,0C81,0,70.05,5.81,70.05,5.81s-10.14,1.34-16,2.68c0,0,7.5-.93,16.38-1.4,0,0,12.84-5.79,20.88-5.46,12.56.52,20.44,4.23,20.44,4.23l-5.21.74L117,6.29c-.22,1.08.78,4.18.78,4.18v3.28l-1.6,4,2.39-4,.63-3.46s-.44-3.33.25-4.92"/></g></g></svg>