<svg xmlns="http://www.w3.org/2000/svg" viewBox="0 0 79.54 75.72"><defs><style>.cls-1{fill:#6b6b6b;}</style></defs><title>clt_sabores</title><g id="Capa_2" data-name="Capa 2"><g id="Capa_1-2" data-name="Capa 1"><path class="cls-1" d="M33.74,9.29a20,20,0,0,1-3.62,5.47c-3.1,3.74-2.3,9.17.76,12.66l.11.13s-2-5.43-.54-8.19c1-2,2.56-3.66,3.64-5.61,2.19-3.95.95-8.08-.59-12A13.75,13.75,0,0,1,34,5.1,9.13,9.13,0,0,1,33.74,9.29Z"/><polygon class="cls-1" points="65.5 25.5 65.5 25.5 65.5 25.5 65.5 25.5"/><path class="cls-1" d="M46,26.44A4.39,4.39,0,0,1,49.32,26a3.74,3.74,0,0,1,.87.37l.09-.23a2.74,2.74,0,0,1,1.9-1.67,3.73,3.73,0,0,1,3.12.94,3.06,3.06,0,0,1,.36.36,2.48,2.48,0,0,1,.6,1.38A2.43,2.43,0,0,1,55.72,29c0,.08,0,.16,0,.23,0,.52-.05,1-.05,1.55a3.51,3.51,0,0,0,.11,1.29l0,.08a50,50,0,0,0,7.78-.08s.5-6,1-6.77c0,0-11.6-.92-20.1-8.2l-1.89,10s.09.13.27.34a2.9,2.9,0,0,1,1.41.48A6.53,6.53,0,0,1,46,26.44Z"/><path class="cls-1" d="M75.62,20a15.92,15.92,0,0,0-5.33-1c-.36,0-.71,0-1.06,0a4.91,4.91,0,0,0-1.15,0,24.47,24.47,0,0,1,4.43-.57s-.13-1.19-.14-1.25a11.85,11.85,0,0,0-1.23-3.2,28.19,28.19,0,0,0-6.21-7.42A10.5,10.5,0,0,0,60.3,4.18a14.5,14.5,0,0,0-2.63-.29,6.54,6.54,0,0,0-2.61.18,11.13,11.13,0,0,1,5.54-.75,8.55,8.55,0,0,1-.75-1A5.67,5.67,0,0,0,57.43.76,20.66,20.66,0,0,0,53.26.41,26,26,0,0,0,48.13.06C44.91.46,42.31,2.54,42.58,6a12.18,12.18,0,0,0,1,3.74,8.39,8.39,0,0,1,.7,3.86c0,.32-.06.65-.08,1,0,.16-.07.54.06.67L46,17l.23.23a35.24,35.24,0,0,0-.83-8.59c.13.43.37.88.53,1.32s.34.95.49,1.43a14.48,14.48,0,0,1,.68,2.91c0,.22-.14.95.12,1s1.73-3,1.85-4.09a16,16,0,0,1-1.67,5.54s-.62.89.25,1.33,4,2.22,4,2.22-.43-6.87,2.17-10.65a20.82,20.82,0,0,0-1.46,11.06l.66.33s-.42-3.64,1.28-5.58a22.28,22.28,0,0,0,2.41-3.16s-1.14,3.15-2.22,4-.93,5-.93,5a16.31,16.31,0,0,0,5.94,2.27,7.6,7.6,0,0,1-.24-3.21c.29-1.61,2.57-5.52,3.77-6.09,0,0-2.87,4.17-3.08,6.23s.39,2.64.39,2.64.09.23.41-.44,2.14-3,3.15-3c0,0-2.69,2.43-2.84,3.7s3.5,1.07,3.5,1.07l1.06.16c.26,0,.63,1.05.75,1.25a7.19,7.19,0,0,0,1.11,1.35,15.79,15.79,0,0,0,3.05,2.14c2,1.18,4.44,2.33,6.71,1.07a4.79,4.79,0,0,0,2.19-5.2C79,22.92,77.89,20.91,75.62,20Z"/><path class="cls-1" d="M25.73,22.28a6.1,6.1,0,0,1,.52-2.92c1-2,2.55-3.66,3.63-5.61,2.19-3.95,1-8.08-.58-12a13.27,13.27,0,0,1,.49,3.33,9.26,9.26,0,0,1-.25,4.19,20.21,20.21,0,0,1-3.63,5.47,9,9,0,0,0-1.66,8,3.2,3.2,0,0,1,1.37-.5Z"/><path class="cls-1" d="M38,9.29a20,20,0,0,1-3.62,5.47c-3.1,3.74-2.3,9.17.75,12.66l.11.13s-1.95-5.43-.53-8.19c1-2,2.56-3.66,3.64-5.61,2.18-3.95,1-8.08-.59-12a13.75,13.75,0,0,1,.5,3.33A9.13,9.13,0,0,1,38,9.29Z"/><path class="cls-1" d="M12.27,26.94a5,5,0,0,0,1,1.14.84.84,0,0,0,.69.19,1,1,0,0,0,.59-1,1.22,1.22,0,0,0-.25-.54,5.67,5.67,0,0,0-1.54-1.16c-.62-.41-1.16-.92-1.76-1.34a2.65,2.65,0,0,0-2.77.21c-2.47,1.38-3.5,4.42-4.13,7a6.19,6.19,0,0,0,.36,4.26,8.53,8.53,0,0,0,3.14,3c.81.53,2.24,1.48,2.11,2.64-.11,1-1.3,1.27-2.1,1.33a5.33,5.33,0,0,1-5.21-2.83c-.14-.29-.45-.74-.84-.55s-.42.72-.41,1a2.7,2.7,0,0,0,1.18,2.08c2.39,1.85,5.86,3.12,8.56,1.11A3.23,3.23,0,0,0,12,42.17a1.74,1.74,0,0,0-.26-1.9,8.13,8.13,0,0,0-.83-.83A20.48,20.48,0,0,0,9,37.9a5.33,5.33,0,0,1-2.53-4A8.16,8.16,0,0,1,7,31.16a13.92,13.92,0,0,1,1.37-3.08,4.52,4.52,0,0,1,1.95-1.92,1.39,1.39,0,0,1,1.77.52Z"/><path class="cls-1" d="M54.6,35c-.23-.71-.49-1.41-.79-2.1a5,5,0,0,1-.29-2.15c0-.55,0-1.11.06-1.66,0-.22,0-.44.05-.66s0-.38.09-.48,0,0,0,0c.17-.11.41-.27.39-.51a.4.4,0,0,0-.12-.22A.86.86,0,0,0,53.9,27c-.43-.37-1.34-.84-1.64-.08A10.59,10.59,0,0,0,51.78,30a23.27,23.27,0,0,1-.23,2.49,7.51,7.51,0,0,1-.69,1.81,12.67,12.67,0,0,1-1.43,2.33A3.31,3.31,0,0,1,47.57,38a1.42,1.42,0,0,1-1.36-.5,2.26,2.26,0,0,1-.41-1.23,5.22,5.22,0,0,1,0-1.25,3,3,0,0,0,.1-.56s2,2,3.57-2.58a4.07,4.07,0,0,0,.17-3.06,1.91,1.91,0,0,0-2.63-.52,4.65,4.65,0,0,0-2.28,3.62c-.06.58-.07,1.16-.11,1.75A11.14,11.14,0,0,1,44.29,36a6.45,6.45,0,0,1-.44,1.13,2.4,2.4,0,0,1-.69.91.63.63,0,0,1-.53.11.72.72,0,0,1-.34-.28,3,3,0,0,1-.38-1.36,9.2,9.2,0,0,1,.55-4,3.23,3.23,0,0,1,.77-1.36c.18-.16.42-.3.51-.54s-.08-.43-.22-.58c-.28-.32-.81-.79-1.21-.38-.23.24-.24.6-.5.8a.9.9,0,0,1-1.18-.07.27.27,0,0,1-.07-.08c0-.09,0-.27,0-.37a1.53,1.53,0,0,0,0-.37.74.74,0,0,0-.37-.57,1.41,1.41,0,0,0-1.53.48,1.1,1.1,0,0,0-.28.77,1.79,1.79,0,0,0,.39.73c.2.33,0,.73-.15,1-.29.52-.65,1-1,1.53-.21.36-.56,1-1.07.75l-.08-.06a.58.58,0,0,1,0-.29,2.83,2.83,0,0,0,0-.29,2.46,2.46,0,0,0-.1-.47,1.44,1.44,0,0,0-1.3-1,2.3,2.3,0,0,0-.64,0l-.28.06c-.23-.42-.62-.86-1.14-.64a2.18,2.18,0,0,0-.85.88,12.88,12.88,0,0,0-1.4,3.8,7.21,7.21,0,0,0-.22,2.92,2.46,2.46,0,0,0,1.66,2,2.6,2.6,0,0,0,2.58-.82,6.31,6.31,0,0,0,1.32-2.32,10.71,10.71,0,0,0,.35-1.35,6.68,6.68,0,0,1,.2-1.29.61.61,0,0,0,.59-.15c.17-.18.56-.87.83-.47a.5.5,0,0,1,.07.34c0,.3-.54,1.42.1,1.44a.49.49,0,0,0,.31-.14,2.39,2.39,0,0,0,.56-1.11,10.22,10.22,0,0,0,.29-1.42c.06-.39.12-.79.21-1.17,0-.22.12-.6.36-.7a.57.57,0,0,1,.26,0l.42,0a.38.38,0,0,1,.18,0,.19.19,0,0,1,.1.13,1.76,1.76,0,0,1-.08.72c-.11.53-.23,1.06-.34,1.59-.52,2.51,0,4.4,1.54,4.86s2.54-1.86,2.54-1.86.37.5.43.57a3,3,0,0,0,.52.42,3.42,3.42,0,0,0,1.38.53,2.42,2.42,0,0,0,1.56-.41l.71-.44c.09,0,.21.08.4.13.43.11.51-.17.73-.49s.25-.27.31-.29a1.4,1.4,0,0,1,.79.15,4.2,4.2,0,0,1,.78.61c2.37,2.06,2.84-.54,2.83-1.5A6.62,6.62,0,0,0,54.6,35Zm-8.51-2.44a6.12,6.12,0,0,1,.61-1.69,2.08,2.08,0,0,1,.68-.92,1,1,0,0,1,.34-.14.9.9,0,0,1,.68.11.77.77,0,0,1,.3.68,5,5,0,0,1-.4,1.7,3.83,3.83,0,0,1-.63,1.24.82.82,0,0,1-.85.36A1.06,1.06,0,0,1,46.09,32.55ZM35.3,35.28a3,3,0,0,1-.1.49,10.8,10.8,0,0,1-1,3.49,1.6,1.6,0,0,1-.9.76c-.85.21-1.37-.61-1.37-1.35a2.68,2.68,0,0,1,0-.49,11,11,0,0,1,.23-1.3,5.3,5.3,0,0,1,1.49-3.09A1.06,1.06,0,0,1,35,33.63,1.64,1.64,0,0,1,35.3,35.28Zm18.28,1.91a.35.35,0,0,1-.4.08c-.64-.15-1.16-.62-1.81-.74a2.48,2.48,0,0,0-.27,0,1.19,1.19,0,0,0,.08-.16c0-.05,0-.11.08-.16a19.45,19.45,0,0,0,.82-1.88q.12-.37.21-.75a.06.06,0,0,1,0-.06s0,0,.06,0a.86.86,0,0,1,.21.29l.17.34a17.66,17.66,0,0,1,.77,2.22,2.2,2.2,0,0,1,.12.63A.48.48,0,0,1,53.58,37.19Z"/><path class="cls-1" d="M28.78,32.43a1.45,1.45,0,0,0-2-.39,8.41,8.41,0,0,0-2.25,2.2,46.53,46.53,0,0,1,1.94-8.49c.71-1.44-1-2.06-1.75-.19a10.87,10.87,0,0,0-.51,2c-.33,1.83-.54,3.69-.79,5.53-.1.78-.2,1.55-.33,2.32A10.67,10.67,0,0,1,22,38.57a7.33,7.33,0,0,1-1.49,2.15.67.67,0,0,1-.41.2.5.5,0,0,1-.38-.4,5.36,5.36,0,0,1,.21-2.38c.1-.47.21-1,.32-1.43.27-.91.52-1.82.76-2.74a.39.39,0,0,0-.25-.51,1.81,1.81,0,0,0-1.15-.05s-.55.2-.54.25c-.13-.87-1.57-.91-2.19-.71A3.68,3.68,0,0,0,15,34.73a13.3,13.3,0,0,0-1.09,2.81,11.76,11.76,0,0,0-.59,4.12A1.83,1.83,0,0,0,15,43.42c1.61.14,3.26-3.16,3.26-3.16a3.21,3.21,0,0,0,.45,1.41,1.38,1.38,0,0,0,2.08.46,3.39,3.39,0,0,0,.82-1,6.27,6.27,0,0,0,.29-.58c0-.1.21-.4.18-.49a3.15,3.15,0,0,0,1.76,1.8,2.93,2.93,0,0,0,3.09-.37,6.33,6.33,0,0,0,1.66-2.72C29.26,36.88,30.13,34.19,28.78,32.43Zm-10,3.09a9.22,9.22,0,0,1-.57,2.3,14.76,14.76,0,0,1-1.09,2.43A4,4,0,0,1,15.78,42a.69.69,0,0,1-.72,0,.82.82,0,0,1-.22-.59,8.37,8.37,0,0,1,.64-2.73A18.55,18.55,0,0,1,17,35.23a1.75,1.75,0,0,1,.63-.69.76.76,0,0,1,.78,0A1.08,1.08,0,0,1,18.82,35.52Zm7.91,4.3a2.47,2.47,0,0,1-1.59,1.5,1.15,1.15,0,0,1-1.24-.67,2.51,2.51,0,0,1-.14-1.09,9.46,9.46,0,0,1,1-3.73,9.61,9.61,0,0,1,1.12-1.77c.34-.41,1.1-1.24,1.71-1.1s.54.73.53,1.15A13.06,13.06,0,0,1,26.73,39.82Z"/><path class="cls-1" d="M42.49,46.4c-.13-.23-.41-.06-.42.19a4.08,4.08,0,0,1-1.5,2.83,1.23,1.23,0,0,1-1.43.24,1,1,0,0,1-.42-.85,5.65,5.65,0,0,1,.11-1.16,2,2,0,0,0,.44.09c1.29,0,1.89-1.41,2-2.51A2.53,2.53,0,0,0,41.11,44a1.17,1.17,0,0,0-.57-.59,1.13,1.13,0,0,0-.79,0,1.92,1.92,0,0,0-1,.82,6.5,6.5,0,0,0-.74,2.6c-.07.58,0,1.18-.16,1.76-.06.3-.26,1.17-.67,1.18a.27.27,0,0,1-.24-.13,1.71,1.71,0,0,1-.14-1c0-.43.06-.86.11-1.28.12-1,.26-1.92.43-2.88.08-.48.17-1,.27-1.43a11.15,11.15,0,0,1,.3-1.27,2.91,2.91,0,0,0,.23-1.26.47.47,0,0,0-.16-.29.27.27,0,0,0-.38.07,4.36,4.36,0,0,0-.71,1.85,16.38,16.38,0,0,0-.56,3.25c0-.09-.62-.14-.69-.15A2.05,2.05,0,0,0,34,46a3.42,3.42,0,0,0-.47.91c-.16.44-.31.88-.44,1.33a6.81,6.81,0,0,0-.22,1.11,2.26,2.26,0,0,0,.6,2,.91.91,0,0,0,.45.24A1.4,1.4,0,0,0,35.13,51a3.63,3.63,0,0,0,.39-.55,3.59,3.59,0,0,0,.34-.68,1.18,1.18,0,0,0,.67.74c.55.15,1.1-.36,1.41-.75,0,0,.14.17.16.19a2,2,0,0,0,1.15.4,3.15,3.15,0,0,0,2.53-1.7,4.87,4.87,0,0,0,.76-1.82A.7.7,0,0,0,42.49,46.4Zm-3.32-1a1.86,1.86,0,0,1,.49-.82.38.38,0,0,1,.46,0,.81.81,0,0,1,.22.3A2,2,0,0,1,39.87,47a.81.81,0,0,1-.39.18c-.4,0-.49-.44-.49-.74A3,3,0,0,1,39.17,45.4Zm-3.31,2.17a8,8,0,0,1-.41,1.72,5.88,5.88,0,0,1-.33.78,2.07,2.07,0,0,1-.44.65.4.4,0,0,1-.31.1.36.36,0,0,1-.17-.07.47.47,0,0,1-.13-.15,1.85,1.85,0,0,1-.18-.65,4.51,4.51,0,0,1,.35-2.08,5.21,5.21,0,0,1,.95-1.73c.1-.09.25-.18.37-.13s.3.49.32.69A3.62,3.62,0,0,1,35.86,47.57Z"/><path class="cls-1" d="M47.05,47.43a.32.32,0,0,1-.17-.09.54.54,0,0,1-.12-.39,10.64,10.64,0,0,1,.09-1.49,1,1,0,0,1,.2-.51,2,2,0,0,1,.32-.26.89.89,0,0,0,.35-.78.65.65,0,0,0-.61-.56c-.61,0-.82.79-.9,1.27A14.39,14.39,0,0,0,46,46.69a4,4,0,0,0,.22,1.91.61.61,0,0,0,.37.3.58.58,0,0,0,.5-.16c.78-.7.9-1.93,1.32-2.83.15-.34.28-.19.3.11a10.47,10.47,0,0,1-.06,1.37c0,.34,0,1.09.57.78s.86-1.26,1-1.85c.07-.21.12-.44.2-.65a1.15,1.15,0,0,1,.28-.56.12.12,0,0,1,.14,0,.2.2,0,0,1,0,.08,4.31,4.31,0,0,1,0,1.19,1.66,1.66,0,0,0,.39,1.21.92.92,0,0,0,1,.22c.41-.19.45-.7.77-1,.05,0,.12-.08.17,0s.09.17.11.25a1.4,1.4,0,0,0,.15.33.91.91,0,0,0,1.18.31,2.83,2.83,0,0,0,1.08-1.09,9.41,9.41,0,0,0,.54-.93c.13-.27.36-.68.26-1s-.39-.15-.5.06-.29.68-.44,1a2.4,2.4,0,0,1-.86,1.17.38.38,0,0,1-.29.06.34.34,0,0,1-.22-.17,1.78,1.78,0,0,1-.14-.85,6.06,6.06,0,0,1,.06-1,18.06,18.06,0,0,1,.39-2,1,1,0,0,0,0-.38.42.42,0,0,0-.23-.3.39.39,0,0,0-.33,0,.81.81,0,0,0-.33.38,11.9,11.9,0,0,0-.48,2.3,4.27,4.27,0,0,1-.36,1,1.66,1.66,0,0,1-.79.82.35.35,0,0,1-.33,0c-.2-.16-.19-.58-.18-.81a3.79,3.79,0,0,1,.17-.94,15.45,15.45,0,0,1,.55-1.48,1.1,1.1,0,0,0,0-.94.48.48,0,0,0-.77-.06c-1,.93-.9,2.5-1.64,3.61a.53.53,0,0,1-.2.22.26.26,0,0,1-.27,0c-.27-.15-.21-.6-.13-.83a6.9,6.9,0,0,1,.43-.86,1.56,1.56,0,0,0,.22-.91.53.53,0,0,0-.79-.4A3,3,0,0,0,48.3,45c-.14.41-.27.83-.43,1.23a4.23,4.23,0,0,1-.57,1.12.45.45,0,0,1-.13.11A.25.25,0,0,1,47.05,47.43Z"/><path class="cls-1" d="M53.94,40.66a1.41,1.41,0,0,1,.46-.35.73.73,0,0,1,.41,0,.41.41,0,0,1,.27.19.46.46,0,0,1,0,.23,1.21,1.21,0,0,1-.94.93.45.45,0,0,1-.38,0c-.19-.15-.14-.46,0-.64A1.31,1.31,0,0,1,53.94,40.66Z"/><path class="cls-1" d="M22.46,56.4a2.2,2.2,0,0,1,.74-.56,1.21,1.21,0,0,1,.65-.07.63.63,0,0,1,.43.31.68.68,0,0,1,0,.37,1.94,1.94,0,0,1-1.51,1.49.73.73,0,0,1-.6-.06.84.84,0,0,1-.08-1A2,2,0,0,1,22.46,56.4Z"/><path class="cls-1" d="M30.45,49a.73.73,0,0,0-.29-.43,1,1,0,0,0-.76-.08,30.49,30.49,0,0,0-3.23.93l-3.32,1L20.71,51l-.89.26s0-1,.05-1.43L20,47a8.43,8.43,0,0,0,0-2.7.87.87,0,0,0-.34-.48.94.94,0,0,0-.64-.1,1.37,1.37,0,0,0-.71.24,2.27,2.27,0,0,0-.63,1.49c-.28,1.74-.74,6.69-.74,6.71s-.64.3-.72.34l-1,.44A14.86,14.86,0,0,1,12,54,5.87,5.87,0,0,1,9,53.79a4.81,4.81,0,0,0-3,.31,13.62,13.62,0,0,0-1.36.59l-2,.93-1.36.62-.68.3a1.12,1.12,0,0,0-.57.37.48.48,0,0,0-.07.23.19.19,0,0,0,.09.17l.09,0a1.68,1.68,0,0,0,.76-.28l.86-.4,1.92-.87,1-.48a.35.35,0,0,1,.49.1.3.3,0,0,1,0,.21.25.25,0,0,1-.15.15c-.29.16-.61.27-.91.4l-1,.41-1.66.71c-.35.16-.72.29-1.07.46A.45.45,0,0,0,.28,58a.24.24,0,0,0,.1.27c.13.09.3,0,.42-.06L1.26,58l1-.43c.67-.28,1.33-.56,2-.82.29-.12.58-.24.85-.37a.52.52,0,0,1,.34-.06.39.39,0,0,1,.2.18c.21.39-.3.51-.56.59a5.44,5.44,0,0,0-.71.26c-.46.19-1,.34-1.41.51l-1.1.41a6.13,6.13,0,0,0-1.06.41.58.58,0,0,0-.17.18.44.44,0,0,0,0,.2.27.27,0,0,0,.09.2.29.29,0,0,0,.2,0,4.82,4.82,0,0,0,1-.35l1.17-.42.61-.21,1.16-.41c.37-.13.75-.29,1.13-.4a.38.38,0,0,1,.21,0,.22.22,0,0,1,.14.19.28.28,0,0,1-.2.29c-.32.14-.67.22-1,.33L3.11,59,2,59.4a1.9,1.9,0,0,0-.93.43A.38.38,0,0,0,1,60.1c0,.31.38.17.56.11s.63-.23,1-.33l1-.34,2.08-.64.27-.08A15,15,0,0,0,8.8,57.75a5.71,5.71,0,0,0,1-.7A10.35,10.35,0,0,1,13,55.16a11.86,11.86,0,0,1,1.76-.52c.16,0,1.77-.17,1.78-.21L16.25,56,15.6,60l-.82,5L14,69.72l-.3,1.82c-.11.71-.29,1.44-.34,2.16a1.37,1.37,0,0,0,.3,1.09c.43.35,1-.29,1.24-.6a14.68,14.68,0,0,0,2-3.09,12.93,12.93,0,0,0,.89-3.47c.1-.83.15-1.67.17-2.51.06-2.58.21-5.16.37-7.74.09-1.44.28-2.86,1.65-3.69a5.85,5.85,0,0,1,1.4-.5c3.75-1.18,5.24-1.62,8.49-2.78a1,1,0,0,0,.68-1.14A1.59,1.59,0,0,0,30.45,49Z"/><path class="cls-1" d="M54.36,58.77a.35.35,0,0,0-.27-.2.38.38,0,0,0-.21,0,.73.73,0,0,0-.37.48c-.06.15-.08.32-.14.47s-.09.3-.14.45a6.66,6.66,0,0,1-.39.86,6.49,6.49,0,0,1-1,1.43c-.17.18-.41.37-.64.27a.54.54,0,0,1-.27-.38,3.57,3.57,0,0,1,0-1.59c.3-1.63.78-3.22,1.22-4.82a.64.64,0,0,0,0-.43.62.62,0,0,0-.37-.25,1.87,1.87,0,0,0-1.54.24,1.45,1.45,0,0,0-1.07-.8,2.46,2.46,0,0,0-2,.66A5.45,5.45,0,0,0,45.93,57a15.12,15.12,0,0,0-1.29,4.65,5.23,5.23,0,0,1-.27,1.47c-.25.65-1,1.36-1.67.8a1.58,1.58,0,0,1-.49-1.15,10.75,10.75,0,0,1,.95-4.32,3.33,3.33,0,0,1,.77-1.37c.18-.16.42-.3.52-.53s-.09-.43-.23-.59c-.28-.31-.81-.78-1.21-.38-.23.24-.23.61-.5.81a.9.9,0,0,1-1.18-.07l-.07-.09c0-.09,0-.27,0-.37a1.54,1.54,0,0,0,0-.37.75.75,0,0,0-.38-.56,1.38,1.38,0,0,0-1.53.48c-.16.22-.51.7-.48,1s.34.5.48.73c.59,1-.17,3.12-.17,3.12-.21.66-.43,1.6-.66,2.11s-.45,1-.71,1.43a4.05,4.05,0,0,1-.46.73,1.07,1.07,0,0,1-.67.47.94.94,0,0,1-1-.6,4,4,0,0,1-.19-1,10.56,10.56,0,0,1,1-4.24,3.23,3.23,0,0,1,.77-1.36c.18-.17.42-.3.51-.54s-.08-.43-.22-.59-.81-.78-1.21-.37c-.24.23-.24.6-.51.8A.89.89,0,0,1,34.64,57s-.06,0-.07-.09,0-.26,0-.36a2.23,2.23,0,0,0,0-.37.74.74,0,0,0-.37-.57,1.4,1.4,0,0,0-1.54.48c-.15.22-.51.71-.47,1s.33.5.47.73c.59,1-.16,3.12-.16,3.12a13.85,13.85,0,0,1-1.44,3.27c-.66,1-2.55,2.82-3.75,1.52a3.21,3.21,0,0,1-.44-2.55,3.16,3.16,0,0,0,.1-.56s2,2,3.57-2.58c.35-1,.72-2.63-.19-3.47a1.86,1.86,0,0,0-1.88-.3,4.06,4.06,0,0,0-1.38,1,4.16,4.16,0,0,0-.94,1.4,10.16,10.16,0,0,0-.46,3.2,10.54,10.54,0,0,1-.37,2.37c-.26.9-.78,2.18-1.77,2.5-.55.17-.85-.24-1-.72a8.34,8.34,0,0,1-.09-3,12.61,12.61,0,0,1,.87-2.53c.18-.49.18-1.08-.39-1.33-1.24-.55-1.79,2.79-1.82,3.33a12.18,12.18,0,0,0,.14,3.19,3,3,0,0,0,1.37,2.25c.85.4,1.63-.22,2.14-.86a6.27,6.27,0,0,0,.58-.87,1.46,1.46,0,0,0,.22-.43c0,.09.37.5.43.56a3.15,3.15,0,0,0,2.21,1,4.72,4.72,0,0,0,3-1.83,13.07,13.07,0,0,0,2.33-4.69c.12-.38.17-1,.26-1.43.05-.22-.06-.51.18-.61a.43.43,0,0,1,.25,0l.43,0a.47.47,0,0,1,.17,0,.18.18,0,0,1,.11.13,1.78,1.78,0,0,1-.08.72c-.33,1.64-1,3.61-.17,5.22a2.84,2.84,0,0,0,.32.5,1.81,1.81,0,0,0,1.61.76,2,2,0,0,0,1.19-.68,7.8,7.8,0,0,0,1.59-2.89c.23-.65.46-1.29.66-2,.1-.33.19-.67.27-1s.08-.64.16-1,0-.51.18-.61a.57.57,0,0,1,.26,0l.42,0a.57.57,0,0,1,.18,0,.18.18,0,0,1,.1.14,1.73,1.73,0,0,1-.08.71c-.11.54-.23,1.07-.34,1.6a8.6,8.6,0,0,0-.15,2.63,2.68,2.68,0,0,0,.8,1.83,1.88,1.88,0,0,0,2.84-.84c0,.07.41.47.47.52a1.75,1.75,0,0,0,.62.42,1.67,1.67,0,0,0,1.47-.28,4.79,4.79,0,0,0,1.24-1.22c.19-.25.35-.51.51-.77s.17-.28.25-.42.23-.31.22-.38c.15.78.41,1.82,1.27,2.09s1.55-.44,2-1.14A16.27,16.27,0,0,0,53.66,61c.14-.32.28-.64.41-1s.19-.43.26-.65A.84.84,0,0,0,54.36,58.77Zm-27.24,2a.68.68,0,0,1,0-.14,5.76,5.76,0,0,1,.76-1.87c.31-.52.9-1,1.52-.64a.79.79,0,0,1,.3.69,5,5,0,0,1-.4,1.7,4,4,0,0,1-.62,1.23.86.86,0,0,1-.85.37A1.07,1.07,0,0,1,27.12,60.75Zm22.94-3.58a9.56,9.56,0,0,1-.57,2.3,16.19,16.19,0,0,1-1.09,2.44A4,4,0,0,1,47,63.69a.67.67,0,0,1-.71,0,.83.83,0,0,1-.22-.59,8.06,8.06,0,0,1,.64-2.73,18.27,18.27,0,0,1,1.52-3.45,1.72,1.72,0,0,1,.63-.68.74.74,0,0,1,.77,0A1.09,1.09,0,0,1,50.06,57.17Z"/><path class="cls-1" d="M40.39,72a8.48,8.48,0,0,1-1.63.3,1,1,0,0,1-.57-.07.58.58,0,0,1-.32-.46.89.89,0,0,1,.18-.6c.68-1,2.23-1.55,3.32-2a71.84,71.84,0,0,1,7-2.43c1.08-.31,2.16-.57,3.26-.78a7.41,7.41,0,0,0,3-1.1c1.43-1.05,2-3,3.47-4A6.51,6.51,0,0,1,61.22,60a3.25,3.25,0,0,1,3.21,1.49,2.9,2.9,0,0,1,.29,2.08c-.47,2-2.67,3.25-4.53,3.48A6,6,0,0,1,58,66.89c-.72-.18-1.3-.6-2-.84-.94-.34-2.11.42-2.89.85a55,55,0,0,1-10.67,4.5C41.79,71.6,41.09,71.84,40.39,72Z"/><path class="cls-1" d="M22.2,75.25s10.27-.06,15.38-.44c2.55-.2,5.1-.45,7.63-.78s5.08-.67,7.56-1.19A43,43,0,0,0,60,70.67a28.7,28.7,0,0,0,3.41-1.6,14.89,14.89,0,0,0,3-2.11,8,8,0,0,0,1.16-1.32,4.9,4.9,0,0,0,.69-1.51,4.54,4.54,0,0,0,.08-1.64,4.39,4.39,0,0,0-.6-1.56,9.08,9.08,0,0,0-2.61-2.51,33.7,33.7,0,0,0-3.32-1.91,18.49,18.49,0,0,1,3.67,1.31,8.88,8.88,0,0,1,3.18,2.47,5.09,5.09,0,0,1,.92,2,5.34,5.34,0,0,1,0,2.18,5.86,5.86,0,0,1-.83,2A9.07,9.07,0,0,1,67.42,68a16.36,16.36,0,0,1-3.3,2.31A31,31,0,0,1,60.55,72a37,37,0,0,1-3.72,1.26c-1.25.35-2.53.64-3.8.88-2.56.49-5.13.79-7.69,1s-5.14.44-7.71.53C32.48,75.87,22.2,75.25,22.2,75.25Z"/></g></g></svg>