<svg xmlns="http://www.w3.org/2000/svg" viewBox="0 0 173.98 55.94"><defs><style>.cls-1{fill:#6b6b6b;}</style></defs><title>clt_vigotsky</title><g id="Capa_2" data-name="Capa 2"><g id="Capa_1-2" data-name="Capa 1"><g id="_Grupo_" data-name="&lt;Grupo&gt;"><g id="_Grupo_2" data-name="&lt;Grupo&gt;"><g id="_Grupo_3" data-name="&lt;Grupo&gt;"><path id="_Trazado_compuesto_" data-name="&lt;Trazado compuesto&gt;" class="cls-1" d="M78.25,20.5a3.49,3.49,0,0,1-1.3-.22,1.86,1.86,0,0,1-.81-.61,2.45,2.45,0,0,1-.42-1,6.26,6.26,0,0,1-.12-1.28v-4l.48-.05.39,0,.36,0,.48.05v3.74c0,.33,0,.6,0,.83a2.31,2.31,0,0,0,.14.55.65.65,0,0,0,.29.3,1.08,1.08,0,0,0,.48.09,1.16,1.16,0,0,0,.49-.09.65.65,0,0,0,.29-.3,1.65,1.65,0,0,0,.13-.55,6.57,6.57,0,0,0,0-.83V13.47l.48-.05.37,0,.37,0,.48.05v4a6.26,6.26,0,0,1-.12,1.28,2.45,2.45,0,0,1-.42,1,1.86,1.86,0,0,1-.81.61A3.49,3.49,0,0,1,78.25,20.5Z"/><path id="_Trazado_compuesto_2" data-name="&lt;Trazado compuesto&gt;" class="cls-1" d="M83.91,15.3a4.8,4.8,0,0,1,.85.08,2,2,0,0,1,.77.3,1.69,1.69,0,0,1,.56.67,2.51,2.51,0,0,1,.22,1.15v2.88l-.46.06-.35,0-.37,0-.45-.06V17.67a1.08,1.08,0,0,0-.2-.73.71.71,0,0,0-.58-.23l-.23,0-.15,0v3.61l-.45.06-.36,0-.37,0-.45-.06V15.64c.22-.07.5-.15.82-.22A5,5,0,0,1,83.91,15.3Z"/><path id="_Trazado_compuesto_3" data-name="&lt;Trazado compuesto&gt;" class="cls-1" d="M88.87,20.38l-.45.06-.37,0-.36,0-.45-.06v-5l.42-.07.4,0,.4,0,.41.07Z"/><path id="_Trazado_compuesto_4" data-name="&lt;Trazado compuesto&gt;" class="cls-1" d="M91.57,15.29a4.32,4.32,0,0,1,1.33.18,2.35,2.35,0,0,1,.91.51,2,2,0,0,1,.52.81,3.21,3.21,0,0,1,.17,1.05,3.43,3.43,0,0,1-.17,1.1,2,2,0,0,1-.53.84,2.45,2.45,0,0,1-.94.54,4.62,4.62,0,0,1-1.38.18c-.32,0-.6,0-.85,0l-.77-.09v-5l.86-.09A8.45,8.45,0,0,1,91.57,15.29Zm-.08,3.84h.29a1,1,0,0,0,.8-.3,1.48,1.48,0,0,0,.27-1,1.32,1.32,0,0,0-.26-.9,1,1,0,0,0-.74-.28h-.36Z"/><path id="_Trazado_compuesto_5" data-name="&lt;Trazado compuesto&gt;" class="cls-1" d="M95,18.76a1.41,1.41,0,0,1,.2-.78,1.52,1.52,0,0,1,.52-.49,2.16,2.16,0,0,1,.71-.26,4,4,0,0,1,.75-.07h.59a.5.5,0,0,0-.1-.29.49.49,0,0,0-.22-.18,1.32,1.32,0,0,0-.3-.09l-.34,0a4,4,0,0,0-.54.05,4.25,4.25,0,0,0-.63.17q-.09-.16-.15-.3a1.48,1.48,0,0,1-.1-.27,2.93,2.93,0,0,1,0-.29c0-.1,0-.22,0-.35a6.19,6.19,0,0,1,.92-.23,5.16,5.16,0,0,1,.83-.07,3.16,3.16,0,0,1,.9.12,1.77,1.77,0,0,1,.69.37,1.56,1.56,0,0,1,.44.64,2.58,2.58,0,0,1,.16.93v2.83c-.25.07-.55.14-.89.21a5.62,5.62,0,0,1-1.1.11,4.32,4.32,0,0,1-.92-.1,2.13,2.13,0,0,1-.72-.29,1.37,1.37,0,0,1-.47-.54A1.8,1.8,0,0,1,95,18.76Zm2.28.54.25,0,.24,0V18.18h-.55a1.09,1.09,0,0,0-.57.14.48.48,0,0,0-.23.41.45.45,0,0,0,.09.3.5.5,0,0,0,.21.17.9.9,0,0,0,.28.08Z"/><path id="_Trazado_compuesto_6" data-name="&lt;Trazado compuesto&gt;" class="cls-1" d="M101.9,15.29a4.39,4.39,0,0,1,1.34.18,2.51,2.51,0,0,1,.91.51,2.17,2.17,0,0,1,.52.81,3.21,3.21,0,0,1,.16,1.05,3.18,3.18,0,0,1-.17,1.1,2,2,0,0,1-.53.84,2.48,2.48,0,0,1-.93.54,4.74,4.74,0,0,1-1.39.18q-.47,0-.84,0l-.78-.09v-5l.86-.09C101.35,15.3,101.64,15.29,101.9,15.29Zm-.08,3.84h.29a1,1,0,0,0,.81-.3,1.54,1.54,0,0,0,.26-1,1.27,1.27,0,0,0-.26-.9.94.94,0,0,0-.74-.28h-.36Z"/><path id="_Trazado_compuesto_7" data-name="&lt;Trazado compuesto&gt;" class="cls-1" d="M111.3,16.77a3.47,3.47,0,0,1-.09.75h-1.86v1.37h2.42a3.17,3.17,0,0,1,0,1.5h-4.13V13.45h4.07a3.24,3.24,0,0,1,.06.4c0,.12,0,.24,0,.35a4.8,4.8,0,0,1-.08.76h-2.36V16h1.86A3.62,3.62,0,0,1,111.3,16.77Z"/><path id="_Trazado_compuesto_8" data-name="&lt;Trazado compuesto&gt;" class="cls-1" d="M114.3,15.29a4.32,4.32,0,0,1,1.33.18,2.47,2.47,0,0,1,.92.51,2.17,2.17,0,0,1,.52.81,3.21,3.21,0,0,1,.16,1.05,3.43,3.43,0,0,1-.17,1.1,2,2,0,0,1-.53.84,2.45,2.45,0,0,1-.94.54,4.62,4.62,0,0,1-1.38.18c-.31,0-.6,0-.84,0l-.78-.09v-5l.86-.09A8.45,8.45,0,0,1,114.3,15.29Zm-.08,3.84h.29a1,1,0,0,0,.81-.3,1.54,1.54,0,0,0,.26-1,1.32,1.32,0,0,0-.26-.9.94.94,0,0,0-.74-.28h-.36Z"/><path id="_Trazado_compuesto_9" data-name="&lt;Trazado compuesto&gt;" class="cls-1" d="M122.34,20.16l-.39.11-.48.11a4.51,4.51,0,0,1-.53.09,4.71,4.71,0,0,1-.53,0,5.77,5.77,0,0,1-.94-.08,2.09,2.09,0,0,1-.8-.31,1.58,1.58,0,0,1-.54-.69,2.88,2.88,0,0,1-.2-1.2V15.4l.41-.07.41,0,.39,0,.42.07v2.68a1.18,1.18,0,0,0,.19.79.73.73,0,0,0,.59.22h.25l.12,0V15.4l.42-.07.4,0,.4,0,.41.07Z"/><path id="_Trazado_compuesto_10" data-name="&lt;Trazado compuesto&gt;" class="cls-1" d="M123.09,17.9a3.23,3.23,0,0,1,.16-1.06,2.35,2.35,0,0,1,.48-.83,2.39,2.39,0,0,1,.78-.53,2.76,2.76,0,0,1,1.07-.19H126l.36,0,.37.09.42.15a2.42,2.42,0,0,1-.06.65,2.71,2.71,0,0,1-.24.63l-.29-.09-.25-.06-.23,0h-.23A1.12,1.12,0,0,0,125,17a1.24,1.24,0,0,0-.3.95,1.63,1.63,0,0,0,.09.59,1,1,0,0,0,.24.38.85.85,0,0,0,.35.19,1.42,1.42,0,0,0,.42.06,2.28,2.28,0,0,0,.48-.05,3.91,3.91,0,0,0,.49-.16,2.25,2.25,0,0,1,.26.59,2.68,2.68,0,0,1,.1.73,3.89,3.89,0,0,1-.81.23,6.12,6.12,0,0,1-.74,0,3.08,3.08,0,0,1-1.09-.18,2.18,2.18,0,0,1-.79-.52,2.27,2.27,0,0,1-.49-.82A3.31,3.31,0,0,1,123.09,17.9Z"/><path id="_Trazado_compuesto_11" data-name="&lt;Trazado compuesto&gt;" class="cls-1" d="M127.52,18.76a1.33,1.33,0,0,1,.21-.78,1.44,1.44,0,0,1,.52-.49,2.11,2.11,0,0,1,.7-.26,4,4,0,0,1,.75-.07h.59a.5.5,0,0,0-.09-.29.52.52,0,0,0-.23-.18,1.1,1.1,0,0,0-.29-.09l-.34,0a3.74,3.74,0,0,0-.54.05,4.05,4.05,0,0,0-.64.17q-.09-.16-.15-.3a1.43,1.43,0,0,1-.09-.27,1.47,1.47,0,0,1,0-.29,3.49,3.49,0,0,1,0-.35,6.51,6.51,0,0,1,.92-.23,5.16,5.16,0,0,1,.83-.07,3.23,3.23,0,0,1,.91.12,1.77,1.77,0,0,1,.69.37,1.54,1.54,0,0,1,.43.64,2.38,2.38,0,0,1,.16.93v2.83c-.25.07-.54.14-.89.21a5.54,5.54,0,0,1-1.1.11,4.4,4.4,0,0,1-.92-.1,2.13,2.13,0,0,1-.72-.29,1.45,1.45,0,0,1-.47-.54A1.8,1.8,0,0,1,127.52,18.76Zm2.28.54.25,0,.24,0V18.18h-.55a1.15,1.15,0,0,0-.57.14.48.48,0,0,0-.23.41.45.45,0,0,0,.09.3.52.52,0,0,0,.22.17.83.83,0,0,0,.28.08Z"/><path id="_Trazado_compuesto_12" data-name="&lt;Trazado compuesto&gt;" class="cls-1" d="M133.69,16.76h-1.43a2.7,2.7,0,0,1-.06-.36c0-.11,0-.22,0-.32s0-.21,0-.32a2.7,2.7,0,0,1,.06-.36h4.49a2.7,2.7,0,0,1,.06.36c0,.11,0,.21,0,.32s0,.21,0,.32a2.7,2.7,0,0,1-.06.36h-1.43v3.62l-.45.06-.37,0-.37,0-.44-.06Z"/><path id="_Trazado_compuesto_13" data-name="&lt;Trazado compuesto&gt;" class="cls-1" d="M139,20.38l-.45.06-.37,0-.36,0-.45-.06v-5l.42-.07.4,0,.4,0,.41.07Z"/><path id="_Trazado_compuesto_14" data-name="&lt;Trazado compuesto&gt;" class="cls-1" d="M143.07,15.4l.32,0,.49,0,.59,0,.38,0-1.89,5a2.7,2.7,0,0,1-.41.06l-.4,0-.39,0a1.91,1.91,0,0,1-.37-.06l-1.85-5,.38,0,.59,0,.5,0,.33,0,.88,3c.15-.49.29-1,.43-1.5S142.93,15.88,143.07,15.4Z"/><path id="_Trazado_compuesto_15" data-name="&lt;Trazado compuesto&gt;" class="cls-1" d="M144.9,18.76a1.41,1.41,0,0,1,.2-.78,1.52,1.52,0,0,1,.52-.49,2.16,2.16,0,0,1,.71-.26,4,4,0,0,1,.75-.07h.59a.5.5,0,0,0-.1-.29.49.49,0,0,0-.22-.18,1.32,1.32,0,0,0-.3-.09l-.34,0a4,4,0,0,0-.54.05,4.25,4.25,0,0,0-.63.17q-.09-.16-.15-.3a1.48,1.48,0,0,1-.1-.27,2.93,2.93,0,0,1,0-.29c0-.1,0-.22,0-.35a6.19,6.19,0,0,1,.92-.23,5.16,5.16,0,0,1,.83-.07,3.16,3.16,0,0,1,.9.12,1.77,1.77,0,0,1,.69.37,1.56,1.56,0,0,1,.44.64,2.58,2.58,0,0,1,.16.93v2.83c-.25.07-.54.14-.89.21a5.62,5.62,0,0,1-1.1.11,4.32,4.32,0,0,1-.92-.1,2.13,2.13,0,0,1-.72-.29,1.37,1.37,0,0,1-.47-.54A1.8,1.8,0,0,1,144.9,18.76Zm2.28.54.25,0,.24,0V18.18h-.55a1.15,1.15,0,0,0-.57.14.48.48,0,0,0-.23.41.45.45,0,0,0,.09.3.5.5,0,0,0,.21.17.9.9,0,0,0,.28.08Z"/></g><g id="_Grupo_4" data-name="&lt;Grupo&gt;"><path id="_Trazado_compuesto_16" data-name="&lt;Trazado compuesto&gt;" class="cls-1" d="M60.7,32.73l4.2-14.86c.47-.08.95-.14,1.43-.18s1-.06,1.52-.06c.35,0,.78,0,1.29.08s1,.1,1.35.16l-7.06,22c-.53.08-1,.14-1.49.18s-.9.06-1.33.06-.83,0-1.26-.06-.94-.1-1.53-.18l-7-21.95c.34-.06.8-.11,1.38-.16s1.12-.08,1.66-.08.89,0,1.41.08,1,.1,1.35.16Z"/><path id="_Trazado_compuesto_17" data-name="&lt;Trazado compuesto&gt;" class="cls-1" d="M75.71,39.85q-.81.12-1.44.18a9.81,9.81,0,0,1-2.34,0q-.65-.06-1.41-.18V24a10.63,10.63,0,0,1,1.34-.21c.44,0,.86-.06,1.27-.06s.81,0,1.26.06a9.56,9.56,0,0,1,1.32.21Z"/><path id="_Trazado_compuesto_18" data-name="&lt;Trazado compuesto&gt;" class="cls-1" d="M86.24,40.25a9.55,9.55,0,0,1-3.76-.66,6.65,6.65,0,0,1-4-4.47,11.56,11.56,0,0,1-.45-3.28,9.33,9.33,0,0,1,.54-3.19A7.31,7.31,0,0,1,80.2,26a7.53,7.53,0,0,1,2.63-1.75,9.43,9.43,0,0,1,3.62-.64,12.93,12.93,0,0,1,2.36.24,15.35,15.35,0,0,1,2.83.86,7.26,7.26,0,0,1-.13,1,8.56,8.56,0,0,1-.23.94c-.09.32-.2.65-.33,1l-.48,1.21a13.86,13.86,0,0,0-1.93-.63,7.47,7.47,0,0,0-1.54-.2,4.41,4.41,0,0,0-1.72.31,3,3,0,0,0-1.13.83,3.25,3.25,0,0,0-.63,1.21,4.89,4.89,0,0,0-.2,1.43,4.36,4.36,0,0,0,.89,3,3.34,3.34,0,0,0,2.61,1h.55V31.32c.51-.1,1-.18,1.37-.22s.78-.06,1.15-.06a13.6,13.6,0,0,1,2.54.28v7.79a22.85,22.85,0,0,1-2.48.74A15.17,15.17,0,0,1,86.24,40.25Z"/><path id="_Trazado_compuesto_19" data-name="&lt;Trazado compuesto&gt;" class="cls-1" d="M94.21,32a10.91,10.91,0,0,1,.51-3.42A7.33,7.33,0,0,1,96.22,26a6.64,6.64,0,0,1,2.48-1.71,8.94,8.94,0,0,1,3.4-.59,9.08,9.08,0,0,1,3.44.59A6.68,6.68,0,0,1,108,26a7,7,0,0,1,1.5,2.65A10.91,10.91,0,0,1,110,32a10.48,10.48,0,0,1-.51,3.36A6.88,6.88,0,0,1,108,38a6.61,6.61,0,0,1-2.47,1.68,9.49,9.49,0,0,1-3.44.58,9.35,9.35,0,0,1-3.4-.58A6.57,6.57,0,0,1,96.22,38a7.15,7.15,0,0,1-1.5-2.61A10.48,10.48,0,0,1,94.21,32Zm10.56,0a5.61,5.61,0,0,0-.66-3,2.21,2.21,0,0,0-2-1.05,2.17,2.17,0,0,0-2,1.05,5.71,5.71,0,0,0-.65,3,5.68,5.68,0,0,0,.65,3,2.16,2.16,0,0,0,2,1,2.2,2.2,0,0,0,2-1A5.58,5.58,0,0,0,104.77,32Z"/><path id="_Trazado_compuesto_20" data-name="&lt;Trazado compuesto&gt;" class="cls-1" d="M115.61,28.34h-4.55a7.52,7.52,0,0,1-.2-1.15c0-.36,0-.7,0-1s0-.66,0-1a7.62,7.62,0,0,1,.2-1.14h14.27a6.52,6.52,0,0,1,.2,1.14c0,.35,0,.68,0,1s0,.67,0,1a6.47,6.47,0,0,1-.2,1.15h-4.54V39.85q-.8.12-1.44.18A9.73,9.73,0,0,1,117,40q-.64-.06-1.41-.18Z"/><path id="_Trazado_compuesto_21" data-name="&lt;Trazado compuesto&gt;" class="cls-1" d="M135.1,29.94a10.19,10.19,0,0,1,1.67.59,4.48,4.48,0,0,1,1.29.91,4,4,0,0,1,.84,1.35,5.5,5.5,0,0,1,.31,1.93,5,5,0,0,1-.48,2.18,4.84,4.84,0,0,1-1.41,1.75,7.21,7.21,0,0,1-2.3,1.17,10.39,10.39,0,0,1-3.15.43,15.56,15.56,0,0,1-2.73-.22,14.5,14.5,0,0,1-2.67-.73,12.2,12.2,0,0,1,1.14-4.24,9.16,9.16,0,0,0,2,.69,9.83,9.83,0,0,0,2.15.23l.77,0a2.41,2.41,0,0,0,.7-.14,1.39,1.39,0,0,0,.51-.29A.63.63,0,0,0,134,35a.65.65,0,0,0-.4-.6,5.71,5.71,0,0,0-.92-.35l-2.09-.58a6,6,0,0,1-2.7-1.57,4.12,4.12,0,0,1-1.07-3,4.81,4.81,0,0,1,.49-2.18,4.93,4.93,0,0,1,1.38-1.67,6.48,6.48,0,0,1,2.1-1.06,9.46,9.46,0,0,1,2.69-.36,15,15,0,0,1,2.55.24,17.69,17.69,0,0,1,2.73.71,9.64,9.64,0,0,1-.4,2.1,12.41,12.41,0,0,1-.77,2,13.69,13.69,0,0,0-2-.62,9.49,9.49,0,0,0-2.14-.27c-1,0-1.45.26-1.45.8a.58.58,0,0,0,.34.52,3.86,3.86,0,0,0,.77.3Z"/><path id="_Trazado_compuesto_22" data-name="&lt;Trazado compuesto&gt;" class="cls-1" d="M141.57,24a10.63,10.63,0,0,1,1.34-.21c.44,0,.86-.06,1.27-.06s.81,0,1.26.06a9.56,9.56,0,0,1,1.32.21V39.82a13.29,13.29,0,0,1-1.44.2c-.43,0-.81,0-1.14,0s-.74,0-1.17,0a12.65,12.65,0,0,1-1.44-.2Zm9.3,0a10.11,10.11,0,0,1,1.35-.18q.79-.06,1.41-.06c.53,0,1.07,0,1.61.06a8.44,8.44,0,0,1,1.31.18l-3.81,7.37L157,39.82a10.18,10.18,0,0,1-1.38.18c-.56,0-1,.06-1.45.06s-1.05,0-1.58-.06a7.41,7.41,0,0,1-1.24-.18l-4.08-8.23Z"/><path id="_Trazado_compuesto_23" data-name="&lt;Trazado compuesto&gt;" class="cls-1" d="M168.61,24a7.21,7.21,0,0,1,.93-.12c.46,0,1-.06,1.49-.06.68,0,1.28,0,1.81.06s.91.08,1.14.12l-5.92,10.28v5.56c-.54.08-1,.14-1.45.18a9.73,9.73,0,0,1-2.33,0q-.65-.06-1.41-.18V34.29L157,24c.22,0,.62-.08,1.18-.12s1.18-.06,1.85-.06,1.06,0,1.57.06a7.81,7.81,0,0,1,1,.12l3,6Z"/></g><g id="_Grupo_5" data-name="&lt;Grupo&gt;"><path id="_Trazado_compuesto_24" data-name="&lt;Trazado compuesto&gt;" class="cls-1" d="M55.69,42.58v.55h-4v2.43h3.75v.55H51.69v2.65h4.05v.55H51.05V42.58Z"/><path id="_Trazado_compuesto_25" data-name="&lt;Trazado compuesto&gt;" class="cls-1" d="M60.24,49.31v-.93h0a1.72,1.72,0,0,1-.28.44,1.7,1.7,0,0,1-.42.33,2.21,2.21,0,0,1-.5.21,2,2,0,0,1-.53.08,2.07,2.07,0,0,1-1-.21,1.92,1.92,0,0,1-.68-.55,2.53,2.53,0,0,1-.41-.82,3.8,3.8,0,0,1,0-2,2.38,2.38,0,0,1,.41-.81,2,2,0,0,1,.68-.57,2.21,2.21,0,0,1,1-.2,2.39,2.39,0,0,1,.53.06,2.06,2.06,0,0,1,.48.21,1.8,1.8,0,0,1,.4.33,1.33,1.33,0,0,1,.27.46h0V42.58h.59v6.73ZM57,47.63a2.18,2.18,0,0,0,.29.66,1.47,1.47,0,0,0,.49.47,1.3,1.3,0,0,0,.73.19,1.52,1.52,0,0,0,.79-.19,1.61,1.61,0,0,0,.53-.47,2.18,2.18,0,0,0,.29-.66,3.17,3.17,0,0,0,0-1.5,2,2,0,0,0-.29-.66,1.53,1.53,0,0,0-.53-.48,1.62,1.62,0,0,0-.79-.18,1.39,1.39,0,0,0-.73.18,1.41,1.41,0,0,0-.49.48,2,2,0,0,0-.29.66,3.17,3.17,0,0,0,0,1.5Z"/><path id="_Trazado_compuesto_26" data-name="&lt;Trazado compuesto&gt;" class="cls-1" d="M65.31,49.31v-.88h0a1.66,1.66,0,0,1-.68.75,2,2,0,0,1-1,.26,2.06,2.06,0,0,1-.78-.13A1.46,1.46,0,0,1,62.3,49a1.68,1.68,0,0,1-.3-.58,3,3,0,0,1-.09-.77V44.45h.59v3.16a1.65,1.65,0,0,0,.31,1,1.51,1.51,0,0,0,1.65.17,1.42,1.42,0,0,0,.45-.43,2.22,2.22,0,0,0,.27-.63,3.53,3.53,0,0,0,.08-.72V44.45h.59v4.86Z"/><path id="_Trazado_compuesto_27" data-name="&lt;Trazado compuesto&gt;" class="cls-1" d="M70,45.12a1.28,1.28,0,0,0-.92-.31,1.51,1.51,0,0,0-.75.18,1.49,1.49,0,0,0-.53.47,2,2,0,0,0-.32.66,2.79,2.79,0,0,0-.11.76,2.72,2.72,0,0,0,.11.75,2.18,2.18,0,0,0,.32.67,1.71,1.71,0,0,0,.53.47A1.51,1.51,0,0,0,69,49a1.26,1.26,0,0,0,.51-.11,1.44,1.44,0,0,0,.44-.28,1.74,1.74,0,0,0,.31-.44,1.72,1.72,0,0,0,.15-.56H71a2.24,2.24,0,0,1-.65,1.38,1.89,1.89,0,0,1-1.35.5,2.25,2.25,0,0,1-1-.21,2,2,0,0,1-.72-.55,2.44,2.44,0,0,1-.44-.81,3.21,3.21,0,0,1-.15-1,3.27,3.27,0,0,1,.15-1,2.44,2.44,0,0,1,.44-.81,2.33,2.33,0,0,1,.72-.56,2.4,2.4,0,0,1,1-.2,2.14,2.14,0,0,1,1.32.41A1.77,1.77,0,0,1,71,46H70.4A1.58,1.58,0,0,0,70,45.12Z"/><path id="_Trazado_compuesto_28" data-name="&lt;Trazado compuesto&gt;" class="cls-1" d="M72,45.2a1.47,1.47,0,0,1,.41-.51A1.72,1.72,0,0,1,73,44.4a3.07,3.07,0,0,1,.77-.09,3.47,3.47,0,0,1,.64.06,1.59,1.59,0,0,1,.57.23,1.24,1.24,0,0,1,.42.48,1.76,1.76,0,0,1,.16.79v2.58c0,.24.11.36.35.36a.53.53,0,0,0,.18,0v.5l-.18,0h-.2a.88.88,0,0,1-.36-.07.48.48,0,0,1-.22-.17A.62.62,0,0,1,75,48.8a1.79,1.79,0,0,1,0-.34h0a3.56,3.56,0,0,1-.32.42,1.52,1.52,0,0,1-.37.3,1.59,1.59,0,0,1-.46.19,2.72,2.72,0,0,1-.62.07,2.59,2.59,0,0,1-.63-.08,1.5,1.5,0,0,1-.52-.26,1.18,1.18,0,0,1-.35-.44,1.54,1.54,0,0,1-.13-.63,1.27,1.27,0,0,1,.23-.8,1.42,1.42,0,0,1,.6-.44,3.44,3.44,0,0,1,.84-.21l.94-.12.33,0a.75.75,0,0,0,.24-.1.43.43,0,0,0,.14-.2.72.72,0,0,0,0-.32,1.16,1.16,0,0,0-.09-.49.84.84,0,0,0-.28-.31,1.19,1.19,0,0,0-.4-.15,2.67,2.67,0,0,0-.5,0,1.5,1.5,0,0,0-.92.27,1,1,0,0,0-.37.86h-.6A2,2,0,0,1,72,45.2Zm3,1.45a.34.34,0,0,1-.22.15l-.28.07-.78.12a3.76,3.76,0,0,0-.73.15,1.41,1.41,0,0,0-.54.3.71.71,0,0,0-.21.55.87.87,0,0,0,.09.4,1.13,1.13,0,0,0,.24.3,1,1,0,0,0,.35.19,1.09,1.09,0,0,0,.4.07,2,2,0,0,0,.65-.11,1.57,1.57,0,0,0,.54-.3,1.39,1.39,0,0,0,.5-1.12v-.77Z"/><path id="_Trazado_compuesto_29" data-name="&lt;Trazado compuesto&gt;" class="cls-1" d="M77.29,44.45v.82h0a1.85,1.85,0,0,1,.61-.71,1.74,1.74,0,0,1,1-.25,1.71,1.71,0,0,1,.87.23,1.18,1.18,0,0,1,.52.72,1.51,1.51,0,0,1,.64-.72,1.88,1.88,0,0,1,.9-.23c1.08,0,1.61.57,1.61,1.7v3.3h-.59V46a1.5,1.5,0,0,0-.25-.92,1.1,1.1,0,0,0-.9-.31,1.35,1.35,0,0,0-.64.14,1.15,1.15,0,0,0-.4.39,2,2,0,0,0-.22.56,3.52,3.52,0,0,0-.06.66v2.75H79.8V46a2.42,2.42,0,0,0,0-.47,1,1,0,0,0-.17-.38.79.79,0,0,0-.31-.26,1.22,1.22,0,0,0-.49-.09,1.48,1.48,0,0,0-.65.13,1.27,1.27,0,0,0-.45.38,1.7,1.7,0,0,0-.26.56,2.71,2.71,0,0,0-.08.71v2.72h-.6V44.45Z"/><path id="_Trazado_compuesto_30" data-name="&lt;Trazado compuesto&gt;" class="cls-1" d="M87.62,44.51a2.33,2.33,0,0,1,.72.56,2.44,2.44,0,0,1,.44.81,3.27,3.27,0,0,1,.15,1,3.21,3.21,0,0,1-.15,1,2.44,2.44,0,0,1-.44.81,2,2,0,0,1-.72.55,2.25,2.25,0,0,1-1,.21,2.21,2.21,0,0,1-1-.21,1.87,1.87,0,0,1-.72-.55,2.44,2.44,0,0,1-.44-.81,3.21,3.21,0,0,1-.15-1,3.27,3.27,0,0,1,.15-1,2.44,2.44,0,0,1,.44-.81,2.12,2.12,0,0,1,.72-.56,2.35,2.35,0,0,1,1-.2A2.4,2.4,0,0,1,87.62,44.51ZM85.89,45a1.49,1.49,0,0,0-.53.47,2,2,0,0,0-.32.66,2.79,2.79,0,0,0-.11.76,2.72,2.72,0,0,0,.11.75,2.18,2.18,0,0,0,.32.67,1.71,1.71,0,0,0,.53.47,1.47,1.47,0,0,0,.74.18,1.51,1.51,0,0,0,.75-.18,1.71,1.71,0,0,0,.53-.47,2.18,2.18,0,0,0,.32-.67,2.72,2.72,0,0,0,.11-.75,2.79,2.79,0,0,0-.11-.76,2,2,0,0,0-.32-.66,1.49,1.49,0,0,0-.53-.47,1.51,1.51,0,0,0-.75-.18A1.47,1.47,0,0,0,85.89,45Z"/><path id="_Trazado_compuesto_31" data-name="&lt;Trazado compuesto&gt;" class="cls-1" d="M92.61,45.4a.93.93,0,0,0-.28-.34,1.06,1.06,0,0,0-.4-.19,2,2,0,0,0-.88,0,1.18,1.18,0,0,0-.37.14.84.84,0,0,0-.27.26.71.71,0,0,0-.11.39.6.6,0,0,0,.1.34.92.92,0,0,0,.25.23,1.66,1.66,0,0,0,.33.15,3,3,0,0,0,.33.1l.79.18a2.19,2.19,0,0,1,.5.14,1.43,1.43,0,0,1,.45.26,1.19,1.19,0,0,1,.31.39,1.22,1.22,0,0,1,.13.56,1.2,1.2,0,0,1-.18.67,1.32,1.32,0,0,1-.46.45,1.85,1.85,0,0,1-.63.25,3.23,3.23,0,0,1-.68.08A2.23,2.23,0,0,1,90.15,49a1.7,1.7,0,0,1-.61-1.3h.59a1.21,1.21,0,0,0,.44.91,1.57,1.57,0,0,0,1,.31A2.28,2.28,0,0,0,92,48.9a1.23,1.23,0,0,0,.43-.16.89.89,0,0,0,.32-.29.66.66,0,0,0,.13-.42.7.7,0,0,0-.09-.37.78.78,0,0,0-.24-.24,1.54,1.54,0,0,0-.34-.17l-.39-.11L91.07,47a5,5,0,0,1-.54-.17,1.8,1.8,0,0,1-.43-.25,1,1,0,0,1-.29-.36,1.3,1.3,0,0,1-.1-.52,1.19,1.19,0,0,1,.17-.63,1.3,1.3,0,0,1,.42-.42,1.93,1.93,0,0,1,.59-.24,2.88,2.88,0,0,1,.65-.07,2.48,2.48,0,0,1,.68.09,1.53,1.53,0,0,1,.55.29,1.69,1.69,0,0,1,.39.49,1.84,1.84,0,0,1,.15.69h-.59A1,1,0,0,0,92.61,45.4Z"/><path id="_Trazado_compuesto_32" data-name="&lt;Trazado compuesto&gt;" class="cls-1" d="M99.93,45.12a1.28,1.28,0,0,0-.92-.31,1.54,1.54,0,0,0-.75.18,1.49,1.49,0,0,0-.53.47,2.25,2.25,0,0,0-.32.66,2.78,2.78,0,0,0-.1.76,2.71,2.71,0,0,0,.1.75,2.44,2.44,0,0,0,.32.67,1.71,1.71,0,0,0,.53.47A1.54,1.54,0,0,0,99,49a1.35,1.35,0,0,0,.52-.11,1.52,1.52,0,0,0,.43-.28,1.74,1.74,0,0,0,.31-.44,1.72,1.72,0,0,0,.15-.56H101a2.19,2.19,0,0,1-.65,1.38,1.89,1.89,0,0,1-1.35.5,2.17,2.17,0,0,1-1-.21,1.87,1.87,0,0,1-.72-.55,2.29,2.29,0,0,1-.45-.81,3.21,3.21,0,0,1-.15-1,3.27,3.27,0,0,1,.15-1,2.29,2.29,0,0,1,.45-.81,2.12,2.12,0,0,1,.72-.56,2.32,2.32,0,0,1,1-.2,2.14,2.14,0,0,1,1.32.41A1.78,1.78,0,0,1,101,46h-.6A1.58,1.58,0,0,0,99.93,45.12Z"/><path id="_Trazado_compuesto_33" data-name="&lt;Trazado compuesto&gt;" class="cls-1" d="M104.88,44.51a2.33,2.33,0,0,1,.72.56,2.44,2.44,0,0,1,.44.81,3.27,3.27,0,0,1,.15,1,3.21,3.21,0,0,1-.15,1,2.44,2.44,0,0,1-.44.81,2,2,0,0,1-.72.55,2.25,2.25,0,0,1-1,.21,2.21,2.21,0,0,1-1-.21,1.87,1.87,0,0,1-.72-.55,2.44,2.44,0,0,1-.44-.81,3.21,3.21,0,0,1-.15-1,3.27,3.27,0,0,1,.15-1,2.44,2.44,0,0,1,.44-.81,2.12,2.12,0,0,1,.72-.56,2.35,2.35,0,0,1,1-.2A2.4,2.4,0,0,1,104.88,44.51Zm-1.73.48a1.49,1.49,0,0,0-.53.47,2,2,0,0,0-.32.66,2.79,2.79,0,0,0-.11.76,2.72,2.72,0,0,0,.11.75,2.18,2.18,0,0,0,.32.67,1.71,1.71,0,0,0,.53.47,1.47,1.47,0,0,0,.74.18,1.51,1.51,0,0,0,.75-.18,1.71,1.71,0,0,0,.53-.47,2.18,2.18,0,0,0,.32-.67,2.72,2.72,0,0,0,.11-.75,2.79,2.79,0,0,0-.11-.76,2,2,0,0,0-.32-.66,1.49,1.49,0,0,0-.53-.47,1.51,1.51,0,0,0-.75-.18A1.47,1.47,0,0,0,103.15,45Z"/><path id="_Trazado_compuesto_34" data-name="&lt;Trazado compuesto&gt;" class="cls-1" d="M107.66,44.45v.84h0a1.38,1.38,0,0,1,.6-.71,1.78,1.78,0,0,1,1-.27,2.34,2.34,0,0,1,.85.13,1.37,1.37,0,0,1,.55.37,1.31,1.31,0,0,1,.29.59,3.1,3.1,0,0,1,.09.78v3.13h-.59v-3a2.56,2.56,0,0,0-.06-.57,1.18,1.18,0,0,0-.2-.47.9.9,0,0,0-.38-.31,1.34,1.34,0,0,0-.6-.11,1.54,1.54,0,0,0-.63.12,1.38,1.38,0,0,0-.47.35,1.62,1.62,0,0,0-.3.53,1.76,1.76,0,0,0-.12.66v2.84h-.59V44.45Z"/><path id="_Trazado_compuesto_35" data-name="&lt;Trazado compuesto&gt;" class="cls-1" d="M114.87,45.2a1.36,1.36,0,0,1,.41-.51,1.68,1.68,0,0,1,.6-.29,3.15,3.15,0,0,1,.78-.09,3.55,3.55,0,0,1,.64.06,1.59,1.59,0,0,1,.57.23,1.14,1.14,0,0,1,.41.48,1.63,1.63,0,0,1,.16.79v2.58a.32.32,0,0,0,.35.36.58.58,0,0,0,.19,0v.5l-.18,0h-.21a.88.88,0,0,1-.36-.07.51.51,0,0,1-.21-.17.79.79,0,0,1-.1-.27c0-.1,0-.22,0-.34h0a5.13,5.13,0,0,1-.33.42,1.69,1.69,0,0,1-.36.3,1.71,1.71,0,0,1-.46.19,2.79,2.79,0,0,1-.62.07,2.61,2.61,0,0,1-.64-.08,1.45,1.45,0,0,1-.51-.26,1.09,1.09,0,0,1-.35-.44,1.39,1.39,0,0,1-.13-.63,1.27,1.27,0,0,1,.23-.8,1.46,1.46,0,0,1,.59-.44,3.44,3.44,0,0,1,.84-.21l1-.12.33,0a.7.7,0,0,0,.23-.1.44.44,0,0,0,.15-.2.89.89,0,0,0,0-.32,1,1,0,0,0-.1-.49.81.81,0,0,0-.27-.31,1.25,1.25,0,0,0-.41-.15,2.56,2.56,0,0,0-.49,0,1.48,1.48,0,0,0-.92.27,1,1,0,0,0-.38.86h-.59A2,2,0,0,1,114.87,45.2Zm3,1.45a.34.34,0,0,1-.21.15l-.29.07-.77.12a3.76,3.76,0,0,0-.73.15,1.41,1.41,0,0,0-.54.3.68.68,0,0,0-.22.55.87.87,0,0,0,.09.4,1.13,1.13,0,0,0,.24.3,1.08,1.08,0,0,0,.35.19,1.14,1.14,0,0,0,.41.07,2.06,2.06,0,0,0,.65-.11,1.78,1.78,0,0,0,.54-.3,1.44,1.44,0,0,0,.36-.48,1.47,1.47,0,0,0,.14-.64v-.77Z"/><path id="_Trazado_compuesto_36" data-name="&lt;Trazado compuesto&gt;" class="cls-1" d="M120.17,44.45v.82h0a2,2,0,0,1,.62-.71,1.88,1.88,0,0,1,1.84,0,1.19,1.19,0,0,1,.53.72,1.46,1.46,0,0,1,.64-.72,1.88,1.88,0,0,1,.9-.23c1.07,0,1.61.57,1.61,1.7v3.3h-.59V46a1.44,1.44,0,0,0-.26-.92,1.09,1.09,0,0,0-.89-.31A1.35,1.35,0,0,0,124,45a1.18,1.18,0,0,0-.41.39,1.71,1.71,0,0,0-.21.56,3.52,3.52,0,0,0-.06.66v2.75h-.59V46a2.42,2.42,0,0,0,0-.47,1.46,1.46,0,0,0-.17-.38.82.82,0,0,0-.32-.26,1.14,1.14,0,0,0-.48-.09,1.45,1.45,0,0,0-.65.13,1.12,1.12,0,0,0-.45.38,1.52,1.52,0,0,0-.26.56,2.71,2.71,0,0,0-.09.71v2.72h-.59V44.45Z"/><path id="_Trazado_compuesto_37" data-name="&lt;Trazado compuesto&gt;" class="cls-1" d="M130.5,44.51a2.24,2.24,0,0,1,1.16,1.37,3,3,0,0,1,.16,1,2.94,2.94,0,0,1-.16,1,2.13,2.13,0,0,1-.44.81,1.87,1.87,0,0,1-.72.55,2.39,2.39,0,0,1-2,0,1.87,1.87,0,0,1-.72-.55,2.29,2.29,0,0,1-.45-.81,3.21,3.21,0,0,1-.15-1,3.27,3.27,0,0,1,.15-1,2.29,2.29,0,0,1,.45-.81,2.12,2.12,0,0,1,.72-.56,2.5,2.5,0,0,1,2,0Zm-1.72.48a1.52,1.52,0,0,0-.54.47,2.25,2.25,0,0,0-.32.66,2.78,2.78,0,0,0-.1.76,2.71,2.71,0,0,0,.1.75,2.44,2.44,0,0,0,.32.67,1.75,1.75,0,0,0,.54.47,1.61,1.61,0,0,0,1.48,0,1.61,1.61,0,0,0,.53-.47,2,2,0,0,0,.32-.67,2.39,2.39,0,0,0,.11-.75,2.45,2.45,0,0,0-.11-.76,1.84,1.84,0,0,0-.32-.66,1.41,1.41,0,0,0-.53-.47,1.61,1.61,0,0,0-1.48,0Z"/><path id="_Trazado_compuesto_38" data-name="&lt;Trazado compuesto&gt;" class="cls-1" d="M133.25,44.45v1.14h0a2,2,0,0,1,.71-.92,1.82,1.82,0,0,1,1.13-.29V45a1.73,1.73,0,0,0-.73.1,1.7,1.7,0,0,0-.57.37,1.45,1.45,0,0,0-.37.56,1.8,1.8,0,0,0-.14.71v2.59h-.59V44.45Z"/><path id="_Trazado_compuesto_39" data-name="&lt;Trazado compuesto&gt;" class="cls-1" d="M138.37,44.45l1.6,4.14,1.49-4.14h.59L140,50a4.06,4.06,0,0,1-.25.51,1,1,0,0,1-.25.32.76.76,0,0,1-.32.17,1.54,1.54,0,0,1-.46.05h-.28a.48.48,0,0,1-.18,0v-.5l.21,0h.2a.74.74,0,0,0,.32-.05.6.6,0,0,0,.22-.16.74.74,0,0,0,.17-.24l.14-.31.2-.54-1.93-4.84Z"/><path id="_Trazado_compuesto_40" data-name="&lt;Trazado compuesto&gt;" class="cls-1" d="M146.17,45v4.36h-.6V45h-.82v-.5h.82V44a3.48,3.48,0,0,1,.05-.58,1.12,1.12,0,0,1,.18-.45.94.94,0,0,1,.36-.29,1.44,1.44,0,0,1,.59-.11H147l.25,0v.51l-.23,0-.2,0a.77.77,0,0,0-.38.08.46.46,0,0,0-.19.2.73.73,0,0,0-.07.3c0,.11,0,.23,0,.37v.42h1V45Z"/><path id="_Trazado_compuesto_41" data-name="&lt;Trazado compuesto&gt;" class="cls-1" d="M148.29,42.58v1h-.59v-1Zm0,1.87v4.86h-.59V44.45Z"/><path id="_Trazado_compuesto_42" data-name="&lt;Trazado compuesto&gt;" class="cls-1" d="M150,44.45v1.14h0a1.87,1.87,0,0,1,.7-.92,1.82,1.82,0,0,1,1.13-.29V45a1.73,1.73,0,0,0-.73.1,1.7,1.7,0,0,0-.57.37,1.45,1.45,0,0,0-.37.56,1.8,1.8,0,0,0-.13.71v2.59h-.6V44.45Z"/><path id="_Trazado_compuesto_43" data-name="&lt;Trazado compuesto&gt;" class="cls-1" d="M152.94,44.45v.82h0a1.87,1.87,0,0,1,.62-.71,1.88,1.88,0,0,1,1.84,0,1.14,1.14,0,0,1,.52.72,1.56,1.56,0,0,1,.64-.72,2,2,0,0,1,.91-.23c1.07,0,1.61.57,1.61,1.7v3.3h-.6V46a1.44,1.44,0,0,0-.25-.92,1.09,1.09,0,0,0-.89-.31,1.35,1.35,0,0,0-.64.14,1.18,1.18,0,0,0-.41.39,1.71,1.71,0,0,0-.21.56,3.52,3.52,0,0,0-.06.66v2.75h-.59V46a1.84,1.84,0,0,0-.06-.47,1,1,0,0,0-.17-.38.72.72,0,0,0-.31-.26,1.14,1.14,0,0,0-.48-.09,1.53,1.53,0,0,0-.66.13,1.27,1.27,0,0,0-.45.38,1.92,1.92,0,0,0-.26.56,3.22,3.22,0,0,0-.08.71v2.72h-.59V44.45Z"/><path id="_Trazado_compuesto_44" data-name="&lt;Trazado compuesto&gt;" class="cls-1" d="M160.67,47.7a2,2,0,0,0,.29.62,1.67,1.67,0,0,0,.5.45,1.37,1.37,0,0,0,.72.18,1.46,1.46,0,0,0,1-.34,1.82,1.82,0,0,0,.51-.9h.59a2.34,2.34,0,0,1-.69,1.28,2.08,2.08,0,0,1-1.43.45,2.19,2.19,0,0,1-1-.21,1.84,1.84,0,0,1-.68-.55,2.31,2.31,0,0,1-.39-.82,3.51,3.51,0,0,1-.13-1,3.28,3.28,0,0,1,.13-.94,2.35,2.35,0,0,1,.39-.83,2,2,0,0,1,.68-.58,2.31,2.31,0,0,1,2,0,1.9,1.9,0,0,1,.67.62,2.5,2.5,0,0,1,.38.88,4.14,4.14,0,0,1,.09,1h-3.74A2.61,2.61,0,0,0,160.67,47.7Zm2.94-1.81a1.57,1.57,0,0,0-.31-.55,1.53,1.53,0,0,0-.48-.39,1.44,1.44,0,0,0-.64-.14,1.51,1.51,0,0,0-.65.14,1.79,1.79,0,0,0-.48.39,2,2,0,0,0-.31.55,2.94,2.94,0,0,0-.16.65h3.15A2.34,2.34,0,0,0,163.61,45.89Z"/><path id="_Trazado_compuesto_45" data-name="&lt;Trazado compuesto&gt;" class="cls-1" d="M168.75,48.81v.5H164.7v-.49L167.87,45h-3v-.5h3.71v.42l-3.21,3.94Z"/><path id="_Trazado_compuesto_46" data-name="&lt;Trazado compuesto&gt;" class="cls-1" d="M169.6,45.2a1.47,1.47,0,0,1,.41-.51,1.65,1.65,0,0,1,.61-.29,3.07,3.07,0,0,1,.77-.09,3.47,3.47,0,0,1,.64.06,1.59,1.59,0,0,1,.57.23,1.24,1.24,0,0,1,.42.48,1.76,1.76,0,0,1,.16.79v2.58c0,.24.11.36.34.36a.53.53,0,0,0,.19,0v.5l-.18,0h-.2a1,1,0,0,1-.37-.07.51.51,0,0,1-.21-.17.79.79,0,0,1-.1-.27c0-.1,0-.22,0-.34h0a5.11,5.11,0,0,1-.32.42,1.74,1.74,0,0,1-.37.3,1.71,1.71,0,0,1-.46.19,2.72,2.72,0,0,1-.62.07,2.59,2.59,0,0,1-.63-.08,1.5,1.5,0,0,1-.52-.26,1.18,1.18,0,0,1-.35-.44,1.54,1.54,0,0,1-.13-.63,1.27,1.27,0,0,1,.23-.8,1.42,1.42,0,0,1,.6-.44,3.44,3.44,0,0,1,.84-.21l.94-.12.33,0a.87.87,0,0,0,.24-.1.43.43,0,0,0,.14-.2.72.72,0,0,0,.05-.32,1.16,1.16,0,0,0-.09-.49.84.84,0,0,0-.28-.31,1.19,1.19,0,0,0-.4-.15,2.67,2.67,0,0,0-.5,0,1.5,1.5,0,0,0-.92.27,1,1,0,0,0-.38.86h-.59A2,2,0,0,1,169.6,45.2Zm3,1.45a.29.29,0,0,1-.21.15l-.28.07-.78.12a3.76,3.76,0,0,0-.73.15,1.41,1.41,0,0,0-.54.3.71.71,0,0,0-.21.55.87.87,0,0,0,.09.4,1.13,1.13,0,0,0,.24.3,1,1,0,0,0,.35.19,1.09,1.09,0,0,0,.4.07,2,2,0,0,0,.65-.11,1.57,1.57,0,0,0,.54-.3,1.39,1.39,0,0,0,.5-1.12v-.77Z"/></g></g><g id="_Grupo_6" data-name="&lt;Grupo&gt;"><path id="_Trazado_compuesto_47" data-name="&lt;Trazado compuesto&gt;" class="cls-1" d="M31.91.16c-3.17-.84-6.61,1.73-7.67,5.73a8.61,8.61,0,0,0,.26,5.47A5.4,5.4,0,0,0,28,14.67a4.82,4.82,0,0,0,1.25.16,5.65,5.65,0,0,0,3.47-1.27,8.57,8.57,0,0,0,3-4.62C36.78,4.94,35.07,1,31.91.16ZM34,8.5h0a6.78,6.78,0,0,1-2.34,3.69,3.41,3.41,0,0,1-5.6-1.49,6.88,6.88,0,0,1-.2-4.37c.73-2.72,2.75-4.61,4.76-4.61a3.09,3.09,0,0,1,.8.11C33.71,2.43,34.86,5.42,34,8.5Z"/><path id="_Trazado_compuesto_48" data-name="&lt;Trazado compuesto&gt;" class="cls-1" d="M42.92,22.82c-.69-1.5-3.05-2.37-3.31-2.46L18.74,12.88l-7.23-2.7c-1-.37-3.13-.59-4.12,1.22s.75,3.51,1.93,4.3c3.88,3.26,8.12,7,8.59,7.57a1.91,1.91,0,0,0,.16.27c.22.33.63.94-.23,3.62-.31.95-.73,2.57-1.16,4.52h0A15.71,15.71,0,0,0,0,30.08L1.94,48.24S9,45.32,14.11,48h0c-.51,5.46-.34,7.22.89,7.68a1.84,1.84,0,0,0,.63.12c1.18,0,2.11-1.27,2.6-2.51l1.11-2.86a4.6,4.6,0,0,1,1.76,1.29l3.39-1c.08.08.11.2.2.28a2.36,2.36,0,0,0,2,.49,3,3,0,0,0,2.06-1.38,12.66,12.66,0,0,1,9.88,5.82L38.39,36S36.51,34,30,32.48c0-1.35,0-2.52.09-3.31,0,0,0,0,0-.05a26.83,26.83,0,0,1,.64-4.67,4.47,4.47,0,0,1,1.4.27,36.54,36.54,0,0,0,5.84,1.43c2,.26,4.3.3,5.05-1.67A2.09,2.09,0,0,0,42.92,22.82Zm-4.73,1.63a37,37,0,0,1-5.48-1.34,4.19,4.19,0,0,0-2.91-.17,1.38,1.38,0,0,0-.72.88,28.89,28.89,0,0,0-.75,5.2c-.17,1.7-.09,4.89,0,8a67.57,67.57,0,0,1,0,6.84c-.07.49-.11,1-.16,1.6-.18,2.42-.41,4.14-1.7,4.37-.42.07-.57,0-.62-.1-.59-.51-.53-2.43-.51-3.35,0-.23,0-.44,0-.61,0-1.4-.1-4.25-.12-4.58.11-4-.54-4.41-1.27-4.44-.41,0-1.64-.06-3,4.72L16.63,52.68a3.54,3.54,0,0,1-.93,1.37c-.4-1.16.16-6.37.47-9.23a116.26,116.26,0,0,1,3.31-17.13c1-3.21.56-4.32,0-5.11l-.07-.11c-.36-.73-5.11-4.82-9-8.13l-.08-.06c-.5-.32-1.75-1.41-1.4-2A1.19,1.19,0,0,1,10,11.65a2.83,2.83,0,0,1,.87.15l7.23,2.7L39,22a4.9,4.9,0,0,1,2.33,1.56.38.38,0,0,1,0,.31C41.28,24.12,41,24.82,38.19,24.45Z"/></g></g></g></g></svg>