<svg xmlns="http://www.w3.org/2000/svg" viewBox="0 0 110.03 84.44"><defs><style>.cls-1{fill:#6b6b6b;}</style></defs><title>clt_monaco</title><g id="Capa_2" data-name="Capa 2"><g id="Capa_1-2" data-name="Capa 1"><path class="cls-1" d="M48.22,3.65c.6.2,1.22.37,1.81.62a2.19,2.19,0,0,1,.63.56c.29.31.55.65.85,1a1.48,1.48,0,0,0,1.1.43,2.93,2.93,0,0,1,.78.1c.66.16.85.59.56,1.21a.88.88,0,0,0-.1.27A1.56,1.56,0,0,0,54.43,7c.1-.3.14-.62.22-.93a1.44,1.44,0,0,1,.15-.51c.06-.1.27-.21.36-.17a.45.45,0,0,1,.23.35,3.48,3.48,0,0,1-1.06,2.14l-.22.23s0,0,0,.09c.26.12.53.08.62-.18a2.07,2.07,0,0,1,2.14-1.25A1,1,0,0,0,57.94,6a2.82,2.82,0,0,1,1.35-1.42c.3-.17.65-.36.93-.1s.17.49.26.76c.11-.06.3-.17.49-.26a.87.87,0,0,1,1.33.5,4,4,0,0,1,.27,1.07,1,1,0,0,1-.48,1,.47.47,0,0,0-.23.47c0,1.29,0,2.59,0,3.89a.76.76,0,0,0,.2.46A7.38,7.38,0,0,1,64.39,17a17.13,17.13,0,0,1,0,1.76c.63.13,1.32.27,2,.44a42.68,42.68,0,0,1,12.72,5.35,37.76,37.76,0,0,1,8.36,7,33.44,33.44,0,0,1,6.42,10.24A46.13,46.13,0,0,1,96.7,53.3c.14,1.23.13,2.49.19,3.73l-.12,0c-.08-.3-.16-.59-.23-.89a48.54,48.54,0,0,0-3-8.76,44.89,44.89,0,0,0-8.77-12.81,42,42,0,0,0-10.57-7.85A41.13,41.13,0,0,0,63.77,23a44.52,44.52,0,0,0-13.18-.84A43.25,43.25,0,0,0,36.8,25.6a40.47,40.47,0,0,0-7.49,4.27,39.23,39.23,0,0,0-8.64,8.52,37.48,37.48,0,0,0-5.05,9.36,36.37,36.37,0,0,0-2.08,9l0,.24h-.1c-.09-.66-.2-1.32-.27-2a30.08,30.08,0,0,1,5.59-20.5,35.27,35.27,0,0,1,6.67-6.92,48.61,48.61,0,0,1,10.49-6.26c1.15-.52,2.33-1,3.49-1.45a.88.88,0,0,0,.36-.38c.34-.68.63-1.38,1-2a2.26,2.26,0,0,1,1.36-1,2.32,2.32,0,0,0,1.68-2.92A1.94,1.94,0,0,0,41,12.18c-.54.23-1.06.54-1.58.82a2,2,0,0,1-2.17.08,7.23,7.23,0,0,1-1.4-1A1.38,1.38,0,0,1,36,9.9a13.67,13.67,0,0,0,2.86-3.07A9.08,9.08,0,0,0,40.16,4,6.06,6.06,0,0,1,42,.82,3.76,3.76,0,0,1,44.24,0,5.34,5.34,0,0,1,47,.37a2,2,0,0,1,1.23,1.78C48.24,2.65,48.22,3.16,48.22,3.65Zm6,6.61c-.58,0-.68.16-.52.73a1.17,1.17,0,0,1-.23,1.3,2.75,2.75,0,0,1-1.62.75,2,2,0,0,0-.86.26,1,1,0,0,0-.31,1.15.78.78,0,0,0,1,.39c.17,0,.34-.09.52-.12.54-.07,1.08-.16,1.62-.18a1.71,1.71,0,0,1,1.32.53c.33.33.7.62,1,.92a2,2,0,0,0,1.28.5.81.81,0,0,0,1-.85,4,4,0,0,0-.18-1.29A1.54,1.54,0,0,0,56.6,13.2a2.89,2.89,0,0,1-1.13-.27,1.3,1.3,0,0,1-.74-1.56,2.21,2.21,0,0,0,.06-.57C54.79,10.37,54.63,10.23,54.2,10.26Zm3.46-1.12a2.22,2.22,0,0,0-.46-.47.56.56,0,0,0-.52,0,1.77,1.77,0,0,0-.45.66c-.12.33.25.87.55.86A1.3,1.3,0,0,0,57.66,9.14Z"/><path class="cls-1" d="M33.67,58.36a3,3,0,0,1,1.42-2.75,5,5,0,0,1,1.49-.47,1.27,1.27,0,0,0,1.15-1.57,2.6,2.6,0,0,1,.66-1.8,4.67,4.67,0,0,1,2.55-1.68,1.48,1.48,0,0,1,.92.18,3.78,3.78,0,0,1,1.62,1.57,34.75,34.75,0,0,0,4,4.93A45.1,45.1,0,0,0,52.32,61a8.65,8.65,0,0,0,1.62,1.21,4.85,4.85,0,0,0,4,0,22.33,22.33,0,0,0,4.27-2,7.75,7.75,0,0,1,3.5-1c2-.16,4-.29,6-.42a4.76,4.76,0,0,0,1.86-.46c1-.48,1.91-1,2.85-1.48a1.79,1.79,0,0,1,1.74,0,1.3,1.3,0,0,1,.41.28,3.64,3.64,0,0,0,2.59.94,1.82,1.82,0,0,1,1.33.65,11.57,11.57,0,0,1,.82,1,1.06,1.06,0,0,0,1.42.53,4.13,4.13,0,0,1,1-.18,1.39,1.39,0,0,1,1.42,1.43,1.3,1.3,0,0,1-1.11,1.52,2.87,2.87,0,0,1-2.37-.32,2.63,2.63,0,0,1-1-1.26,1.12,1.12,0,0,0-.83-.76,8.65,8.65,0,0,0-1.76-.14,1.34,1.34,0,0,1-1.3-.53A2.3,2.3,0,0,0,77,59a2.07,2.07,0,0,0-1.71.88.49.49,0,0,0,.06.68c.13.15.31.26.45.41a1.24,1.24,0,0,1,.15.33c-.13,0-.28.15-.38.11A4,4,0,0,1,74.7,61a.63.63,0,0,0-.76-.06,7.06,7.06,0,0,1-4.69.85,18.22,18.22,0,0,1-2.84-.53,3.54,3.54,0,0,0-2.34.12c-.59.24-1.16.54-1.73.84-.81.41-1.6.88-2.44,1.25-1.09.48-2.21.87-3.32,1.3a2.42,2.42,0,0,1-2.28-.25c-1.07-.68-2.2-1.28-3.28-1.95a20.94,20.94,0,0,1-4.36-3.77A49.42,49.42,0,0,1,42,52.89a.6.6,0,0,0-.85-.24c-1.32.72-2.47,1.58-2.48,3.31A1.64,1.64,0,0,1,37,57.39a1.32,1.32,0,0,0-1.22.59,10.35,10.35,0,0,1-.64.94,1.51,1.51,0,0,1-.59.48.58.58,0,0,1-.87-.51C33.69,58.69,33.68,58.49,33.67,58.36Z"/><path class="cls-1" d="M38,69.6l-3.47-.45c-.35,0-.71-.05-1.06-.11a1.8,1.8,0,0,1-1.39-1A2.8,2.8,0,0,0,30.64,67c-.59-.25-1.22-.41-1.8-.68a11.47,11.47,0,0,1-2.13-1.15,3.6,3.6,0,0,1-1.42-3.43,2,2,0,0,1,.29-.58,3,3,0,0,1,.56.32c.67.66,1.34,1.32,2,2a4,4,0,0,0,2.28,1.16,3.8,3.8,0,0,1,1.82.92,1.22,1.22,0,0,1,.24.27A3,3,0,0,0,35,67.16c1,.11,1.95.18,2.92.24a2.46,2.46,0,0,0,1.85-.88c.43-.42.61-.49.94-.31a1,1,0,0,1,.45,1.11,1.25,1.25,0,0,1-.19.46A3.79,3.79,0,0,1,38,69.6Z"/><path class="cls-1" d="M12.59,60.59c0-.89,0-.92.91-1a5.25,5.25,0,0,1,1.37.11,11,11,0,0,1,4.81,2.75c.34.31.52.27.61-.2s.16-1.06.26-1.58a1.32,1.32,0,0,1,.93-1.12,1.3,1.3,0,0,1,1.34.37A1,1,0,0,1,23,61.21c-.25.41-.61.75-.9,1.14a4.49,4.49,0,0,0-.55.84,4.44,4.44,0,0,0-.24,1c-.15.81-.73,1.19-1.45.8a21.63,21.63,0,0,1-2.58-1.64A4.58,4.58,0,0,0,15,62.41l-1.42-.14a.86.86,0,0,1-.89-.77C12.65,61.2,12.63,60.89,12.59,60.59Z"/><path class="cls-1" d="M95,64.77a2.25,2.25,0,0,0-1.64.68A14.47,14.47,0,0,0,92,66.89a21.35,21.35,0,0,1-4.57,4.18A1.24,1.24,0,0,1,85.81,71a3.94,3.94,0,0,1-1.42-2.53.72.72,0,0,1,.29-.79.68.68,0,0,1,.79.17c.37.32.72.66,1.08,1a.8.8,0,0,0,1.06.18,5.91,5.91,0,0,0,1.18-.85c1.43-1.4,2.79-2.87,4.26-4.23a20.31,20.31,0,0,1,2.62-2,1.92,1.92,0,0,0,.81-1c.11-.29.17-.6.28-.88.06-.13.25-.34.3-.32a2.08,2.08,0,0,1,.79.47c.11.12.06.44,0,.65a1,1,0,0,1-.36.43,1.75,1.75,0,0,0-.65,1.33,2.06,2.06,0,0,1-1.24,1.93A3.73,3.73,0,0,1,95,64.77Z"/><path class="cls-1" d="M20.1,55.2c.09-1.06.39-1.75,1.26-2.1a1.81,1.81,0,0,0,1.2-1.78,3.37,3.37,0,0,1,.16-.94.48.48,0,0,1,.7-.35,3.21,3.21,0,0,1,1.7,1.29,1.31,1.31,0,0,1,.18.77c-.11.75-.53.94-1.45.82a1,1,0,0,0-.38,0,.47.47,0,0,0-.34.7,1.59,1.59,0,0,1,.14.55.49.49,0,0,1-.77.44.69.69,0,0,0-1.06.32,11.25,11.25,0,0,0-.38,1.29,1.81,1.81,0,0,1-.07.35,1.58,1.58,0,0,1-.22.29c-.09-.07-.24-.14-.27-.23C20.34,56.07,20.2,55.55,20.1,55.2Z"/><path class="cls-1" d="M24.43,57.72a.82.82,0,0,1,.72-.87.8.8,0,0,1,.7.88.77.77,0,0,1-.7.86A.8.8,0,0,1,24.43,57.72Z"/><path class="cls-1" d="M47.6,34.5a3.65,3.65,0,0,1,.81.26c.16.1.25.34.37.51a2.93,2.93,0,0,1-.57.13c-.54,0-1.08-.12-1.61-.09a13.88,13.88,0,0,0-1.73.29c-.16-.36-.09-.63.35-.75l1.21-.35Z"/><path class="cls-1" d="M35.64,43.29c.39-.62.67-1.14,1-1.62,1.14-1.58,2.29-3.17,3.47-4.72a7.72,7.72,0,0,1,1.27-1.15.61.61,0,0,1,.48,0c.06,0,.1.28.06.4-.76,2.83-1.54,5.66-2.31,8.5a13.17,13.17,0,0,0-.3,1.52.45.45,0,0,0,.26.36c.33,0,.68,0,1,0a2.67,2.67,0,0,1,.66.32c-.17.15-.33.43-.5.43-.65,0-1.3-.06-2-.1a2.33,2.33,0,0,0-.53,0c-.49.07-.73-.11-.63-.58.31-1.36.67-2.71,1-4.06.25-1,.52-1.92.69-3a5.64,5.64,0,0,0-.54.65c-1.28,2.08-2.55,4.17-3.84,6.25-.09.15-.31.22-.46.33a1.17,1.17,0,0,1-.24-.47c-.08-1-.13-2.05-.19-3.08a35.77,35.77,0,0,0-.34-3.67,17.25,17.25,0,0,1-.49,1.74,41.67,41.67,0,0,1-1.58,3.86,3.5,3.5,0,0,1-2.4,2,8.66,8.66,0,0,1-2.59.13,6.61,6.61,0,0,1-3.05-1.17,5.71,5.71,0,0,1-2.38-6.53,4.78,4.78,0,0,1,3.3-3.14,5.06,5.06,0,0,1,5.35,1.17A4,4,0,0,1,31.12,41a2.46,2.46,0,0,1-2.29,2.41,4.4,4.4,0,0,1-3.22-.67,2.29,2.29,0,0,1-.94-3c.17-.4.65-.67,1-1a.56.56,0,0,1,.48.13c0,.19,0,.52-.09.6a1.14,1.14,0,0,0-.7,1.13,2,2,0,0,0,.88,1.37,2.73,2.73,0,0,0,3.86-.28,1.86,1.86,0,0,0,.19-2,4.15,4.15,0,0,0-2.82-2.39,4.15,4.15,0,0,0-4.21,1,4.41,4.41,0,0,0-1.46,2,3.85,3.85,0,0,0,.64,3.31,7.21,7.21,0,0,0,4.24,2.88,3.82,3.82,0,0,0,2.64-.43A5.2,5.2,0,0,0,32,42.52c.54-2,.82-4.07,1.25-6.11a.83.83,0,0,1,.43-.52c.8-.33,1.31,0,1.39,1q.22,3,.47,6A3.24,3.24,0,0,0,35.64,43.29Z"/><path class="cls-1" d="M50.72,44.66a7,7,0,0,1,.11-1.17c.48-1.88,1-3.75,1.47-5.62.13-.49.27-1-.47-1.11-.1,0-.18-.22-.32-.4A9.33,9.33,0,0,1,55,35.7c.1,0,.33.31.3.41-.2.69-.47,1.37-.7,2a1.27,1.27,0,0,0,.07.43c.61-.73,1.16-1.42,1.75-2.06A2.24,2.24,0,0,1,58,35.68a1.17,1.17,0,0,1,1.34,1.12,7.64,7.64,0,0,1-.27,2c-.32,1.29-.7,2.56-1.05,3.85a2,2,0,0,0,0,.49c.57-.18.57-1.14,1.49-.74-.32.46-.62.91-.94,1.34-.15.2-.36.35-.53.54a1.84,1.84,0,0,1-1.81.47,1.13,1.13,0,0,1-.79-1.36c.23-1.08.53-2.14.8-3.21.17-.66.35-1.31.49-2,0-.14,0-.31-.09-.47a1.46,1.46,0,0,0-.42.19,10.78,10.78,0,0,0-2.94,5.58c-.37,1.54-.22,1.17-1.58,1.24A9.15,9.15,0,0,1,50.72,44.66Z"/><path class="cls-1" d="M67.05,43.21c.75.17.66-1.16,1.51-.68a1.05,1.05,0,0,1-.08.36,4.12,4.12,0,0,1-2.17,2,1.22,1.22,0,0,1-1.67-1.42c0-.11,0-.22.07-.5a7.41,7.41,0,0,0-.85.93,1.77,1.77,0,0,1-2.39.83,2,2,0,0,1-.93-1.88,8,8,0,0,1,1.61-5.05,9.39,9.39,0,0,1,1.72-1.73,1.73,1.73,0,0,1,1.8-.34c.51.24.8.58,1.41.11.3-.24.92-.08,1.39-.07s.43.25.34.6c-.56,2.1-1.11,4.19-1.66,6.29C67.11,42.82,67.09,43,67.05,43.21Zm-4-1,.36.66c.27-.15.65-.23.78-.46a16.71,16.71,0,0,0,1.46-3,3.86,3.86,0,0,0,.15-2.56c-.14-.4-.38-.47-.7-.21a1.46,1.46,0,0,0-.4.42A12.22,12.22,0,0,0,63,42.2Z"/><path class="cls-1" d="M79.91,44.91a2.43,2.43,0,0,1-2.58-2.35A6.89,6.89,0,0,1,79,37.69a5.72,5.72,0,0,1,2.36-1.77c1.68-.65,3.68-.27,4,1.95a5.21,5.21,0,0,1-1,4,8.41,8.41,0,0,1-1,1.43A4.81,4.81,0,0,1,79.91,44.91Zm3.14-7.41a1,1,0,0,0,0-.4c-.13-.27-.26-.68-.46-.72a1.07,1.07,0,0,0-.83.35,2.78,2.78,0,0,0-.58.91A15.68,15.68,0,0,0,79.7,43c0,.47,0,1,.5,1.13s.89-.22,1.11-.62A13.28,13.28,0,0,0,83.05,37.5Z"/><path class="cls-1" d="M41.92,41.86a6.88,6.88,0,0,1,4.17-6A2.75,2.75,0,0,1,50,38.16a6.47,6.47,0,0,1-1,3.76,6.06,6.06,0,0,1-2.32,2.39,3.77,3.77,0,0,1-2.91.49,2.53,2.53,0,0,1-1.76-2A4.87,4.87,0,0,1,41.92,41.86Zm5.7-4a1.38,1.38,0,0,0-.47-1.46c-.14-.09-.52.18-.78.32a.72.72,0,0,0-.26.31,14.78,14.78,0,0,0-1.79,6c0,.48,0,.93.57,1.08s.86-.26,1-.62A13.32,13.32,0,0,0,47.62,37.85Z"/><path class="cls-1" d="M72.34,44.76c-2.07,0-3-1.2-2.74-3.16A6.94,6.94,0,0,1,70.94,38c1.18-1.53,2.64-2.57,4.72-2.22.5.08,1.3.73,1.22,1.39-.07.49,0,1-.39,1.39a1.22,1.22,0,0,1-1.33.3c-.46-.17-.55-.66-.48-1.13a.92.92,0,0,1,.27-.4c.25-.28.61-.61.27-.92-.17-.16-.73-.09-1,.07a4.75,4.75,0,0,0-2,3.06,5.5,5.5,0,0,0-.14,2.61,1.43,1.43,0,0,0,2.22,1.09c.4-.18.75-.48,1.14-.7a3.13,3.13,0,0,1,.54-.19c0,.19,0,.44-.11.56C74.86,44,73.82,44.93,72.34,44.76Z"/><path class="cls-1" d="M.15,73.23A2.62,2.62,0,0,0,.66,73,.72.72,0,0,1,1,72.9a.79.79,0,0,1,.44.16l.2,0,.43,0,.6,0,.21,0H3l.41,0h.21l.7,0s.08,0,.2,0l.06,0,.14,0a1.23,1.23,0,0,1,.29,0l.2.07a.67.67,0,0,1,.32-.12l.36.07.16,0,.18,0h1l.22.07h0l.06-.14a1.16,1.16,0,0,0,.23,0l.33,0h0s0,.09.11.23l.08-.14s.06,0,.18,0l.27-.12h0a0,0,0,0,1,.05,0l.11.24.26-.28.11,0,.12,0a.12.12,0,0,1,.12.09l-.1.08,0,.09c-.07,0-.11,0-.12.07l-.12.16-.13.08a.64.64,0,0,1-.23.05h-.1l-.21,0h-.1l-.16,0-.2,0-.24,0-.37,0H7.29l-.55,0-.2,0-.31-.19-.15.19-.1,0H5.85l-.23,0-.06,0-.13,0h0l-.32,0H5a.21.21,0,0,0-.14,0l0,0s-.06.09-.18.18a1.59,1.59,0,0,0-.15.25l-.13.17c-.06.07-.09.11-.09.13s.11.18.31.25.15.07.15.1l-.06.1a.33.33,0,0,0,0,.13H4.6v.16l.12.07a.39.39,0,0,1,0,.14s0,.09,0,.19a.61.61,0,0,0,0,.14c0,.06,0,.22,0,.47l0,.25c0,.11,0,.19,0,.26a1.25,1.25,0,0,1,0,.14c0,.07,0,.11-.06.13l-.06,0L4.6,77v0l0,0,.12.09v.16l.13.07c-.28.15-.43.3-.43.45s.14.26.42.36a.26.26,0,0,0-.07.12s0,.1,0,.22a.34.34,0,0,1,0,.1.49.49,0,0,1,0,.11l.06,0c0,.14,0,.24,0,.29h0l0,.19c0,.17,0,.27,0,.3s0,.07,0,.16a.93.93,0,0,0-.07.24V80h0q-.18,0-.18.12h0l0,.1.16,0a.7.7,0,0,0,0,.13,1,1,0,0,1,0,.11.32.32,0,0,1,0,.09v.06s0,.17,0,.42a2.33,2.33,0,0,1,0,.46c0,.06,0,.11,0,.16s0,.12.07.28a.71.71,0,0,1-.05.2l-.17.06-.14.06-.07.08H4.29l-.37.22a.29.29,0,0,1-.09-.16,1.37,1.37,0,0,1,0-.18v-.15l0-.13,0-.27,0-.15a.53.53,0,0,1,0-.22.44.44,0,0,1,.15-.17.28.28,0,0,1-.1-.18H4v-.48c0-.13,0-.23,0-.3l.07-.09V80a.88.88,0,0,1,0-.14l-.08-.07H4l0-.11v-.8a.66.66,0,0,1,0-.17,1,1,0,0,0,0-.22,1.5,1.5,0,0,0,0-.18l0-.23A.66.66,0,0,1,4,78a1.57,1.57,0,0,1,.07-.2c0-.08,0-.12,0-.13s0,0,.13-.06v-.09l-.15,0a.54.54,0,0,1,0-.17.64.64,0,0,1,0-.15,1.15,1.15,0,0,1,0-.14A.28.28,0,0,1,4,77V75.94s.06-.11.19-.17.19-.1.19-.13-.07-.06-.2-.14A.65.65,0,0,1,4,75.36c.07,0,.11-.07.11-.11s0-.06-.05-.18,0,0,0,0a.49.49,0,0,1,0-.12.52.52,0,0,1-.13-.36A.39.39,0,0,1,4,74.38c0-.08,0-.14,0-.16v0c0-.09.15-.2.44-.33,0,0,0,0,0,0L4,73.71s0,0,0-.07a.1.1,0,0,1,0-.06,1.69,1.69,0,0,0-.48-.08H3.14l-.24,0-.38,0-.11,0a.24.24,0,0,0-.14-.06H2.15l-.27-.09-.08,0-.09,0-.17.08-.23,0-.26,0H.63a1.13,1.13,0,0,1-.26,0H.31l-.29,0v0a.16.16,0,0,1,.07-.1A.31.31,0,0,0,.15,73.23Z"/><path class="cls-1" d="M10.24,77.45a.56.56,0,0,1,.09-.17,1.82,1.82,0,0,1,.26-.15,1,1,0,0,1,.24-.13.17.17,0,0,1,.14.06l0,.09,0,.15a.45.45,0,0,0,0,.08.17.17,0,0,0,.06.11,1.23,1.23,0,0,0,.26-.13l.21-.07.21-.13.13-.06.12,0,.11,0h0l.33-.11h.15a.17.17,0,0,1,.12,0l.11.1h.07l.14-.07h0a.21.21,0,0,1,.15.07.43.43,0,0,1,.12.21,3,3,0,0,1-.3.24c-.07.09-.13.14-.16.14s-.12-.06-.21-.16h-.15a.69.69,0,0,1-.21-.06,1.05,1.05,0,0,0-.24-.06.23.23,0,0,1-.17.11.49.49,0,0,0-.17,0l-.2.06a.18.18,0,0,1-.08,0,4,4,0,0,1-.34.27.46.46,0,0,0-.16.4v.18a.71.71,0,0,1,0,.14s0,.09-.12.17a.25.25,0,0,1,.09.15s0,0,0,.09L11,79l0,.14L11,80l0,.06-.13.07a.9.9,0,0,0-.28.07,1.43,1.43,0,0,0,.32.06l.08,0a1.21,1.21,0,0,1,.05.23.22.22,0,0,1-.11.18l-.26,0a.84.84,0,0,0-.21.12l-.07,0c-.08,0-.12,0-.12-.1s0-.12.08-.29c0,0,0,0,0-.06l0-.22s0,0,0-.08l.12,0s0,0,0-.08a.28.28,0,0,0-.08-.15V79.7s0-.1,0-.23,0-.2,0-.28.18-.09.18-.16a.23.23,0,0,0,0-.07h-.1a.12.12,0,0,1-.09,0v-.66a.56.56,0,0,1,.06-.22s-.07-.06-.07-.09a2.33,2.33,0,0,1,0-.32A.49.49,0,0,0,10.24,77.45Z"/><path class="cls-1" d="M14.59,79.08A.37.37,0,0,1,14.7,79a1.7,1.7,0,0,1,.3-.08l.25-.11.3,0,.16,0h.37l.4-.05a.52.52,0,0,0,.21,0,.2.2,0,0,0,.09-.18.66.66,0,0,0,0-.16l.26-.33-.31-.09h-.15a2.15,2.15,0,0,0-.25-.31l-.38-.07h-.15l-.15,0H15.5l-.1-.12a.5.5,0,0,0-.16.11.49.49,0,0,1-.16.1,1.66,1.66,0,0,0-.42.24l-.07.05-.09.1a.29.29,0,0,1-.14,0,.6.6,0,0,1-.18,0L14,77.78a.52.52,0,0,1-.11-.13l.12-.09s.09-.08.11-.08l.23-.06.15-.08.32-.09.2-.09h.2l.22-.06h.1l.17,0H16a.94.94,0,0,1,.27.07h.12l.27,0s.1,0,.18.11-.09.09-.09.12,0,.07.06.07a.24.24,0,0,0,.12,0l.14,0a.24.24,0,0,1,.06.17l.13.09a.23.23,0,0,1,0,.07l0,.19a.82.82,0,0,0,.11.27h0c0,.07,0,.15,0,.24s0,.32,0,.38-.11.09-.11.14,0,.09.13.13a.45.45,0,0,1,0,.11s0,.09,0,.17a.41.41,0,0,0,0,.11,1.76,1.76,0,0,0,.06.41.26.26,0,0,0-.09.18.41.41,0,0,0,.08.19.41.41,0,0,1,0,.09,1.3,1.3,0,0,0,.05.14.42.42,0,0,0-.08.12l-.15.08-.19.09-.12,0-.2.06a.14.14,0,0,1-.11,0l.07-.33a2.42,2.42,0,0,0-.41.15l-.15,0-.13,0-.19,0-.18.1h-.1l-.4.09-.21,0a.69.69,0,0,1-.21.06,2.4,2.4,0,0,1-.38-.07l-.21,0-.15-.06a.88.88,0,0,1-.26-.13.39.39,0,0,1-.12-.19l-.12,0s0-.09,0-.18l0-.21h0a.37.37,0,0,1,.06-.15,1,1,0,0,0,.14-.25l.33-.31a2.25,2.25,0,0,1,.31-.15.54.54,0,0,1,.17-.09Zm-.31,1-.08.13a.42.42,0,0,0,0,.12l0,.1.14-.12a.83.83,0,0,0,.24.13l.19.05a.65.65,0,0,1,.09.11l.15,0h.07a.21.21,0,0,0,.13-.07.28.28,0,0,0,.12.05l.11-.06.14,0,.27-.1.12-.06.11,0,.19-.08.22-.08.1-.15a.38.38,0,0,1,.18-.08l0-.16a.22.22,0,0,0,.11-.14.24.24,0,0,1-.1-.1v-.2a1.55,1.55,0,0,0,0-.23V79.2a.49.49,0,0,1,0-.17.22.22,0,0,1-.12-.06h-.65l-.15-.08-.1,0a1.1,1.1,0,0,0-.3,0l-.1,0-.11,0h0a.54.54,0,0,0-.16.09l-.26.1a1.72,1.72,0,0,0-.45.26l-.11.15a.3.3,0,0,1-.18.08.18.18,0,0,0,0,.06.15.15,0,0,0,0,.06l0,.27A.39.39,0,0,0,14.28,80.13Z"/><path class="cls-1" d="M19.24,78.14l.18,0,0,0-.05-.26.13-.07.28-.29.14-.09a.25.25,0,0,1,.15-.09l.17,0,.07,0a1,1,0,0,1,.23-.11v-.13a.77.77,0,0,1,.22-.1L21,77h.17l.14,0a.33.33,0,0,1,.12,0l.19.13.1-.13.19,0,.35.07.12.08h.05a.41.41,0,0,0,.19-.08L22.56,77l0-.31,0-.1a2,2,0,0,0,.3-.23s-.06-.1-.18-.22a.67.67,0,0,1-.11-.43l.12-.06a.47.47,0,0,1-.06-.19,2.33,2.33,0,0,1-.08-.31V75c0-.1,0-.23,0-.38a.9.9,0,0,1,0-.24l-.06-.28a.33.33,0,0,1,0-.1l.09,0c0-.06,0-.08-.05-.08s-.06,0-.14,0h0l.4-.26-.1-.13,0-.23c0-.06-.06-.1-.16-.13s-.24-.1-.24-.12,0,0,.06-.08a.91.91,0,0,1,.36-.1.75.75,0,0,1,.48-.19,1,1,0,0,1,0,.23v.1h0a2.13,2.13,0,0,1,0,.22V74a.22.22,0,0,1,0,.1.8.8,0,0,0,0,.15l0,.37-.1.18a1.1,1.1,0,0,0,.12.29l0,.19,0,.14c0,.08,0,.12,0,.13a1.15,1.15,0,0,0,0,.22.38.38,0,0,1,0,.1.16.16,0,0,1,0,.08l-.11,0a.37.37,0,0,0-.05.17v.07c.11.07.17.14.18.2s0,.11,0,.29v0c0,.09,0,.19,0,.29a.28.28,0,0,1,0,.09.08.08,0,0,1,0,0v.2c0,.08-.07.12-.07.13v.64l0,.34v.1l0,.23,0,.25.08.43v.19c.05.19.07.31.08.36a1.55,1.55,0,0,0,0,.22.23.23,0,0,1,.08.16v.06a1.5,1.5,0,0,1-.35.06,2.32,2.32,0,0,1-.37.07l-.07-.06a.73.73,0,0,1-.23.12l-.42.08a3.46,3.46,0,0,1-.76.13l-.45.06A2.68,2.68,0,0,1,20,80.8l-.09-.14a.68.68,0,0,1-.18.08s0,0-.06-.06,0,0,0-.09,0,0-.05-.08a.37.37,0,0,1-.15,0,.17.17,0,0,1-.12,0L19,80.28a.62.62,0,0,0,0-.13.23.23,0,0,0-.09-.18c-.07-.06-.11-.1-.11-.11l0-.1c-.05-.24-.07-.37-.07-.39a.88.88,0,0,1,0-.2,1.21,1.21,0,0,0,0-.23l.08-.15a5.38,5.38,0,0,1,.23-.52Zm.28,1.62a.35.35,0,0,1,.12.09l0,.11.17.23.19.17.12.12.14.07.18.13c.06,0,.1-.09.14-.26a.65.65,0,0,0,.32.11l.42,0h.21l.43-.1a.89.89,0,0,0,.31-.09,1.76,1.76,0,0,1,.19-.26.33.33,0,0,1,0-.1l0-.13v-.71c0-.09,0-.16,0-.23l.17-.07a.39.39,0,0,1,0-.14v-.1l-.11,0,.31-.24L22.5,78v-.1s0,0,0,0v-.17l-.11,0-.15.06h-.06a.3.3,0,0,1-.21,0l-.17-.16-.34-.1-.19-.13a2.85,2.85,0,0,1-.22.26H21a.69.69,0,0,0-.25.08h-.13a.45.45,0,0,0-.29.18l-.16,0a.66.66,0,0,1-.12.12l-.16.09c-.13.11-.19.21-.18.31a.76.76,0,0,0-.24.23l-.13.2a.79.79,0,0,0,0,.25.81.81,0,0,0,0,.19l0,.11.05.12,0,.13a.57.57,0,0,1,.09.2Z"/><path class="cls-1" d="M24.54,77.44s.05-.11.15-.18a2.28,2.28,0,0,1,.57-.34l.14.16a1.55,1.55,0,0,0-.08.34c0,.13,0,.2,0,.23v.18l-.09.12a.37.37,0,0,0,.11.24l0,.06v.3a.31.31,0,0,0,0,.11l0,1a2.17,2.17,0,0,0,.06.34v.21c0,.1,0,.16,0,.17a.25.25,0,0,1-.09.19l-.19.13a2.88,2.88,0,0,1-.28.21l-.09,0a.17.17,0,0,1-.12-.06.74.74,0,0,1,0-.16,1,1,0,0,1,.05-.22V80.2l0-.49v-.09c0-.05,0-.08.07-.08h.05a.45.45,0,0,0,0-.11.8.8,0,0,0,0-.16,1.06,1.06,0,0,1,0-.14l-.09-.06c0-.07,0-.13,0-.16a.25.25,0,0,0,0-.08v-.07a.3.3,0,0,1,.05-.14.21.21,0,0,1-.05-.13v-.18c.22,0,.33-.08.33-.11h0a.25.25,0,0,0-.19-.07h-.19a.84.84,0,0,0,0-.1s0-.17,0-.49C24.63,77.51,24.6,77.48,24.54,77.44Zm.09-2h0c0-.12.08-.24.25-.38a.53.53,0,0,0,.13-.13l.1-.07a1.49,1.49,0,0,1,.23-.31.28.28,0,0,1,.12,0s.05,0,.12.07a.22.22,0,0,1,.09.17.17.17,0,0,1-.09.14,4.82,4.82,0,0,0-.43.36l-.14.09-.18.12-.15.07S24.63,75.5,24.63,75.45Z"/><path class="cls-1" d="M26.59,78.79c.05-.08.12-.22.23-.44s.11-.22.14-.22a1.29,1.29,0,0,0,.17-.16l.12-.12.16-.14.22-.21.12-.08.12-.08.11,0,.14-.1.26-.1a2.65,2.65,0,0,1,.31-.09l.2,0c.07.06.12.1.15.1l.25-.07h0l.22,0h.08l.13,0L30,77a.28.28,0,0,1,.18.06.3.3,0,0,1-.07.17.49.49,0,0,1-.16.07l0,.14a1.07,1.07,0,0,0-.21.12l-.09.05h-.27l-.15,0h-.12a1.26,1.26,0,0,0-.28-.07h-.26l-.36.06a1.09,1.09,0,0,0-.23,0l-.22.2s-.08,0-.17.06a.28.28,0,0,1-.05.15.54.54,0,0,1-.18.06s0,.07,0,.1l-.14.21a2.52,2.52,0,0,0,0,.61,1.91,1.91,0,0,0,.13.44,1,1,0,0,0-.09.2.44.44,0,0,0,.17.06,2,2,0,0,1,.28.41h.12a.48.48,0,0,0,.1.12l.19.12.13.1.23.09.23,0,.18,0h.31a1.32,1.32,0,0,0,.32-.11l.09,0,.09-.05.19-.14a.37.37,0,0,0,.22-.1.7.7,0,0,1,.17-.13l.09-.08c.08-.09.13-.14.17-.14s.05,0,.08,0a1.74,1.74,0,0,0-.05.34.94.94,0,0,0-.16.2,1.41,1.41,0,0,0-.3.17.35.35,0,0,0-.14.06.35.35,0,0,1-.16.06h-.18l-.31.07-.13.09h-.69a.64.64,0,0,0-.22-.09l-.41-.08-.12,0-.13,0-.17,0a.15.15,0,0,1-.08,0c-.17-.17-.25-.27-.25-.3a.38.38,0,0,1,0-.1h0l-.17,0h0a2.27,2.27,0,0,0-.13-.23.45.45,0,0,1-.09-.19s0-.08,0-.18h0l0-.14c-.09-.06-.14-.11-.14-.14a1.33,1.33,0,0,1,.23-.15.23.23,0,0,0,.13-.22C26.91,78.87,26.81,78.81,26.59,78.79Z"/><path class="cls-1" d="M31.44,77.44s0-.11.15-.18a2.09,2.09,0,0,1,.56-.34l.15.16a1.55,1.55,0,0,0-.08.34c0,.13,0,.2,0,.23v.18l-.08.12a.33.33,0,0,0,.11.24l0,.06v.41l0,1s0,.16.07.34v.21c0,.1,0,.16,0,.17a.25.25,0,0,1-.09.19l-.19.13-.28.21-.09,0a.17.17,0,0,1-.12-.06c0-.08,0-.14,0-.16a1.26,1.26,0,0,1,.06-.22V80.2l0-.49v-.09a.07.07,0,0,1,.08-.08h0a.45.45,0,0,0,0-.11.8.8,0,0,0,0-.16,1.06,1.06,0,0,1,0-.14l-.09-.06c0-.07,0-.13,0-.16s0,0,0-.08v-.07a.3.3,0,0,1,.05-.14.21.21,0,0,1-.05-.13v-.18c.22,0,.32-.08.32-.11h0a.24.24,0,0,0-.18-.07h-.19a.46.46,0,0,0,0-.1s0-.17,0-.49C31.53,77.51,31.5,77.48,31.44,77.44Zm.09-2h0c0-.12.07-.24.25-.38l.13-.13.1-.07a1.49,1.49,0,0,1,.23-.31.28.28,0,0,1,.12,0,.32.32,0,0,1,.11.07.21.21,0,0,1,.1.17.17.17,0,0,1-.09.14,4.94,4.94,0,0,0-.44.36l-.14.09-.17.12a.62.62,0,0,1-.16.07S31.53,75.5,31.53,75.45Z"/><path class="cls-1" d="M33.46,79.45a1.75,1.75,0,0,1,0-.47c0-.09.07-.22.14-.4s.21-.39.23-.42A1.25,1.25,0,0,1,34.1,78a1.42,1.42,0,0,0,.07-.14.22.22,0,0,1,.08-.1,2.5,2.5,0,0,1,.38-.2,1.16,1.16,0,0,0,.24-.19l.59-.23a2.45,2.45,0,0,1,.87-.12,2.08,2.08,0,0,1,.3,0l0,.11.12.07a.22.22,0,0,0,.12-.13,1.33,1.33,0,0,1,.47.19l.18.12.1.18a.38.38,0,0,0,.33.16,1.61,1.61,0,0,1,.15.29,1.19,1.19,0,0,1,.07.32c0,.15,0,.27,0,.35h-.08v.06l-.1.12a.25.25,0,0,0,.14.15,2.86,2.86,0,0,1,0,.3l-.07.18c-.13.28-.21.47-.26.55a1.14,1.14,0,0,1-.48.38l-.27.14-.25.12a1.13,1.13,0,0,1-.24.11l-.48,0-.34.08h-.36l-.15,0c-.3,0-.48-.08-.55-.08l-.1-.09-.2,0a1.52,1.52,0,0,1-.39-.21l-.18-.1,0-.13s0-.06,0-.07l-.1-.07,0,0a.69.69,0,0,1-.1-.35.19.19,0,0,1,.1-.16.32.32,0,0,0-.15-.13Zm.55-.1v.05l0,0a.16.16,0,0,1,.1,0c0,.11.05.2.07.25s.1.18.26.44v0a.29.29,0,0,1,0,.14s.06.07.14.07a.15.15,0,0,1,.08,0,3.43,3.43,0,0,1,.44.21.73.73,0,0,0,.35.09h.29l.15,0,.16,0a1.27,1.27,0,0,0,.26,0l.27-.06a2,2,0,0,0,.34-.21.72.72,0,0,0,.22-.09s.09-.12.19-.29l.12-.25.15-.15a.2.2,0,0,0,0-.09.36.36,0,0,1-.08-.16h0l0-.1a1.68,1.68,0,0,1,.06-.37,1.38,1.38,0,0,1-.09-.3l-.08-.25a2.1,2.1,0,0,1,0-.21l0,0h-.12a1.87,1.87,0,0,0-.22-.31L37,77.59l-.1,0-.25-.1q0-.18-.15-.18l-.16,0-.17,0h-.34a.9.9,0,0,0-.26.12l-.1-.08a.44.44,0,0,1-.11.12l-.22.11,0,0-.6.5,0,0a.75.75,0,0,1,0,.17l-.1.17a.78.78,0,0,1-.13.24.17.17,0,0,1,0,.07c0,.07-.06.13-.17.18a.36.36,0,0,0,0,.11c.09.07.13.11.13.13S34.12,79.29,34,79.35Zm2.09-4.08h0l-.07-.05c0-.09.05-.14.08-.16a.19.19,0,0,1,.13,0l.43,0,.17,0s.06,0,.09.08-.14.22-.28.45a1.31,1.31,0,0,1-.2.23l-.11.24-.1.13,0,.08-.22.21v0h-.26s0-.06,0-.08h0a.4.4,0,0,1,0-.13,1.17,1.17,0,0,0,.05-.11,1.2,1.2,0,0,1,.14-.34l.08-.08a.37.37,0,0,0,.12-.29A.15.15,0,0,0,36.1,75.27Z"/><path class="cls-1" d="M39.38,77.49a.4.4,0,0,1,.25-.26A.69.69,0,0,1,40,77c.08,0,.12,0,.14.06a1.06,1.06,0,0,1,0,.29.85.85,0,0,0,.11.27c.14-.17.21-.25.24-.25l.17-.11a.67.67,0,0,1,.25-.16c.05,0,.09,0,.13.11a.86.86,0,0,1,.54-.2h.1l.1,0L42,77l.28.06.24,0,.1.09.12,0q.12,0,.3.27a1.57,1.57,0,0,1,.11.73.67.67,0,0,0-.24,0c-.09,0-.13.06-.13.09l.33.18s0,0,0,.1a1,1,0,0,1-.09.3s0,0,0,0,0,.09.11.16a1.41,1.41,0,0,0,0,.18,1.44,1.44,0,0,0,.08.25v.72a.48.48,0,0,0,.05.18l-.19.13-.22.1-.22.13a.38.38,0,0,1-.14-.24s0-.15.09-.38a.68.68,0,0,1,0-.12V80l.1,0c.17,0,.25,0,.26-.06l-.06,0a1.28,1.28,0,0,0-.37-.13.59.59,0,0,1,.07-.26l.15-.14a.29.29,0,0,0,.12-.21,1.54,1.54,0,0,0-.33-.14l0-.18,0-.26,0,0s0-.08,0-.14-.08-.1-.08-.12V78a.23.23,0,0,0-.08-.14.23.23,0,0,1-.07-.16l0,0c-.08,0-.12,0-.13-.06l-.14-.24a.12.12,0,0,0-.09-.06.29.29,0,0,0-.2.1.62.62,0,0,1-.33.16l-.21,0-.09.09v0c-.07-.17-.14-.25-.21-.25l0,0-.16,0a1.14,1.14,0,0,0-.26.14.82.82,0,0,0-.29.2.46.46,0,0,0-.08.23s0,.11,0,.32v0h0c0,.06,0,.1,0,.11l-.22.17a.05.05,0,0,0,0,0s0,.06.09.1l.22.13a.12.12,0,0,1,0,.09.51.51,0,0,1,0,.1v.37a.44.44,0,0,1-.09.15.07.07,0,0,0,0,0,.26.26,0,0,0,.1.19v0a1.18,1.18,0,0,1,0,.16,1.58,1.58,0,0,0,.08.45.21.21,0,0,1-.1.12l-.16,0-.07,0-.08,0s0,0-.08.06a.11.11,0,0,1-.11.06s0,0-.09-.07a.09.09,0,0,1,0-.08.28.28,0,0,1,0-.09c0-.1,0-.16,0-.17v-.38a.69.69,0,0,0,0-.17.3.3,0,0,0,0-.12c0-.06,0-.11,0-.13a.51.51,0,0,1,0-.1v-.27s0-.08,0-.12a.62.62,0,0,1,0-.16l.14-.07a.16.16,0,0,0,0-.07.42.42,0,0,0-.16,0v-.16s0-.08,0-.15v-.06a2.41,2.41,0,0,0-.05-.42l.11-.06-.1-.16a.44.44,0,0,1,0-.12A.43.43,0,0,0,39.38,77.49Z"/><path class="cls-1" d="M46.26,83.13c0,.06.08.16.14.3l.13.19a3.19,3.19,0,0,0,.23.32l.17,0,.35.14h.27a.15.15,0,0,0,.24,0h.13l.4-.11.19-.12.32-.19.18-.22a1.38,1.38,0,0,1,.2-.13.66.66,0,0,0,.25-.37l.13-.38a.79.79,0,0,1,.14-.15q0-.18,0-.21s0-.18.1-.5a.28.28,0,0,0,0-.09s0-.06,0-.17,0-.18.07-.32a1.24,1.24,0,0,0,.06-.23,1.26,1.26,0,0,0,0-.22s0-.19,0-.51a.76.76,0,0,1,0-.15.35.35,0,0,1,0-.16.49.49,0,0,0,0-.1s0,0,0-.07l0,0a1.39,1.39,0,0,0-.26.14l-.12.12-.13.1-.15.11-.16.08-.21.2-.09.06-.42.28-.27,0a2,2,0,0,1-.37.07,1.75,1.75,0,0,1-.45-.12.75.75,0,0,1-.37-.3l-.09-.21a.63.63,0,0,1,0-.14s0-.09.13-.15a.44.44,0,0,1-.11-.31.9.9,0,0,1,.19-.41l0-.15h0l0-.13a3.33,3.33,0,0,1,.13-.63v-.19c.06-.25.09-.38.09-.4a.16.16,0,0,0,0-.1H47l0,0v0a.86.86,0,0,0,.15-.17l.28-.1a3.78,3.78,0,0,1,.42-.23.11.11,0,0,1,.1,0,.18.18,0,0,1,.06.13,1.37,1.37,0,0,1-.09.2,1.78,1.78,0,0,0-.09.37l-.13.51a1.17,1.17,0,0,1,0,.29.25.25,0,0,1-.18.07.23.23,0,0,0-.07.13s.06.07.18.09a.85.85,0,0,0,0,.25l-.06.32c0,.08,0,.19,0,.32l0,.14a.56.56,0,0,0,.08.18.9.9,0,0,0,.11.16,2,2,0,0,0,.28.14c.06.09.12.14.16.14s.1,0,.17-.11a1,1,0,0,0,.35-.09c.05,0,.23-.15.54-.38l.28-.27.25-.16.22-.43.08-.09a.88.88,0,0,0,0-.15.28.28,0,0,1,0-.08.27.27,0,0,1,0-.08l0-.15v-.12l-.06-.16,0-.35,0-.12,0-.18a2.14,2.14,0,0,1-.12-.24c0-.07.06-.11.19-.12l.14-.13h0l.16,0,.18,0,.09.15-.44.19.34.11a.14.14,0,0,1,.09.12s0,.1-.11.19a1.24,1.24,0,0,1-.22.18l0,0a1,1,0,0,0,.28.15.4.4,0,0,1,.12.18v.1l0,.29a.78.78,0,0,0-.07.22.42.42,0,0,0,.14.29,1.57,1.57,0,0,0,0,.27l0,.25h0s0,.09-.07.26a.46.46,0,0,0-.07.18v.08l.1.08a1.37,1.37,0,0,0,0,.29.2.2,0,0,0,0,.07c0,.1,0,.16,0,.17a1.36,1.36,0,0,1-.06.16v.25l0,.2-.06.17,0,.19a.46.46,0,0,0-.08.17.09.09,0,0,0,0,0,.72.72,0,0,1,0,.13.68.68,0,0,1-.08.17s0,.12-.1.26-.06.07-.14.12a1.73,1.73,0,0,0-.14.19l-.09.12-.08.08a3.38,3.38,0,0,1-.32.44l-.21.14-.1.12L48.9,84l-.07.06-.18,0-.12.07-.12,0-.32.12-.16,0a1.65,1.65,0,0,1-.31.07l-.31-.06a1.15,1.15,0,0,1-.79-.29h-.14a.46.46,0,0,0-.08-.16l-.19-.09a.19.19,0,0,1-.07-.08.35.35,0,0,1-.06-.18,1.05,1.05,0,0,1,.07-.3c0-.1.09-.14.17-.14Z"/><path class="cls-1" d="M54.67,79.78l.11,0v-.09l-.08-.07c0-.07,0-.16,0-.25a.13.13,0,0,1,0-.06.41.41,0,0,1,.11-.22h0a.17.17,0,0,0,0-.13.33.33,0,0,1-.05-.12,1.39,1.39,0,0,1,0-.24l0-.39v-.34l.07-.08c-.07,0-.1,0-.1-.05l0-.38s0-.16,0-.33l0,0v-.25l.13,0,.08,0a.24.24,0,0,0-.09-.14.18.18,0,0,0,0-.06.34.34,0,0,0,0-.15l-.1.07a.67.67,0,0,1-.07-.27.49.49,0,0,1,0-.14v-.42l0-.1,0-.21c0-.31-.08-.47-.08-.5a.42.42,0,0,1,0-.15s0-.06,0-.12a.14.14,0,0,0,.05-.09h0v0l0-.12h-.15a1.12,1.12,0,0,0,0-.24l0-.13a2.09,2.09,0,0,1,0-.44,1,1,0,0,1,0-.23,1,1,0,0,1-.22,0l-.25.06-.06,0c0-.13.08-.19.08-.19l.16-.1v0l.12,0,.16,0,.14,0h.08a.91.91,0,0,0,.3-.11h.22l.34,0h0l.23,0,.15,0,.18,0c0,.08.09.13.12.14h.17l0-.07a.67.67,0,0,0,.21-.09l.45,0a3.69,3.69,0,0,1,.6.07h.18l.31,0h.13a.31.31,0,0,1,.13.09l.14,0a3.28,3.28,0,0,1,.63.2.75.75,0,0,1,.28.12.43.43,0,0,1,.1.31,1.3,1.3,0,0,1-.26.62l-.14.22a1.94,1.94,0,0,0-.36.36h-.24V75l-.13.08a2.41,2.41,0,0,1-.44.21l-.18.08-.23,0a.28.28,0,0,0-.09.07.37.37,0,0,0,.15,0l.33,0a1.27,1.27,0,0,1,.34.08l.42.13a.6.6,0,0,1,.21.08.78.78,0,0,0,0,.14c0,.05.05.09.14.13a1,1,0,0,0,.12-.23.61.61,0,0,1,.25.06l.32.13s.07,0,.09.13l.14.06v.06l.07,0,.05.06a.19.19,0,0,1,.13-.07.75.75,0,0,1,.33.14l.56.37a1,1,0,0,1,.19.21.39.39,0,0,0,0,.06.34.34,0,0,0,0,.1.18.18,0,0,1,.1-.06,4,4,0,0,1,.43.29l.06.1.13.07a1.41,1.41,0,0,1,.13.18,2.28,2.28,0,0,1,.21.27.28.28,0,0,0-.13.2.2.2,0,0,0,0,.07l.16,0a1,1,0,0,1,.15.25s.05.17.11.38a1,1,0,0,1,.11.33h0v.38a.69.69,0,0,1-.18.28s0,.05.07.07v.16a.46.46,0,0,1,0,.1,3.48,3.48,0,0,1-.31.46l-.11.08-.11.1L62,81l-.09.16a1.19,1.19,0,0,1-.52.32l-.06-.05a.79.79,0,0,0-.21,0,.41.41,0,0,0-.14.15c.07,0,.11,0,.11.09a.13.13,0,0,1,0,.07,1.22,1.22,0,0,1-.39.12,2.57,2.57,0,0,0-.45.17l-.14.06-.24.09-.08,0a.22.22,0,0,1-.1,0l-.15,0,0,.07-.13,0a.56.56,0,0,0-.2,0l-.13.07-.21,0s0,0-.1.07a.23.23,0,0,1-.11,0,.93.93,0,0,0-.32.1l-.13-.11h0l-.12,0-.1.14-1,0-.22,0,0-.15-.14,0a.38.38,0,0,1-.15.09l-.18,0-.37-.08-.09,0h-.17a.63.63,0,0,0-.22-.05l-.26,0h-.33l-.45,0h0l-.27,0c-.18,0-.26,0-.26-.11a.05.05,0,0,1,0,0,.76.76,0,0,1,.2-.13l.38-.15s.06-.05.1-.1a.51.51,0,0,0,0-.11v-.14l.43-.13-.36-.09a.12.12,0,0,1-.08-.12.41.41,0,0,1,.07-.15V80.7a1,1,0,0,0-.08-.23l.47-.2-.46-.15.06-.08a.3.3,0,0,0,0-.11A.64.64,0,0,1,54.67,79.78Zm.39-5.55h0a.4.4,0,0,0,.13.16v.84l0,.14.16,0h.18l.18,0,.42,0a.83.83,0,0,0,0,.13c0,.11,0,.16.08.16s.1-.08.23-.25v-.07l.9-.19a1,1,0,0,0,.22-.12l.2-.07.17-.12a3,3,0,0,0,.5-.33,1.24,1.24,0,0,0,.2-.22l.09-.24a1.92,1.92,0,0,0,.08-.24s0-.08-.09-.14l.06-.14-.06,0-.16.06-.22-.24h-.07l-.19,0L58,73.3l-.5-.1-.18-.06-.16,0h-.23l-.18,0H56.4l-.43.05-.37,0-.26,0h-.11l-.06.13,0,.57a.3.3,0,0,1-.13.18v0A.36.36,0,0,1,55.06,74.23Zm.06,6.28.05.16.15,0a.6.6,0,0,1,.06.24v0a.71.71,0,0,1,0,.14l0,.08c0,.25.07.38.07.39a.35.35,0,0,1-.11.22h-.09a.08.08,0,0,0-.07,0,.79.79,0,0,0,.27.1.62.62,0,0,1,.24.08l0,.09a.24.24,0,0,0,.15-.09,1.79,1.79,0,0,0,.37.12l.17.07.15,0a7,7,0,0,0,.95.09,4.56,4.56,0,0,0,.81-.11l.1.08a.24.24,0,0,1,.09-.09l.22,0a.34.34,0,0,0,.16-.11.92.92,0,0,0,.23,0l.28-.06a1.69,1.69,0,0,0,.38-.13.32.32,0,0,1,.15-.05.17.17,0,0,1,.08,0,.25.25,0,0,1,.13-.09,3,3,0,0,0,.79-.45l.44-.25a.58.58,0,0,0,.1-.17l.15-.17a.82.82,0,0,1,.24-.13v-.1a1.44,1.44,0,0,0,.46-.11,1.55,1.55,0,0,0-.48-.09c0-.1.09-.16.1-.19a2,2,0,0,0,.06-.27c0-.06,0-.11,0-.15l0,0,.09-.07c0-.06-.06-.09-.06-.11v-.24l-.1-.18v-.14a1.24,1.24,0,0,0-.31-.55,7,7,0,0,0-.48-.52s0-.07,0-.09,0,0,0-.08l-.06,0H61l-.19-.1-.23-.13a.25.25,0,0,1-.07-.09l0,0-.09-.06a.54.54,0,0,0-.2-.1L60.06,77,60,76.91a.6.6,0,0,1-.09-.18.05.05,0,0,0,0,0l-.17.07h0a.3.3,0,0,1-.14-.05,1.33,1.33,0,0,0-.24-.11l-.1,0-.44-.13-.31-.17a.57.57,0,0,1-.22-.12.61.61,0,0,1-.2.08l-.28-.09-.17-.07-.21,0-.16,0-.09,0-.19,0-.43,0h-.67a.74.74,0,0,0-.46.2c0,.08,0,.21.07.37v.05a.65.65,0,0,1,0,.18h0a.3.3,0,0,0-.16,0,.93.93,0,0,0,0,.21,1.18,1.18,0,0,0,.11.13.41.41,0,0,0,0,.16h0v.18s0,.12,0,.27a.81.81,0,0,1,0,.15,1.42,1.42,0,0,1,0,.19l0,.29v.1l.05.19v.25a2.23,2.23,0,0,1,0,.26,1.86,1.86,0,0,1,0,.33h-.08l0,.24a.29.29,0,0,1,.12.2v.48l0,0h0l0,0v0h-.12A.13.13,0,0,0,55.12,80.51Z"/><path class="cls-1" d="M64.69,78.72l-.15.08c0,.09,0,.14,0,.17a.22.22,0,0,0,0,.06.53.53,0,0,1,0,.13,3.25,3.25,0,0,0,0,.39.56.56,0,0,0,.06.17v.36a.43.43,0,0,0,.18.36,2.45,2.45,0,0,0,.5.17,1.25,1.25,0,0,0,.26,0c.18,0,.28,0,.33-.07l.2-.19.13-.07a.21.21,0,0,0,.15.07h.06a.42.42,0,0,1,.09-.14l.13-.08a1.63,1.63,0,0,0,.19-.27.83.83,0,0,0,.15-.13s0-.09.08-.2a.69.69,0,0,0,0-.21h0a1,1,0,0,1,0-.14h0a.69.69,0,0,1,0-.17l-.08,0,0-.07v-.72a3.12,3.12,0,0,0,0-.39v0a.24.24,0,0,1,.1-.16s0-.06,0-.07l-.06,0a.3.3,0,0,1,0-.14.26.26,0,0,1,0-.07l0-.17.11,0a1.26,1.26,0,0,0,.3-.11l.2-.06a1.54,1.54,0,0,1,.08.32l0,.56v.33c0,.25,0,.4-.06.46l-.1,0a.32.32,0,0,0,0,.16v.07h.16a1.05,1.05,0,0,1,0,.13v.41a1.61,1.61,0,0,1,0,.37l.08.1a2.14,2.14,0,0,1,0,.25.33.33,0,0,0,.06.21.33.33,0,0,0,.14.09.36.36,0,0,1-.08.12l-.27.11a1.09,1.09,0,0,1-.27.14.14.14,0,0,1-.1-.06.38.38,0,0,1-.06-.22.86.86,0,0,1,0-.15l-.17,0-.07,0-.13.12-.1,0-.16.1-.15,0a1.7,1.7,0,0,1-.67.17l-.21,0-.19-.07h0a.46.46,0,0,0-.18.07l-.14-.17h0l-.21.07H64.6a1,1,0,0,1-.3-.13.47.47,0,0,1-.18-.19.69.69,0,0,1-.1-.34.25.25,0,0,1,.07-.14l-.11,0v-.56c.06-.07.1-.12.1-.17L64,79.05v-.59a.24.24,0,0,1,.08-.13v-.07l-.12,0q0-.28,0-.42s0-.1,0-.14v-.11a.45.45,0,0,0,0-.17l0-.14s0-.06.15-.09l.33-.12,0,0a.31.31,0,0,1,.12-.06.12.12,0,0,1,.09,0,1.45,1.45,0,0,1,.08.2.7.7,0,0,0,0,.11,1.2,1.2,0,0,0,0,.39,1.94,1.94,0,0,0,0,.22,1.87,1.87,0,0,0-.09.35A.93.93,0,0,0,64.69,78.72Z"/><path class="cls-1" d="M72,77.17l.16-.1.1.12.11,0a3.74,3.74,0,0,1,.42.41.79.79,0,0,1,.17.23c0,.07,0,.14.08.23l.07.18,0,0-.14,0-.19.07-.17,0-.15,0-.32-.22a1.06,1.06,0,0,0-.24.21l-.33-.06h-.19l0,0h-.43l-.18,0-.23,0-.23,0H70a2.74,2.74,0,0,1-.39.1,1.19,1.19,0,0,1,0,.23.53.53,0,0,1-.12.17c.11.07.16.12.17.15a2.31,2.31,0,0,0,.09.43l.09,0,0,.18.15,0a.52.52,0,0,0,.13.27.55.55,0,0,0,.25.09c0,.1,0,.16.08.18a.29.29,0,0,0,.18,0l.08.13h.09a1.55,1.55,0,0,1,.3.13.28.28,0,0,0,.13,0,1,1,0,0,0,.25-.06l.32,0,.24-.07a.62.62,0,0,0,.24,0,2.26,2.26,0,0,0,.3-.17,1.59,1.59,0,0,0,.26-.18,2.49,2.49,0,0,0,.17-.24.14.14,0,0,1,.13-.06.24.24,0,0,1,.13.06,1,1,0,0,1-.06.24,5.06,5.06,0,0,0-.26.46l-.11,0a.71.71,0,0,0-.17.1.48.48,0,0,1-.22.07,2.88,2.88,0,0,1-.43.1,1.24,1.24,0,0,0-.25,0l-.16,0-.3,0-.17,0H71l-.19,0-.36,0h-.09l-.11-.07-.41-.13-.17-.15a1.15,1.15,0,0,0-.17-.11c-.09-.06-.14-.1-.15-.13L69.27,80a1.39,1.39,0,0,0-.17-.19.19.19,0,0,0,.05-.12,2,2,0,0,0-.13-.27A1.63,1.63,0,0,1,69,79a1.29,1.29,0,0,1,.07-.36,2.22,2.22,0,0,1,.08-.23l.17-.19.11-.24.39-.35.36-.23.37-.25.13,0,.38-.12.24,0a1.56,1.56,0,0,1,.32-.11A.38.38,0,0,1,72,77.17Zm-.58.74.09.11.13,0a.9.9,0,0,0,.27-.07l.28,0s0,0,0,0v-.05a.17.17,0,0,0-.06-.11l-.05-.06q-.12-.15-.15-.15l-.16-.08a.28.28,0,0,1-.09-.11l-.49,0h-.1l-.17.1-.28.07-.36.15a1.22,1.22,0,0,0-.2.17l-.11.08v0h0l.36.15.11.11.19-.24.06,0L71,78h0l.28,0Z"/><path class="cls-1" d="M74.38,77.49a.39.39,0,0,1,.26-.26A.63.63,0,0,1,75,77q.12,0,.15.06s0,.11,0,.29a.74.74,0,0,0,.12.27c.13-.17.21-.25.23-.25l.17-.11a.61.61,0,0,1,.26-.16s.08,0,.12.11a.91.91,0,0,1,.54-.2h.1l.1,0L77,77l.28.06.25,0a.35.35,0,0,0,.1.09l.11,0q.14,0,.3.27a1.57,1.57,0,0,1,.11.73.67.67,0,0,0-.24,0c-.08,0-.13.06-.13.09l.34.18a.12.12,0,0,1,0,.1,1.11,1.11,0,0,1-.1.3v0s0,.09.1.16a1.21,1.21,0,0,0,0,.18,1.07,1.07,0,0,0,.07.25v.27l0,.24,0,.21a.85.85,0,0,0,0,.18l-.19.13-.22.1-.22.13a.38.38,0,0,1-.14-.24s0-.15.09-.38c0,0,0-.06,0-.12s0,0,0-.07l.09,0c.17,0,.25,0,.26-.06l-.06,0a1.28,1.28,0,0,0-.37-.13.55.55,0,0,1,.08-.26l.14-.14a.29.29,0,0,0,.12-.21,1.58,1.58,0,0,0-.32-.14v-.18l0-.26a.1.1,0,0,1,0,0,.84.84,0,0,0,0-.14c0-.06-.08-.1-.08-.12V78a.29.29,0,0,0-.08-.14.21.21,0,0,1-.08-.16l0,0c-.08,0-.12,0-.13-.06l-.14-.24a.12.12,0,0,0-.09-.06.31.31,0,0,0-.2.1.56.56,0,0,1-.33.16l-.2,0-.1.09v0c-.07-.17-.14-.25-.21-.25l0,0-.15,0a1.17,1.17,0,0,0-.27.14c-.16.09-.26.15-.28.2a.38.38,0,0,0-.08.23s0,.11,0,.32v0h0c0,.06,0,.1,0,.11l-.23.17a.05.05,0,0,0,0,0s0,.06.09.1l.23.13a.2.2,0,0,1,0,.09.51.51,0,0,1,0,.1v.37a.44.44,0,0,1-.09.15.43.43,0,0,0,0,0,.27.27,0,0,0,.11.19l0,0a1.18,1.18,0,0,1,0,.16,1.58,1.58,0,0,0,.08.45.21.21,0,0,1-.1.12l-.16,0-.07,0-.08,0s0,0-.08.06a.11.11,0,0,1-.11.06s0,0-.09-.07a.12.12,0,0,1,0-.08s0-.06,0-.09a1,1,0,0,0,0-.17v-.38a1,1,0,0,0,0-.17.74.74,0,0,0,0-.12.53.53,0,0,1,0-.13.51.51,0,0,1,0-.1s0-.06,0-.08,0-.11,0-.19v-.12a.55.55,0,0,1,0-.16l.14-.07,0-.07-.16,0a1,1,0,0,1,0-.16s0-.08,0-.15a.35.35,0,0,0,0-.06,2.84,2.84,0,0,0-.06-.42l.12-.06c-.07-.09-.1-.15-.11-.16s0,0,0-.12A.43.43,0,0,0,74.38,77.49Z"/><path class="cls-1" d="M81.64,78.23l.15,0a2.6,2.6,0,0,0-.06-.3H81.6c0-.06,0-.2.05-.41l0-.14c.07-.3.1-.45.11-.46a2,2,0,0,1,.09-.25h.22l0-.17c-.11,0-.17,0-.17-.09a1.87,1.87,0,0,1,.31-.58l.08-.14.2-.24.13-.21.1-.1a.31.31,0,0,0,.13,0l.1,0,0-.22.27-.25a2.24,2.24,0,0,1,.36-.31l.12-.12.13-.08L84,74l.41-.26a3.73,3.73,0,0,1,.33-.26.64.64,0,0,0,.15.12q.12-.06.12-.09s0,0,0-.11l.33-.16.18-.09.3-.09L86,73a1.18,1.18,0,0,0,.31,0c.19,0,.4-.11.63-.15l.13,0,.14,0h.28l.19-.06h0a4.43,4.43,0,0,1,.43.23c.1-.14.16-.21.19-.21h0a2.18,2.18,0,0,0,.35,0l.43,0a2,2,0,0,0,.38.05l.06.07h0l.1,0s.07,0,.12.08a.15.15,0,0,1-.05.09l-.13.07-.16.1c-.11.09-.18.13-.22.13a1.42,1.42,0,0,1-.3,0l-.21-.08-.32,0a.66.66,0,0,0-.24-.11s0,0,0,0a.21.21,0,0,1-.08.06l-.06,0-.23,0-.16-.16-.18.2a.17.17,0,0,1-.12,0l-.16,0-.33.11a.67.67,0,0,0-.21-.07.91.91,0,0,0-.26.12,1.28,1.28,0,0,1-.28,0c0,.06,0,.1-.05.11l-.42.16a1.74,1.74,0,0,0-.32.19l-.27.16-.09.12-.16,0h-.07a.41.41,0,0,1-.12.23l-.15.11a.23.23,0,0,1-.11.05s0,0-.06.06a.59.59,0,0,1-.18.19l-.13,0,0,.14-.15.12a1.73,1.73,0,0,0-.14.19,2.43,2.43,0,0,0-.21.29q-.1.18-.21.33h-.12a.35.35,0,0,1-.09.16v0h0v0H83A.44.44,0,0,0,83,76l-.08.14-.2.49s0,0-.08.09a1.47,1.47,0,0,1,0,.28,1.11,1.11,0,0,1-.09.28,1.21,1.21,0,0,0-.08.34.21.21,0,0,0-.17.12c.11.07.16.12.16.17h0c0,.2,0,.33,0,.37s0,.1,0,.23-.14.12-.14.19a.21.21,0,0,0,.07.15h.09a1.4,1.4,0,0,0,.06.24.35.35,0,0,1,0,.12l-.49.13h0a1.13,1.13,0,0,0,.41.06l.15,0a1.31,1.31,0,0,0,.1.48h0l-.06.32s0,.06,0,.06a.22.22,0,0,0,.13-.06,1.74,1.74,0,0,0,.1.16.53.53,0,0,1,.11.22l0,.18s0,.06.11.1a1.1,1.1,0,0,1,.23.2,1.64,1.64,0,0,0,.23.24s.08.06.09.08l.09.08.13.05a.28.28,0,0,1,.11,0l0,.07,0,0a1.84,1.84,0,0,0,.46.36l.25.11a.71.71,0,0,0,.19.08c.08,0,.18-.08.3-.25a.6.6,0,0,0,.4.13l.12,0L86,82h.15l.58,0h.47l.29,0a.36.36,0,0,1,.08-.09l.46,0,.32-.06.17.06h0c.06,0,.1-.06.13-.17h.17a2.14,2.14,0,0,0,.36-.07l.25,0,.39-.11a.11.11,0,0,1,0,0c0-.06,0-.09,0-.1l.42-.12-.42-.26.41-.23-.43-.5v0a.84.84,0,0,0,0-.29,3,3,0,0,0-.06-.36v-.6c0-.1,0-.17.09-.19l.31-.13s0,0,0,0l0,0a.67.67,0,0,0-.34-.09h-.09a.52.52,0,0,0-.18-.36l-.09,0h-.11l-.07,0h0l-.13,0h-.51l-.14,0a.19.19,0,0,1-.1,0,.07.07,0,0,1-.08-.08s0-.11.15-.19a.42.42,0,0,1,.15-.09H89l.26.09h0a.26.26,0,0,0,.17-.09l.29,0H90l.18,0h0l.33-.05a.83.83,0,0,1,.1.2h0c0,.18,0,.28,0,.28a.28.28,0,0,0,0,.08,2.19,2.19,0,0,1,0,.36c0,.06,0,.2,0,.42,0,.07,0,.16-.05.29s0,.12,0,.19h-.12a.93.93,0,0,0-.07.24s0,.09,0,.18.13-.06.14-.08a.44.44,0,0,0,.07-.12.13.13,0,0,1,.07.06l-.41.16.41.34,0,0a.68.68,0,0,0,0,.12l-.11,0a.51.51,0,0,0,.11.16h.06a.41.41,0,0,1,0,.11s0,.08,0,.21v0a.39.39,0,0,0,0,.18l0,.09,0,.11a.13.13,0,0,0,0,.06v.08l-.14,0a.54.54,0,0,1-.11.13h-.42a3.74,3.74,0,0,1-.43.1l-.2,0-.06.06a4.86,4.86,0,0,0-.63.09h-.15a1.23,1.23,0,0,0-.3.1,1.54,1.54,0,0,1-.39,0l-.26.07-.26,0-.4.09H86.8c-.31,0-.59.09-.84.11,0,0-.09-.08-.12-.08h-.09l-.16,0-.07,0H85l-.15,0-.37,0a.4.4,0,0,0-.15-.11l-.17,0,0,.09a1.53,1.53,0,0,1-.66-.32,3.37,3.37,0,0,0-.27-.24.51.51,0,0,0-.11-.22h-.11a.2.2,0,0,1-.14,0,2.21,2.21,0,0,1-.28-.32l-.2-.21a1.26,1.26,0,0,0,.05-.24c0-.1-.05-.14-.13-.14h-.12c0-.06-.07-.14-.13-.24l0-.08-.21-.61a1,1,0,0,1-.07-.33v0a.75.75,0,0,0,0-.11,1.23,1.23,0,0,0,0-.18s0-.15,0-.43a1,1,0,0,0,0-.18.46.46,0,0,1,0-.1A.21.21,0,0,1,81.64,78.23Z"/><path class="cls-1" d="M92.89,78.72l-.15.08a1.65,1.65,0,0,1,0,.17.21.21,0,0,1,0,.06s0,.07,0,.13a1.79,1.79,0,0,0,0,.39.44.44,0,0,0,.07.17l0,.17,0,.19a.43.43,0,0,0,.18.36,2.21,2.21,0,0,0,.5.17,1.14,1.14,0,0,0,.26,0,.5.5,0,0,0,.33-.07l.2-.19s0,0,.12-.07a.25.25,0,0,0,.15.07h.07a.75.75,0,0,1,.08-.14l.14-.08L95,79.9l.16-.13.08-.2a1.23,1.23,0,0,0,0-.21h0a1,1,0,0,1,0-.14h0a.69.69,0,0,1,0-.17l-.08,0,0-.07v-.72a3.12,3.12,0,0,0,0-.39v0a.24.24,0,0,1,.1-.16.14.14,0,0,0,0-.07l-.07,0a.38.38,0,0,1,0-.14.26.26,0,0,1,0-.07l0-.17.11,0a1.45,1.45,0,0,0,.29-.11l.2-.06a1.07,1.07,0,0,1,.08.32l0,.56v.33a3.5,3.5,0,0,1-.07.46l-.1,0a.47.47,0,0,0-.05.16.2.2,0,0,0,0,.07h.16a.72.72,0,0,1,0,.13v.41a1.64,1.64,0,0,1,0,.37l.09.1s0,.11,0,.25a.33.33,0,0,0,.06.21.29.29,0,0,0,.13.09.25.25,0,0,1-.08.12l-.26.11a1.26,1.26,0,0,1-.28.14.12.12,0,0,1-.09-.06.38.38,0,0,1-.06-.22v-.15l-.16,0-.07,0-.13.12-.1,0-.16.1-.16,0a1.7,1.7,0,0,1-.66.17l-.21,0-.19-.07h0a.46.46,0,0,0-.18.07l-.15-.17h0l-.2.07h-.07a1.11,1.11,0,0,1-.31-.13.46.46,0,0,1-.17-.19.71.71,0,0,1-.11-.34.25.25,0,0,1,.07-.14l-.11,0v-.56c.07-.07.1-.12.1-.17a.84.84,0,0,0-.07-.16v-.34l0-.25a.27.27,0,0,1,.09-.13v-.07l-.13,0q0-.28,0-.42v-.25a.92.92,0,0,0,0-.17l-.06-.14s.06-.06.15-.09l.34-.12,0,0,.13-.06a.16.16,0,0,1,.09,0l.07.2a.82.82,0,0,1,0,.11,1.2,1.2,0,0,0,0,.39,1.94,1.94,0,0,0,0,.22,1.53,1.53,0,0,0-.08.35A.89.89,0,0,0,92.89,78.72Z"/><path class="cls-1" d="M99.82,79l-.13.09a1.53,1.53,0,0,0-.3,0l-.33,0a.31.31,0,0,0-.15-.17l-.09.12-.25.06h-.13l-.19,0a0,0,0,0,0,0,0l-.1-.1L98,79l-.13,0-.09,0c-.25-.09-.38-.23-.38-.43a.85.85,0,0,1,.21-.53,1.69,1.69,0,0,1,.27-.26l.1-.09.24-.14a3.94,3.94,0,0,1,.52-.29,1.94,1.94,0,0,1,.62-.16l.45.11.25,0a.87.87,0,0,1,.29,0c.06,0,.1.06.1.1a.19.19,0,0,1,0,.1l-.25.14a1.16,1.16,0,0,1-.26.15,1.65,1.65,0,0,1-.47,0,1.26,1.26,0,0,0-.11-.17h0l-.09.1h-.29l-.13,0a.28.28,0,0,0-.15,0,2.7,2.7,0,0,1-.33.2.59.59,0,0,0-.2.19.45.45,0,0,0-.09.24s0,.09.1.14a.64.64,0,0,0,.17.08l.19.11v.06c0,.07,0,.11.08.11s.12,0,.18-.13h.19l.29,0,.16,0,.23,0,.26.06H100l.17.12a1.2,1.2,0,0,1,.4.25.33.33,0,0,1,.08.16l0,.16a2.34,2.34,0,0,1,.07.35s0,.07,0,.17-.08.32-.18.32l-.12,0c0,.17-.07.26-.1.28l-.29.35a.88.88,0,0,0-.41.16l-.09.06h-.12l-.41.11-.21,0-.3.08-.12,0a2.27,2.27,0,0,1-.36,0,.71.71,0,0,1-.27-.09l-.16-.1a2,2,0,0,1-.36-.26.54.54,0,0,1-.15-.34s0-.06.11-.12l.13-.12a1.13,1.13,0,0,1,.22-.14h0a.37.37,0,0,1,.11.24l0,.16h0s0,0,0,.06l.18.11.09.07.13.11.18.07.17.09h.19l.12,0a1.05,1.05,0,0,1,.33-.06.69.69,0,0,0,.2,0l.19-.1a1,1,0,0,0,.19-.07,1.67,1.67,0,0,0,.25-.33,1.16,1.16,0,0,0,.15-.6.25.25,0,0,0,0-.14C99.94,79.17,99.86,79,99.82,79Z"/><path class="cls-1" d="M101.67,77.34c0-.13.07-.19.13-.19h.26l.32,0V77c0-.31,0-.57,0-.77a.86.86,0,0,0-.06-.23l0-.1a.15.15,0,0,1,0-.09s0-.11.12-.18a.94.94,0,0,1,.46-.22c0-.09.09-.13.14-.13l0,0a.27.27,0,0,1,.07.2s0,.26,0,.78a2.15,2.15,0,0,1-.07.24.32.32,0,0,1-.11.14.58.58,0,0,0,0,.19H103l0,.26a2.48,2.48,0,0,1,.52.12h.16a1.27,1.27,0,0,0,.3-.06l.32,0a1.31,1.31,0,0,1,.3-.1l.16,0a1.78,1.78,0,0,1,0,.2s-.12.13-.31.25a.29.29,0,0,0-.1.07l-.08.09-.12,0-.11,0-.2-.11-.13,0-.14-.11-.26.2-.22,0a.2.2,0,0,0-.09,0,3.58,3.58,0,0,1,0,.4s0,.13,0,.23-.18.07-.18.15a.23.23,0,0,0,0,.11l.18,0v.62l-.12,0c-.06,0-.09,0-.09.07a.34.34,0,0,0,0,.15.28.28,0,0,1,.12,0s.08,0,.08.1l0,.19h0c0,.14,0,.24,0,.3a.49.49,0,0,0,.05.19l.06.1s0,0,0,.06a.45.45,0,0,1,0,.11.7.7,0,0,0,.35.09.6.6,0,0,0,.31-.08c.09,0,.14-.07.14-.08l.28-.24c.13-.12.21-.17.24-.17a.3.3,0,0,1,.13,0c0,.06,0,.11,0,.13a1.28,1.28,0,0,1-.07.3,1.14,1.14,0,0,1-.3.13,5.11,5.11,0,0,1-.62.24l-.17,0a.65.65,0,0,1-.19.1s-.06,0-.1-.09l-.09,0,0,.12h-.12a.51.51,0,0,1-.31-.17.91.91,0,0,1-.13-.16s0,0,0-.13a.71.71,0,0,1,0-.19.82.82,0,0,1,0-.14c0-.06,0-.17,0-.34a.3.3,0,0,1,.09-.24.8.8,0,0,1,0-.23,8,8,0,0,1,0-.87c.08,0,.11-.1.11-.14a.38.38,0,0,0,0-.1l-.14,0v-.05h0s0,0,0-.11a2.15,2.15,0,0,0,0-.44l-.3,0-.26,0h-.1l-.15.05s-.07,0-.07-.07S101.53,77.42,101.67,77.34Z"/><path class="cls-1" d="M105.26,79.45a1.75,1.75,0,0,1,0-.47c0-.09.07-.22.14-.4s.21-.39.23-.42a1.25,1.25,0,0,1,.23-.18,1.42,1.42,0,0,0,.07-.14.22.22,0,0,1,.08-.1,2.5,2.5,0,0,1,.38-.2,1.16,1.16,0,0,0,.24-.19l.59-.23a2.45,2.45,0,0,1,.87-.12,2.08,2.08,0,0,1,.3,0l0,.11.12.07a.22.22,0,0,0,.12-.13,1.33,1.33,0,0,1,.47.19l.18.12.1.18a.38.38,0,0,0,.33.16,1.61,1.61,0,0,1,.15.29,1.19,1.19,0,0,1,.07.32c0,.15,0,.27,0,.35H110v.06l-.1.12A.28.28,0,0,0,110,79a2.86,2.86,0,0,1,0,.3l-.07.18c-.13.28-.21.47-.26.55a1.14,1.14,0,0,1-.48.38l-.27.14-.25.12a.94.94,0,0,1-.24.11l-.48,0-.34.08h-.36l-.15,0c-.3,0-.48-.08-.55-.08l-.1-.09-.2,0a1.52,1.52,0,0,1-.39-.21l-.18-.1,0-.13s0-.06,0-.07l-.1-.07a.12.12,0,0,1,0,0,.69.69,0,0,1-.1-.35.19.19,0,0,1,.1-.16.32.32,0,0,0-.15-.13Zm.55-.1v.05l0,0a.16.16,0,0,1,.1,0c0,.11,0,.2.07.25s.1.18.26.44v0a.29.29,0,0,1,0,.14s.06.07.14.07a.15.15,0,0,1,.08,0,3.43,3.43,0,0,1,.44.21.73.73,0,0,0,.35.09h.29l.15,0,.16,0a1.27,1.27,0,0,0,.26,0l.27-.06a2,2,0,0,0,.34-.21.72.72,0,0,0,.22-.09s.09-.12.19-.29l.12-.25.15-.15a.2.2,0,0,0,0-.09.36.36,0,0,1-.08-.16h0l0-.1a1.68,1.68,0,0,1,.06-.37,1.38,1.38,0,0,1-.09-.3l-.08-.25a2.1,2.1,0,0,1,0-.21l0,0h-.12a1.87,1.87,0,0,0-.22-.31l-.11-.14-.1,0-.25-.1q0-.18-.15-.18l-.16,0-.17,0h-.34a.9.9,0,0,0-.26.12l-.1-.08a.44.44,0,0,1-.11.12l-.22.11,0,0-.6.5,0,0a.75.75,0,0,1,0,.17l-.1.17a.78.78,0,0,1-.13.24.17.17,0,0,1,0,.07c0,.07-.06.13-.17.18a.36.36,0,0,0,0,.11c.09.07.13.11.13.13S105.92,79.29,105.81,79.35Z"/><path class="cls-1" d="M71.57,49.85a.17.17,0,0,0-.06-.06.09.09,0,0,0,0,0,.45.45,0,0,0-.07-.14.81.81,0,0,0-.25-.18h0l-.07,0a.3.3,0,0,0-.11-.07h0l-.43-.14-.12-.06a.8.8,0,0,0-.35-.09H69.9l-.12.06h-.07l0-.05a.19.19,0,0,0-.13,0h-1l-.1,0,0,0a1.73,1.73,0,0,0-.31-.05H68l-.24,0h-.06l-.13,0H67.5a.16.16,0,0,0-.15.09l0,0a.55.55,0,0,0-.31-.24h0l-.16,0a1.61,1.61,0,0,1-.21-.17s0,0,0,0h0c0-.13,0-.19,0-.22A.48.48,0,0,1,66.7,48a.33.33,0,0,1,.17-.12.18.18,0,0,0,.11-.1h0a.21.21,0,0,0,.15-.07.29.29,0,0,1,.22-.12.21.21,0,0,0,.14-.1h0l.31-.11a.16.16,0,0,0,.1-.11l.08,0h.1l.29-.1.32-.06h0a.78.78,0,0,1,.21,0,.15.15,0,0,0,.13,0h0a.21.21,0,0,0,.14-.1.22.22,0,0,1,0-.08h0a.12.12,0,0,1,.08,0c.06,0,.08,0,.09,0h0c.1.13.15.19.25.19h.11l.17.06h.14l0,0a.16.16,0,0,0,.09,0l.08,0,.13-.09,0,0h0L70.7,47a.18.18,0,0,0,.07-.19l0-.13a.19.19,0,0,0-.13-.14l-.44-.1-.09,0h-.4l-.3,0-.66.06h0l-.13,0h0l-.46.12-.36.11h0l-.27.13-.56.24h0l-.12.06-.11.05,0,0-.18.15-.15.11s0,0,0,0-.2.22-.3.33a.77.77,0,0,0-.13.26s0,0,0,0l0,.16,0,0a.24.24,0,0,0,0,.14.42.42,0,0,0,.06.21v.05a.65.65,0,0,0,.11.31h0a1.67,1.67,0,0,0,.32.39h0a1.19,1.19,0,0,0,.32.17l.09,0,.08,0h.18l.06,0h0a1.23,1.23,0,0,0,.29.07l.13,0h.06c.1,0,.15-.06.23-.17l0-.05v.05a.18.18,0,0,0,.16.18h0a.19.19,0,0,0,.18-.13v0l0,.09h0a.23.23,0,0,0,.17.09h.43a.34.34,0,0,0,.17,0,.24.24,0,0,0,.15.06l.2,0h0l.23.06h.11l.13,0,.08,0h0l.27.05.1.06h0l.25.11a.1.1,0,0,0,0,0,.22.22,0,0,0,0,.08c.11.3.14.41.15.45a.19.19,0,0,0,0,.07V51l-.07.22a0,0,0,0,1,0,0c0,.1,0,.13,0,.15a.29.29,0,0,0-.07.18.2.2,0,0,0,0,.11l0,.07v0a.22.22,0,0,0-.08.13.1.1,0,0,1,0,0,.6.6,0,0,0-.14.3h0l0,.06,0,0,0,.09,0,0,0,0-.12.18-.15.13-.24.15-.29.1h0l-.11.05h-.1l-.22.07h-.08a.23.23,0,0,0-.19.1l-.1,0h-.05l-.3,0,0,0H67.4l-.47-.09-.16-.07h0l-.14,0-.1-.06,0,0L66,52.87l-.22-.18h0v0c0-.15-.07-.24-.15-.28a.15.15,0,0,0-.11,0s0,0,0-.05v-.07a.15.15,0,0,0,0-.07V52a.19.19,0,0,0,0-.13l-.06-.09h0a.39.39,0,0,0-.08-.1.25.25,0,0,0-.18-.08H65.1a.19.19,0,0,0-.16.16v0l-.11.12,0,.06,0,.09c-.09.16-.11.2-.11.24a.18.18,0,0,0,0,.16.65.65,0,0,1,.12.15h0a2.08,2.08,0,0,0,.18.22l0,0a.21.21,0,0,0,.1.15l.41.33a.09.09,0,0,0,.06,0,1.07,1.07,0,0,0,.3.09H66a.16.16,0,0,0,.12.12l.15,0,.12.05.08,0,.11,0,.13.06.09,0h.06l0,0a.22.22,0,0,0,.14.08h.31a.44.44,0,0,0,.19.07.49.49,0,0,0,.2-.06l.11,0h.11l.11,0h.36l.1,0,.21,0h0s.16,0,.41-.1l.2,0h0a1.58,1.58,0,0,0,.39-.15,4.27,4.27,0,0,0,.5-.28.23.23,0,0,0,.08-.11h0a.23.23,0,0,0,.2-.1l.16-.17h0l.14-.14.08-.07,0,0,.12-.17a1.5,1.5,0,0,0,.17-.23h0s0,0,.09-.12a.17.17,0,0,0,0-.18l.07-.1a.17.17,0,0,0,0-.1v0s.06-.13.12-.26a.14.14,0,0,0,0-.06v0h0a.17.17,0,0,0,0-.18v0a.52.52,0,0,0,.06-.21V50.6a1.27,1.27,0,0,0,0-.32A.85.85,0,0,0,71.57,49.85Z"/><path class="cls-1" d="M75.86,51v-.11h0a0,0,0,0,0,0,0,2.68,2.68,0,0,0-.11-.5h0a.91.91,0,0,0-.21-.3.16.16,0,0,0-.13-.06h0l-.05-.07A.88.88,0,0,0,75,49.7l-.15-.05a.32.32,0,0,0-.23-.1H74a1,1,0,0,0-.36.09l-.17,0a.7.7,0,0,0-.21,0l-.09,0,0,0-.08,0a.37.37,0,0,0-.28-.17c-.06,0-.1,0-.31.14l0,0-.18.15a.47.47,0,0,0-.1.09.28.28,0,0,0,0,.13.2.2,0,0,0,.07.2l0,0a2.32,2.32,0,0,0,0,.27v0a.28.28,0,0,0,0,.08v.16h0V51h0v.23a.18.18,0,0,0,.08.14v.08a.3.3,0,0,0,0,.14v.72c0,.27,0,.3,0,.31a.33.33,0,0,0,.12.25v0a.31.31,0,0,0,0,.1c0,.45,0,.46,0,.48a.42.42,0,0,0,.08.26.44.44,0,0,0,.06.1l0,0a.22.22,0,0,0-.09.16.19.19,0,0,0,0,.1.12.12,0,0,0,0,.08.16.16,0,0,0,0,.16h0a.17.17,0,0,0,0,.14l0,.12h0a.2.2,0,0,0,0,.26l.18.2-.07.11a.29.29,0,0,0,0,.09v0l0,0a.18.18,0,0,0-.12.18.19.19,0,0,0,.14.17l.09,0h.07a.82.82,0,0,0,.32-.11l.07,0a.24.24,0,0,0,.1-.1l0-.06.07-.05a.18.18,0,0,0,.08-.16.64.64,0,0,0,0-.2V55a.09.09,0,0,1,0-.05.22.22,0,0,0,0-.08.38.38,0,0,0,0-.1v0l0-.07v-.25h0s0-.06,0-.2A.21.21,0,0,0,73,54h0l0,0a.17.17,0,0,0,.08-.17s0-.16,0-.31v0a1.29,1.29,0,0,1,0-.17h0a.47.47,0,0,0-.07-.12l0,0,0,0h0a.26.26,0,0,0,.12-.23s0-.06,0-.1a.92.92,0,0,1,0-.15h.08l.11,0,.07,0,.27,0a.27.27,0,0,0,.13,0,.43.43,0,0,0,.17-.06h.24a.64.64,0,0,0,.24-.07,1,1,0,0,0,.58-.37h.12a.41.41,0,0,0,.21-.2h0a.17.17,0,0,0,.16-.09.27.27,0,0,1,.07-.08l0,0,.09-.17a.8.8,0,0,0,.13-.21h0a.65.65,0,0,0,.07-.23h0v0Zm-2.78.74v-.38a.33.33,0,0,0,0-.1.37.37,0,0,0,0-.15h0v-.18a.31.31,0,0,0,0-.1,1,1,0,0,0,0-.16.17.17,0,0,0,0-.07.27.27,0,0,0,0-.12v-.06l.06,0,0,0h.11l.26-.07a3.16,3.16,0,0,1,.46,0h.11l.06,0,.09,0h.1s.05,0,.09.06l.13.09a.17.17,0,0,0,.1,0h0a.75.75,0,0,0,.07.12l.12.14a.64.64,0,0,0,.06.14.33.33,0,0,0,.06.1h0a1.15,1.15,0,0,0,0,.14h0v0a.54.54,0,0,1,0,.16h0l-.08.23-.16.13,0,0-.1.11-.12.08s0,0,0,0l-.08.08-.12.07,0,0a.2.2,0,0,0-.14-.06h0l-.23,0-.21-.06a.37.37,0,0,0-.18,0h-.07l-.14,0h0l-.18-.1v0Z"/><path class="cls-1" d="M80.06,50.89c0-.06,0-.15,0-.26a1.62,1.62,0,0,0-.06-.27,1.73,1.73,0,0,0-.12-.25.19.19,0,0,0-.16-.09.12.12,0,0,1-.09,0l-.07-.13h0a.83.83,0,0,0-.17-.13,1.36,1.36,0,0,0-.41-.17h-.11a.2.2,0,0,0-.08,0l-.25,0a2.16,2.16,0,0,0-.7.09c-.46.17-.46.18-.5.22h0a.89.89,0,0,1-.12.1h0a1.39,1.39,0,0,0-.3.16.28.28,0,0,0-.11.13h0l0,.06a.83.83,0,0,0-.18.15h0l-.17.32v0l-.11.29h0a1.79,1.79,0,0,0,0,.39s0,0,0,0h0a.22.22,0,0,0,0,.08.29.29,0,0,0,0,.09.66.66,0,0,0,.11.35h0a.26.26,0,0,0,.09.09l0,0,0,.08a.22.22,0,0,0,.09.1l.08,0,0,0a1,1,0,0,0,.35.18h.09l0,0a.16.16,0,0,0,.13.06l.37.06h.44l.24-.05.37,0a1,1,0,0,0,.21-.11l.18-.08h0l.19-.09a1.1,1.1,0,0,0,.42-.34v0a2.26,2.26,0,0,0,.2-.42.68.68,0,0,0,.06-.15v0a1.1,1.1,0,0,0,0-.24.14.14,0,0,0,0-.11v0A.15.15,0,0,0,80.06,50.89Zm-.85.57,0,0,0,0-.09.17a.93.93,0,0,1-.1.16l-.09,0,0,0-.2.13-.18,0-.14,0h-.08l-.11,0h-.25a.34.34,0,0,1-.17-.05l-.35-.16s0,0,0-.05h0a2.32,2.32,0,0,1-.17-.29,1,1,0,0,1,0-.16h0a.15.15,0,0,0,0-.09.22.22,0,0,0,0-.14.3.3,0,0,0,0-.17.61.61,0,0,0,.07-.14l.07-.11a.35.35,0,0,0,0-.12l.41-.35s0,0,0,0h0l.13-.06,0,0h0a.19.19,0,0,0,.1,0l.1-.06h.22l.09,0h.11a.14.14,0,0,0,.1.08l.17.07h0l.06.07a1,1,0,0,1,.14.2.14.14,0,0,0,.09.08v0l.06.18a1.22,1.22,0,0,0,0,.17.88.88,0,0,0,0,.24l0,.06v0A.27.27,0,0,0,79.21,51.46Z"/><path class="cls-1" d="M83,49.6a.36.36,0,0,0-.23-.1l-.1,0h0l0,0a.32.32,0,0,0-.2-.06l-.16,0h0l-.19.06H82a.38.38,0,0,0-.17.06l-.09,0,0,0-.13.09-.13,0h0v-.08l0-.07a.3.3,0,0,0-.25-.12c-.06,0-.11,0-.27.12a.69.69,0,0,0-.23.15h0a.52.52,0,0,0-.1.18.19.19,0,0,0,0,.18l0,.05a1.21,1.21,0,0,0,0,.26s0,0,0,0a.74.74,0,0,0,0,.12v.49a.14.14,0,0,0,0,.1.16.16,0,0,0,0,.09,1.21,1.21,0,0,1,0,.18.09.09,0,0,0,0,0c0,.1,0,.13,0,.14v.09a.2.2,0,0,0,0,.07.1.1,0,0,0,0,.07.45.45,0,0,0,0,.11v0a.85.85,0,0,1,0,.13.86.86,0,0,0-.06.25.26.26,0,0,0,.27.27.3.3,0,0,0,.16,0l.1-.06a.53.53,0,0,0,.22-.06.32.32,0,0,0,.18-.29.85.85,0,0,0,0-.22h0v0l0,0a.2.2,0,0,0,0-.07l0-.65h0v-.11a.22.22,0,0,0,0-.11.08.08,0,0,1,0,0,.32.32,0,0,0,0-.14v-.22h0c0-.08,0-.13,0-.14l.18-.14h.07l.14,0h.09a.33.33,0,0,0,.17-.07l0,0a.6.6,0,0,0,.23.05h0a.32.32,0,0,0,.23.11.33.33,0,0,0,.24-.15l.22-.17a.24.24,0,0,0,.05-.18A.55.55,0,0,0,83,49.6Z"/><path class="cls-1" d="M85.94,49.53h-.15a.85.85,0,0,0-.26.07l-.21,0h0l-.16,0H85l-.21,0h0a.21.21,0,0,0,0-.15h0l0,0a1.45,1.45,0,0,0,.06-.19.06.06,0,0,0,0,0c0-.57,0-.57,0-.58a.39.39,0,0,0-.09-.26.25.25,0,0,0-.18-.08.26.26,0,0,0-.22.12.9.9,0,0,0-.35.18.42.42,0,0,0-.14.27A.32.32,0,0,0,84,49L84,49a.17.17,0,0,1,0,.1c0,.12,0,.28,0,.47h-.23a.26.26,0,0,0-.25.21.34.34,0,0,0-.18.28.23.23,0,0,0,.24.23l.14,0h.06l.17,0h0c0,.07,0,.11,0,.13h0c0,.06,0,.09,0,.11h0a.08.08,0,0,0,0,0v0a.2.2,0,0,0,0,.08.19.19,0,0,0,0,.08c0,.31,0,.52,0,.64a.37.37,0,0,0,0,.11.51.51,0,0,0-.06.22h0v.22h0a.57.57,0,0,0,0,.12.71.71,0,0,0,.05.19.5.5,0,0,0,0,.15.75.75,0,0,0,.12.14h0a.52.52,0,0,0,.35.18h.11l.07,0h.08a.39.39,0,0,0,.22-.08l.1,0h0a4.12,4.12,0,0,0,.45-.18c.2-.07.26-.1.3-.15s.06-.11.09-.31v-.09a.16.16,0,0,0-.09-.19.38.38,0,0,0-.18-.06c-.08,0-.15,0-.3.16h0l-.18.17-.08,0A.37.37,0,0,1,85,52h-.06a.19.19,0,0,0,0-.08h0l0-.07a.19.19,0,0,1,0-.07s0-.1,0-.19v-.14h0a.28.28,0,0,0,0-.13.07.07,0,0,0,0-.05v-.45a.17.17,0,0,0,0-.12s0,0,0-.09v-.17a.49.49,0,0,0,0-.12h0a.19.19,0,0,0,.12,0l.07-.06.06,0,.07,0,.12.07a.43.43,0,0,0,.17,0,.32.32,0,0,0,.17,0h0l.08-.09,0,0h0c.2-.12.28-.2.3-.29a.42.42,0,0,0,0-.18A.19.19,0,0,0,85.94,49.53Z"/></g></g></svg>