<svg xmlns="http://www.w3.org/2000/svg" viewBox="0 0 172.05 74.55"><defs><style>.cls-1{fill:#6b6b6b;}</style></defs><title>clt_cooperativa</title><g id="Capa_2" data-name="Capa 2"><g id="Capa_1-2" data-name="Capa 1"><g id="_Grupo_" data-name="&lt;Grupo&gt;"><g id="_Grupo_2" data-name="&lt;Grupo&gt;"><path id="_Trazado_compuesto_" data-name="&lt;Trazado compuesto&gt;" class="cls-1" d="M7.38,67.2H5.68a1.52,1.52,0,0,0-.59-1,1.79,1.79,0,0,0-1.16-.41,1.91,1.91,0,0,0-1.68.85,3.33,3.33,0,0,0-.49,1.9,3.16,3.16,0,0,0,.49,1.83,1.92,1.92,0,0,0,1.68.84,1.68,1.68,0,0,0,1.26-.5,2.16,2.16,0,0,0,.55-1.29h1.7a3.55,3.55,0,0,1-1.09,2.38,3.42,3.42,0,0,1-2.42.89A3.68,3.68,0,0,1,1,71.49a4.24,4.24,0,0,1-1-2.94,4.33,4.33,0,0,1,1-3,3.64,3.64,0,0,1,2.89-1.22,3.6,3.6,0,0,1,2.31.75A3.09,3.09,0,0,1,7.38,67.2Z"/><path id="_Trazado_compuesto_2" data-name="&lt;Trazado compuesto&gt;" class="cls-1" d="M8.3,69.62a3.06,3.06,0,0,1,.81-2.22,2.9,2.9,0,0,1,2.17-.84,2.93,2.93,0,0,1,2.19.84,3.06,3.06,0,0,1,.81,2.22,3,3,0,0,1-.81,2.21,2.93,2.93,0,0,1-2.19.84,2.9,2.9,0,0,1-2.17-.84A3,3,0,0,1,8.3,69.62Zm1.58,0a2.36,2.36,0,0,0,.31,1.27,1.21,1.21,0,0,0,1.09.58c.94,0,1.41-.62,1.41-1.85s-.47-1.86-1.41-1.86S9.88,68.38,9.88,69.62Z"/><path id="_Trazado_compuesto_3" data-name="&lt;Trazado compuesto&gt;" class="cls-1" d="M15.13,69.62A3.07,3.07,0,0,1,16,67.4a2.9,2.9,0,0,1,2.17-.84,2.93,2.93,0,0,1,2.19.84,3.06,3.06,0,0,1,.81,2.22,3,3,0,0,1-.81,2.21,2.93,2.93,0,0,1-2.19.84A2.9,2.9,0,0,1,16,71.83,3,3,0,0,1,15.13,69.62Zm1.59,0A2.36,2.36,0,0,0,17,70.89a1.21,1.21,0,0,0,1.09.58c.94,0,1.41-.62,1.41-1.85s-.47-1.86-1.41-1.86S16.72,68.38,16.72,69.62Z"/><path id="_Trazado_compuesto_4" data-name="&lt;Trazado compuesto&gt;" class="cls-1" d="M22.15,74.55V66.72h1.52v.74h0a1.86,1.86,0,0,1,1.72-.9,2.34,2.34,0,0,1,2,1A3.45,3.45,0,0,1,28,69.68a3.26,3.26,0,0,1-.64,2.07,2.25,2.25,0,0,1-1.9.92,1.92,1.92,0,0,1-1.73-.88h0v2.76Zm2.93-3.08c.91,0,1.37-.61,1.37-1.84a2.3,2.3,0,0,0-.31-1.27,1.2,1.2,0,0,0-1.08-.6,1.17,1.17,0,0,0-1.07.58,2.46,2.46,0,0,0-.3,1.29A2.3,2.3,0,0,0,24,70.9,1.19,1.19,0,0,0,25.08,71.47Z"/><path id="_Trazado_compuesto_5" data-name="&lt;Trazado compuesto&gt;" class="cls-1" d="M34.48,70H30.3c.05,1,.52,1.47,1.43,1.47a1.39,1.39,0,0,0,.82-.25.88.88,0,0,0,.43-.5h1.4a2.61,2.61,0,0,1-2.71,2,2.87,2.87,0,0,1-2.16-.85,3.36,3.36,0,0,1,0-4.39,2.8,2.8,0,0,1,2.13-.87,2.55,2.55,0,0,1,2.18,1.06A3.46,3.46,0,0,1,34.48,70ZM30.3,69h2.59c-.15-.82-.57-1.23-1.27-1.23a1.25,1.25,0,0,0-1,.45A1.43,1.43,0,0,0,30.3,69Z"/><path id="_Trazado_compuesto_6" data-name="&lt;Trazado compuesto&gt;" class="cls-1" d="M35.42,72.51V66.72h1.51V67.8h0a1.87,1.87,0,0,1,.74-.89,2,2,0,0,1,1.11-.35,1,1,0,0,1,.35.06V68.1a2.49,2.49,0,0,0-.57-.06c-1,0-1.57.62-1.57,1.86v2.61Z"/><path id="_Trazado_compuesto_7" data-name="&lt;Trazado compuesto&gt;" class="cls-1" d="M41.3,68.5H39.71a1.78,1.78,0,0,1,.9-1.52,3.5,3.5,0,0,1,1.82-.42c1.69,0,2.54.55,2.54,1.65v3a2.83,2.83,0,0,0,.2,1.29H43.56a1.84,1.84,0,0,1-.11-.56,2.57,2.57,0,0,1-2,.72,2.19,2.19,0,0,1-1.4-.43,1.59,1.59,0,0,1-.57-1.31,1.51,1.51,0,0,1,.61-1.32,3.38,3.38,0,0,1,1.36-.44L42.81,69q.57-.14.57-.57a.7.7,0,0,0-.31-.65,1.46,1.46,0,0,0-.72-.13Q41.38,67.63,41.3,68.5Zm2.08,1.77v-.59a1.79,1.79,0,0,1-.83.25,4.76,4.76,0,0,0-1,.22.72.72,0,0,0-.47.71c0,.5.32.74,1,.74A1.16,1.16,0,0,0,43.38,70.27Z"/><path id="_Trazado_compuesto_8" data-name="&lt;Trazado compuesto&gt;" class="cls-1" d="M48.21,65v1.73h1.17v1.07H48.21v2.86a.54.54,0,0,0,.68.67,2.49,2.49,0,0,0,.49,0v1.24a5.52,5.52,0,0,1-.93.06q-1.83,0-1.83-1.38V67.79h-1V66.72h1V65Z"/><path id="_Trazado_compuesto_9" data-name="&lt;Trazado compuesto&gt;" class="cls-1" d="M51.77,64.52v1.31H50.18V64.52Zm-1.59,8V66.72h1.59v5.79Z"/><path id="_Trazado_compuesto_10" data-name="&lt;Trazado compuesto&gt;" class="cls-1" d="M58.19,66.72l-2,5.79H54.46l-2-5.79h1.67l1.22,4h0l1.22-4Z"/><path id="_Trazado_compuesto_11" data-name="&lt;Trazado compuesto&gt;" class="cls-1" d="M60.37,68.5H58.78A1.81,1.81,0,0,1,59.69,67a3.46,3.46,0,0,1,1.81-.42c1.7,0,2.54.55,2.54,1.65v3a2.83,2.83,0,0,0,.2,1.29H62.63a2.74,2.74,0,0,1-.11-.56,2.54,2.54,0,0,1-2,.72,2.19,2.19,0,0,1-1.4-.43,1.59,1.59,0,0,1-.57-1.31,1.51,1.51,0,0,1,.62-1.32,3.38,3.38,0,0,1,1.35-.44L61.88,69q.57-.14.57-.57a.68.68,0,0,0-.31-.65,1.46,1.46,0,0,0-.72-.13Q60.45,67.63,60.37,68.5Zm2.08,1.77v-.59a1.74,1.74,0,0,1-.82.25,4.92,4.92,0,0,0-1,.22.73.73,0,0,0-.47.71c0,.5.33.74,1,.74C62,71.6,62.45,71.16,62.45,70.27Z"/><path id="_Trazado_compuesto_12" data-name="&lt;Trazado compuesto&gt;" class="cls-1" d="M72.52,72.51v-.74h0a1.89,1.89,0,0,1-1.76.9,2.28,2.28,0,0,1-1.95-1,3.47,3.47,0,0,1-.65-2.14,3.32,3.32,0,0,1,.65-2.09,2.29,2.29,0,0,1,1.91-.92,1.92,1.92,0,0,1,1.73.87h0V64.52H74v8Zm0-2.91a2.4,2.4,0,0,0-.3-1.28,1.18,1.18,0,0,0-1.07-.56,1.2,1.2,0,0,0-1.09.57,2.31,2.31,0,0,0-.31,1.28,2.15,2.15,0,0,0,.34,1.26,1.17,1.17,0,0,0,1.06.6C72,71.47,72.5,70.85,72.5,69.6Z"/><path id="_Trazado_compuesto_13" data-name="&lt;Trazado compuesto&gt;" class="cls-1" d="M80.71,70H76.54c0,1,.52,1.47,1.42,1.47a1.45,1.45,0,0,0,.83-.25.86.86,0,0,0,.42-.5h1.4a2.6,2.6,0,0,1-2.71,2,2.83,2.83,0,0,1-2.15-.85,3.38,3.38,0,0,1,0-4.39,2.8,2.8,0,0,1,2.13-.87,2.58,2.58,0,0,1,2.19,1.06A3.51,3.51,0,0,1,80.71,70Zm-4.17-1h2.58q-.23-1.23-1.26-1.23a1.24,1.24,0,0,0-1,.45A1.29,1.29,0,0,0,76.54,69Z"/><path id="_Trazado_compuesto_14" data-name="&lt;Trazado compuesto&gt;" class="cls-1" d="M84.08,72.51l3-8h1.81l3,8H90.08l-.6-1.78h-3l-.63,1.78Zm3.91-6-1,2.93H89l-1-2.93Z"/><path id="_Trazado_compuesto_15" data-name="&lt;Trazado compuesto&gt;" class="cls-1" d="M92.43,72.51v-8H94v3h0a2,2,0,0,1,1.69-1,2,2,0,0,1,1.69.65A2.94,2.94,0,0,1,97.86,69v3.56H96.27V69.24c0-.95-.34-1.42-1-1.42a1.11,1.11,0,0,0-.94.39A2.18,2.18,0,0,0,94,69.48v3Z"/><path id="_Trazado_compuesto_16" data-name="&lt;Trazado compuesto&gt;" class="cls-1" d="M98.89,69.62a3,3,0,0,1,.82-2.22,3.24,3.24,0,0,1,4.35,0,3,3,0,0,1,.82,2.22,3,3,0,0,1-.82,2.21,3.24,3.24,0,0,1-4.35,0A3,3,0,0,1,98.89,69.62Zm1.59,0a2.36,2.36,0,0,0,.3,1.27,1.22,1.22,0,0,0,1.1.58c.94,0,1.41-.62,1.41-1.85s-.47-1.86-1.41-1.86S100.48,68.38,100.48,69.62Z"/><path id="_Trazado_compuesto_17" data-name="&lt;Trazado compuesto&gt;" class="cls-1" d="M105.91,72.51V66.72h1.51V67.8h0a1.93,1.93,0,0,1,.74-.89,2,2,0,0,1,1.11-.35,1,1,0,0,1,.35.06V68.1a2.49,2.49,0,0,0-.57-.06c-1,0-1.57.62-1.57,1.86v2.61Z"/><path id="_Trazado_compuesto_18" data-name="&lt;Trazado compuesto&gt;" class="cls-1" d="M110.26,72.51V66.72h1.52V67.8h0a1.87,1.87,0,0,1,.74-.89,2,2,0,0,1,1.11-.35,1,1,0,0,1,.34.06V68.1a2.37,2.37,0,0,0-.57-.06c-1,0-1.57.62-1.57,1.86v2.61Z"/><path id="_Trazado_compuesto_19" data-name="&lt;Trazado compuesto&gt;" class="cls-1" d="M114.44,69.62a3,3,0,0,1,.82-2.22,3.24,3.24,0,0,1,4.35,0,3,3,0,0,1,.82,2.22,3,3,0,0,1-.82,2.21,3.24,3.24,0,0,1-4.35,0A3,3,0,0,1,114.44,69.62Zm1.59,0a2.36,2.36,0,0,0,.3,1.27,1.22,1.22,0,0,0,1.1.58c.94,0,1.41-.62,1.41-1.85s-.47-1.86-1.41-1.86S116,68.38,116,69.62Z"/><path id="_Trazado_compuesto_20" data-name="&lt;Trazado compuesto&gt;" class="cls-1" d="M129.84,66.72l-2.41,6.52a2,2,0,0,1-.72,1,2.24,2.24,0,0,1-1.28.31,8.82,8.82,0,0,1-1-.06V73.18c.56,0,.87.06.93.06.41,0,.61-.28.61-.73a1,1,0,0,0-.06-.36l-2-5.43h1.7l1.31,4h0l1.27-4Z"/><path id="_Trazado_compuesto_21" data-name="&lt;Trazado compuesto&gt;" class="cls-1" d="M140.69,67.2H139a1.51,1.51,0,0,0-.58-1,1.83,1.83,0,0,0-1.17-.41,1.92,1.92,0,0,0-1.68.85,3.41,3.41,0,0,0-.49,1.9,3.24,3.24,0,0,0,.49,1.83,1.92,1.92,0,0,0,1.68.84,1.69,1.69,0,0,0,1.27-.5,2.22,2.22,0,0,0,.55-1.29h1.7a3.55,3.55,0,0,1-1.09,2.38,3.45,3.45,0,0,1-2.43.89,3.66,3.66,0,0,1-2.88-1.21,4.2,4.2,0,0,1-1.05-2.94,4.29,4.29,0,0,1,1.05-3,4,4,0,0,1,5.19-.47A3,3,0,0,1,140.69,67.2Z"/><path id="_Trazado_compuesto_22" data-name="&lt;Trazado compuesto&gt;" class="cls-1" d="M141.79,72.51V66.72h1.51V67.8h0a1.87,1.87,0,0,1,.74-.89,2,2,0,0,1,1.11-.35,1.07,1.07,0,0,1,.35.06V68.1A2.49,2.49,0,0,0,145,68c-1,0-1.57.62-1.57,1.86v2.61Z"/><path id="_Trazado_compuesto_23" data-name="&lt;Trazado compuesto&gt;" class="cls-1" d="M151.63,70h-4.18c.05,1,.52,1.47,1.42,1.47a1.4,1.4,0,0,0,.83-.25.88.88,0,0,0,.43-.5h1.4a2.61,2.61,0,0,1-2.71,2,2.87,2.87,0,0,1-2.16-.85,3.36,3.36,0,0,1,0-4.39,2.79,2.79,0,0,1,2.13-.87A2.55,2.55,0,0,1,151,67.62,3.46,3.46,0,0,1,151.63,70Zm-4.18-1H150c-.15-.82-.57-1.23-1.27-1.23a1.25,1.25,0,0,0-1,.45A1.43,1.43,0,0,0,147.45,69Zm3.29-4.57L149,66h-1.11L149,64.42Z"/><path id="_Trazado_compuesto_24" data-name="&lt;Trazado compuesto&gt;" class="cls-1" d="M156.7,72.51v-.74h0a1.88,1.88,0,0,1-1.76.9,2.28,2.28,0,0,1-1.95-1,3.47,3.47,0,0,1-.65-2.14,3.32,3.32,0,0,1,.65-2.09,2.3,2.3,0,0,1,1.92-.92,1.9,1.9,0,0,1,1.72.87h0V64.52h1.59v8Zm0-2.91a2.5,2.5,0,0,0-.29-1.28,1.21,1.21,0,0,0-1.08-.56,1.18,1.18,0,0,0-1.08.57,2.31,2.31,0,0,0-.32,1.28,2.15,2.15,0,0,0,.34,1.26,1.17,1.17,0,0,0,1.06.6C156.22,71.47,156.68,70.85,156.68,69.6Z"/><path id="_Trazado_compuesto_25" data-name="&lt;Trazado compuesto&gt;" class="cls-1" d="M161,64.52v1.31h-1.59V64.52Zm-1.59,8V66.72H161v5.79Z"/><path id="_Trazado_compuesto_26" data-name="&lt;Trazado compuesto&gt;" class="cls-1" d="M164.31,65v1.73h1.17v1.07h-1.17v2.86a.78.78,0,0,0,.14.54.75.75,0,0,0,.53.13,2.6,2.6,0,0,0,.5,0v1.24a5.68,5.68,0,0,1-.93.06q-1.83,0-1.83-1.38V67.79h-1V66.72h1V65Z"/><path id="_Trazado_compuesto_27" data-name="&lt;Trazado compuesto&gt;" class="cls-1" d="M166.06,69.62a3,3,0,0,1,.82-2.22,2.87,2.87,0,0,1,2.17-.84,2.91,2.91,0,0,1,2.18.84,3.07,3.07,0,0,1,.82,2.22,3,3,0,0,1-.82,2.21,2.91,2.91,0,0,1-2.18.84,2.87,2.87,0,0,1-2.17-.84A3,3,0,0,1,166.06,69.62Zm1.59,0a2.36,2.36,0,0,0,.3,1.27,1.21,1.21,0,0,0,1.1.58c.94,0,1.41-.62,1.41-1.85s-.47-1.86-1.41-1.86S167.65,68.38,167.65,69.62Z"/></g><path id="_Trazado_" data-name="&lt;Trazado&gt;" class="cls-1" d="M100.15,0H89.79l2.27,3.92,4.74,8.21h4a8.95,8.95,0,0,1,0,17.89H98.15a9.31,9.31,0,0,1,.7,6.29,9.63,9.63,0,0,1-1.33,3,9.4,9.4,0,0,1-2.38,2.45l-.53.35h5.54a21.08,21.08,0,0,0,21.08-21.08h0A21.08,21.08,0,0,0,100.15,0Z"/><path id="_Trazado_2" data-name="&lt;Trazado&gt;" class="cls-1" d="M72.9,20.6a1.86,1.86,0,0,1,.68-.71,1.88,1.88,0,0,1,.68-.26,2,2,0,0,1,1.42.26,2,2,0,0,1,.69.71l1.88,3.25,1.88,3.26a2,2,0,0,1,.21,1.46,2.21,2.21,0,0,1-.28.65,2.33,2.33,0,0,1-.51.53,2,2,0,0,1-1.16.36H70.87a2,2,0,0,1-1-.24,1.89,1.89,0,0,1-.46-.34,2,2,0,0,1-.32-2.42L71,23.85Z"/><path id="_Trazado_3" data-name="&lt;Trazado&gt;" class="cls-1" d="M96.65,30.12l-7.53-13L81.58,4a8,8,0,0,0-2.75-2.84,8.13,8.13,0,0,0-8.4,0A8,8,0,0,0,67.68,4L60.14,17.07,52.61,30.12a7.88,7.88,0,0,0-.69,6.47,8.11,8.11,0,0,0,2,3.25,7.91,7.91,0,0,0,5.65,2.32H70.43V33H68a3.53,3.53,0,0,1-3.06-5.3l3.32-5.74,3.31-5.74a3.53,3.53,0,0,1,6.12,0L81,21.94l3.31,5.74A3.53,3.53,0,0,1,81.26,33H78.83v9.18H89.7a7.92,7.92,0,0,0,4.65-1.47,8.23,8.23,0,0,0,2-2.09A8.52,8.52,0,0,0,97.52,36,7.88,7.88,0,0,0,96.65,30.12Z"/><path id="_Trazado_compuesto_28" data-name="&lt;Trazado compuesto&gt;" class="cls-1" d="M4.12,49,0,61.94H2.76l.84-2.8H7.25l.88,2.8h2.81L6.69,49Zm2.3,7.47h-2l1-3.35Z"/><path id="_Trazado_4" data-name="&lt;Trazado&gt;" class="cls-1" d="M17.85,57.06a3.8,3.8,0,0,1-.79,1.86,1.58,1.58,0,0,1-1.19.54,1.84,1.84,0,0,1-1.57-.87,5.74,5.74,0,0,1-.64-3.16,5.47,5.47,0,0,1,.65-3.07,1.91,1.91,0,0,1,1.61-.86A1.67,1.67,0,0,1,17.1,52a2.48,2.48,0,0,1,.69,1.39l.05.3,2.57-.75-.06-.26a5.26,5.26,0,0,0-1.27-2.58,4.11,4.11,0,0,0-3-1.25,4.33,4.33,0,0,0-3.55,1.66A8,8,0,0,0,11,55.59a7.68,7.68,0,0,0,1.48,4.93,4.22,4.22,0,0,0,3.43,1.63,4.15,4.15,0,0,0,2.84-1,5.85,5.85,0,0,0,1.63-3.18l.05-.23-2.51-1Z"/><path id="_Trazado_5" data-name="&lt;Trazado&gt;" class="cls-1" d="M28.06,57.06a3.71,3.71,0,0,1-.78,1.86,1.58,1.58,0,0,1-1.2.54,1.83,1.83,0,0,1-1.56-.87,5.74,5.74,0,0,1-.64-3.16,5.47,5.47,0,0,1,.65-3.07,1.89,1.89,0,0,1,1.61-.86,1.67,1.67,0,0,1,1.18.46A2.41,2.41,0,0,1,28,53.35l.06.3,2.57-.75-.06-.26a5.26,5.26,0,0,0-1.27-2.58,4.13,4.13,0,0,0-3.05-1.25,4.33,4.33,0,0,0-3.55,1.66,8,8,0,0,0-1.49,5.12,7.68,7.68,0,0,0,1.48,4.93,4.22,4.22,0,0,0,3.43,1.63,4.17,4.17,0,0,0,2.84-1,5.85,5.85,0,0,0,1.63-3.18l.05-.23-2.51-1Z"/><rect id="_Trazado_6" data-name="&lt;Trazado&gt;" class="cls-1" x="31.73" y="49.02" width="2.6" height="12.91"/><path id="_Trazado_compuesto_29" data-name="&lt;Trazado compuesto&gt;" class="cls-1" d="M40.5,48.81a4.79,4.79,0,0,0-2.71.75A5.13,5.13,0,0,0,36,51.8a9.11,9.11,0,0,0-.68,3.75,7.6,7.6,0,0,0,1.51,5,4.95,4.95,0,0,0,7.36,0,7.69,7.69,0,0,0,1.51-5,7.56,7.56,0,0,0-1.43-4.91A4.66,4.66,0,0,0,40.5,48.81Zm1.79,9.7a2.13,2.13,0,0,1-1.78,1,2.15,2.15,0,0,1-1.78-1,5,5,0,0,1-.76-3,5.09,5.09,0,0,1,.73-3,2.15,2.15,0,0,1,1.81-.93,2.12,2.12,0,0,1,1.8.92,5,5,0,0,1,.72,3A5.17,5.17,0,0,1,42.29,58.51Z"/><polygon id="_Trazado_7" data-name="&lt;Trazado&gt;" class="cls-1" points="43.13 45.02 40.19 45.02 39.02 48.1 40.79 48.1 43.13 45.02"/><polygon id="_Trazado_8" data-name="&lt;Trazado&gt;" class="cls-1" points="52.9 56.38 49.2 49.02 46.77 49.02 46.77 61.94 49.23 61.94 49.23 54.76 52.86 61.94 55.36 61.94 55.36 49.02 52.9 49.02 52.9 56.38"/><polygon id="_Trazado_9" data-name="&lt;Trazado&gt;" class="cls-1" points="64.66 53.55 62.45 49.02 59.43 49.02 63.31 56.52 63.31 61.94 65.91 61.94 65.91 56.54 69.82 49.02 66.83 49.02 64.66 53.55"/><path id="_Trazado_compuesto_30" data-name="&lt;Trazado compuesto&gt;" class="cls-1" d="M81.46,50.51A3.81,3.81,0,0,0,80,49.36,5.68,5.68,0,0,0,77.79,49h-4V61.94H77.9A5.21,5.21,0,0,0,80,61.56a3.86,3.86,0,0,0,1.45-1.12,5.94,5.94,0,0,0,1-2,9.8,9.8,0,0,0,.37-2.87,11.52,11.52,0,0,0-.35-3.05A5.65,5.65,0,0,0,81.46,50.51Zm-5.09,1.16H77a7.42,7.42,0,0,1,1.6.1,1.58,1.58,0,0,1,.83.51A2.77,2.77,0,0,1,80,53.41a12.17,12.17,0,0,1,0,4.17,2.75,2.75,0,0,1-.42,1.07,1.44,1.44,0,0,1-.61.48,4,4,0,0,1-1.32.16H76.37Z"/><polygon id="_Trazado_10" data-name="&lt;Trazado&gt;" class="cls-1" points="86.61 56.49 91.7 56.49 91.7 53.85 86.61 53.85 86.61 51.67 92.09 51.67 92.09 49.02 84.01 49.02 84.01 61.94 92.27 61.94 92.27 59.29 86.61 59.29 86.61 56.49"/><path id="_Trazado_11" data-name="&lt;Trazado&gt;" class="cls-1" d="M100.2,54.68a7.88,7.88,0,0,0-2.32-1,5.15,5.15,0,0,1-1.76-.7.78.78,0,0,1-.31-.64.77.77,0,0,1,.34-.63,1.82,1.82,0,0,1,1.11-.29,1.57,1.57,0,0,1,1.08.33,2,2,0,0,1,.5,1.22l0,.25,2.58-.14v-.27a4.17,4.17,0,0,0-1.15-3,4.1,4.1,0,0,0-3-1,4.73,4.73,0,0,0-2.13.44,3.33,3.33,0,0,0-1.38,1.33,3.91,3.91,0,0,0-.5,2,4,4,0,0,0,.39,1.74,3.52,3.52,0,0,0,1,1.32,6.47,6.47,0,0,0,2,.9,17.61,17.61,0,0,1,1.79.62,1,1,0,0,1,.45.39,1,1,0,0,1,.15.57,1.31,1.31,0,0,1-.44,1,1.85,1.85,0,0,1-1.27.41c-1.1,0-1.73-.69-1.94-2.13l0-.27-2.53.3,0,.28c.3,3,1.79,4.49,4.43,4.49a4.24,4.24,0,0,0,3.3-1.19,4.14,4.14,0,0,0,1.06-2.89,4.71,4.71,0,0,0-.39-2A3.47,3.47,0,0,0,100.2,54.68Z"/><path id="_Trazado_compuesto_31" data-name="&lt;Trazado compuesto&gt;" class="cls-1" d="M105.88,49l-4.12,12.92h2.76l.84-2.8H109l.89,2.8h2.81L108.45,49Zm2.29,7.47h-2l1-3.35Z"/><path id="_Trazado_compuesto_32" data-name="&lt;Trazado compuesto&gt;" class="cls-1" d="M120.31,57.07a4.28,4.28,0,0,0-.69-.73,3.13,3.13,0,0,0,1.58-1.08,4,4,0,0,0,.76-2.51,4.37,4.37,0,0,0-.49-2.1,2.92,2.92,0,0,0-1.29-1.27A6.25,6.25,0,0,0,117.7,49h-4.59V61.94h2.6V56.78h.14a2.58,2.58,0,0,1,.92.11,1.46,1.46,0,0,1,.5.42,19.19,19.19,0,0,1,1.06,1.79l1.56,2.84H123l-1.44-2.82A13.89,13.89,0,0,0,120.31,57.07Zm-4.6-5.4H117a6.87,6.87,0,0,1,1.58.08.88.88,0,0,1,.49.38,1.4,1.4,0,0,1,.19.79,1.54,1.54,0,0,1-.19.84.83.83,0,0,1-.47.38,6.9,6.9,0,0,1-1.68.11h-1.24Z"/><path id="_Trazado_compuesto_33" data-name="&lt;Trazado compuesto&gt;" class="cls-1" d="M130.53,57.07a4.72,4.72,0,0,0-.69-.73,3.21,3.21,0,0,0,1.58-1.08,4,4,0,0,0,.75-2.51,4.26,4.26,0,0,0-.49-2.1,2.9,2.9,0,0,0-1.28-1.27,6.25,6.25,0,0,0-2.48-.36h-4.59V61.94h2.6V56.78h.14a2.58,2.58,0,0,1,.92.11,1.46,1.46,0,0,1,.5.42,19.19,19.19,0,0,1,1.06,1.79l1.56,2.84h3.06l-1.44-2.82A14.86,14.86,0,0,0,130.53,57.07Zm-4.6-5.4h1.32a6.73,6.73,0,0,1,1.57.08.87.87,0,0,1,.5.38,1.4,1.4,0,0,1,.19.79,1.54,1.54,0,0,1-.19.84.87.87,0,0,1-.47.38,6.9,6.9,0,0,1-1.68.11h-1.24Z"/><path id="_Trazado_compuesto_34" data-name="&lt;Trazado compuesto&gt;" class="cls-1" d="M138.32,48.81a4.79,4.79,0,0,0-2.71.75,5.13,5.13,0,0,0-1.8,2.24,9.11,9.11,0,0,0-.68,3.75,7.6,7.6,0,0,0,1.51,5,4.95,4.95,0,0,0,7.36,0,7.69,7.69,0,0,0,1.51-5,7.56,7.56,0,0,0-1.43-4.91A4.66,4.66,0,0,0,138.32,48.81Zm1.79,9.7a2.13,2.13,0,0,1-1.78,1,2.15,2.15,0,0,1-1.78-1,5,5,0,0,1-.76-3,5.09,5.09,0,0,1,.73-3,2.15,2.15,0,0,1,1.81-.93,2.12,2.12,0,0,1,1.8.92,5,5,0,0,1,.72,3A5.17,5.17,0,0,1,140.11,58.51Z"/><polygon id="_Trazado_12" data-name="&lt;Trazado&gt;" class="cls-1" points="147.21 49.12 144.62 49.12 144.62 61.94 152.31 61.94 152.31 59.29 147.21 59.29 147.21 49.12"/><polygon id="_Trazado_13" data-name="&lt;Trazado&gt;" class="cls-1" points="155.86 49.12 153.27 49.12 153.27 61.94 160.96 61.94 160.96 59.29 155.86 59.29 155.86 49.12"/><path id="_Trazado_compuesto_35" data-name="&lt;Trazado compuesto&gt;" class="cls-1" d="M170.4,50.57a4.67,4.67,0,0,0-3.76-1.76,4.79,4.79,0,0,0-2.71.75,5.22,5.22,0,0,0-1.81,2.24,9.12,9.12,0,0,0-.67,3.75,7.6,7.6,0,0,0,1.51,5,4.95,4.95,0,0,0,7.36,0,7.69,7.69,0,0,0,1.51-5A7.56,7.56,0,0,0,170.4,50.57Zm-2,7.94a2.13,2.13,0,0,1-1.78,1,2.18,2.18,0,0,1-1.79-1,5,5,0,0,1-.75-3,5,5,0,0,1,.73-3,2.22,2.22,0,0,1,3.61,0,5,5,0,0,1,.72,3A5.17,5.17,0,0,1,168.43,58.51Z"/></g></g></g></svg>