<svg xmlns="http://www.w3.org/2000/svg" viewBox="0 0 127.72 77.68"><defs><style>.cls-1{fill:#6b6b6b;}</style></defs><title>clt_vienesa</title><g id="Capa_2" data-name="Capa 2"><g id="Capa_1-2" data-name="Capa 1"><g id="_Grupo_" data-name="&lt;Grupo&gt;"><g id="_Grupo_2" data-name="&lt;Grupo&gt;"><g id="_Grupo_3" data-name="&lt;Grupo&gt;"><path id="_Trazado_compuesto_" data-name="&lt;Trazado compuesto&gt;" class="cls-1" d="M70.05,5.77c-.15,0-.19-.07-.19-.14a.44.44,0,0,1,.08-.22,6.45,6.45,0,0,0,1.41-3c0-.65-.44-.8-.91-.8a2.76,2.76,0,0,0-1.85.92,13.79,13.79,0,0,0-2.45,3.79c-1.23,2.59-2.09,5.4-2.37,6a32.41,32.41,0,0,1-1.37,3.52A25.6,25.6,0,0,1,60,20.11a19,19,0,0,1-2.39,2.73,11.68,11.68,0,0,1-3.49,2.41.29.29,0,0,0-.15.11c0,.07.18.11.18.11A15.29,15.29,0,0,1,57,25.21a27.2,27.2,0,0,1,2.73.12,37.46,37.46,0,0,0,3.87.43,7.65,7.65,0,0,0,3-.62,2.6,2.6,0,0,0,1.79-2.27c0-.18-.07-.36-.29-.36a7.34,7.34,0,0,1-1.08.14,1.77,1.77,0,0,1-1.52-.75A3.37,3.37,0,0,1,65,20.09a6.59,6.59,0,0,1,.42-2,5.13,5.13,0,0,1,.72-1.31,3.88,3.88,0,0,1,3.23-1.49,2.86,2.86,0,0,1,2.06.85,3.25,3.25,0,0,1,.65,1.09,5.46,5.46,0,0,1,.29,1.88,10.32,10.32,0,0,1-1.51,5.6,10.14,10.14,0,0,1-2.72,2.84,11.64,11.64,0,0,1-5.91,2.13,9.46,9.46,0,0,1-1.81-.11,14.08,14.08,0,0,1-2.95-1.12,13.68,13.68,0,0,0-2.54-.82,14.67,14.67,0,0,0-3.24-.37,11.14,11.14,0,0,0-3.82.62.89.89,0,0,1-.18,0c-.07,0-.11,0-.11,0a4.44,4.44,0,0,1,1.74-1.53,10,10,0,0,1,2.56-1.07c.41-.1,1.16-.38,2.53-3.59a69.83,69.83,0,0,0,2.4-6.84c.75-2.46,2-6.66,4.61-10A12.21,12.21,0,0,1,71.38,0c1.27,0,3.1.25,3.1,1.73a3.15,3.15,0,0,1-.66,2,5.27,5.27,0,0,1-2,1.5A7.41,7.41,0,0,1,70.05,5.77Z"/><path id="_Trazado_compuesto_2" data-name="&lt;Trazado compuesto&gt;" class="cls-1" d="M89.82,18.39a33.72,33.72,0,0,1-3.14,5.07A19.07,19.07,0,0,1,84,26.35a5,5,0,0,1-3,1.43,1.24,1.24,0,0,1-1.29-1,2.33,2.33,0,0,1-.08-.59,6.21,6.21,0,0,1,.43-2c0-.11.07-.14,0-.14s-.14.1-.14.1a8,8,0,0,1-2.32,2.87,3.86,3.86,0,0,1-2.19.82,2.28,2.28,0,0,1-2-1,5,5,0,0,1-.6-2.7,16.41,16.41,0,0,1,.49-3.78,23,23,0,0,1,1.72-4.73,22.3,22.3,0,0,1,2.69-4.23,11.91,11.91,0,0,1,3.16-2.8,5.14,5.14,0,0,1,2.48-.72A1.78,1.78,0,0,1,85.34,9.2c0,.07.08.1.11.1s.08-.07.08-.07a5.25,5.25,0,0,1,1.56-1.07,8.05,8.05,0,0,1,2.69-.59s.11,0,.11.11L88.6,11.1l-2.32,6.14-1.76,4.69a1.45,1.45,0,0,0-.11.51.64.64,0,0,0,.64.65c.26,0,1-.11,1.81-1.41a18.16,18.16,0,0,0,1.46-2.06,27.89,27.89,0,0,0,1.61-2.95s.21.07.21.5A2.54,2.54,0,0,1,89.82,18.39ZM84,8.87c-.48,0-1.07.58-1.7,1.51a24.76,24.76,0,0,0-1.65,3c-.57,1.21-1.14,2.56-1.64,3.9a41.35,41.35,0,0,0-1.71,5.58,9.63,9.63,0,0,0-.26,1.93c0,.54.1.86.39.86a1.5,1.5,0,0,0,1-.47,6.08,6.08,0,0,0,1.27-1.78,16.34,16.34,0,0,0,.7-1.61l.84-2.23,1.56-4.13.32-.86,1.5-4a2.62,2.62,0,0,0,.18-.79A.84.84,0,0,0,84,8.87Z"/></g><path id="_Trazado_compuesto_3" data-name="&lt;Trazado compuesto&gt;" class="cls-1" d="M14.35,59.41a4.52,4.52,0,0,1-3.72-2,13,13,0,0,1-2-7.18,28,28,0,0,1,1-6.8,42.43,42.43,0,0,1,2.29-6.71c.73-1.69,1.32-3.11,1.8-4.29,1.53-3.79,1.9-5.1,1.9-5.1A9.89,9.89,0,0,0,16,24.61c0-3.29-2.29-3.4-2.45-3.4a8.65,8.65,0,0,0-3.24,1c-1.71.89-3.38,2.4-3.38,4.62,0,.31.1.63.52.63.21,0,.94-.11,1.41-.11a1.93,1.93,0,0,1,1.62.83,5.3,5.3,0,0,1,.78,2.62,7.71,7.71,0,0,1-.61,3,7,7,0,0,1-1.94,2.61A6.09,6.09,0,0,1,4.91,38,4.57,4.57,0,0,1,2,37a6.32,6.32,0,0,1-2-5,11.28,11.28,0,0,1,1.32-5.31,15,15,0,0,1,4.89-5.23,21,21,0,0,1,4.08-2.14,15.58,15.58,0,0,1,5.36-1.2c1.39,0,3.66.07,5.28,1.51,1.12,1,1.92,2.63,1.92,5.32,0,3.8-1.77,7.7-3.36,12.1A34.29,34.29,0,0,0,17,49c0,2.09.62,3.81,2,3.81.85,0,2.13-1.09,3.54-2.95A40.38,40.38,0,0,0,28.14,38.8a38.64,38.64,0,0,0,2.07-11.95,15.66,15.66,0,0,0-.52-4.23,8.38,8.38,0,0,0-1.93-3.86l0-.05a12.75,12.75,0,0,1,5.73,1.48,7.25,7.25,0,0,1,2.57,2.37,7.43,7.43,0,0,1,1.09,4.08c0,4.65-2.81,11.44-6.65,17.63a61.54,61.54,0,0,1-6.24,8.46,29.63,29.63,0,0,1-5.68,5.1A8.21,8.21,0,0,1,14.35,59.41Z"/><g id="_Grupo_4" data-name="&lt;Grupo&gt;"><path id="_Trazado_" data-name="&lt;Trazado&gt;" class="cls-1" d="M41.09,31.26a3.53,3.53,0,0,0,2.24-1,3.35,3.35,0,0,0,1-2.57,2.75,2.75,0,0,0-.66-1.85A2.3,2.3,0,0,0,42,25.14a3,3,0,0,0-2.23,1.08,3.75,3.75,0,0,0-.94,2.44,2.7,2.7,0,0,0,.75,1.94A2.25,2.25,0,0,0,41.09,31.26Z"/><path id="_Trazado_compuesto_4" data-name="&lt;Trazado compuesto&gt;" class="cls-1" d="M125,44.6A33,33,0,0,1,123,48.42a22,22,0,0,1-1.66,2.31c-1,1.58-1.89,1.72-2.2,1.72a.78.78,0,0,1-.79-.79,1.77,1.77,0,0,1,.13-.62L120,46.92l2.94-7.79.85-2.26.41-1.1.81-2.13c0-.13-.09-.13-.13-.13a9.53,9.53,0,0,0-3.33.74,6.44,6.44,0,0,0-1.87,1.28s0,.09-.09.09-.09,0-.13-.13a2.19,2.19,0,0,0-2.38-1.55,5.43,5.43,0,0,0-1.9.37,9.91,9.91,0,0,0-3,1.9,21,21,0,0,0-3.84,4.68,29.75,29.75,0,0,0-3,6.47l-.45.71a42.79,42.79,0,0,1-3.12,4.29c-.14.13-.18.18-.23.18s0,0,0-.09a.49.49,0,0,1,0-.14,9.49,9.49,0,0,0,1.1-2.37,8.58,8.58,0,0,0,.31-2.73,18,18,0,0,0-.48-4,11,11,0,0,1-.52-2.78,6.29,6.29,0,0,1,.38-2.22,6.38,6.38,0,0,1,2.49-3.06c1.08-.74,2-1,2-1.19,0-.39-1.23-.39-2.15-.39a11.87,11.87,0,0,0-3.58.5,7.5,7.5,0,0,0-2,1,5.62,5.62,0,0,0-1.75,2,6.64,6.64,0,0,0-.68,3.06A7.56,7.56,0,0,0,97,42.49s.28.93.51,2.18a15.9,15.9,0,0,1,.28,2.75A12.56,12.56,0,0,1,97.16,51a7.39,7.39,0,0,1-3.1,4.28,4.77,4.77,0,0,1-2.32.58,2.43,2.43,0,0,1-2.19-1.2A4.34,4.34,0,0,1,89,52.36a4.51,4.51,0,0,1,.11-.93c.4-.59.8-1.22,1.2-1.88h.1c.47,0,.55.35.82.66a1.45,1.45,0,0,0,1.21.44,2.79,2.79,0,0,0,1.63-.49,3.54,3.54,0,0,0,1.16-1.47,5.25,5.25,0,0,0,.46-2.09A3.44,3.44,0,0,0,95,44.73a2,2,0,0,0-1.61-.7,3.79,3.79,0,0,0-.58,0,4.78,4.78,0,0,0-2.94,2,9.26,9.26,0,0,0-1.33,2.56A11.62,11.62,0,0,0,88,51.2c-.65.84-1.11,1.34-1.11,1.34-2.37,2.77-4.4,3.12-5.33,3.12-2.11,0-2.68-1.28-2.68-2.73a11.85,11.85,0,0,1,1-4.1c0-.08,0-.08.13-.08.27,0,.62.08,1,.08a10.59,10.59,0,0,0,4.36-1,11.2,11.2,0,0,0,4.28-3.45,10,10,0,0,0,1.51-2.83,9.29,9.29,0,0,0,.51-3,5.85,5.85,0,0,0-.09-1.07,4.14,4.14,0,0,0-.47-1.3,3.81,3.81,0,0,0-1.87-1.64,6.39,6.39,0,0,0-2.46-.48,7.18,7.18,0,0,0-2.66.56,12.56,12.56,0,0,0-3.13,2,20.67,20.67,0,0,0-4.09,4.83,24.2,24.2,0,0,0-2.64,5.93,31.52,31.52,0,0,1-2.14,3.19c-1.19,1.63-2,1.9-2.33,1.9a.44.44,0,0,1-.22-.05.72.72,0,0,1-.62-.79,2.34,2.34,0,0,1,.17-.79l.42-1.11,2.65-7L74,38a7.17,7.17,0,0,0,.53-2.29A1.77,1.77,0,0,0,74,34.3a2,2,0,0,0-1.3-.4,4.84,4.84,0,0,0-1.34.2,7.39,7.39,0,0,0-1.37.52,14.14,14.14,0,0,0-2,1.2A17.81,17.81,0,0,0,66.45,37a13.09,13.09,0,0,0-1.4,1.37c-.09.12-.13.17-.18.17a0,0,0,0,1-.05-.05.9.9,0,0,1,.05-.22l.87-2.2.89-2.25c0-.08-.13-.08-.22-.08a9.74,9.74,0,0,0-2.72.5,6.25,6.25,0,0,0-1.67.88,5.22,5.22,0,0,0-1.27,1.33,5.49,5.49,0,0,0-.59,1.16l-1,2.55-3.08,8.12A29.55,29.55,0,0,1,53,52.54c-2.38,2.77-4.41,3.12-5.33,3.12A2.41,2.41,0,0,1,45,52.93a11.76,11.76,0,0,1,1-4.1c0-.08,0-.08.13-.08.26,0,.61.08,1,.08a10.4,10.4,0,0,0,4.25-.92,11.21,11.21,0,0,0,3.2-2.14,10.06,10.06,0,0,0,3.21-7.2A4.07,4.07,0,0,0,56.08,35a6,6,0,0,0-3.19-.88,9,9,0,0,0-5.46,2.25A20.34,20.34,0,0,0,42.65,42a23.62,23.62,0,0,0-2.56,6.39,22.94,22.94,0,0,1-1.6,2.34c-1.32,1.86-2.16,2.12-2.56,2.12a.69.69,0,0,1-.74-.75,3.06,3.06,0,0,1,.22-1L40.05,38.8,41.84,34c0-.1-.05-.1-.13-.1a12.49,12.49,0,0,0-2.16.32,6.89,6.89,0,0,0-2.4,1.1,5.57,5.57,0,0,0-1.88,2.51l-2.06,5.4c-1,2.71-1.84,4.83-2.46,6.5-2,5.26-2.17,6.06-2.17,6.91s.35,1.89,1.63,1.89A8.3,8.3,0,0,0,35,56.32a20.37,20.37,0,0,0,2.81-2.88,28.15,28.15,0,0,0,1.85-2.55,19.3,19.3,0,0,0-.11,2,5.68,5.68,0,0,0,2,4.78,5.26,5.26,0,0,0,3.13.9,9.64,9.64,0,0,0,6.2-2.27,19.94,19.94,0,0,0,3.68-4l-2.39,6.29c0,.09,0,.09.13.09a10.88,10.88,0,0,0,2.45-.38,6.6,6.6,0,0,0,2.3-1.14,5.38,5.38,0,0,0,1.72-2.4l4.32-11.45a14.28,14.28,0,0,1,1.38-2.68,12.16,12.16,0,0,1,1.77-2.21,3.24,3.24,0,0,1,2-1.06.49.49,0,0,1,.53.45A25.74,25.74,0,0,1,68,40.36c-.9,2.49-2.27,5.85-3.44,8.88s-2.23,6-2.23,7.13a1.88,1.88,0,0,0,.42,1.28,2,2,0,0,0,1.35.57,5.93,5.93,0,0,0,3-1.07A13.76,13.76,0,0,0,69.67,55a31.9,31.9,0,0,0,4-4.91,18.32,18.32,0,0,0-.21,2.76,7.21,7.21,0,0,0,.6,3,4.33,4.33,0,0,0,2,2.13,5.6,5.6,0,0,0,2.5.53,9.24,9.24,0,0,0,3.87-.82A12.56,12.56,0,0,0,86.24,55,22.46,22.46,0,0,0,88,53a7.74,7.74,0,0,0,.64,2.65,4.81,4.81,0,0,0,2,2.19,5.78,5.78,0,0,0,2.9.68,8,8,0,0,0,3.42-.83,13.37,13.37,0,0,0,2.56-1.59,18,18,0,0,0,1.64-1.41,27.44,27.44,0,0,0,3.35-3.89,18.59,18.59,0,0,0-.27,3,9,9,0,0,0,.15,1.72,3.39,3.39,0,0,0,1.26,2.27,3.05,3.05,0,0,0,1.81.51,4.46,4.46,0,0,0,2.13-.65,8.92,8.92,0,0,0,3.37-3.85s.13-.13.18-.13,0,0,0,.18a7.61,7.61,0,0,0-.52,2.42,2.24,2.24,0,0,0,.25,1.11,1.49,1.49,0,0,0,1.42.78,3.8,3.8,0,0,0,1.61-.41,13.48,13.48,0,0,0,4.11-3.44,38.31,38.31,0,0,0,5-7.6,3.16,3.16,0,0,0,.4-1.5C125.3,44.69,125,44.6,125,44.6ZM82.39,42.1l1-2.56.81-2.16a4.31,4.31,0,0,1,1.4-2A1.91,1.91,0,0,1,86.72,35a.88.88,0,0,1,.74.32,1.91,1.91,0,0,1,.27,1.14,4.61,4.61,0,0,1-.11.49c-.15.54-.42,1.46-.8,2.55a28.62,28.62,0,0,1-2.93,6.27,7.72,7.72,0,0,1-1.22,1.43,2.53,2.53,0,0,1-1.59.71,2.94,2.94,0,0,1-.66,0,.13.13,0,0,1-.13-.13Zm-33-2.38.88-2.34a4.29,4.29,0,0,1,1.12-1.74A2.19,2.19,0,0,1,52.8,35c1,0,1,.93,1,1.46a29,29,0,0,1-1.08,3.51c-1.22,3.37-3.31,7.94-5.58,7.94a2.81,2.81,0,0,1-.65,0,.13.13,0,0,1-.14-.13Zm64,11.1a15.08,15.08,0,0,1-1.6,3.2,4,4,0,0,1-1.37,1.33,1.41,1.41,0,0,1-.64.18c-.36,0-.49-.39-.49-1.05a11.83,11.83,0,0,1,.3-2.25c.13-.64.31-1.34.52-2.09.41-1.49,1-3.16,1.59-4.83a42.52,42.52,0,0,1,4.07-8.47c.75-1.08,1.45-1.74,2-1.75a1,1,0,0,1,1,1.06,3.34,3.34,0,0,1-.22,1l-1.28,3.42Z"/></g></g><g id="_Grupo_5" data-name="&lt;Grupo&gt;"><path id="_Trazado_compuesto_5" data-name="&lt;Trazado compuesto&gt;" class="cls-1" d="M.44,76.82v-6a.67.67,0,0,1,.71-.72H3.47a2.42,2.42,0,1,1,0,4.83H2.13s-.07,0-.07.06v1.82a.79.79,0,0,1-.8.86A.8.8,0,0,1,.44,76.82Zm4-4.29a1,1,0,0,0-1.09-1H2.13a.06.06,0,0,0-.07.07v1.89s0,.06.07.06H3.37A1,1,0,0,0,4.46,72.53Z"/><path id="_Trazado_compuesto_6" data-name="&lt;Trazado compuesto&gt;" class="cls-1" d="M14.91,76.62,17,71c.21-.59.54-.95,1.11-.95s.92.36,1.13.95l2,5.63a.9.9,0,0,1,0,.3.75.75,0,0,1-.78.76.77.77,0,0,1-.76-.57l-.31-.92H16.7l-.3.92a.77.77,0,0,1-.76.57.76.76,0,0,1-.78-.76A.9.9,0,0,1,14.91,76.62Zm4-1.81-.86-2.62h0l-.87,2.62Z"/><path id="_Trazado_compuesto_7" data-name="&lt;Trazado compuesto&gt;" class="cls-1" d="M31.17,71a.88.88,0,0,1,.9-1c.47,0,.77.28,1.07.8l2.3,4.1h0V70.83a.75.75,0,1,1,1.49,0v5.88a.88.88,0,0,1-.91,1c-.46,0-.77-.27-1.07-.79l-2.3-4.08h0V76.9a.74.74,0,1,1-1.48,0Z"/><path id="_Trazado_compuesto_8" data-name="&lt;Trazado compuesto&gt;" class="cls-1" d="M46.94,76.62,49,71c.21-.59.54-.95,1.11-.95s.92.36,1.13.95l2,5.63a.9.9,0,0,1,.05.3.75.75,0,0,1-.78.76.77.77,0,0,1-.76-.57l-.32-.92H48.73l-.3.92a.77.77,0,0,1-.76.57.75.75,0,0,1-.78-.76A.9.9,0,0,1,46.94,76.62Zm4-1.81-.86-2.62h0l-.87,2.62Z"/><path id="_Trazado_compuesto_9" data-name="&lt;Trazado compuesto&gt;" class="cls-1" d="M63.2,70.83a.66.66,0,0,1,.7-.72h1.78c1.6,0,2.6.51,3,1.73a6.38,6.38,0,0,1,.21,2,6.3,6.3,0,0,1-.21,2c-.4,1.23-1.4,1.74-3,1.74H63.9a.65.65,0,0,1-.7-.71Zm1.68,5.34h.76c.75,0,1.29-.25,1.48-.85a5.84,5.84,0,0,0,.13-1.46,5.74,5.74,0,0,0-.13-1.45c-.19-.6-.73-.85-1.48-.85h-.76a.05.05,0,0,0-.06.06v4.49A.05.05,0,0,0,64.88,76.17Z"/><path id="_Trazado_compuesto_10" data-name="&lt;Trazado compuesto&gt;" class="cls-1" d="M79,70.83a.67.67,0,0,1,.71-.72h3.64a.7.7,0,1,1,0,1.4H80.66a.07.07,0,0,0-.07.07v1.49s0,.06.07.06H82.8a.7.7,0,1,1,0,1.4H80.66s-.07,0-.07.06v1.56s0,.06.07.06h2.66a.71.71,0,1,1,0,1.41H79.68A.67.67,0,0,1,79,76.9Z"/><path id="_Trazado_compuesto_11" data-name="&lt;Trazado compuesto&gt;" class="cls-1" d="M98.11,77.18l-1.26-2.42H95.74a.05.05,0,0,0-.06.06v2a.82.82,0,1,1-1.63,0v-6a.67.67,0,0,1,.71-.72h2.39a2.33,2.33,0,0,1,2.56,2.33,2.2,2.2,0,0,1-1.24,2l1.09,2a.91.91,0,0,1,.11.45.73.73,0,0,1-.77.77A.84.84,0,0,1,98.11,77.18Zm0-4.73a.91.91,0,0,0-1-.94H95.74s-.06,0-.06.07v1.73s0,.07.06.07h1.33A.91.91,0,0,0,98.08,72.45Z"/><path id="_Trazado_compuesto_12" data-name="&lt;Trazado compuesto&gt;" class="cls-1" d="M109.78,70.9a.82.82,0,1,1,1.63,0v5.92a.82.82,0,1,1-1.63,0Zm.87-1.44a.55.55,0,0,1-.55-.54.7.7,0,0,1,.18-.5l.57-.63a.6.6,0,0,1,.5-.23.56.56,0,0,1,.59.55.69.69,0,0,1-.19.49l-.59.61A.62.62,0,0,1,110.65,69.46Z"/><path id="_Trazado_compuesto_13" data-name="&lt;Trazado compuesto&gt;" class="cls-1" d="M121.38,76.62l2-5.63c.21-.59.54-.95,1.11-.95s.92.36,1.13.95l2,5.63a.89.89,0,0,1,.06.3.76.76,0,0,1-.79.76.77.77,0,0,1-.76-.57l-.31-.92h-2.69l-.29.92a.78.78,0,0,1-.77.57.76.76,0,0,1-.78-.76A.9.9,0,0,1,121.38,76.62Zm4-1.81-.87-2.62h0l-.87,2.62Z"/></g></g></g></g></svg>