<svg xmlns="http://www.w3.org/2000/svg" viewBox="0 0 141.17 81.73"><defs><style>.cls-1{fill:#6b6b6b;}</style></defs><title>clt_rawmi</title><g id="Capa_2" data-name="Capa 2"><g id="Capa_1-2" data-name="Capa 1"><path class="cls-1" d="M22.49,61.75a13.85,13.85,0,0,0-3.72.51,13.44,13.44,0,0,0-2.85,1.53l-.57.4v-.55c0-1-.49-1.7-1.14-1.7-.85,0-1.15,1.55-1.15,2.87v8.35c0,1.32.3,2.87,1.15,2.87,1.11,0,1.14-2.58,1.14-2.87V70.61a10.55,10.55,0,0,1,.55-3.51,5.63,5.63,0,0,1,1.6-1.9A11.15,11.15,0,0,1,19.68,64a11.26,11.26,0,0,1,3-.39c.73,0,2.44-.09,2.44-.94S23.48,61.75,22.49,61.75Z"/><path class="cls-1" d="M44.2,61.94A1.24,1.24,0,0,0,43,63.25v0a10,10,0,0,0-2.16-1,13.18,13.18,0,0,0-3.58-.51,13.37,13.37,0,0,0-3.59.51,13,13,0,0,0-2.85,1.53,7.82,7.82,0,0,0-2.16,2.6A7.61,7.61,0,0,0,28,69a7.66,7.66,0,0,0,.71,2.61,8,8,0,0,0,2.16,2.6,13.77,13.77,0,0,0,2.85,1.51,13.4,13.4,0,0,0,3.59.5,13.2,13.2,0,0,0,3.58-.5,10.74,10.74,0,0,0,2.16-1v0A1.24,1.24,0,0,0,44.2,76c.85,0,1.15-1.55,1.15-2.87V64.81C45.35,63.49,45.05,61.94,44.2,61.94ZM43,68v1.9a4.22,4.22,0,0,1-.93,2.88A11.06,11.06,0,0,1,40,74a9.64,9.64,0,0,1-5.36,0,11.15,11.15,0,0,1-2.18-1.18A5.32,5.32,0,0,1,30.3,69a6,6,0,0,1,.54-1.89,5.63,5.63,0,0,1,1.6-1.9A11.45,11.45,0,0,1,34.62,64,9.4,9.4,0,0,1,40,64a11.12,11.12,0,0,1,2.13,1.15A4.15,4.15,0,0,1,43,68Z"/><path class="cls-1" d="M74.39,62c-1-.17-2,2.14-2.08,2.41L69.67,71c-.19.49-.41.67-.5.67s-.31-.18-.5-.67l-2.58-6.49c-.17-.42-1-2.54-1.93-2.54s-1.76,2.12-1.93,2.54L59.64,71c-.19.49-.41.67-.5.67s-.31-.18-.51-.67L56,64.38C55.9,64.11,55,61.79,53.93,62a.63.63,0,0,0-.47.34c-.39.69.16,2.19.33,2.63l3.41,8.55c.17.43,1.06,2.54,1.94,2.54s1.76-2.11,1.93-2.54L63.66,67c.19-.49.4-.66.5-.66s.31.17.5.66l2.57,6.49c.17.43,1.06,2.54,1.94,2.54s1.76-2.11,1.93-2.54l3.41-8.55c.17-.44.72-1.94.34-2.63A.65.65,0,0,0,74.39,62Z"/><path class="cls-1" d="M107.23,62.29a13.52,13.52,0,0,0-3.68-.54,13.25,13.25,0,0,0-3.59.51,14.46,14.46,0,0,0-3,1.63,1.56,1.56,0,0,1-1.14.36.26.26,0,0,1-.19-.16,4.18,4.18,0,0,0-2.19-1.8,13.4,13.4,0,0,0-3.68-.54,13.25,13.25,0,0,0-3.59.51,13.3,13.3,0,0,0-2.8,1.49c-.32.23-.51.23-.56.2s-.06-.09-.06-.24c0-1-.49-1.77-1.15-1.77-.85,0-1.15,1.55-1.15,2.87v8.35c0,1.32.3,2.87,1.15,2.87s1.15-1.55,1.15-2.87V68.94a4.56,4.56,0,0,1,1.56-3.32A16,16,0,0,1,87.07,64a9.48,9.48,0,0,1,5.28,0,3,3,0,0,1,1.37,1.36,10.62,10.62,0,0,1,.52,3.46v4.35c0,1.32.3,2.87,1.15,2.87s1.16-1.55,1.16-2.87V68.94a4.56,4.56,0,0,1,1.56-3.32,16,16,0,0,1,2.76-1.6,9.48,9.48,0,0,1,5.28,0,3,3,0,0,1,1.37,1.36,10.57,10.57,0,0,1,.53,3.46v4.35c0,1.32.3,2.87,1.14,2.87s1.15-1.55,1.15-2.87v-4.5a12.29,12.29,0,0,0-.71-4.12A4.73,4.73,0,0,0,107.23,62.29Z"/><path class="cls-1" d="M120.49,56.14h0a2.49,2.49,0,0,0-2.77,0,1.41,1.41,0,0,0-.64,1.16,1.44,1.44,0,0,0,.64,1.16,2.37,2.37,0,0,0,1.38.42,2.4,2.4,0,0,0,1.39-.42,1.36,1.36,0,0,0,0-2.32ZM119,57.38a.09.09,0,0,1,0-.17.2.2,0,0,1,.23,0,.09.09,0,0,1,0,.17A.2.2,0,0,1,119,57.38Z"/><path class="cls-1" d="M119.1,61.94c-.85,0-1.15,1.55-1.15,2.87v8.35c0,1.32.3,2.87,1.15,2.87s1.15-1.55,1.15-2.87V64.81C120.25,63.49,120,61.94,119.1,61.94Z"/><path class="cls-1" d="M130.4,56.14h0a2.49,2.49,0,0,0-2.77,0,1.36,1.36,0,0,0,0,2.32,2.48,2.48,0,0,0,2.76,0,1.37,1.37,0,0,0,0-2.32Zm-1.27,1.24a.21.21,0,0,1-.24,0,.1.1,0,0,1,0-.17.21.21,0,0,1,.24,0A.09.09,0,0,1,129.13,57.38Z"/><path class="cls-1" d="M129,61.94c-.85,0-1.15,1.55-1.15,2.87v8.35c0,1.32.3,2.87,1.15,2.87s1.15-1.55,1.15-2.87V64.81C130.16,63.49,129.85,61.94,129,61.94Z"/><path class="cls-1" d="M141.17,81.73H0V49.51H141.17ZM1.29,80.44H139.88V50.8H1.29Z"/><path class="cls-1" d="M71.88,2.55h.19a1.22,1.22,0,0,0,1.15-1.27A1.22,1.22,0,0,0,72.07,0h-.19a1.22,1.22,0,0,0-1.15,1.28A1.22,1.22,0,0,0,71.88,2.55Z"/><path class="cls-1" d="M84.17,32.32h-.06A12.4,12.4,0,0,0,73.27,34.7V28.13a9.14,9.14,0,0,0,3.88.9,10,10,0,0,0,7.24-3.37l6.24-6.61L89,18.55a34.33,34.33,0,0,0-7.13-1.1V10.63l-1-.07A11.64,11.64,0,0,0,73.27,13V4.5H70.69V13a11.63,11.63,0,0,0-7.54-2.44l-1,.07v6.82A34,34,0,0,0,55,18.55l-1.68.5,6.23,6.61A10.05,10.05,0,0,0,66.82,29a9.09,9.09,0,0,0,3.87-.9v6.58a12.39,12.39,0,0,0-10.85-2.4h-.05c-.27.08-6.49,1.91-6.39,7,.08,4.76,5,6.53,8.14,6.53,0,0,4.12-.16,5.24-2.17l.14-.25-.1-5.6h-6.2V40h4.09l.05,2.82a6.92,6.92,0,0,1-3.22.9c-1.25,0-5.93-.75-6-4.42C55.49,36,60,34.51,60.36,34.4a10.43,10.43,0,0,1,10.33,3.26V49.82h2.58V37.64A10.57,10.57,0,0,1,83.6,34.4c.35.11,4.86,1.57,4.8,4.87-.06,3.67-4.74,4.42-6,4.42a6.92,6.92,0,0,1-3.22-.9l0-2.82h4.09V37.82h-6.2l-.1,5.6.14.25c1.12,2,5.2,2.17,5.24,2.17,3.1,0,8.06-1.77,8.15-6.53C90.65,34.23,84.43,32.4,84.17,32.32ZM64.3,19.86c2,.8,4.1,3.12,5.51,5-4.56-.8-5.41-4-5.51-4.53Zm22.28.35-3.77,4,0,0c-.15.18-3,3.43-7.1,2.48a8.21,8.21,0,0,0,6.13-6.13v-1A34.93,34.93,0,0,1,86.58,20.21ZM74.16,24.85c1.41-1.87,3.52-4.18,5.51-5v.45C79.56,20.85,78.71,24.05,74.16,24.85Zm5.51-12.14V17.6c-2.46.65-4.78,2.92-6.4,4.89v-6.7A11,11,0,0,1,79.67,12.71Zm-9,3.08v6.7c-1.61-2-3.93-4.24-6.39-4.89V12.71A11.08,11.08,0,0,1,70.69,15.79Zm-9.51,8.44-3.79-4a34.57,34.57,0,0,1,4.75-.6v.81l0,.16a8.2,8.2,0,0,0,6.11,6.13C64.23,27.63,61.33,24.4,61.18,24.23Z"/><path class="cls-1" d="M67.5,6.88h.18a1.22,1.22,0,0,0,1.16-1.27,1.22,1.22,0,0,0-1.16-1.28H67.5a1.22,1.22,0,0,0-1.15,1.28A1.21,1.21,0,0,0,67.5,6.88Z"/><path class="cls-1" d="M76.27,6.88h.18A1.21,1.21,0,0,0,77.6,5.61a1.22,1.22,0,0,0-1.15-1.28h-.18a1.22,1.22,0,0,0-1.16,1.28A1.22,1.22,0,0,0,76.27,6.88Z"/></g></g></svg>