<svg xmlns="http://www.w3.org/2000/svg" viewBox="0 0 67.38 67.38"><defs><style>.cls-1{fill:#ffed00;}</style></defs><title>ico_vinculo</title><g id="Capa_2" data-name="Capa 2"><g id="Capa_1-2" data-name="Capa 1"><circle class="cls-1" cx="33.69" cy="33.69" r="33.69"/><path d="M13.84,53.76c.92-2.73,1.67-5.3,2.66-7.77a5.82,5.82,0,0,0-.2-5.08,19.63,19.63,0,0,1,13.15-27A19.76,19.76,0,1,1,39.5,52.1a20.3,20.3,0,0,1-14.12-1.52,1.77,1.77,0,0,0-1.2-.08C20.8,51.53,17.43,52.62,13.84,53.76Zm4.93-4.83c2.08-.66,3.94-1.27,5.81-1.81a1.63,1.63,0,0,1,1.19.11,17.1,17.1,0,0,0,12.47,2,16.66,16.66,0,0,0-6-32.74A16.62,16.62,0,0,0,20.42,42a1.55,1.55,0,0,1,.2,1.52C20,45.26,19.43,47,18.77,48.93Z"/><path d="M24.76,28.55a5.51,5.51,0,0,1,1.43-3.69,3.07,3.07,0,0,1,2.5-.95,1.33,1.33,0,0,1,.95.71,27.14,27.14,0,0,1,1.63,3.91,2.12,2.12,0,0,1-.5,1.55c-1.17,1.56-1.19,1.53,0,3.15a13,13,0,0,0,5.7,4.41,1,1,0,0,0,1.36-.32c.4-.52.85-1,1.22-1.52a.88.88,0,0,1,1.26-.35c1.25.59,2.52,1.15,3.74,1.8a1.16,1.16,0,0,1,.49.87,4,4,0,0,1-3.62,4A8.54,8.54,0,0,1,38,41.92c-5.54-1.34-9.35-4.92-12.13-9.7a22.86,22.86,0,0,1-1.36-3.57Z"/></g></g></svg>