<svg xmlns="http://www.w3.org/2000/svg" viewBox="0 0 67.38 67.38"><defs><style>.cls-1{fill:#ffed00;}</style></defs><title>ico_asesoria</title><g id="Capa_2" data-name="Capa 2"><g id="Capa_1-2" data-name="Capa 1"><circle class="cls-1" cx="33.69" cy="33.69" r="33.69"/><path d="M56.73,37.08a4.37,4.37,0,0,1-4.19,2.54c-1.06.05-2.12,0-3.18,0a.74.74,0,0,1-.5-.14,8.38,8.38,0,0,0-6.25-2.93,10.93,10.93,0,0,0,1.83-7.7c.62.13,1.17.26,1.71.36,2.43.46,4.6-.34,6.7-1.41,1.47-.75,2.4-.48,3,1.07a21.45,21.45,0,0,1,.73,2.64l.12.53Z"/><path d="M33.7,58.15c-3.41,0-6.83,0-10.23,0a9.36,9.36,0,0,1-3.28-.62,5.11,5.11,0,0,1-3.3-4.63,21.81,21.81,0,0,1,1.24-9.4,12.54,12.54,0,0,1,1.54-2.77,6.22,6.22,0,0,1,5.23-2.58,3.33,3.33,0,0,1,1.43.6,33.94,33.94,0,0,0,3.64,2,10.55,10.55,0,0,0,9.93-1.16,9.58,9.58,0,0,0,1.18-.77A3.07,3.07,0,0,1,44,38.24,7,7,0,0,1,48.73,42a18.72,18.72,0,0,1,1.9,7.55c0,.69.06,1.39.07,2.08.09,3.91-2.36,6.45-6.28,6.49-1.8,0-3.6,0-5.39,0Z"/><path d="M33.84,39.63a9.18,9.18,0,0,1-9.33-9.13A9.25,9.25,0,1,1,43,30.28,9.19,9.19,0,0,1,33.84,39.63Z"/><path d="M23.06,28.84a10.83,10.83,0,0,0,1.82,7.64c-.22.05-.37.09-.52.11a8,8,0,0,0-5.43,2.63,1.2,1.2,0,0,1-1,.43,33.47,33.47,0,0,1-4.14-.23c-2.21-.4-3.16-1.71-3.13-3.94a18,18,0,0,1,.84-6.28,4.71,4.71,0,0,1,.7-1.21,1.55,1.55,0,0,1,2.12-.38c.94.45,1.88.89,2.86,1.25a8.25,8.25,0,0,0,5.06.19Z"/><path d="M19.88,27.3a6.16,6.16,0,1,1,6.17-6.17A6.12,6.12,0,0,1,19.88,27.3Z"/><path d="M41.48,21.13a6.16,6.16,0,1,1,6.05,6.17A6.11,6.11,0,0,1,41.48,21.13Z"/></g></g></svg>