<svg xmlns="http://www.w3.org/2000/svg" viewBox="0 0 101.99 101.61"><defs><style>.cls-1{fill:#fff;}</style></defs><title>ico_marketing</title><g id="Capa_2" data-name="Capa 2"><g id="Capa_1-2" data-name="Capa 1"><path class="cls-1" d="M3.28,10.27c0-.25,0-.5,0-.82H0C1.85,6.25,3.63,3.17,5.45,0l5.46,9.45H7.67c0,.29,0,.52,0,.75,0,1.67,0,56.68,0,81.11,0,1.69.73,2.43,2.43,2.44l7.92,0c.18,0,.36,0,.58,0V78.8c-.81-.07-1.59-.11-2.37-.21-1.64-.2-2.51-1.37-2.11-2.79a2.13,2.13,0,0,1,2.34-1.58,126.23,126.23,0,0,0,17.5.47c4.76-.2,9.5-.69,14.25-1,.39,0,2-.25,2.44-.33,2.4-.42,4.82-.78,7.22-1.27a90.56,90.56,0,0,0,18.48-5.74,59.13,59.13,0,0,0,14.17-8.66c.27-.22.52-.46.89-.78L87,55.67l15-8.25c-1.53,5.57-3,11-4.54,16.5l-2.4-4.35c-.15.11-.28.18-.4.28a56.3,56.3,0,0,1-9.63,7,1,1,0,0,0-.61,1q0,12.23,0,24.46a14.68,14.68,0,0,0,0,1.62h7.87V90.69l9.47,5.5-9.44,5.42V98.4l-.79,0L59,98.25q-19.17-.06-38.33-.12H18.1c-2.78,0-5.56,0-8.34,0a6.35,6.35,0,0,1-6.48-6.46ZM6.06,15,6,15l0,0,.12,0a.22.22,0,0,1,0,.06A.24.24,0,0,0,6.06,15Zm52.55,78.9h8.78V74.26l-.7.17c-2.47.6-4.93,1.23-7.41,1.79-.55.13-.69.35-.69.89q0,8,0,16ZM41.52,78.73l-5.81.33V93.78h5.81Z"/><path class="cls-1" d="M67.43,65c0-2.14-.07-26.89-.07-36.54a3.93,3.93,0,0,1,4.08-4.12h8.83a3.94,3.94,0,0,1,4.15,4.19q0,13.77,0,27.53a1.25,1.25,0,0,1-.62,1.19A65.39,65.39,0,0,1,67.9,64.84C67.75,64.89,67.59,64.91,67.43,65Z"/><path class="cls-1" d="M41.55,70V46.74a2.82,2.82,0,0,1,3.08-3.09H55.42a2.87,2.87,0,0,1,3.18,3.15c0,4,0,7.9,0,11.84,0,2.22,0,4.44,0,6.66,0,.53,0,1.06,0,1.59,0,.35,0,.57-.47.6s-1.93.3-2.15.34c-1.89.38-3.78.8-5.69,1.07C47.44,69.3,44.56,69.59,41.55,70Z"/><path class="cls-1" d="M35.67,70.21A140.8,140.8,0,0,1,18.61,70v-.71c0-1.92,0-3.83,0-5.74a3.32,3.32,0,0,1,3.49-3.47H32a3.36,3.36,0,0,1,3.7,3.68Z"/></g></g></svg>