<svg xmlns="http://www.w3.org/2000/svg" viewBox="0 0 95.01 104.41"><defs><style>.cls-1{fill:#fff;}</style></defs><title>ico_publicidad</title><g id="Capa_2" data-name="Capa 2"><g id="Capa_1-2" data-name="Capa 1"><path class="cls-1" d="M92.27,0C94.42,1.28,95,3.2,95,5.64q-.08,36.87,0,73.73a11.11,11.11,0,0,1-.09,2.08,3.82,3.82,0,0,1-3.56,3.41c-1.91.17-3.11-.92-4-2.58a6.12,6.12,0,0,0-2.08-2.44Q70.06,71,54.73,62.36a3.52,3.52,0,0,1-2-3.62q.12-16.23,0-32.46a3.7,3.7,0,0,1,2.14-3.81C64.92,16.83,75,11.05,84.94,5.23c1-.58,1.62-1.79,2.46-2.68S89.1.85,90,0Z"/><path class="cls-1" d="M35.66,104.41c-.54-1.89-1.24-3.75-1.59-5.67-2-10.91-3.89-21.83-5.82-32.75a12.25,12.25,0,0,1-.06-1.34H43.74a11,11,0,0,1,.31,1.44c.21,2.46.64,4.59,4,4,.39-.07,1.43,1.08,1.46,1.71a49.66,49.66,0,0,1,0,8.09c-.1.89-1.35,1.66-2.49,3C47.76,87,48.61,92,49.61,96.93c.14.73.94,1.37,1.53,2,.85.84,2.39,1.53,2.5,2.43s-1.11,2-1.74,3.08Z"/><path class="cls-1" d="M15.39,55.59h-5c-3.68,0-3.88-.16-4.57-3.67a2,2,0,0,0-.43-.15C0,51.35,0,51.35,0,46V37.18c0-3.47.53-4,4.05-4h1.7c.66-6.68,6.06-2.61,9.12-4.27.18-.82.11-2.46.68-2.72,2.22-1,4.62-2.22,7-2.29,8.79-.26,17.6-.11,26.59-.11V61.16H46.33c-6.65,0-13.3.12-19.95-.06a40.92,40.92,0,0,1-8.12-1.31C16.35,59.35,14,59,15.39,55.59Z"/></g></g></svg>