<svg xmlns="http://www.w3.org/2000/svg" viewBox="0 0 67.38 67.38"><defs><style>.cls-1{fill:#ffed00;}</style></defs><title>ico_responsive</title><g id="Capa_2" data-name="Capa 2"><g id="Capa_1-2" data-name="Capa 1"><circle class="cls-1" cx="33.69" cy="33.69" r="33.69"/><path d="M45.62,34.53V52.91a2.56,2.56,0,0,1-2.86,2.85H24.58a2.61,2.61,0,0,1-2.85-2.83V16.1a2.63,2.63,0,0,1,2.92-3c6,0,12,0,18.05,0a2.82,2.82,0,0,1,2.95,2.95C45.58,22.23,45.62,28.38,45.62,34.53Zm-1.2-2h0V19.14c0-1.33-.54-1.88-1.87-1.89-5.93,0-11.85,0-17.78,0A1.6,1.6,0,0,0,23,19.06V45.9c0,1.24.56,1.79,1.81,1.79,5.88,0,11.77,0,17.65,0a1.8,1.8,0,0,0,2-2.08C44.38,41.26,44.42,36.87,44.42,32.49ZM31.25,51.6A2.41,2.41,0,0,0,33.66,54a2.44,2.44,0,0,0,2.46-2.47,2.44,2.44,0,1,0-4.87,0ZM33.68,16h0c1.46,0,2.91,0,4.36,0,.18,0,.35-.18.53-.28-.18-.12-.35-.36-.53-.36q-4.32,0-8.64,0c-.2,0-.4.24-.6.37a1.85,1.85,0,0,0,.59.28C30.82,16.05,32.25,16,33.68,16Z"/></g></g></svg>