<svg xmlns="http://www.w3.org/2000/svg" viewBox="0 0 67.38 67.38"><defs><style>.cls-1{fill:#ffed00;}</style></defs><title>ico_manejo</title><g id="Capa_2" data-name="Capa 2"><g id="Capa_1-2" data-name="Capa 1"><circle class="cls-1" cx="33.69" cy="33.69" r="33.69"/><path d="M54.33,46.15a1.85,1.85,0,0,1-1.68.69c-6.53,0-13.07,0-19.6,0a2.13,2.13,0,0,0-1.69.67c-2.1,2.13-4.25,4.2-6.37,6.32-.47.46-1,.87-1.6.5a2,2,0,0,1-.54-1.42c-.06-2,0-4,0-6.06H21.05c-2.14,0-4.28,0-6.41,0a5,5,0,0,1-1.59-.65V19.37a1.53,1.53,0,0,1,1.53-.76q19.11,0,38.22,0a1.54,1.54,0,0,1,1.53.76Zm-39-25.34V44.68H23.6c1,0,1.37.36,1.38,1.37,0,.34,0,.67,0,1v3.5l.38.22c1.72-1.81,3.41-3.66,5.18-5.43a2.6,2.6,0,0,1,1.6-.65c6.32,0,12.65,0,19,0h1V20.81Z"/><path d="M33.68,28.37c-3.85,0-7.7,0-11.55,0-.59,0-1.12-.06-1.37-.68a1,1,0,0,1,.75-1.42,3.91,3.91,0,0,1,.91-.05H45c.31,0,.7-.08.89.07.34.27.75.69.76,1.06s-.44.71-.77,1c-.17.13-.53,0-.8,0Z"/><path d="M33.69,31.65c3.85,0,7.7,0,11.55,0a1.87,1.87,0,0,1,1.31.58,1,1,0,0,1-.68,1.48,3.86,3.86,0,0,1-.9.07H22.41c-.31,0-.7.08-.89-.08s-.78-.7-.76-1,.49-.72.84-1c.15-.12.47,0,.72,0Z"/><path d="M30.33,39.21c-2.74,0-5.49,0-8.24,0-.76,0-1.37-.17-1.38-1.06s.63-1.07,1.37-1.07H38.66c.74,0,1.36.15,1.39,1.06,0,.72-.42,1.06-1.38,1.06Z"/></g></g></svg>