<svg xmlns="http://www.w3.org/2000/svg" viewBox="0 0 67.38 67.38"><defs><style>.cls-1{fill:#ffed00;}</style></defs><title>ico_seo</title><g id="Capa_2" data-name="Capa 2"><g id="Capa_1-2" data-name="Capa 1"><circle class="cls-1" cx="33.69" cy="33.69" r="33.69"/><path d="M44.41,37.09a2.81,2.81,0,0,1,.32,3.43l.57.51,7.91,6.79c.7.61,1.38,1.22,2.1,1.8a1.53,1.53,0,0,1,.56,1.48A5.48,5.48,0,0,1,54.55,54a6.53,6.53,0,0,1-3.39,2.29,3.16,3.16,0,0,1-.75.11,1.47,1.47,0,0,1-1.26-.57q-4.49-5.23-9-10.47L40,45.19a2.74,2.74,0,0,1-1.89.42,2.6,2.6,0,0,1-1.4-.63.2.2,0,0,0-.27,0,17.39,17.39,0,0,1-23.73-9.12,17,17,0,0,1-1.14-4.54,16.79,16.79,0,0,1,0-3.75A17.22,17.22,0,0,1,23.34,12.9a17,17,0,0,1,6.12-.9,17.28,17.28,0,0,1,14,8,17,17,0,0,1,2.65,7.53A17.26,17.26,0,0,1,44.44,37Zm-.56-7.74a15,15,0,1,0-15.07,15A15,15,0,0,0,43.85,29.35Z"/><path d="M18.77,36.57V34.2h1.52V27.93H25v6.25h1.56v-9.6h4.71v9.6h1.57V20.84h4.72V34.19h1.53v2.38Z"/></g></g></svg>