<svg xmlns="http://www.w3.org/2000/svg" viewBox="0 0 99.67 93.91"><defs><style>.cls-1{fill:#fff;}</style></defs><title>ico_redesweb</title><g id="Capa_2" data-name="Capa 2"><g id="Capa_1-2" data-name="Capa 1"><path class="cls-1" d="M99.67,22.81,93.26,20V19c0-3.48,0-7,0-10.44,0-1.42-.45-1.86-1.86-1.94-.35,0-.7,0-1,0H9.6a3.81,3.81,0,0,0-1.67.13,3.46,3.46,0,0,0-1.2,1.31c-.15.26,0,.68,0,1V63.75c0,2.3.22,2.53,2.54,2.53H43.08v1.64c0,5.83,0,11.65,0,17.48a14.14,14.14,0,0,0,2.18,7.65,4.62,4.62,0,0,1,.27.67,3.74,3.74,0,0,1-.77.19c-4.39,0-8.78,0-13.18,0a4.52,4.52,0,0,1-4.31-2.84,4.76,4.76,0,0,1,.59-5.16A4.54,4.54,0,0,1,31.54,84c1.21,0,2.43,0,3.65,0,.78,0,1.08-.31,1.08-1.09,0-3,0-5.91,0-8.87,0-1.13-.66-1.1-1.44-1.1H9.52c-5.15,0-7.4-1.53-9.28-6.29a1.32,1.32,0,0,0-.24-.3v-60a2.16,2.16,0,0,0,.36-.51C1.7,2,4.39,0,8.33,0Q50,0,91.64,0a9.06,9.06,0,0,1,2.43.32,8.39,8.39,0,0,1,5.6,5.52Z"/><path class="cls-1" d="M99.67,50.72l-6.36-1.28c0-.18,0-.64,0-1.11q0-6.12,0-12.26c0-1.77-.56-2.38-2.33-2.39H58.83c-1.86,0-2.39.59-2.39,2.45q0,22,0,44.08c0,1.29.4,1.6,1.63,1.58,3.91-.07,7.83,0,11.74-.05,1,0,1.43.29,1.33,1.33a20.34,20.34,0,0,0,0,2.21c0,2.77-.34,5.59,1.46,8.28-.63.07-1,.14-1.34.14-4.13,0-8.26,0-12.39,0-5.57,0-9.07-3.6-9.07-9.19,0-16.22,0-32.43,0-48.65a8.72,8.72,0,0,1,8.67-8.78q15.92.17,31.83,0C94.91,27,98,28.9,99.67,33.24Z"/><path class="cls-1" d="M99.67,90.64c-1.18,1.9-2.9,2.47-5.09,2.42-4.82-.11-9.65-.13-14.47,0a4.38,4.38,0,0,1-4.74-4.72c.1-10,0-19.9,0-29.85,0-2.79,1.49-4.41,4.3-4.45,5.3-.06,10.6,0,15.9,0a4.86,4.86,0,0,1,4,2.44ZM95,72.39c0-4,0-8.08,0-12.12,0-1-.32-1.3-1.27-1.3-4,0-8.08,0-12.12,0-1,0-1.29.32-1.28,1.29q0,12,0,24.11c0,.94.28,1.3,1.26,1.29q6-.06,12,0c1.07,0,1.44-.33,1.43-1.42C95,80.29,95,76.34,95,72.39ZM89.35,89.33a1.61,1.61,0,0,0-1.64-1.77,1.84,1.84,0,0,0-1.89,1.72,2,2,0,0,0,1.83,1.83A1.78,1.78,0,0,0,89.35,89.33Z"/></g></g></svg>