<?xml version="1.0" encoding="utf-8"?>
<!-- Generator: Adobe Illustrator 22.1.0, SVG Export Plug-In . SVG Version: 6.00 Build 0)  -->
<svg version="1.1" id="Capa_1" xmlns="http://www.w3.org/2000/svg" xmlns:xlink="http://www.w3.org/1999/xlink" x="0px" y="0px"
	 viewBox="0 0 265.7 102" style="enable-background:new 0 0 265.7 102;" xml:space="preserve">
<style type="text/css">
	.st0{fill:#FFFFFF;}
	.st1{fill:#0091CB;}
	.st2{fill:#8FC40C;}
	.st3{fill:#C81A77;}
	.st4{fill:url(#SVGID_1_);}
</style>
<title>logo_mejia</title>
<g id="Capa_2_1_">
	<g id="Capa_1-2">
		<path class="st0" d="M10.2,94.4c-0.8,0.7-1.6,1.2-2.6,1.6c-0.9,0.3-1.8,0.5-2.7,0.5c-1.3,0.1-2.6-0.3-3.6-1.2
			c-0.8-0.8-1.3-1.9-1.3-3C0,91,0.6,89.7,1.7,89c0.5-0.4,1.1-0.6,1.8-0.8c0.7-0.2,1.4-0.3,2.2-0.4c1.5-0.1,2.9-0.4,4.4-0.8
			c0-0.3,0-0.5,0-0.6c0.1-0.8-0.2-1.5-0.7-2.1c-0.8-0.6-1.8-0.9-2.8-0.8c-0.9-0.1-1.8,0.1-2.5,0.6c-0.6,0.6-1.1,1.3-1.2,2.1
			l-2.4-0.3c0.2-0.9,0.5-1.7,1.1-2.5c0.6-0.7,1.3-1.2,2.2-1.4c1-0.4,2.2-0.5,3.3-0.5c1,0,2,0.1,3,0.4c0.6,0.2,1.2,0.6,1.7,1.1
			c0.4,0.5,0.6,1.1,0.8,1.7c0.1,0.7,0.1,1.5,0.1,2.3v3.2c0,1.4,0,2.9,0.1,4.3c0.1,0.6,0.3,1.2,0.6,1.7h-2.5
			C10.4,95.6,10.3,95,10.2,94.4z M10,89c-1.3,0.5-2.6,0.8-4,0.9c-0.7,0.1-1.4,0.2-2.1,0.5c-1.1,0.5-1.6,1.7-1.1,2.8
			c0.1,0.3,0.3,0.6,0.6,0.8c0.6,0.5,1.4,0.7,2.2,0.7c0.9,0,1.8-0.2,2.5-0.6c0.7-0.4,1.3-1,1.6-1.7c0.3-0.8,0.4-1.6,0.4-2.4V89z"/>
		<path class="st0" d="M15.8,97.4l2.4,0.3c0,0.6,0.3,1.2,0.8,1.6c0.7,0.5,1.6,0.7,2.5,0.7c0.9,0.1,1.8-0.2,2.6-0.7
			c0.6-0.5,1.1-1.1,1.2-1.9c0.2-1,0.2-2.1,0.2-3.1c-1,1.2-2.4,1.9-4,1.9c-1.8,0.1-3.5-0.7-4.6-2.2c-1.1-1.5-1.7-3.3-1.6-5.1
			c0-1.3,0.2-2.6,0.7-3.8c0.4-1.1,1.2-2,2.2-2.7c1-0.7,2.1-1,3.3-1c1.6,0,3.2,0.7,4.2,2.1v-1.6H28v12.4c0.1,1.6-0.2,3.3-0.7,4.8
			c-0.5,0.9-1.2,1.7-2.2,2.2c-1.1,0.6-2.4,0.9-3.6,0.8c-1.5,0.1-2.9-0.3-4.1-1.2C16.2,100,15.7,98.7,15.8,97.4z M17.8,88.7
			c-0.1,1.5,0.3,2.9,1.1,4.1c1.3,1.6,3.7,1.7,5.2,0.4c0.1-0.1,0.3-0.3,0.4-0.4c0.9-1.2,1.3-2.6,1.1-4.1c0.1-1.4-0.3-2.9-1.2-4
			c-0.7-0.8-1.7-1.3-2.8-1.3c-1.1,0-2.1,0.5-2.8,1.3C18.1,85.9,17.7,87.3,17.8,88.7L17.8,88.7z"/>
		<path class="st0" d="M41.5,91.6l2.5,0.3c-0.3,1.4-1.1,2.6-2.2,3.4c-1.2,0.8-2.6,1.3-4.1,1.2c-1.9,0.1-3.7-0.6-5-2
			c-1.3-1.5-2-3.5-1.9-5.4c-0.1-2,0.5-4.1,1.9-5.6c1.2-1.3,3-2.1,4.8-2c1.8,0,3.5,0.7,4.7,2c1.3,1.5,2,3.5,1.8,5.6
			c0,0.2,0,0.4,0,0.7H33.3c0,1.3,0.5,2.6,1.3,3.6c0.8,0.8,1.9,1.3,3,1.3c0.8,0,1.6-0.2,2.3-0.7C40.7,93.2,41.2,92.4,41.5,91.6z
			 M33.5,87.6h8c0-1-0.3-1.9-0.9-2.7c-0.7-0.9-1.8-1.4-3-1.4c-1.1,0-2.1,0.4-2.8,1.1C33.9,85.4,33.5,86.5,33.5,87.6L33.5,87.6z"/>
		<path class="st0" d="M47,96.2V81.8h2.2v2c1-1.5,2.7-2.5,4.6-2.4c0.8,0,1.6,0.2,2.4,0.6c0.6,0.3,1.2,0.7,1.6,1.2
			c0.4,0.5,0.6,1.2,0.8,1.8c0.1,0.8,0.2,1.6,0.1,2.4v8.8h-2.4v-8.8c0-0.8-0.1-1.5-0.3-2.2c-0.2-0.5-0.5-0.9-1-1.2
			c-0.5-0.3-1.1-0.5-1.7-0.4c-1,0-1.9,0.3-2.7,1c-0.8,0.7-1.1,1.9-1.1,3.8v7.8L47,96.2z"/>
		<path class="st0" d="M71.8,90.9l2.4,0.3c-0.2,1.5-0.9,2.9-2,3.9c-1.1,0.9-2.5,1.4-4,1.4c-1.8,0.1-3.5-0.6-4.8-1.9
			C62.2,93,61.6,91,61.7,89c0-1.4,0.2-2.7,0.8-4c0.5-1.1,1.3-2,2.4-2.6c1-0.6,2.2-0.9,3.4-0.9c1.4-0.1,2.7,0.4,3.8,1.2
			c1,0.8,1.7,2,1.9,3.3l-2.4,0.4c-0.2-0.8-0.6-1.6-1.2-2.2c-0.6-0.5-1.3-0.7-2.1-0.7c-1.1,0-2.3,0.4-3,1.3c-0.9,1.2-1.3,2.7-1.2,4.2
			c-0.1,1.5,0.3,3,1.1,4.2c0.7,0.9,1.8,1.3,2.9,1.3c0.9,0,1.7-0.3,2.4-0.9C71.3,92.9,71.8,91.9,71.8,90.9z"/>
		<path class="st0" d="M76.3,79.1v-2.8h2.4v2.8H76.3z M76.3,96.1V81.8h2.4v14.4L76.3,96.1z"/>
		<path class="st0" d="M91.8,94.4c-0.8,0.7-1.7,1.2-2.6,1.6c-0.9,0.3-1.8,0.5-2.7,0.5c-1.3,0.1-2.6-0.3-3.6-1.2
			c-0.8-0.8-1.3-1.9-1.3-3c0-1.3,0.6-2.6,1.7-3.3c0.5-0.4,1.1-0.6,1.8-0.8c0.7-0.2,1.4-0.3,2.2-0.4c1.5-0.1,2.9-0.4,4.3-0.8
			c0-0.3,0-0.5,0-0.6c0.1-0.8-0.2-1.5-0.7-2.1c-0.8-0.6-1.8-0.9-2.8-0.8c-0.9-0.1-1.8,0.1-2.5,0.6c-0.6,0.5-1.1,1.3-1.2,2.1L82,85.8
			c0.2-0.9,0.5-1.7,1.1-2.5c0.6-0.7,1.3-1.1,2.2-1.4c1-0.4,2.2-0.5,3.3-0.5c1,0,2,0.1,3,0.4c0.6,0.2,1.2,0.6,1.7,1.1
			c0.4,0.5,0.7,1.1,0.8,1.7c0.1,0.7,0.1,1.5,0.1,2.3v3.2c0,1.4,0,2.9,0.2,4.3c0.1,0.6,0.3,1.2,0.6,1.7h-2.6
			C92.1,95.6,91.9,95,91.8,94.4z M91.6,89c-1.3,0.5-2.6,0.8-4,0.9c-0.7,0.1-1.4,0.2-2.1,0.5c-0.8,0.3-1.3,1.1-1.3,1.9
			c0,0.6,0.3,1.2,0.8,1.6c0.6,0.5,1.4,0.7,2.2,0.7c0.9,0,1.7-0.2,2.5-0.6c0.7-0.4,1.3-1,1.6-1.7c0.3-0.8,0.4-1.6,0.4-2.4L91.6,89z"
			/>
		<path class="st0" d="M114.9,96.2v-1.8c-0.8,1.4-2.4,2.2-4,2.1c-1.1,0-2.2-0.4-3.2-1c-1-0.7-1.8-1.6-2.2-2.6
			c-0.5-1.2-0.8-2.6-0.8-3.9c0-1.3,0.2-2.7,0.7-3.9c0.8-2.2,3-3.7,5.4-3.6c1.6,0,3.1,0.7,4,2v-7.1h2.4v19.8H114.9z M107.2,89
			c-0.1,1.5,0.3,2.9,1.2,4.1c0.7,0.9,1.7,1.4,2.8,1.4c1.1,0,2.1-0.5,2.7-1.3c0.8-1.2,1.2-2.6,1.1-4c0.1-1.5-0.3-3.1-1.1-4.3
			c-0.7-0.9-1.7-1.4-2.8-1.4c-1.1,0-2.1,0.5-2.7,1.3C107.5,86,107.1,87.5,107.2,89z"/>
		<path class="st0" d="M130.8,91.6l2.5,0.3c-0.3,1.4-1.1,2.6-2.2,3.4c-2.8,1.9-6.6,1.6-9.1-0.7c-1.3-1.5-2-3.5-1.8-5.4
			c-0.1-2,0.5-4.1,1.8-5.6c1.2-1.3,3-2.1,4.8-2c1.8,0,3.5,0.7,4.7,2c1.3,1.5,2,3.5,1.9,5.5c0,0.2,0,0.4,0,0.7h-10.7
			c0,1.3,0.5,2.6,1.3,3.6c0.8,0.8,1.9,1.3,3,1.3c0.8,0,1.6-0.2,2.3-0.7C130,93.2,130.5,92.4,130.8,91.6z M122.8,87.6h8
			c0-1-0.4-1.9-0.9-2.7c-0.7-0.9-1.8-1.4-3-1.4c-1.1,0-2.1,0.4-2.8,1.1C123.3,85.4,122.8,86.5,122.8,87.6z"/>
		<path class="st0" d="M144.1,101.7V81.8h2.2v1.9c0.5-0.7,1.1-1.3,1.8-1.7c0.7-0.4,1.6-0.6,2.4-0.6c2.4-0.1,4.5,1.4,5.4,3.6
			c0.5,1.2,0.7,2.5,0.7,3.8c0,1.4-0.2,2.7-0.8,4c-0.9,2.2-3.1,3.6-5.5,3.7c-0.8,0-1.5-0.2-2.2-0.5c-0.6-0.3-1.2-0.8-1.6-1.3v7
			L144.1,101.7z M146.3,89.1c-0.1,1.5,0.3,2.9,1.1,4.1c0.7,0.8,1.7,1.3,2.7,1.3c1.1,0,2.1-0.5,2.8-1.4c0.9-1.2,1.3-2.7,1.1-4.3
			c0.1-1.5-0.3-2.9-1.1-4.1c-0.6-0.9-1.6-1.4-2.7-1.4c-1.1,0-2.1,0.6-2.8,1.4C146.6,86.1,146.2,87.6,146.3,89.1z"/>
		<path class="st0" d="M168.9,96.2v-2.1c-1,1.6-2.7,2.5-4.6,2.4c-0.8,0-1.6-0.2-2.3-0.5c-0.6-0.3-1.2-0.7-1.6-1.2
			c-0.4-0.5-0.6-1.2-0.8-1.8c-0.1-0.8-0.2-1.5-0.1-2.3v-8.9h2.4v8c0,0.9,0,1.7,0.1,2.6c0.1,0.6,0.5,1.2,1,1.5
			c0.5,0.4,1.2,0.6,1.8,0.6c0.7,0,1.4-0.2,2.1-0.6c0.6-0.3,1.1-0.9,1.4-1.5c0.3-0.9,0.4-1.9,0.4-2.8v-7.7h2.4v14.4H168.9z"/>
		<path class="st0" d="M177.1,96.2h-2.3V76.3h2.4v7.1c0.9-1.2,2.4-2,3.9-1.9c0.9,0,1.7,0.2,2.5,0.5c0.8,0.3,1.5,0.8,2,1.5
			c0.5,0.7,0.9,1.5,1.2,2.3c0.3,0.9,0.4,1.9,0.4,2.9c0.1,2.1-0.5,4.1-1.8,5.7c-1.1,1.3-2.7,2-4.4,2c-1.6,0-3.1-0.8-4-2.1L177.1,96.2
			z M177.1,88.9c-0.1,1.3,0.2,2.6,0.7,3.7c0.6,1.2,1.8,1.9,3.1,1.9c1.1,0,2.1-0.5,2.8-1.4c0.8-1.2,1.2-2.7,1.1-4.1
			c0.1-1.5-0.3-2.9-1.1-4.2c-0.6-0.9-1.7-1.4-2.7-1.4c-1.1,0-2.1,0.5-2.8,1.4C177.4,86,177,87.5,177.1,88.9L177.1,88.9z"/>
		<path class="st0" d="M190.3,96.2V76.3h2.4v19.8H190.3z"/>
		<path class="st0" d="M196.5,79.1v-2.8h2.4v2.8H196.5z M196.5,96.1V81.8h2.4v14.4L196.5,96.1z"/>
		<path class="st0" d="M212,90.9l2.4,0.3c-0.2,1.5-0.9,2.9-2,3.9c-1.1,0.9-2.5,1.4-4,1.4c-1.8,0.1-3.5-0.6-4.7-1.9
			c-1.3-1.6-1.9-3.6-1.8-5.6c0-1.4,0.2-2.8,0.8-4.1c0.5-1.1,1.3-2,2.4-2.6c1-0.6,2.2-0.9,3.4-0.9c1.4-0.1,2.7,0.4,3.8,1.2
			c1,0.8,1.7,2,1.9,3.3l-2.4,0.4c-0.2-0.8-0.6-1.6-1.2-2.2c-0.6-0.5-1.3-0.7-2.1-0.7c-1.1,0-2.3,0.4-3,1.3c-0.9,1.2-1.3,2.7-1.1,4.2
			c-0.1,1.5,0.3,3,1.1,4.2c0.7,0.9,1.8,1.3,2.9,1.3c0.9,0,1.7-0.3,2.4-0.9C211.5,92.9,211.9,91.9,212,90.9z"/>
		<path class="st0" d="M216.5,79.1v-2.8h2.4v2.8H216.5z M216.5,96.1V81.8h2.4v14.4L216.5,96.1z"/>
		<path class="st0" d="M231.9,96.2v-1.8c-0.8,1.4-2.4,2.2-4,2.1c-1.1,0-2.2-0.4-3.2-1c-1-0.7-1.8-1.6-2.2-2.6
			c-0.5-1.2-0.8-2.6-0.8-3.9c0-1.3,0.2-2.7,0.7-3.9c0.4-1.1,1.2-2,2.1-2.7c1-0.6,2.1-0.9,3.2-0.9c0.8,0,1.6,0.2,2.3,0.6
			c0.7,0.3,1.2,0.8,1.6,1.4v-7.1h2.4v19.8H231.9z M224.2,89c-0.1,1.5,0.3,2.9,1.2,4.1c0.7,0.8,1.7,1.4,2.8,1.4
			c1.1,0,2.1-0.5,2.7-1.3c0.8-1.2,1.2-2.6,1.1-4c0.1-1.5-0.3-3.1-1.1-4.3c-0.7-0.9-1.7-1.4-2.8-1.4c-1.1,0-2.1,0.5-2.7,1.3
			C224.5,86.1,224.1,87.5,224.2,89z"/>
		<path class="st0" d="M247.4,94.4c-0.8,0.7-1.6,1.2-2.6,1.6c-0.9,0.3-1.8,0.5-2.7,0.5c-1.3,0.1-2.6-0.3-3.6-1.2
			c-0.8-0.8-1.3-1.9-1.3-3c0-1.3,0.6-2.6,1.7-3.3c0.5-0.4,1.1-0.6,1.8-0.8c0.7-0.2,1.4-0.3,2.2-0.4c1.5-0.1,2.9-0.4,4.4-0.8
			c0-0.3,0-0.5,0-0.6c0.1-0.8-0.2-1.5-0.7-2.1c-0.8-0.6-1.8-0.9-2.8-0.8c-0.9-0.1-1.8,0.1-2.5,0.6c-0.6,0.6-1.1,1.3-1.2,2.2
			l-2.4-0.3c0.2-0.9,0.5-1.7,1.1-2.5c0.6-0.7,1.3-1.2,2.1-1.4c1-0.4,2.2-0.5,3.3-0.5c1,0,2,0.1,3,0.4c0.6,0.2,1.2,0.6,1.7,1.1
			c0.4,0.5,0.6,1.1,0.8,1.7c0.1,0.7,0.1,1.5,0.1,2.3v3.2c0,1.4,0,2.9,0.1,4.3c0.1,0.6,0.3,1.2,0.6,1.7h-2.5
			C247.6,95.6,247.5,95,247.4,94.4z M247.2,89c-1.3,0.5-2.6,0.8-4,0.9c-0.7,0.1-1.4,0.2-2.1,0.5c-1.1,0.5-1.6,1.7-1.1,2.8
			c0.1,0.3,0.3,0.6,0.6,0.8c0.6,0.5,1.4,0.7,2.1,0.7c0.9,0,1.8-0.2,2.5-0.6c0.7-0.4,1.3-1,1.6-1.7c0.3-0.8,0.4-1.6,0.4-2.4V89z"/>
		<path class="st0" d="M262.8,96.2v-1.8c-0.8,1.4-2.4,2.2-4,2.1c-1.1,0-2.2-0.4-3.2-1c-1-0.6-1.8-1.6-2.2-2.6
			c-0.6-1.2-0.8-2.6-0.8-3.9c0-1.3,0.2-2.7,0.7-3.9c0.8-2.2,3-3.7,5.4-3.6c0.8,0,1.6,0.2,2.3,0.6c0.7,0.3,1.2,0.8,1.6,1.4v-7.1h2.4
			v19.8H262.8z M255.1,89c-0.1,1.5,0.3,2.9,1.2,4.1c0.7,0.9,1.7,1.4,2.8,1.4c1.1,0,2.1-0.5,2.7-1.3c0.8-1.2,1.2-2.6,1.1-4
			c0.1-1.5-0.3-3.1-1.1-4.3c-0.7-0.9-1.7-1.4-2.8-1.4c-1.1,0-2.1,0.5-2.7,1.3C255.3,86,254.9,87.5,255.1,89z"/>
		<path class="st0" d="M64.9,44.3c0-7.6,2.5-15,7.1-21V8.4c0-0.1,0-0.1,0-0.2s0-0.3,0-0.4s0-0.3,0-0.4s0-0.2,0-0.3S72,6.8,71.9,6.6
			s0-0.1,0-0.2c0-0.2-0.1-0.4-0.2-0.5l-0.1-0.2c-0.1-0.2-0.1-0.4-0.2-0.5c-0.1,0-0.2-0.1-0.2-0.2L71,4.5l-0.1-0.2
			c-0.1-0.1-0.2-0.3-0.3-0.4c-0.1-0.1-0.1-0.2-0.2-0.2c-0.1-0.1-0.2-0.2-0.3-0.3L70,3.1l-0.3-0.3c-0.1-0.1-0.2-0.2-0.2-0.2
			c-0.1-0.1-0.2-0.2-0.3-0.3l-0.2-0.2c-0.1-0.1-0.3-0.2-0.4-0.3l-0.2-0.1c-0.2-0.1-0.3-0.2-0.5-0.3h-0.1h-0.1
			c-0.2-0.1-0.4-0.2-0.6-0.3c-0.1,0-0.1-0.1-0.2-0.1c-0.2,0-0.3,0-0.5-0.1L66,0.8l-0.4-0.1l-0.4-0.1h-0.4h-0.4h-0.4h-0.4h-0.4
			L63,0.7c-0.2,0-0.3,0.1-0.5,0.1c-0.1,0-0.2,0-0.3,0.1L61.8,1l-0.2,0.1l-0.5,0.2l-0.3,0.1l-0.4,0.2l-0.3,0.2L59.8,2
			c-0.1,0.1-0.2,0.2-0.3,0.2c-0.1,0.1-0.2,0.1-0.3,0.2l-0.3,0.3L58.7,3l-0.3,0.3l-0.2,0.2L58,3.9l-0.2,0.3l-0.2,0.3
			c-0.1,0.1-0.2,0.3-0.2,0.4S57.3,5,57.3,5L37,47.4L16.7,5l-0.1-0.2l-0.2-0.4c-0.1-0.1-0.1-0.2-0.2-0.3L16,3.9l-0.3-0.3l-0.2-0.2
			L15.3,3l-0.2-0.2l-0.3-0.3l-0.3-0.2L14.1,2c-0.1-0.1-0.2-0.1-0.3-0.2l-0.3-0.2l-0.4-0.2l-0.3-0.1c-0.1-0.1-0.3-0.1-0.4-0.2L12.2,1
			l-0.5-0.1c-0.1,0-0.2-0.1-0.3-0.1c-0.2,0-0.3-0.1-0.5-0.1l-0.3-0.1h-0.4L9.9,0.6H9.5H9.1H8.8L8.4,0.7L8,0.8L7.7,0.9L7.2,1.1L7,1.1
			C6.8,1.2,6.7,1.3,6.5,1.4H6.4L6.3,1.4C6.1,1.5,6,1.6,5.8,1.7L5.6,1.8L5.2,2.1L5,2.3C4.8,2.3,4.7,2.4,4.6,2.5
			C4.5,2.6,4.4,2.7,4.4,2.8L4.1,3.1L3.9,3.3L3.6,3.6L3.4,3.9C3.3,4,3.2,4.2,3.1,4.3c0,0.1-0.1,0.1-0.1,0.2C2.9,4.7,2.8,4.8,2.8,5
			L2.7,5.2C2.6,5.3,2.5,5.5,2.5,5.7L2.4,5.9C2.3,6,2.3,6.2,2.2,6.4c0,0.1,0,0.1,0,0.2c0,0.2-0.1,0.3-0.1,0.5c0,0.1,0,0.2,0,0.3
			s0,0.3,0,0.4s0,0.3,0,0.4s0,0.1,0,0.2v56.8c0.2,4.3,3.7,7.6,8,7.5c4.1-0.1,7.3-3.4,7.5-7.5V42.4l12.5,26c1.9,3.9,6.7,5.5,10.6,3.6
			c1.5-0.8,2.8-2,3.6-3.6l12.5-26v22.7c0.6,4.2,4.6,7.1,8.8,6.5c3.3-0.5,5.9-3.1,6.5-6.4C67.4,59.2,64.9,51.9,64.9,44.3z"/>
		<path class="st0" d="M258.3,14.3c-3.7,0-6.9,2.8-7.4,6.5c-12.9-9.3-30.9-6.4-40.2,6.5s-6.4,30.9,6.5,40.2
			c10.1,7.3,23.6,7.3,33.7,0c0.5,4.1,4.2,6.9,8.3,6.4c3.7-0.5,6.4-3.6,6.5-7.3V21.7C265.7,17.6,262.4,14.3,258.3,14.3
			C258.3,14.3,258.3,14.3,258.3,14.3z M234.1,58.1c-7.7,0-13.9-6.3-13.9-14s6.3-13.9,14-13.9c7.7,0,13.9,6.3,13.9,14
			C248.1,51.8,241.9,58.1,234.1,58.1C234.1,58.1,234.1,58.1,234.1,58.1z"/>
		<path class="st0" d="M182.2,26.1c0-4.2-3.4-7.6-7.6-7.6s-7.6,3.4-7.6,7.6c0,0.3,0,0.6,0.1,0.9h-0.1v20.6
			c-0.2,5.8-5,10.4-10.9,10.2c-5.6-0.2-10-4.6-10.2-10.2v-6.1c0.1-4-3.2-7.4-7.2-7.4s-7.4,3.2-7.4,7.2l0,0l0,0v6.1
			c-0.3,14,10.9,25.7,24.9,25.9s25.7-10.9,25.9-24.9c0-0.3,0-0.7,0-1V26.7l0,0C182.2,26.5,182.2,26.3,182.2,26.1z"/>
		<path class="st0" d="M201.8,65.1c0,4.2-3.4,7.6-7.6,7.6l0,0c-4.2,0-7.6-3.4-7.6-7.6c0,0,0,0,0,0V25.6c0-4.2,3.4-7.6,7.6-7.6
			c0,0,0,0,0,0l0,0c4.2,0,7.6,3.4,7.6,7.6L201.8,65.1z"/>
		<path class="st0" d="M182.2,8.2c0,4.2-3.4,7.6-7.6,7.6c-4.2,0-7.6-3.4-7.6-7.6c0-4.2,3.4-7.6,7.6-7.6C178.8,0.6,182.2,4,182.2,8.2
			C182.2,8.1,182.2,8.2,182.2,8.2z"/>
		<path class="st0" d="M200,13.7c-2.3,2.3-6,2.3-8.3,0c0,0,0,0,0,0l0,0c-2.3-2.3-2.3-6,0-8.4l3.6-3.6c2.3-2.3,6-2.3,8.3,0
			c0,0,0,0,0,0l0,0c2.3,2.3,2.3,6,0,8.4L200,13.7z"/>
		<path class="st1" d="M88.7,32.8c2.8-2.6,6.5-4.1,10.3-4.2V15.4c-7.3,0.1-14.4,3-19.6,8.1L88.7,32.8z"/>
		<path class="st1" d="M78.8,24c-5.1,5.2-8,12.3-8.1,19.6h13.1c0.1-3.9,1.6-7.5,4.3-10.3L78.8,24z"/>
		<path class="st2" d="M99,59.4c-8.2-0.2-14.9-6.8-15.1-15H70.7c0.2,15.5,12.8,28,28.3,28.2V59.4z"/>
		<path class="st3" d="M99.7,15.4v13.2c5.7,0.1,10.8,3.3,13.4,8.4H96.3c-3.7,0.1-6.5,3.2-6.4,6.9c0.1,3.5,2.9,6.3,6.4,6.4h25
			c3.7,0,6.6-3,6.6-6.6C127.7,28.1,115.2,15.6,99.7,15.4z"/>
		
			<linearGradient id="SVGID_1_" gradientUnits="userSpaceOnUse" x1="99.69" y1="40.3262" x2="121.1903" y2="40.3262" gradientTransform="matrix(1 0 0 -1 0 103.2756)">
			<stop  offset="0" style="stop-color:#EA5C37"/>
			<stop  offset="1" style="stop-color:#EF803D"/>
		</linearGradient>
		<path class="st4" d="M121.2,59.9c0-3.6-2.9-6.6-6.5-6.6c-1.8,0-3.4,0.7-4.7,1.9l0,0c-2.8,2.6-6.5,4.1-10.3,4.2v13.2
			c7.3-0.1,14.4-3,19.6-8.1l0,0C120.5,63.3,121.2,61.6,121.2,59.9z"/>
	</g>
</g>
</svg>
