<svg xmlns="http://www.w3.org/2000/svg" viewBox="0 0 366.04 366.04"><defs><style>.cls-1{fill:#ffed00;}</style></defs><title>ploter</title><g id="Capa_2" data-name="Capa 2"><g id="Capa_1-2" data-name="Capa 1"><rect class="cls-1" width="366.04" height="366.04" rx="61.96" ry="61.96"/><path d="M106.5,268.25V157.79H85.06v84c10,1.72,10,1.72,9.63,8.15H67.11c-1.06-6.71-1.06-6.71,9.4-7.87V157.72H66.38c-.54,5.29,0,11.13-8.52,11-7.81-.14-11.16-2.06-10.8-10.54.62-14.53.06-29.11.18-43.67.09-10.94,5.6-16.63,16.63-16.65q118.95-.13,237.91,0c11.56,0,16.89,5.61,17,17.26.08,13.63.21,27.27-.1,40.89-.12,4.91,2.86,11.9-6.52,12.46-7.68.45-14.29.16-12-10.72H289.55v83.91c3.47,3,12.68-2.53,10,8.17H271.23c-.38-6.69-.38-6.69,9.66-7.35V157.91h-21.4V268.25Zm8-7.48H251.23V132.11H114.45ZM66.24,141.82h40.08V131.38c-11.09,0-21.8-.25-32.49.09C67.71,131.67,65.28,135.54,66.24,141.82Zm233.47.3c.93-6.66-1.53-10.47-7.65-10.65-10.68-.31-21.38-.09-32.23-.09v10.74Zm-231-23c1.8-13.8,1.79-13.82-6.08-12.67C61.55,119.49,61.55,119.49,68.72,119.14Zm11.33,1.07c1.24-15.2,1.24-15.2-6.94-13.3C75.21,111.27,68.8,119.52,80.05,120.21Zm10.59-13.87c-10.09.85-4.62,8.28-6,14.06C96.39,119.55,89.77,111.26,90.64,106.34Zm11.71-1.27c-11.95,1.2-4.42,9.48-6.78,14.07C103.63,119.46,103.63,119.46,102.35,105.07Z"/><path d="M118.47,242.39l42.91-38.75,13.56,11.58,24.86-31.89,45.79,59.06Z"/><path d="M173.72,172.23c-2.25,8.37-5.72,11.72-12,11.28-5.85-.42-8.89-4.07-8.68-9.89.23-6.44,4.33-10.16,10.25-8.88C167.13,165.57,170.26,169.62,173.72,172.23Z"/></g></g></svg>