<svg xmlns="http://www.w3.org/2000/svg" viewBox="0 0 366.04 366.04"><defs><style>.cls-1{fill:#ffed00;}.cls-2{fill:#fff;}</style></defs><title>rotulos</title><g id="Capa_2" data-name="Capa 2"><g id="Capa_1-2" data-name="Capa 1"><rect class="cls-1" width="366.04" height="366.04" rx="61.96" ry="61.96"/><path d="M95,126.71v183H157.5V282.15h51v27.57H271v-183Zm121.11,10H249.3V156H216.14Zm0,29.92H249.3V186H216.14Zm0,29.91H249.3v19.36H216.14Zm-49.7-59.83H199.6V156H166.44Zm0,29.92H199.6V186H166.44Zm0,29.91H199.6v19.36H166.44Zm-49.71-59.83H149.9V156H116.73Zm0,29.92H149.9V186H116.73Zm0,29.91H149.9v19.36H116.73ZM249.3,273.93H116.73V242.86H249.3Z"/><path d="M168.83,106.2a19.59,19.59,0,0,0-8.21-7.62,23.19,23.19,0,0,0,11-8.09,20.48,20.48,0,0,0,4-12.35A22.83,22.83,0,0,0,169.37,62q-6.3-6.75-18.41-6.75a27.57,27.57,0,0,0-19.9,7.8,29.14,29.14,0,0,0-5.91,8.62l-1.66-1.34-7.17,1.24,6.4,6.41,15.71,3.11q1.74-6.58,4.68-9.32A9.53,9.53,0,0,1,149.77,69a8.57,8.57,0,0,1,6.38,2.46,9.14,9.14,0,0,1,2.43,6.72q0,6-3.6,9.5t-10.49,3.51a13.17,13.17,0,0,1-1.74-.12l-1.16,5.53-1.29-1-7,3.38,6.4,6.41a16.8,16.8,0,0,1,2.76-.24,11.28,11.28,0,0,1,8.39,3.14,11.62,11.62,0,0,1,3.12,8.55A13.91,13.91,0,0,1,150.16,127a13.06,13.06,0,0,1-9.75,4,9.53,9.53,0,0,1-7.1-2.7q-2.67-2.7-3.69-9.71l-6.4-6.41-5.7,6.84.86.92-5.25.63q1.56,11.68,8.78,18.07T140.29,145a30.32,30.32,0,0,0,24.28-11.15,27.09,27.09,0,0,0,6.9-17.87A19.57,19.57,0,0,0,168.83,106.2Z"/><path d="M257.93,79.9A35.87,35.87,0,0,0,254,70.1,29.79,29.79,0,0,0,248,62.82a26.82,26.82,0,0,0-7.8-4.71,36.57,36.57,0,0,0-9.74-2.22q-2.76-.3-12.65-.3H194.07l-16.45,78.59-8.36,2.91,6.41,6.4h31q11.7,0,17.33-1.32a41.17,41.17,0,0,0,16.25-7.43,49.92,49.92,0,0,0,13.64-17.48,56.26,56.26,0,0,0,5.43-25.21A50.31,50.31,0,0,0,257.93,79.9Zm-20.45,30.67a38.69,38.69,0,0,1-9,13,20.11,20.11,0,0,1-8.18,4.59q-4.47,1.23-14.42,1.23h-9.18L209.06,70.1h10.5q8,0,11.09,1.08a14.69,14.69,0,0,1,7.46,6.27q3,4.69,3,14.06A45.9,45.9,0,0,1,237.48,110.57Z"/><path class="cls-2" d="M106.73,114.12l16.49-2q1,7,3.68,9.72a9.55,9.55,0,0,0,7.11,2.7,13,13,0,0,0,9.74-4,13.89,13.89,0,0,0,3.87-10.13,11.62,11.62,0,0,0-3.12-8.55,11.28,11.28,0,0,0-8.39-3.15,16.8,16.8,0,0,0-2.76.24l3-14.33a13.17,13.17,0,0,0,1.74.12q6.89,0,10.49-3.5t3.6-9.51a9.14,9.14,0,0,0-2.43-6.71,8.58,8.58,0,0,0-6.39-2.46,9.51,9.51,0,0,0-6.65,2.73q-2.94,2.73-4.68,9.32l-15.71-3.12q3-9.7,8.34-14.93a27.61,27.61,0,0,1,19.9-7.79q12.12,0,18.41,6.74a22.85,22.85,0,0,1,6.29,16.16,20.5,20.5,0,0,1-4,12.35,23.12,23.12,0,0,1-11,8.1,19.29,19.29,0,0,1,10.86,17.39,27,27,0,0,1-6.9,17.86,30.3,30.3,0,0,1-24.28,11.16q-11.16,0-18.38-6.39T106.73,114.12Z"/><path class="cls-2" d="M169.26,137.09l18.41-87.9h23.68q9.9,0,12.66.3a36.57,36.57,0,0,1,9.74,2.22,26.83,26.83,0,0,1,7.79,4.7,29.66,29.66,0,0,1,6.06,7.29,35.87,35.87,0,0,1,3.93,9.8,50.28,50.28,0,0,1,1.38,12.14,56.28,56.28,0,0,1-5.43,25.22,49.91,49.91,0,0,1-13.64,17.47,41.1,41.1,0,0,1-16.25,7.44q-5.64,1.32-17.33,1.32Zm21.05-14.15h9.17q10,0,14.42-1.23a20.08,20.08,0,0,0,8.19-4.59,38.94,38.94,0,0,0,9-13,46,46,0,0,0,3.66-19.07q0-9.34-3-14.06a14.76,14.76,0,0,0-7.46-6.26q-3.12-1.08-11.1-1.08H202.66Z"/></g></g></svg>