<svg xmlns="http://www.w3.org/2000/svg" viewBox="0 0 366.04 366.04"><defs><style>.cls-1{fill:#ffed00;}</style></defs><title>vallas</title><g id="Capa_2" data-name="Capa 2"><g id="Capa_1-2" data-name="Capa 1"><rect class="cls-1" width="366.04" height="366.04" rx="61.96" ry="61.96"/><path d="M202.56,296.72c4.21,0,8.28.08,12.34,0,1.68-.05,2.25.43,2.21,2.15-.12,4.42,0,8.85,0,13.43H149c0-4.88,0-9.65.07-14.42,0-.39,1-1.06,1.57-1.08,3.5-.1,7,0,10.52,0h2.39V199.39H59.87c0-1.35-.08-2.41,0-3.44.16-1.56-.52-2-2-1.92-1.85.1-3.71,0-5.72,0V53.76H313.83V194.05c-1.86,0-3.76.1-5.65,0-1.6-.11-2.24.44-2.06,2.05a30,30,0,0,1,0,3.17H202.56Zm-24-115.33c.59-2.35.39-4.09-2-5.08a6.52,6.52,0,0,1-2-1.87,11,11,0,0,1,1.35-15.69,11.13,11.13,0,0,1,16,1.91c3.77,5,2.69,12.49-2.57,15.66-2.19,1.32-2.43,2.81-2,5h83.51c.45-2.31.07-3.83-2.11-5.08a10.63,10.63,0,0,1-3.59-4.37c-2.66-5.13-.43-11.48,4.81-14.32a11.22,11.22,0,0,1,14.69,3.93c3.12,5.16,1.81,12-3.19,14.94-2.24,1.32-2.43,2.83-1.86,5h26v-2.63q0-57,.05-114c0-2.12-.45-2.77-2.7-2.77q-120,.09-240,0c-2,0-2.66.47-2.65,2.58q.09,57.21,0,114.42v2.3H83.27c.47-2.35.13-3.87-2.08-5.28-3.46-2.21-5-5.77-4.62-10a11.23,11.23,0,0,1,9.53-9.9A11.11,11.11,0,0,1,94,176.28c-2.36,1.51-2.54,2.07-1.69,5.11Z"/><path d="M141.68,146.66c-5.17,0-9.89.06-14.6-.07a2.67,2.67,0,0,1-1.77-1.59q-1.94-5.46-3.56-11a2,2,0,0,0-2.22-1.69q-11.28.08-22.55,0a1.85,1.85,0,0,0-2.12,1.54c-1.14,3.76-2.48,7.46-3.64,11.22a2,2,0,0,1-2.29,1.64c-4.41-.07-8.82,0-13.57,0,1.43-4,2.73-7.73,4-11.42Q89.54,106.88,99.64,78.5a2.38,2.38,0,0,1,2.72-1.93c4.78.11,9.57,0,14.53,0C125.12,99.88,133.34,123.1,141.68,146.66Zm-24.42-26.6-8.58-26.71-.44,0c-2.91,8.84-5.82,17.67-8.81,26.73Z"/><path d="M182.85,76.67c4.45,0,8.51,0,12.57.06.42,0,.92.76,1.2,1.27.18.33,0,.84,0,1.27v67.25H183.51v-6.77c-.64.74-1,1.07-1.22,1.44-6.48,9.47-20.37,8.62-27.37,2.26-6.34-5.75-8.68-13.13-8.72-21.36,0-6.42,1-12.67,4.36-18.34,5.23-8.93,15.15-11.66,23.71-9.18,3.48,1,6.07,3.35,8.58,6.62Zm1,44.55c-1-3.55-1.62-7-3-10.14-1.68-3.7-5-5.59-9.17-5.58s-7.51,1.7-9.32,5.63a23.88,23.88,0,0,0-.33,19.53c1.61,4.05,4.85,6.1,9.19,6.18s8-1.47,9.77-5.6C182.29,128.09,182.9,124.63,183.86,121.22Z"/></g></g></svg>